<svg width="1920" height="593" viewBox="0 0 1920 593" fill="none" xmlns="http://www.w3.org/2000/svg">
<rect width="1920" height="593" fill="#F4F7F9"/>
<mask id="mask0" mask-type="alpha" maskUnits="userSpaceOnUse" x="0" y="0" width="1920" height="593">
<rect width="1920" height="593" fill="white"/>
</mask>
<g mask="url(#mask0)">
<g opacity="0.5">
<path fill-rule="evenodd" clip-rule="evenodd" d="M1077.6 116C1078.4 117.2 1079.2 118.4 1080.4 119.6C1091.6 130.8 1103.2 142.4 1114.4 153.6C1116.8 156 1119.2 157.6 1122.4 158.4C1138 162.4 1153.6 166.8 1169.2 170.8C1170.8 171.2 1172 171.6 1173.6 172C1172 177.6 1170.8 183.2 1169.2 188.4C1166 200.4 1162.8 212.4 1159.6 224C1158.8 226.4 1158.8 228.4 1159.6 230.8C1164 246.8 1168.4 262.8 1172.4 278.8C1172.8 280 1173.2 281.6 1173.6 283.2C1172 283.6 1170.8 284 1169.2 284.4C1153.2 288.8 1137.2 293.2 1121.2 297.2C1118.8 298 1116.8 299.2 1114.8 300.8C1103.2 312.4 1091.6 324 1080 335.6C1078.8 336.8 1078 337.6 1076.4 338.8C1075.2 337.6 1074 336.4 1072.8 335.6C1061.2 324 1049.6 312.4 1038 300.8C1036.4 298.8 1034.4 298 1031.6 297.2C1015.6 293.2 999.6 288.8 983.6 284.4C982.4 284 981.2 283.6 979.2 283.2C979.6 281.6 980 280 980.4 278.8C984.8 262.8 988.8 246.8 993.2 230.8C994 228.4 994 226.8 993.2 224.4C988.8 208.4 984.4 192.4 980.4 176.4C980 175.2 979.6 173.6 979.2 172C980.8 171.6 982.4 170.8 984 170.4C999.6 166 1015.6 162 1031.2 158C1033.6 157.2 1035.6 156.4 1037.6 154.4C1049.2 142.8 1060.8 131.2 1072.4 119.6C1073.6 118.4 1074 117.2 1075.2 116C1076.4 115.6 1077.2 116 1077.6 116ZM1076.8 121.6C1075.6 122.8 1074.4 123.6 1073.2 124.8C1062 136 1051.2 146.8 1040 158C1038.4 159.6 1036.4 160.8 1034 161.2C1018.8 165.2 1003.6 169.2 988.4 173.6C987.2 174 986 174.4 984.4 174.8C984.8 176.8 985.2 178 985.6 179.6C989.6 194.8 993.6 209.6 997.6 224.8C998 226.8 998 228.4 997.6 230.4C993.6 245.6 989.6 260.4 985.6 275.6C985.2 277.2 984.8 278.8 984.4 280.8C986.4 281.2 988 282 989.2 282.4C1004 286.4 1019.2 290.4 1034 294.4C1036.4 295.2 1038.4 296 1040 297.6C1051.2 308.8 1062 319.6 1073.2 330.8C1074.4 332 1075.2 332.8 1076.8 334C1078 332.8 1079.2 332 1080.4 330.8C1091.6 319.6 1102.4 308.8 1113.6 297.6C1115.2 296 1117.2 294.8 1119.6 294C1134.4 290 1149.6 286 1164.4 282C1166 281.6 1167.6 281.2 1169.2 280.4C1168.8 278.4 1168.4 276.8 1168 275.2C1164 260 1160 245.2 1156 230C1155.6 228 1155.6 226.4 1156 224.4C1160 209.2 1164 194.4 1168 179.2C1168.4 177.6 1168.8 176 1169.2 174.4C1167.6 174 1166.4 173.6 1165.2 173.2C1150 169.2 1134.8 164.8 1119.6 160.8C1117.2 160 1115.2 159.2 1113.6 157.6C1102.4 146.4 1091.6 135.6 1080.4 124.4C1079.2 123.6 1078 122.8 1076.8 121.6Z" fill="white"/>
<path fill-rule="evenodd" clip-rule="evenodd" d="M1287.2 461.2C1285.2 459.2 1284 458.4 1283.2 457.2C1271.6 445.6 1260 434 1248.8 422.4C1246.8 420.4 1244.8 419.2 1242.4 418.4C1226.4 414.4 1210.4 410 1194.4 405.6C1193.2 405.2 1192 404.8 1190.4 404.4C1191.2 400.8 1192 397.6 1193.2 394.4C1196.8 380.8 1200.4 366.8 1204.4 353.2C1205.2 350 1205.2 347.2 1204.4 344C1200 328.4 1196 312.8 1191.6 297.2C1191.2 296 1190.8 294.4 1190.4 292.8C1192 292.4 1193.6 292 1195.2 291.2C1210.8 286.8 1226.8 282.8 1242.4 278.4C1245.2 277.6 1247.2 276.4 1249.2 274.4C1260.8 262.8 1272.4 251.2 1283.6 239.6C1284.8 238.4 1285.6 237.6 1287.2 236.4C1288.4 237.6 1289.6 238.4 1290.8 239.6C1302.4 251.2 1314 262.8 1325.2 274.4C1327.2 276.4 1329.6 278 1332.4 278.4C1348 282.4 1364 286.8 1379.6 290.8C1380.8 291.2 1382 291.6 1384 292C1383.6 293.6 1383.2 294.8 1382.8 296.4C1378.4 312.4 1374.4 328.4 1370 344.4C1369.2 346.8 1369.2 349.2 1370 351.6C1374.4 367.6 1378.4 383.2 1382.8 399.2C1383.2 400.8 1383.6 402 1384 403.6C1382.4 404 1381.2 404.4 1380 404.8C1364 409.2 1347.6 413.6 1331.6 417.6C1329.2 418.4 1327.2 419.2 1325.6 421.2C1314 432.8 1302.4 444.4 1290.8 456C1289.2 458 1288.4 459.6 1287.2 461.2ZM1378.8 402C1378.4 400 1378 398.4 1377.6 396.8C1373.6 382 1369.6 366.8 1365.6 352C1364.8 350 1364.8 348 1365.6 345.6C1369.6 330.4 1373.6 315.6 1377.6 300.4C1378 298.8 1378.4 297.2 1378.8 295.6C1377.2 295.2 1376 294.8 1374.4 294.4C1359.6 290.4 1344.4 286.4 1329.6 282.4C1326.8 281.6 1324.8 280.4 1322.8 278.4C1312 267.2 1300.8 256.4 1290 245.6C1288.8 244.4 1288 243.6 1286.8 242.4C1285.6 243.6 1284.4 244.8 1283.2 245.6C1272.4 256.4 1261.6 267.2 1250.8 278C1248.8 280 1246.8 281.2 1244 282C1228.8 286 1213.2 290 1198 294.4C1196.8 294.8 1196 295.2 1194.8 295.6C1195.2 297.6 1195.6 298.8 1196 300.4C1200 315.2 1204 330.4 1208 345.2C1208.8 347.2 1208.8 349.2 1208 351.6C1204 366.8 1200 381.6 1196 396.8C1195.6 398.4 1195.2 400 1194.8 401.6C1196.8 402 1198 402.4 1199.6 402.8C1214.4 406.8 1229.6 410.8 1244.4 414.8C1246.8 415.6 1248.8 416.4 1250.8 418.4C1262 429.6 1272.8 440.4 1284 451.6C1285.2 452.8 1286 453.6 1288 455.2C1289.2 453.6 1289.6 452.4 1290.8 451.2C1302 440 1312.8 429.2 1324 418C1325.6 416.4 1327.2 415.2 1329.6 414.8C1337.6 412.8 1345.6 410.4 1354 408.4C1361.6 406.8 1370 404.4 1378.8 402Z" fill="white"/>
<path fill-rule="evenodd" clip-rule="evenodd" d="M1145.2 267.2C1140.8 268.4 1136.4 269.6 1132.4 270.8C1124.8 272.8 1117.2 274.8 1109.6 276.8C1106.8 277.6 1104.8 278.8 1102.8 280.4C1095.2 288 1087.6 295.6 1080 303.2C1078.8 304.4 1078 305.6 1076.8 307.2C1075.2 305.6 1074 304.8 1072.8 303.6C1065.2 296 1057.2 288 1049.6 280.4C1048 278.8 1046 277.6 1043.6 276.8C1032.8 274 1022 271.2 1011.6 268.4C1010.4 268 1009.2 267.6 1008 267.2C1008 266 1008.4 264.8 1008.4 264C1011.2 253.2 1014.4 242 1017.2 231.2C1018 228.8 1018 226.8 1017.2 224.8C1014.4 214 1011.6 203.2 1008.4 192.8C1008 191.6 1008 190.4 1007.6 188.8C1014.4 186.8 1020.8 185.2 1027.2 183.6C1032.8 182 1038 180.8 1043.6 179.2C1046 178.8 1048 177.6 1049.6 176C1057.2 168 1065.2 160.4 1072.8 152.8C1073.6 152 1074.4 150.8 1075.6 149.2C1077.2 150.8 1078.4 151.6 1079.2 152.4C1086.8 160 1094.8 168 1102.4 175.6C1104.4 177.6 1106.8 178.8 1109.2 179.6C1119.6 182.4 1130 185.2 1140 188C1141.2 188.4 1142.8 188.8 1144 189.2C1144 190.4 1143.6 191.2 1143.6 192.4C1140.8 202.4 1138.4 212.8 1135.2 222.8C1134 226.8 1134 230 1135.2 234C1138 244 1140.4 254 1143.2 263.6C1144.8 264.4 1144.8 265.6 1145.2 267.2ZM1076.4 153.6C1075.2 155.2 1074.4 156.4 1073.2 157.6C1066.4 164.8 1059.2 171.6 1052.4 178.4C1050.8 180 1048.8 181.2 1046.4 181.6C1036.4 184 1026.4 186.8 1016.8 189.6C1015.6 190 1014.4 190.4 1013.2 190.8C1013.6 192.4 1014 193.6 1014.4 195.2C1017.2 205.2 1019.6 214.8 1022 224.8C1022.4 226.4 1022.4 228.8 1022 230.4C1019.6 240.4 1016.8 250.4 1014 260.4C1013.6 261.6 1013.6 262.8 1013.2 264.4C1015.2 264.8 1016.4 265.2 1018 265.6C1027.6 268 1037.2 270.8 1046.4 273.2C1048.8 274 1050.8 274.8 1052.4 276.4C1059.6 283.6 1066.8 290.8 1074 298C1074.8 298.8 1076 300 1077.2 300.8C1078.4 299.6 1079.2 298.8 1080.4 298C1087.6 290.8 1094.8 283.6 1102 276.4C1103.6 274.8 1105.2 273.6 1107.6 273.2C1117.2 270.8 1126.8 268 1136 265.6C1137.6 265.2 1139.2 264.8 1140.8 264C1140.4 262.4 1140 261.2 1140 259.6C1137.6 250.4 1135.2 241.2 1132.8 232.4C1132 228.8 1131.6 226 1132.8 222.4C1135.6 213.2 1138 204 1140.4 194.8C1140.8 193.6 1140.8 192.4 1141.2 190.8C1139.6 190.4 1138.4 190 1137.2 189.6C1127.6 186.8 1117.6 184.4 1108 181.6C1105.6 180.8 1104 180 1102 178C1095.2 170.8 1088 164 1081.2 157.2C1079.2 156.4 1078 155.6 1076.4 153.6Z" fill="white"/>
<path fill-rule="evenodd" clip-rule="evenodd" d="M1218 388C1220.4 378.8 1222.4 369.6 1225.2 360.8C1228 352.4 1228 344.4 1225.2 336C1222.4 328.4 1220.8 320 1218.8 312.4C1218.4 311.2 1218.4 310.4 1218 308.8C1220.4 308 1222.4 307.2 1224.8 306.8C1234.4 304.4 1244 301.6 1253.6 299.2C1256 298.4 1258 297.6 1260 295.6C1267.6 287.6 1275.6 280 1283.2 272.4C1284 271.6 1285.2 270.4 1286.4 269.6C1287.6 270.8 1288.4 271.6 1289.6 272.4C1297.2 280 1304.8 287.6 1312.4 295.2C1314.4 297.6 1316.8 298.8 1320 299.6C1330.4 302.4 1340.8 305.2 1351.2 308C1352.4 308.4 1353.6 308.8 1354.8 309.2C1354.4 310.4 1354.4 311.6 1354 312.8C1351.2 323.6 1348.4 334.4 1345.2 344.8C1344.4 347.2 1344.4 349.6 1345.2 352C1348 362.8 1350.8 373.6 1354 384C1354.4 385.2 1354.4 386.4 1354.8 387.6C1353.6 388 1352.4 388.4 1351.2 388.8C1340.4 391.6 1330 394.8 1319.2 397.6C1316.8 398.4 1314.8 399.2 1312.8 401.2C1305.2 409.2 1297.2 416.8 1289.6 424.4C1288.8 425.2 1287.6 426.4 1286.4 427.2C1285.2 426.4 1284.4 425.6 1283.6 424.8C1275.6 416.8 1268 409.2 1260 401.2C1258.4 399.2 1256.4 398 1253.6 397.6C1242.8 394.8 1232 392 1221.6 388.8C1220.8 389.2 1219.6 388.8 1218 388ZM1350.4 385.6C1350 384 1349.6 382.8 1349.6 381.6C1346.8 371.6 1344.4 362 1341.6 352.4C1340.8 350 1340.8 348 1341.6 345.6C1344.4 335.6 1346.8 325.6 1349.6 316C1350 314.8 1350 313.6 1350.4 312.4C1349.2 312 1348.4 311.6 1348 311.6C1338 308.8 1328 306 1318 303.6C1315.2 302.8 1313.2 302 1311.2 300C1304.4 292.8 1297.2 286 1290.4 279.2C1289.2 278 1288.4 277.2 1286.8 276C1285.6 277.2 1284.4 278.4 1283.2 279.2C1276 286.4 1269.2 293.2 1262 300.4C1260.4 302 1258.8 303.2 1256.4 303.6C1248.8 305.6 1241.6 307.6 1234 309.6C1230.4 310.4 1226.8 311.6 1222.8 312.8C1223.2 314.4 1223.6 315.6 1223.6 316.8C1226.4 326.8 1228.8 336.8 1231.6 346.4C1232 348.4 1232 350.4 1231.6 352.4C1228.8 362.4 1226.4 372.4 1223.6 382C1223.2 383.2 1223.2 384.4 1222.8 386C1224.4 386.4 1225.6 386.8 1227.2 387.2C1236.8 389.6 1246.4 392.4 1256 394.8C1258.4 395.6 1260.4 396.4 1262 398C1269.2 405.2 1276.4 412.4 1283.6 420C1284.4 420.8 1285.2 421.6 1286.4 422.4C1287.6 421.2 1288.4 420.4 1289.6 419.6C1296.8 412.4 1304 405.2 1311.2 398C1312.8 396.4 1314.4 395.2 1316.8 394.8C1325.6 392.4 1334.4 390 1343.6 387.6C1345.6 386.8 1348 386.4 1350.4 385.6Z" fill="white"/>
<path fill-rule="evenodd" clip-rule="evenodd" d="M1076.8 276.8C1074 274 1071.2 271.2 1068.4 268.8C1065.2 265.6 1062 261.6 1058.4 259.2C1054.8 257.2 1050 256.4 1045.6 255.2C1042 254.4 1038.4 253.2 1034.4 252.4C1034.8 250.8 1034.8 249.6 1035.2 248.4C1036.8 242.4 1038.4 236.4 1040 230.4C1040.4 228.8 1040.4 226.8 1040 225.2C1038.4 219.2 1036.8 213.6 1035.2 207.6C1034.8 206.4 1034.4 204.8 1034.4 203.6C1036 203.2 1037.6 202.4 1039.2 202C1044.8 200.4 1050 199.2 1055.6 197.6C1058 197.2 1060 196 1061.6 194C1066.4 189.2 1071.2 184.4 1076 179.6C1076 179.6 1076.4 179.2 1076.8 179.2C1077.6 179.6 1078.4 180.4 1079.2 181.2C1083.6 185.6 1088 190 1092.4 194.4C1094 196 1095.6 197.2 1098 197.6C1104 199.2 1110 200.8 1116.4 202.4C1117.2 202.8 1118 203.2 1119.2 203.6C1117.6 210 1116 216.4 1114 222.4C1112.8 226.4 1112.8 229.6 1114 233.6C1116 239.6 1117.2 245.6 1118.8 252C1117.2 252.4 1116 252.8 1114.8 253.2C1109.6 254.8 1104.4 256 1098.8 257.6C1095.6 258.4 1093.2 259.6 1090.8 262C1087.2 266 1083.2 270 1079.2 273.6C1078.8 274.8 1078 275.6 1076.8 276.8ZM1038.8 206C1038.8 207.2 1039.2 208 1039.2 208.8C1040.4 214 1041.6 218.8 1043.2 224C1044 226.8 1044 229.2 1043.2 232C1041.6 237.6 1040 243.6 1038.4 249.6C1039.6 250 1040.4 250.4 1041.2 250.8C1046.4 252 1051.2 253.6 1056.4 254.8C1059.2 255.6 1061.2 256.8 1063.2 258.8C1066.8 262.4 1070.4 266 1074 269.6C1074.8 270.4 1075.6 270.8 1076.8 272C1081.2 267.6 1085.6 263.2 1090 258.8C1091.6 256.8 1093.6 256 1096.4 255.2C1101.6 254 1106.4 252.4 1111.6 251.2C1112.4 250.8 1113.6 250.4 1114.8 250C1114 246.8 1113.2 244 1112.4 241.2C1111.2 237.2 1109.2 232.8 1109.2 228.8C1109.2 224.4 1111.2 220.4 1112 216C1112.8 212.8 1113.6 210 1114.4 206.8C1109.6 205.6 1105.2 204 1100.8 203.2C1094.8 202 1090 199.6 1086.4 194.8C1083.6 191.2 1080 188.4 1076.4 184.8C1072.8 188.4 1069.6 191.2 1066.4 194.8C1062.4 199.6 1057.6 202.4 1051.6 203.2C1047.6 203.2 1043.6 204.8 1038.8 206Z" fill="white"/>
<path fill-rule="evenodd" clip-rule="evenodd" d="M1244 324C1245.6 323.6 1247.2 322.8 1248.4 322.4C1254 320.8 1259.6 319.2 1265.2 318C1267.6 317.6 1269.6 316.4 1271.2 314.4C1276 309.2 1281.2 304.4 1286.4 299.2C1287.2 300 1288.4 300.4 1288.8 301.2C1293.2 305.6 1297.6 310 1302 314.4C1303.6 316 1305.2 317.2 1307.6 317.6C1314 319.2 1320 320.8 1326.4 322.4C1327.2 322.8 1328 322.8 1329.2 323.2C1328 327.2 1327.6 331.6 1326 335.6C1322.8 343.6 1322.8 351.6 1326 360C1327.6 364 1328 368 1329.2 372C1328 372.4 1326.8 372.8 1325.6 373.2C1319.6 374.8 1313.6 376.4 1307.6 378C1305.2 378.4 1303.6 379.6 1302 381.2C1298 385.6 1293.6 389.6 1289.6 393.6C1288.8 394.4 1287.6 395.6 1286.4 396.8C1284 394.4 1281.6 392 1278.8 389.6C1275.2 386 1272 381.6 1267.6 379.2C1263.6 376.8 1258.4 376.4 1253.6 375.2C1250.4 374.4 1247.2 373.6 1244 372.4C1244.4 370.8 1244.4 369.6 1244.8 368.4C1246.4 362.4 1248 356.4 1249.6 350.4C1250 348.4 1250 346.8 1249.6 344.8C1248 338.8 1246.4 333.2 1244.8 327.2C1244.8 327.2 1244.4 325.6 1244 324ZM1248.4 326.8C1250 333.2 1251.6 339.2 1253.2 345.2C1254 347.6 1254 350 1253.2 352.4C1251.6 357.6 1250.4 362.8 1248.8 368.4C1248.4 369.2 1248.8 370 1248.8 371.2C1255.2 372.8 1261.2 374.8 1267.2 376C1269.2 376.4 1270.8 377.2 1272 378.8C1275.6 382.4 1279.2 386 1282.8 389.6C1284 390.8 1284.8 391.6 1286.4 392.8C1291.2 388 1295.6 383.6 1300 379.2C1301.6 377.6 1303.2 376.4 1305.6 376C1310.4 374.8 1315.6 373.6 1320.4 372C1321.6 371.6 1322.8 371.2 1324.4 370.8C1322.8 364.4 1321.2 358 1319.2 352C1318.8 350 1318.8 348.4 1319.2 346.4C1320.8 341.6 1322 336.8 1323.2 331.6C1323.6 330 1324 328.8 1324.4 327.2C1318 325.6 1312 323.6 1305.6 322.4C1303.2 322 1301.6 320.8 1300 319.2C1296.8 315.6 1293.2 312 1289.6 308.8C1288.4 307.6 1287.6 306.8 1286 305.6C1281.2 310.4 1277.2 314.8 1272.8 319.2C1271.2 321.2 1269.2 322 1266.4 322.8C1260.8 323.2 1254.8 324.8 1248.4 326.8Z" fill="white"/>
<path fill-rule="evenodd" clip-rule="evenodd" d="M1093.6 237.6C1086.8 238.4 1081.2 241.2 1076.8 247.6C1072.4 241.6 1067.2 238.4 1060 238C1060.8 234.4 1062 231.6 1062 228.4C1062 225.2 1060.8 222.4 1060 218.8C1063.2 218 1066.4 217.2 1069.2 215.6C1072 214 1074 211.6 1076.4 209.2C1078.8 211.6 1080.8 214 1083.6 215.6C1086.4 217.2 1089.6 217.6 1092.8 218.8C1092 222 1090.8 225.2 1090.8 228.4C1091.2 230.8 1092.4 234 1093.6 237.6ZM1064.4 234.8C1069.6 235.2 1073.6 238 1076.8 242C1079.6 237.6 1084 236 1088.8 234.8C1086.8 230 1087.2 225.6 1088.8 221.2C1083.6 220.8 1080 218 1076.4 214.4C1073.6 218.8 1069.6 220.8 1064.4 221.6C1066.4 225.6 1066.8 229.6 1064.4 234.8Z" fill="white"/>
<path fill-rule="evenodd" clip-rule="evenodd" d="M1286.8 329.2C1290.8 335.2 1296.4 338 1303.2 338.8C1302.4 342.4 1301.2 345.6 1301.2 348.8C1301.2 352 1302.4 354.8 1303.2 358.4C1296.8 359.6 1290.8 362 1286.8 368.4C1284 366 1282 363.2 1279.2 361.6C1276.4 360 1273.2 359.6 1269.6 358.4C1270.4 355.2 1271.6 352 1271.6 348.8C1271.6 345.6 1270.4 342.8 1269.6 339.6C1272.8 338.4 1276.4 338 1279.2 336.4C1282 334.4 1284 332 1286.8 329.2ZM1298.8 356C1296.8 350.8 1296.8 346.4 1298.8 342C1293.6 341.2 1290 338.8 1286.8 335.2C1284.8 337.2 1283.6 338.8 1281.6 340C1279.6 341.2 1277.2 341.6 1274.8 342.4C1276.8 346.8 1276.4 351.6 1274.8 356.4C1280 356.8 1283.6 359.2 1286.8 363.2C1289.6 358.8 1293.6 356.4 1298.8 356Z" fill="white"/>
</g>
<g opacity="0.5">
<path fill-rule="evenodd" clip-rule="evenodd" d="M531 289C534.2 277 537.4 265.4 540.2 254.2C541.8 248.2 543.4 242.2 545 236.2C545.4 234.2 545.4 232.2 545 230.2C540.6 214.2 536.2 197.8 532.2 181.8C531.8 180.2 531.4 179 531 177.4C534.6 176.2 538.2 175.4 541.4 174.6C555 171 569 167.4 582.6 163.4C585.4 162.6 587.4 161.4 589.4 159.4C601 147.8 612.6 136.2 623.8 124.6C625 123.4 625.8 122.2 626.6 121C628.2 122.6 629.4 123.4 630.6 124.6C642.2 136.2 654.2 148.2 665.8 159.8C667.4 161.4 669.4 162.6 671.8 163.4C687.8 167.8 703.8 171.8 719.8 176.2C721.4 176.6 722.6 177 724.2 177.4C723.4 181 722.6 184.2 721.4 187.8C717.8 201.8 713.8 216.2 709.8 230.2C709.4 232.2 709 234.2 709.8 236.6C714.2 252.6 718.6 269 722.6 285C723 286.2 723.4 287.8 723.8 289.4C722.6 289.8 721.4 290.2 720.2 290.6C704.2 295 687.8 299.4 671.8 303.4C669 304.2 667 305.4 665 307.4C653.8 319 642.2 330.2 630.6 341.8C629.4 343 628.6 344.2 627.4 345.8C625.8 344.2 624.6 343.4 623.4 342.2C611.8 330.6 599.8 318.6 588.2 307C586.2 305 584.6 304.2 581.8 303.4C565.8 299 549.8 295 533.8 290.6C534.2 290.2 532.6 289.8 531 289ZM628.6 126.2C626.6 128.2 625.4 129 624.6 130.2C613.8 141 603 151.8 592.2 162.6C589.8 165 587.4 166.2 584.6 167C569.4 171 554.2 175 539 179.4C537.8 179.8 537 180.2 535.8 180.6C536.2 182.2 536.6 183.4 536.6 184.6C540.6 199.4 544.6 213.8 548.6 228.6C549.4 231.8 549.4 235 548.6 238.2C544.6 253 540.6 267.4 536.6 282.2C536.2 283.8 535.8 285 535.4 286.6C537.4 287 538.6 287.4 540.2 287.8C555.4 291.8 570.2 295.8 585.4 299.8C587.8 300.6 589.4 301.4 591.4 303.4C602.6 314.6 613.4 325.4 624.6 336.6C625.8 337.8 626.6 338.6 627.8 339.8C629 338.6 630.2 337.4 631.4 336.6C642.2 325.8 653.4 314.6 664.2 303.8C665.8 301.8 667.8 300.6 670.6 300.2C685.8 296.2 700.6 292.2 715.8 288.2C717.4 287.8 718.6 287.4 720.2 287C719.8 285.4 719.4 283.8 719.4 282.6C715.4 267.8 711.8 253.4 707.4 238.6C706.6 235 706.6 232.2 707.4 228.6C711.4 214.2 715.4 199.4 719 185C719.4 183.4 719.8 182.2 720.2 180.6C718.6 180.2 717.4 179.8 716.2 179.4C701.4 175.4 686.6 171.4 671.8 167.4C668.6 166.6 666.2 165 663.8 162.6C653.4 151.8 642.6 141.4 631.8 130.6C630.6 129 629.8 127.8 628.6 126.2Z" fill="white"/>
<path fill-rule="evenodd" clip-rule="evenodd" d="M838.6 243C839.4 244.2 840.2 245.4 841.4 246.6C852.6 257.8 864.2 269.4 875.4 280.6C877.8 283 880.2 284.6 883.4 285.4C899 289.4 914.6 293.8 930.2 297.8C931.8 298.2 933 298.6 934.6 299C933 304.6 931.8 310.2 930.2 315.4C927 327.4 923.8 339.4 920.6 351C919.8 353.4 919.8 355.4 920.6 357.8C925 373.8 929.4 389.8 933.4 405.8C933.8 407 934.2 408.6 934.6 410.2C933 410.6 931.8 411 930.2 411.4C914.2 415.8 898.2 420.2 882.2 424.2C879.8 425 877.8 426.2 875.8 427.8C864.2 439.4 852.6 451 841 462.6C839.8 463.8 839 464.6 837.4 465.8C836.2 464.6 835 463.4 833.8 462.6C822.2 451 810.6 439.4 799 427.8C797.4 425.8 795.4 425 792.6 424.2C776.6 420.2 760.6 415.8 744.6 411.4C743.4 411 742.2 410.6 740.2 410.2C740.6 408.6 741 407 741.4 405.8C745.8 389.8 749.8 373.8 754.2 357.8C755 355.4 755 353.8 754.2 351.4C749.8 335.4 745.4 319.4 741.4 303.4C741 302.2 740.6 300.6 740.2 299C741.8 298.6 743.4 297.8 745 297.4C760.6 293 776.6 289 792.2 285C794.6 284.2 796.6 283.4 798.6 281.4C810.2 269.8 821.8 258.2 833.4 246.6C834.6 245.4 835 244.2 836.2 243C837.4 242.6 838.2 243 838.6 243ZM837.8 248.6C836.6 249.8 835.4 250.6 834.2 251.8C823 263 812.2 273.8 801 285C799.4 286.6 797.4 287.8 795 288.2C779.8 292.2 764.6 296.2 749.4 300.6C748.2 301 747 301.4 745.4 301.8C745.8 303.8 746.2 305 746.6 306.6C750.6 321.8 754.6 336.6 758.6 351.8C759 353.8 759 355.4 758.6 357.4C754.6 372.6 750.6 387.4 746.6 402.6C746.2 404.2 745.8 405.8 745.4 407.8C747.4 408.2 749 409 750.2 409.4C765 413.4 780.2 417.4 795 421.4C797.4 422.2 799.4 423 801 424.6C812.2 435.8 823 446.6 834.2 457.8C835.4 459 836.2 459.8 837.8 461C839 459.8 840.2 459 841.4 457.8C852.6 446.6 863.4 435.8 874.6 424.6C876.2 423 878.2 421.8 880.6 421C895.4 417 910.6 413 925.4 409C927 408.6 928.6 408.2 930.2 407.4C929.8 405.4 929.4 403.8 929 402.2C925 387 921 372.2 917 357C916.6 355 916.6 353.4 917 351.4C921 336.2 925 321.4 929 306.2C929.4 304.6 929.8 303 930.2 301.4C928.6 301 927.4 300.6 926.2 300.2C911 296.2 895.8 291.8 880.6 287.8C878.2 287 876.2 286.2 874.6 284.6C863.4 273.4 852.6 262.6 841.4 251.4C840.2 250.6 839 249.8 837.8 248.6Z" fill="white"/>
<path fill-rule="evenodd" clip-rule="evenodd" d="M1048.2 588.2C1046.2 586.2 1045 585.4 1044.2 584.2C1032.6 572.6 1021 561 1009.8 549.4C1007.8 547.4 1005.8 546.2 1003.4 545.4C987.4 541.4 971.4 537 955.4 532.6C954.2 532.2 953 531.8 951.4 531.4C952.2 527.8 953 524.6 954.2 521.4C957.8 507.8 961.4 493.8 965.4 480.2C966.2 477 966.2 474.2 965.4 471C961 455.4 957 439.8 952.6 424.2C952.2 423 951.8 421.4 951.4 419.8C953 419.4 954.6 419 956.2 418.2C971.8 413.8 987.8 409.8 1003.4 405.4C1006.2 404.6 1008.2 403.4 1010.2 401.4C1021.8 389.8 1033.4 378.2 1044.6 366.6C1045.8 365.4 1046.6 364.6 1048.2 363.4C1049.4 364.6 1050.6 365.4 1051.8 366.6C1063.4 378.2 1075 389.8 1086.2 401.4C1088.2 403.4 1090.6 405 1093.4 405.4C1109 409.4 1125 413.8 1140.6 417.8C1141.8 418.2 1143 418.6 1145 419C1144.6 420.6 1144.2 421.8 1143.8 423.4C1139.4 439.4 1135.4 455.4 1131 471.4C1130.2 473.8 1130.2 476.2 1131 478.6C1135.4 494.6 1139.4 510.2 1143.8 526.2C1144.2 527.8 1144.6 529 1145 530.6C1143.4 531 1142.2 531.4 1141 531.8C1125 536.2 1108.6 540.6 1092.6 544.6C1090.2 545.4 1088.2 546.2 1086.6 548.2C1075 559.8 1063.4 571.4 1051.8 583C1050.2 585 1049.4 586.6 1048.2 588.2ZM1139.8 529C1139.4 527 1139 525.4 1138.6 523.8C1134.6 509 1130.6 493.8 1126.6 479C1125.8 477 1125.8 475 1126.6 472.6C1130.6 457.4 1134.6 442.6 1138.6 427.4C1139 425.8 1139.4 424.2 1139.8 422.6C1138.2 422.2 1137 421.8 1135.4 421.4C1120.6 417.4 1105.4 413.4 1090.6 409.4C1087.8 408.6 1085.8 407.4 1083.8 405.4C1073 394.2 1061.8 383.4 1051 372.6C1049.8 371.4 1049 370.6 1047.8 369.4C1046.6 370.6 1045.4 371.8 1044.2 372.6C1033.4 383.4 1022.6 394.2 1011.8 405C1009.8 407 1007.8 408.2 1005 409C989.8 413 974.2 417 959 421.4C957.8 421.8 957 422.2 955.8 422.6C956.2 424.6 956.6 425.8 957 427.4C961 442.2 965 457.4 969 472.2C969.8 474.2 969.8 476.2 969 478.6C965 493.8 961 508.6 957 523.8C956.6 525.4 956.2 527 955.8 528.6C957.8 529 959 529.4 960.6 529.8C975.4 533.8 990.6 537.8 1005.4 541.8C1007.8 542.6 1009.8 543.4 1011.8 545.4C1023 556.6 1033.8 567.4 1045 578.6C1046.2 579.8 1047 580.6 1049 582.2C1050.2 580.6 1050.6 579.4 1051.8 578.2C1063 567 1073.8 556.2 1085 545C1086.6 543.4 1088.2 542.2 1090.6 541.8C1098.6 539.8 1106.6 537.4 1115 535.4C1122.6 533.8 1131 531.4 1139.8 529Z" fill="white"/>
<path fill-rule="evenodd" clip-rule="evenodd" d="M627.4 313.4C624.2 309.8 621 306.6 617.8 303.4C612.2 297.8 606.6 292.2 601 286.6C599.4 285 597.8 284.2 595.8 283.4C584.6 280.6 573.8 277.4 563 274.6C561.8 274.2 561 273.8 559.8 273.4C559.8 272.2 560.2 271 560.2 270.2C563 259 566.2 247.8 569 237C569.4 235 569.4 233 569 231C565.8 220.2 563 209 560.2 198.2C559.8 197 559.8 196.2 559.4 194.6C561 194.2 562.2 193.8 563.8 193.4C574.2 190.6 585 187.8 595.4 185C597.8 184.2 599.4 183.4 601.4 181.4C609 173.4 617 165.8 624.6 158.2C625.4 157.4 626.6 156.2 627.8 155C629 155.8 629.8 157 631 157.8C638.6 165.4 646.6 173.4 654.2 181C656.2 183 658.2 184.2 660.6 185C671 187.8 681.4 190.6 691.8 193.4C693 193.8 694.2 194.2 695.8 194.6C695.4 195.8 695.4 197 695.4 197.8C692.6 209 689.4 220.2 686.6 231C686.2 233 686.2 235 686.6 237C689.8 247.8 692.6 259 695.4 269.8C695.8 271 695.8 271.8 696.2 273C695 273.4 694.2 273.8 693 274.2C682.2 277 671 280.2 660.2 283C657.8 283.8 655.8 284.6 654.2 286.6C646.6 294.6 638.6 302.2 631 309.8C630.2 310.6 629.4 311.8 627.4 313.4ZM627.8 307.4C629 306.2 630.2 305.4 631 304.2C638.2 297 645 290.2 652.2 283C653.8 281 655.8 280.2 658.6 279.4C668.2 277 677.8 274.2 687.4 271.8C688.6 271.4 689.8 271 691.4 270.6C691 269 690.6 267.8 690.6 266.6C688.2 257 685.4 247 682.6 237.4C681.8 235 681.8 233 682.6 231C685.4 221 687.8 211 690.6 201.4C691 200.2 691 199 691.4 197.4C690.2 197 689.4 196.6 688.6 196.6C678.6 193.8 668.2 191 658.2 188.6C655.8 187.8 653.8 187 652.2 185.4C645 178.2 638.2 171.4 631 164.2C629.8 163 629 162.2 627.4 161C626.2 162.2 625 163.4 623.8 164.2C617 171 609.8 178.2 603 185C601 187 599.4 187.8 596.6 188.6C587 191 577.8 193.4 568.6 196.2C567 196.6 565.4 197 563.8 197.8C564.2 199.4 564.6 200.6 564.6 201.8C567 211.4 569.8 221 572.2 230.6C573 233 573 235.4 572.2 237.8C569.4 247.4 567 257.4 564.2 267C563.8 268.2 563.8 269.4 563.4 271C565 271.4 566.2 271.8 567.4 272.2C574.6 274.2 581.8 276.6 589 277.8C597 279.4 603.4 283 608.6 289C615 295.4 621.4 301 627.8 307.4Z" fill="white"/>
<path fill-rule="evenodd" clip-rule="evenodd" d="M906.2 394.2C901.8 395.4 897.4 396.6 893.4 397.8C885.8 399.8 878.2 401.8 870.6 403.8C867.8 404.6 865.8 405.8 863.8 407.4C856.2 415 848.6 422.6 841 430.2C839.8 431.4 839 432.6 837.8 434.2C836.2 432.6 835 431.8 833.8 430.6C826.2 423 818.2 415 810.6 407.4C809 405.8 807 404.6 804.6 403.8C793.8 401 783 398.2 772.6 395.4C771.4 395 770.2 394.6 769 394.2C769 393 769.4 391.8 769.4 391C772.2 380.2 775.4 369 778.2 358.2C779 355.8 779 353.8 778.2 351.8C775.4 341 772.6 330.2 769.4 319.8C769 318.6 769 317.4 768.6 315.8C775.4 313.8 781.8 312.2 788.2 310.6C793.8 309 799 307.8 804.6 306.2C807 305.8 809 304.6 810.6 303C818.2 295 826.2 287.4 833.8 279.8C834.6 279 835.4 277.8 836.6 276.2C838.2 277.8 839.4 278.6 840.2 279.4C847.8 287 855.8 295 863.4 302.6C865.4 304.6 867.8 305.8 870.2 306.6C880.6 309.4 891 312.2 901 315C902.2 315.4 903.8 315.8 905 316.2C905 317.4 904.6 318.2 904.6 319.4C901.8 329.4 899.4 339.8 896.2 349.8C895 353.8 895 357 896.2 361C899 371 901.4 381 904.2 390.6C905.8 391.4 905.8 392.6 906.2 394.2ZM837.4 280.6C836.2 282.2 835.4 283.4 834.2 284.6C827.4 291.8 820.2 298.6 813.4 305.4C811.8 307 809.8 308.2 807.4 308.6C797.4 311 787.4 313.8 777.8 316.6C776.6 317 775.4 317.4 774.2 317.8C774.6 319.4 775 320.6 775.4 322.2C778.2 332.2 780.6 341.8 783 351.8C783.4 353.4 783.4 355.8 783 357.4C780.6 367.4 777.8 377.4 775 387.4C774.6 388.6 774.6 389.8 774.2 391.4C776.2 391.8 777.4 392.2 779 392.6C788.6 395 798.2 397.8 807.4 400.2C809.8 401 811.8 401.8 813.4 403.4C820.6 410.6 827.8 417.8 835 425C835.8 425.8 837 427 838.2 427.8C839.4 426.6 840.2 425.8 841.4 425C848.6 417.8 855.8 410.6 863 403.4C864.6 401.8 866.2 400.6 868.6 400.2C878.2 397.8 887.8 395 897 392.6C898.6 392.2 900.2 391.8 901.8 391C901.4 389.4 901 388.2 901 386.6C898.6 377.4 896.2 368.2 893.8 359.4C893 355.8 892.6 353 893.8 349.4C896.6 340.2 899 331 901.4 321.8C901.8 320.6 901.8 319.4 902.2 317.8C900.6 317.4 899.4 317 898.2 316.6C888.6 313.8 878.6 311.4 869 308.6C866.6 307.8 865 307 863 305C856.2 297.8 849 291 842.2 284.2C840.2 283.4 839 282.6 837.4 280.6Z" fill="white"/>
<path fill-rule="evenodd" clip-rule="evenodd" d="M979 515C981.4 505.8 983.4 496.6 986.2 487.8C989 479.4 989 471.4 986.2 463C983.4 455.4 981.8 447 979.8 439.4C979.4 438.2 979.4 437.4 979 435.8C981.4 435 983.4 434.2 985.8 433.8C995.4 431.4 1005 428.6 1014.6 426.2C1017 425.4 1019 424.6 1021 422.6C1028.6 414.6 1036.6 407 1044.2 399.4C1045 398.6 1046.2 397.4 1047.4 396.6C1048.6 397.8 1049.4 398.6 1050.6 399.4C1058.2 407 1065.8 414.6 1073.4 422.2C1075.4 424.6 1077.8 425.8 1081 426.6C1091.4 429.4 1101.8 432.2 1112.2 435C1113.4 435.4 1114.6 435.8 1115.8 436.2C1115.4 437.4 1115.4 438.6 1115 439.8C1112.2 450.6 1109.4 461.4 1106.2 471.8C1105.4 474.2 1105.4 476.6 1106.2 479C1109 489.8 1111.8 500.6 1115 511C1115.4 512.2 1115.4 513.4 1115.8 514.6C1114.6 515 1113.4 515.4 1112.2 515.8C1101.4 518.6 1091 521.8 1080.2 524.6C1077.8 525.4 1075.8 526.2 1073.8 528.2C1066.2 536.2 1058.2 543.8 1050.6 551.4C1049.8 552.2 1048.6 553.4 1047.4 554.2C1046.2 553.4 1045.4 552.6 1044.6 551.8C1036.6 543.8 1029 536.2 1021 528.2C1019.4 526.2 1017.4 525 1014.6 524.6C1003.8 521.8 993 519 982.6 515.8C981.8 516.2 980.6 515.8 979 515ZM1111.4 512.6C1111 511 1110.6 509.8 1110.6 508.6C1107.8 498.6 1105.4 489 1102.6 479.4C1101.8 477 1101.8 475 1102.6 472.6C1105.4 462.6 1107.8 452.6 1110.6 443C1111 441.8 1111 440.6 1111.4 439.4C1110.2 439 1109.4 438.6 1109 438.6C1099 435.8 1089 433 1079 430.6C1076.2 429.8 1074.2 429 1072.2 427C1065.4 419.8 1058.2 413 1051.4 406.2C1050.2 405 1049.4 404.2 1047.8 403C1046.6 404.2 1045.4 405.4 1044.2 406.2C1037 413.4 1030.2 420.2 1023 427.4C1021.4 429 1019.8 430.2 1017.4 430.6C1009.8 432.6 1002.6 434.6 995 436.6C991.4 437.4 987.8 438.6 983.8 439.8C984.2 441.4 984.6 442.6 984.6 443.8C987.4 453.8 989.8 463.8 992.6 473.4C993 475.4 993 477.4 992.6 479.4C989.8 489.4 987.4 499.4 984.6 509C984.2 510.2 984.2 511.4 983.8 513C985.4 513.4 986.6 513.8 988.2 514.2C997.8 516.6 1007.4 519.4 1017 521.8C1019.4 522.6 1021.4 523.4 1023 525C1030.2 532.2 1037.4 539.4 1044.6 547C1045.4 547.8 1046.2 548.6 1047.4 549.4C1048.6 548.2 1049.4 547.4 1050.6 546.6C1057.8 539.4 1065 532.2 1072.2 525C1073.8 523.4 1075.4 522.2 1077.8 521.8C1086.6 519.4 1095.4 517 1104.6 514.6C1106.6 513.8 1109 513.4 1111.4 512.6Z" fill="white"/>
<path fill-rule="evenodd" clip-rule="evenodd" d="M628.2 283.4C622.6 277.8 617.4 272.6 612.6 267.8C610.6 265.8 608.6 264.6 606.2 263.8C600.6 262.6 595 260.6 589 259.4C587.8 259 586.6 258.6 585.4 258.2C587 251.8 588.6 245.4 590.6 239C591.8 235.4 591.8 232.2 590.6 228.6C588.6 222.2 587 215.8 585.4 209.4C587 209 588.6 208.2 589.8 208.2C595.4 206.6 601 205 606.6 203.8C609 203.4 611 202.2 612.6 200.6C616.6 196.2 621 192.2 625 188.2C625.8 187.4 627 186.2 628.2 185.4C632.2 189.4 636.2 193 639.8 197C643.8 201.4 648.2 204.2 654.2 205.4C659.4 206.6 664.6 208.2 670.2 209.8C669.8 211 669.8 212.2 669.4 213.4C668.2 218.6 666.6 224.2 665 229.4C663.8 233 663.8 235.8 665 239.4C666.6 244.6 667.8 249.8 669.4 255C669.8 256.2 669.8 257.8 670.2 259.4C665.8 260.6 661.8 262.2 657.8 262.6C649.4 263.8 642.6 267.8 637 274.6C634.6 277 631.4 279.8 628.2 283.4ZM589.8 211.8C591.4 218.2 593 224.2 594.6 229.8C595.4 232.6 595.4 235 594.6 237.8C593 242.6 591.8 247.8 590.6 253C590.2 253.8 590.2 254.6 590.2 255.8C596.6 257.4 603 259.4 609 261C611 261.4 612.6 262.2 613.8 263.8C617.4 267.8 621.4 271.4 625 275C625.8 275.8 626.6 276.6 628.2 277.8C632.6 273.4 637 269 641 264.6C643 262.6 645.4 261.4 647.8 260.6C653 259.4 657.8 257.8 663 256.6C663.8 256.2 664.6 255.8 665.8 255.4C664.2 249 662.6 243 661 237C660.2 235 660.2 232.6 661 230.6C662.6 225.4 663.8 220.6 665 215.4C665.4 214.2 665.4 213 665.8 211.8C659.4 210.2 653.4 208.2 647.4 207C645 206.6 643.4 205.4 641.8 203.8C638.2 199.8 634.2 196.2 630.6 192.6C629.8 191.8 629 191.4 627.8 190.2C623.4 194.6 619 199 615 203.4C613 205.4 610.6 206.6 608.2 207.4C601.8 208.6 596.2 210.2 589.8 211.8Z" fill="white"/>
<path fill-rule="evenodd" clip-rule="evenodd" d="M837.8 403.8C835 401 832.2 398.2 829.4 395.8C826.2 392.6 823 388.6 819.4 386.2C815.8 384.2 811 383.4 806.6 382.2C803 381.4 799.4 380.2 795.4 379.4C795.8 377.8 795.8 376.6 796.2 375.4C797.8 369.4 799.4 363.4 801 357.4C801.4 355.8 801.4 353.8 801 352.2C799.4 346.2 797.8 340.6 796.2 334.6C795.8 333.4 795.4 331.8 795.4 330.6C797 330.2 798.6 329.4 800.2 329C805.8 327.4 811 326.2 816.6 324.6C819 324.2 821 323 822.6 321C827.4 316.2 832.2 311.4 837 306.6C837 306.6 837.4 306.2 837.8 306.2C838.6 306.6 839.4 307.4 840.2 308.2C844.6 312.6 849 317 853.4 321.4C855 323 856.6 324.2 859 324.6C865 326.2 871 327.8 877.4 329.4C878.2 329.8 879 330.2 880.2 330.6C878.6 337 877 343.4 875 349.4C873.8 353.4 873.8 356.6 875 360.6C877 366.6 878.2 372.6 879.8 379C878.2 379.4 877 379.8 875.8 380.2C870.6 381.8 865.4 383 859.8 384.6C856.6 385.4 854.2 386.6 851.8 389C848.2 393 844.2 397 840.2 400.6C839.8 401.8 839 402.6 837.8 403.8ZM799.8 333C799.8 334.2 800.2 335 800.2 335.8C801.4 341 802.6 345.8 804.2 351C805 353.8 805 356.2 804.2 359C802.6 364.6 801 370.6 799.4 376.6C800.6 377 801.4 377.4 802.2 377.8C807.4 379 812.2 380.6 817.4 381.8C820.2 382.6 822.2 383.8 824.2 385.8C827.8 389.4 831.4 393 835 396.6C835.8 397.4 836.6 397.8 837.8 399C842.2 394.6 846.6 390.2 851 385.8C852.6 383.8 854.6 383 857.4 382.2C862.6 381 867.4 379.4 872.6 378.2C873.4 377.8 874.6 377.4 875.8 377C875 373.8 874.2 371 873.4 368.2C872.2 364.2 870.2 359.8 870.2 355.8C870.2 351.4 872.2 347.4 873 343C873.8 339.8 874.6 337 875.4 333.8C870.6 332.6 866.2 331 861.8 330.2C855.8 329 851 326.6 847.4 321.8C844.6 318.2 841 315.4 837.4 311.8C833.8 315.4 830.6 318.2 827.4 321.8C823.4 326.6 818.6 329.4 812.6 330.2C808.6 330.2 804.6 331.8 799.8 333Z" fill="white"/>
<path fill-rule="evenodd" clip-rule="evenodd" d="M1005 451C1006.6 450.6 1008.2 449.8 1009.4 449.4C1015 447.8 1020.6 446.2 1026.2 445C1028.6 444.6 1030.6 443.4 1032.2 441.4C1037 436.2 1042.2 431.4 1047.4 426.2C1048.2 427 1049.4 427.4 1049.8 428.2C1054.2 432.6 1058.6 437 1063 441.4C1064.6 443 1066.2 444.2 1068.6 444.6C1075 446.2 1081 447.8 1087.4 449.4C1088.2 449.8 1089 449.8 1090.2 450.2C1089 454.2 1088.6 458.6 1087 462.6C1083.8 470.6 1083.8 478.6 1087 487C1088.6 491 1089 495 1090.2 499C1089 499.4 1087.8 499.8 1086.6 500.2C1080.6 501.8 1074.6 503.4 1068.6 505C1066.2 505.4 1064.6 506.6 1063 508.2C1059 512.6 1054.6 516.6 1050.6 520.6C1049.8 521.4 1048.6 522.6 1047.4 523.8C1045 521.4 1042.6 519 1039.8 516.6C1036.2 513 1033 508.6 1028.6 506.2C1024.6 503.8 1019.4 503.4 1014.6 502.2C1011.4 501.4 1008.2 500.6 1005 499.4C1005.4 497.8 1005.4 496.6 1005.8 495.4C1007.4 489.4 1009 483.4 1010.6 477.4C1011 475.4 1011 473.8 1010.6 471.8C1009 465.8 1007.4 460.2 1005.8 454.2C1005.8 454.2 1005.4 452.6 1005 451ZM1009.4 453.8C1011 460.2 1012.6 466.2 1014.2 472.2C1015 474.6 1015 477 1014.2 479.4C1012.6 484.6 1011.4 489.8 1009.8 495.4C1009.4 496.2 1009.8 497 1009.8 498.2C1016.2 499.8 1022.2 501.8 1028.2 503C1030.2 503.4 1031.8 504.2 1033 505.8C1036.6 509.4 1040.2 513 1043.8 516.6C1045 517.8 1045.8 518.6 1047.4 519.8C1052.2 515 1056.6 510.6 1061 506.2C1062.6 504.6 1064.2 503.4 1066.6 503C1071.4 501.8 1076.6 500.6 1081.4 499C1082.6 498.6 1083.8 498.2 1085.4 497.8C1083.8 491.4 1082.2 485 1080.2 479C1079.8 477 1079.8 475.4 1080.2 473.4C1081.8 468.6 1083 463.8 1084.2 458.6C1084.6 457 1085 455.8 1085.4 454.2C1079 452.6 1073 450.6 1066.6 449.4C1064.2 449 1062.6 447.8 1061 446.2C1057.8 442.6 1054.2 439 1050.6 435.8C1049.4 434.6 1048.6 433.8 1047 432.6C1042.2 437.4 1038.2 441.8 1033.8 446.2C1032.2 448.2 1030.2 449 1027.4 449.8C1021.8 450.2 1015.8 451.8 1009.4 453.8Z" fill="white"/>
<path fill-rule="evenodd" clip-rule="evenodd" d="M610.6 243.8C613.8 237 613.8 231 611 224.6C614.6 223.4 617.8 223 620.6 221.4C623.4 219.8 625.4 217.4 627.8 215C630.2 217.4 632.2 219.8 635 221.4C637.8 223 641 223.4 644.2 224.2C643.4 227.4 642.2 230.6 642.2 233.8C642.2 237 643.4 240.2 644.2 243.4C641 244.6 637.4 245 634.6 246.6C631.8 248.2 630.2 250.6 627.4 253.4C623.8 247.4 618.2 244.2 610.6 243.8ZM615.8 241C621 241.8 624.6 244.2 628.2 248.2C631.4 243.8 635 241.8 640.6 241C638.2 236.2 639 231.8 640.2 227C635 226.2 631.4 224.2 628.2 219.8C625 224.2 621 226.2 616.2 227C617.8 231.8 617.4 236.2 615.8 241Z" fill="white"/>
<path fill-rule="evenodd" clip-rule="evenodd" d="M854.6 364.6C847.8 365.4 842.2 368.2 837.8 374.6C833.4 368.6 828.2 365.4 821 365C821.8 361.4 823 358.6 823 355.4C823 352.2 821.8 349.4 821 345.8C824.2 345 827.4 344.2 830.2 342.6C833 341 835 338.6 837.4 336.2C839.8 338.6 841.8 341 844.6 342.6C847.4 344.2 850.6 344.6 853.8 345.8C853 349 851.8 352.2 851.8 355.4C852.2 357.8 853.4 361 854.6 364.6ZM825.4 361.8C830.6 362.2 834.6 365 837.8 369C840.6 364.6 845 363 849.8 361.8C847.8 357 848.2 352.6 849.8 348.2C844.6 347.8 841 345 837.4 341.4C834.6 345.8 830.6 347.8 825.4 348.6C827.4 352.6 827.8 356.6 825.4 361.8Z" fill="white"/>
<path fill-rule="evenodd" clip-rule="evenodd" d="M1047.8 456.2C1051.8 462.2 1057.4 465 1064.2 465.8C1063.4 469.4 1062.2 472.6 1062.2 475.8C1062.2 479 1063.4 481.8 1064.2 485.4C1057.8 486.6 1051.8 489 1047.8 495.4C1045 493 1043 490.2 1040.2 488.6C1037.4 487 1034.2 486.6 1030.6 485.4C1031.4 482.2 1032.6 479 1032.6 475.8C1032.6 472.6 1031.4 469.8 1030.6 466.6C1033.8 465.4 1037.4 465 1040.2 463.4C1043 461.4 1045 459 1047.8 456.2ZM1059.8 483C1057.8 477.8 1057.8 473.4 1059.8 469C1054.6 468.2 1051 465.8 1047.8 462.2C1045.8 464.2 1044.6 465.8 1042.6 467C1040.6 468.2 1038.2 468.6 1035.8 469.4C1037.8 473.8 1037.4 478.6 1035.8 483.4C1041 483.8 1044.6 486.2 1047.8 490.2C1050.6 485.8 1054.6 483.4 1059.8 483Z" fill="white"/>
</g>
<path fill-rule="evenodd" clip-rule="evenodd" d="M327 369.4C329.56 359.8 332.12 350.52 334.36 341.56C335.64 336.76 336.92 331.96 338.2 327.16C338.52 325.56 338.52 323.96 338.2 322.36C334.68 309.56 331.16 296.44 327.96 283.64C327.64 282.36 327.32 281.4 327 280.12C329.88 279.16 332.76 278.52 335.32 277.88C346.2 275 357.4 272.12 368.28 268.92C370.52 268.28 372.12 267.32 373.72 265.72C383 256.44 392.28 247.16 401.24 237.88C402.2 236.92 402.84 235.96 403.48 235C404.76 236.28 405.72 236.92 406.68 237.88C415.96 247.16 425.56 256.76 434.84 266.04C436.12 267.32 437.72 268.28 439.64 268.92C452.44 272.44 465.24 275.64 478.04 279.16C479.32 279.48 480.28 279.8 481.56 280.12C480.92 283 480.28 285.56 479.32 288.44C476.44 299.64 473.24 311.16 470.04 322.36C469.72 323.96 469.4 325.56 470.04 327.48C473.56 340.28 477.08 353.4 480.28 366.2C480.6 367.16 480.92 368.44 481.24 369.72C480.28 370.04 479.32 370.36 478.36 370.68C465.56 374.2 452.44 377.72 439.64 380.92C437.4 381.56 435.8 382.52 434.2 384.12C425.24 393.4 415.96 402.36 406.68 411.64C405.72 412.6 405.08 413.56 404.12 414.84C402.84 413.56 401.88 412.92 400.92 411.96C391.64 402.68 382.04 393.08 372.76 383.8C371.16 382.2 369.88 381.56 367.64 380.92C354.84 377.4 342.04 374.2 329.24 370.68C329.56 370.36 328.28 370.04 327 369.4ZM405.08 239.16C403.48 240.76 402.52 241.4 401.88 242.36C393.24 251 384.6 259.64 375.96 268.28C374.04 270.2 372.12 271.16 369.88 271.8C357.72 275 345.56 278.2 333.4 281.72C332.44 282.04 331.8 282.36 330.84 282.68C331.16 283.96 331.48 284.92 331.48 285.88C334.68 297.72 337.88 309.24 341.08 321.08C341.72 323.64 341.72 326.2 341.08 328.76C337.88 340.6 334.68 352.12 331.48 363.96C331.16 365.24 330.84 366.2 330.52 367.48C332.12 367.8 333.08 368.12 334.36 368.44C346.52 371.64 358.36 374.84 370.52 378.04C372.44 378.68 373.72 379.32 375.32 380.92C384.28 389.88 392.92 398.52 401.88 407.48C402.84 408.44 403.48 409.08 404.44 410.04C405.4 409.08 406.36 408.12 407.32 407.48C415.96 398.84 424.92 389.88 433.56 381.24C434.84 379.64 436.44 378.68 438.68 378.36C450.84 375.16 462.68 371.96 474.84 368.76C476.12 368.44 477.08 368.12 478.36 367.8C478.04 366.52 477.72 365.24 477.72 364.28C474.52 352.44 471.64 340.92 468.12 329.08C467.48 326.2 467.48 323.96 468.12 321.08C471.32 309.56 474.52 297.72 477.4 286.2C477.72 284.92 478.04 283.96 478.36 282.68C477.08 282.36 476.12 282.04 475.16 281.72C463.32 278.52 451.48 275.32 439.64 272.12C437.08 271.48 435.16 270.2 433.24 268.28C424.92 259.64 416.28 251.32 407.64 242.68C406.68 241.4 406.04 240.44 405.08 239.16Z" fill="white"/>
<path fill-rule="evenodd" clip-rule="evenodd" d="M404.12 388.92C401.56 386.04 399 383.48 396.44 380.92C391.96 376.44 387.48 371.96 383 367.48C381.72 366.2 380.44 365.56 378.84 364.92C369.88 362.68 361.24 360.12 352.6 357.88C351.64 357.56 351 357.24 350.04 356.92C350.04 355.96 350.36 355 350.36 354.36C352.6 345.4 355.16 336.44 357.4 327.8C357.72 326.2 357.72 324.6 357.4 323C354.84 314.36 352.6 305.4 350.36 296.76C350.04 295.8 350.04 295.16 349.72 293.88C351 293.56 351.96 293.24 353.24 292.92C361.56 290.68 370.2 288.44 378.52 286.2C380.44 285.56 381.72 284.92 383.32 283.32C389.4 276.92 395.8 270.84 401.88 264.76C402.52 264.12 403.48 263.16 404.44 262.2C405.4 262.84 406.04 263.8 407 264.44C413.08 270.52 419.48 276.92 425.56 283C427.16 284.6 428.76 285.56 430.68 286.2C439 288.44 447.32 290.68 455.64 292.92C456.6 293.24 457.56 293.56 458.84 293.88C458.52 294.84 458.52 295.8 458.52 296.44C456.28 305.4 453.72 314.36 451.48 323C451.16 324.6 451.16 326.2 451.48 327.8C454.04 336.44 456.28 345.4 458.52 354.04C458.84 355 458.84 355.64 459.16 356.6C458.2 356.92 457.56 357.24 456.6 357.56C447.96 359.8 439 362.36 430.36 364.6C428.44 365.24 426.84 365.88 425.56 367.48C419.48 373.88 413.08 379.96 407 386.04C406.36 386.68 405.72 387.64 404.12 388.92ZM404.44 384.12C405.4 383.16 406.36 382.52 407 381.56C412.76 375.8 418.2 370.36 423.96 364.6C425.24 363 426.84 362.36 429.08 361.72C436.76 359.8 444.44 357.56 452.12 355.64C453.08 355.32 454.04 355 455.32 354.68C455 353.4 454.68 352.44 454.68 351.48C452.76 343.8 450.52 335.8 448.28 328.12C447.64 326.2 447.64 324.6 448.28 323C450.52 315 452.44 307 454.68 299.32C455 298.36 455 297.4 455.32 296.12C454.36 295.8 453.72 295.48 453.08 295.48C445.08 293.24 436.76 291 428.76 289.08C426.84 288.44 425.24 287.8 423.96 286.52C418.2 280.76 412.76 275.32 407 269.56C406.04 268.6 405.4 267.96 404.12 267C403.16 267.96 402.2 268.92 401.24 269.56C395.8 275 390.04 280.76 384.6 286.2C383 287.8 381.72 288.44 379.48 289.08C371.8 291 364.44 292.92 357.08 295.16C355.8 295.48 354.52 295.8 353.24 296.44C353.56 297.72 353.88 298.68 353.88 299.64C355.8 307.32 358.04 315 359.96 322.68C360.6 324.6 360.6 326.52 359.96 328.44C357.72 336.12 355.8 344.12 353.56 351.8C353.24 352.76 353.24 353.72 352.92 355C354.2 355.32 355.16 355.64 356.12 355.96C361.88 357.56 367.64 359.48 373.4 360.44C379.8 361.72 384.92 364.6 389.08 369.4C394.2 374.52 399.32 379 404.44 384.12Z" fill="white"/>
<path fill-rule="evenodd" clip-rule="evenodd" d="M404.76 364.92C400.28 360.44 396.12 356.28 392.28 352.44C390.68 350.84 389.08 349.88 387.16 349.24C382.68 348.28 378.2 346.68 373.4 345.72C372.44 345.4 371.48 345.08 370.52 344.76C371.8 339.64 373.08 334.52 374.68 329.4C375.64 326.52 375.64 323.96 374.68 321.08C373.08 315.96 371.8 310.84 370.52 305.72C371.8 305.4 373.08 304.76 374.04 304.76C378.52 303.48 383 302.2 387.48 301.24C389.4 300.92 391 299.96 392.28 298.68C395.48 295.16 399 291.96 402.2 288.76C402.84 288.12 403.8 287.16 404.76 286.52C407.96 289.72 411.16 292.6 414.04 295.8C417.24 299.32 420.76 301.56 425.56 302.52C429.72 303.48 433.88 304.76 438.36 306.04C438.04 307 438.04 307.96 437.72 308.92C436.76 313.08 435.48 317.56 434.2 321.72C433.24 324.6 433.24 326.84 434.2 329.72C435.48 333.88 436.44 338.04 437.72 342.2C438.04 343.16 438.04 344.44 438.36 345.72C434.84 346.68 431.64 347.96 428.44 348.28C421.72 349.24 416.28 352.44 411.8 357.88C409.88 359.8 407.32 362.04 404.76 364.92ZM374.04 307.64C375.32 312.76 376.6 317.56 377.88 322.04C378.52 324.28 378.52 326.2 377.88 328.44C376.6 332.28 375.64 336.44 374.68 340.6C374.36 341.24 374.36 341.88 374.36 342.84C379.48 344.12 384.6 345.72 389.4 347C391 347.32 392.28 347.96 393.24 349.24C396.12 352.44 399.32 355.32 402.2 358.2C402.84 358.84 403.48 359.48 404.76 360.44C408.28 356.92 411.8 353.4 415 349.88C416.6 348.28 418.52 347.32 420.44 346.68C424.6 345.72 428.44 344.44 432.6 343.48C433.24 343.16 433.88 342.84 434.84 342.52C433.56 337.4 432.28 332.6 431 327.8C430.36 326.2 430.36 324.28 431 322.68C432.28 318.52 433.24 314.68 434.2 310.52C434.52 309.56 434.52 308.6 434.84 307.64C429.72 306.36 424.92 304.76 420.12 303.8C418.2 303.48 416.92 302.52 415.64 301.24C412.76 298.04 409.56 295.16 406.68 292.28C406.04 291.64 405.4 291.32 404.44 290.36C400.92 293.88 397.4 297.4 394.2 300.92C392.6 302.52 390.68 303.48 388.76 304.12C383.64 305.08 379.16 306.36 374.04 307.64Z" fill="white"/>
<path fill-rule="evenodd" clip-rule="evenodd" d="M390.68 333.24C393.24 327.8 393.24 323 391 317.88C393.88 316.92 396.44 316.6 398.68 315.32C400.92 314.04 402.52 312.12 404.44 310.2C406.36 312.12 407.96 314.04 410.2 315.32C412.44 316.6 415 316.92 417.56 317.56C416.92 320.12 415.96 322.68 415.96 325.24C415.96 327.8 416.92 330.36 417.56 332.92C415 333.88 412.12 334.2 409.88 335.48C407.64 336.76 406.36 338.68 404.12 340.92C401.24 336.12 396.76 333.56 390.68 333.24ZM394.84 331C399 331.64 401.88 333.56 404.76 336.76C407.32 333.24 410.2 331.64 414.68 331C412.76 327.16 413.4 323.64 414.36 319.8C410.2 319.16 407.32 317.56 404.76 314.04C402.2 317.56 399 319.16 395.16 319.8C396.44 323.64 396.12 327.16 394.84 331Z" fill="white"/>
<path fill-rule="evenodd" clip-rule="evenodd" d="M1529.04 125.107C1529.52 125.827 1530 126.547 1530.72 127.267C1537.44 133.987 1544.4 140.947 1551.12 147.667C1552.56 149.107 1554 150.067 1555.92 150.547C1565.28 152.947 1574.64 155.587 1584 157.987C1584.96 158.227 1585.68 158.467 1586.64 158.707C1585.68 162.067 1584.96 165.427 1584 168.547C1582.08 175.747 1580.16 182.947 1578.24 189.907C1577.76 191.347 1577.76 192.547 1578.24 193.987C1580.88 203.587 1583.52 213.187 1585.92 222.787C1586.16 223.507 1586.4 224.467 1586.64 225.427C1585.68 225.667 1584.96 225.907 1584 226.147C1574.4 228.787 1564.8 231.427 1555.2 233.827C1553.76 234.307 1552.56 235.027 1551.36 235.987C1544.4 242.947 1537.44 249.907 1530.48 256.867C1529.76 257.587 1529.28 258.067 1528.32 258.787C1527.6 258.067 1526.88 257.347 1526.16 256.867C1519.2 249.907 1512.24 242.947 1505.28 235.987C1504.32 234.787 1503.12 234.307 1501.44 233.827C1491.84 231.427 1482.24 228.787 1472.64 226.147C1471.92 225.907 1471.2 225.667 1470 225.427C1470.24 224.467 1470.48 223.507 1470.72 222.787C1473.36 213.187 1475.76 203.587 1478.4 193.987C1478.88 192.547 1478.88 191.587 1478.4 190.147C1475.76 180.547 1473.12 170.947 1470.72 161.347C1470.48 160.627 1470.24 159.667 1470 158.707C1470.96 158.467 1471.92 157.987 1472.88 157.747C1482.24 155.107 1491.84 152.707 1501.2 150.307C1502.64 149.827 1503.84 149.347 1505.04 148.147C1512 141.187 1518.96 134.227 1525.92 127.267C1526.64 126.547 1526.88 125.827 1527.6 125.107C1528.32 124.867 1528.8 125.107 1529.04 125.107ZM1528.56 128.467C1527.84 129.187 1527.12 129.667 1526.4 130.387C1519.68 137.107 1513.2 143.587 1506.48 150.307C1505.52 151.267 1504.32 151.987 1502.88 152.227C1493.76 154.627 1484.64 157.027 1475.52 159.667C1474.8 159.907 1474.08 160.147 1473.12 160.387C1473.36 161.587 1473.6 162.307 1473.84 163.267C1476.24 172.387 1478.64 181.267 1481.04 190.387C1481.28 191.587 1481.28 192.547 1481.04 193.747C1478.64 202.867 1476.24 211.747 1473.84 220.867C1473.6 221.827 1473.36 222.787 1473.12 223.987C1474.32 224.227 1475.28 224.707 1476 224.947C1484.88 227.347 1494 229.747 1502.88 232.147C1504.32 232.627 1505.52 233.107 1506.48 234.067C1513.2 240.787 1519.68 247.267 1526.4 253.987C1527.12 254.707 1527.6 255.187 1528.56 255.907C1529.28 255.187 1530 254.707 1530.72 253.987C1537.44 247.267 1543.92 240.787 1550.64 234.067C1551.6 233.107 1552.8 232.387 1554.24 231.907C1563.12 229.507 1572.24 227.107 1581.12 224.707C1582.08 224.467 1583.04 224.227 1584 223.747C1583.76 222.547 1583.52 221.587 1583.28 220.627C1580.88 211.507 1578.48 202.627 1576.08 193.507C1575.84 192.307 1575.84 191.347 1576.08 190.147C1578.48 181.027 1580.88 172.147 1583.28 163.027C1583.52 162.067 1583.76 161.107 1584 160.147C1583.04 159.907 1582.32 159.667 1581.6 159.427C1572.48 157.027 1563.36 154.387 1554.24 151.987C1552.8 151.507 1551.6 151.027 1550.64 150.067C1543.92 143.347 1537.44 136.867 1530.72 130.147C1530 129.667 1529.28 129.187 1528.56 128.467Z" fill="white"/>
<path fill-rule="evenodd" clip-rule="evenodd" d="M1569.6 215.827C1566.96 216.547 1564.32 217.267 1561.92 217.987C1557.36 219.187 1552.8 220.387 1548.24 221.587C1546.56 222.067 1545.36 222.787 1544.16 223.747C1539.6 228.307 1535.04 232.867 1530.48 237.427C1529.76 238.147 1529.28 238.867 1528.56 239.827C1527.6 238.867 1526.88 238.387 1526.16 237.667C1521.6 233.107 1516.8 228.307 1512.24 223.747C1511.28 222.787 1510.08 222.067 1508.64 221.587C1502.16 219.907 1495.68 218.227 1489.44 216.547C1488.72 216.307 1488 216.067 1487.28 215.827C1487.28 215.107 1487.52 214.387 1487.52 213.907C1489.2 207.427 1491.12 200.707 1492.8 194.227C1493.28 192.787 1493.28 191.587 1492.8 190.387C1491.12 183.907 1489.44 177.427 1487.52 171.187C1487.28 170.467 1487.28 169.747 1487.04 168.787C1491.12 167.587 1494.96 166.627 1498.8 165.667C1502.16 164.707 1505.28 163.987 1508.64 163.027C1510.08 162.787 1511.28 162.067 1512.24 161.107C1516.8 156.307 1521.6 151.747 1526.16 147.187C1526.64 146.707 1527.12 145.987 1527.84 145.027C1528.8 145.987 1529.52 146.467 1530 146.947C1534.56 151.507 1539.36 156.307 1543.92 160.867C1545.12 162.067 1546.56 162.787 1548 163.267C1554.24 164.947 1560.48 166.627 1566.48 168.307C1567.2 168.547 1568.16 168.787 1568.88 169.027C1568.88 169.747 1568.64 170.227 1568.64 170.947C1566.96 176.947 1565.52 183.187 1563.6 189.187C1562.88 191.587 1562.88 193.507 1563.6 195.907C1565.28 201.907 1566.72 207.907 1568.4 213.667C1569.36 214.147 1569.36 214.867 1569.6 215.827ZM1528.32 147.667C1527.6 148.627 1527.12 149.347 1526.4 150.067C1522.32 154.387 1518 158.467 1513.92 162.547C1512.96 163.507 1511.76 164.227 1510.32 164.467C1504.32 165.907 1498.32 167.587 1492.56 169.267C1491.84 169.507 1491.12 169.747 1490.4 169.987C1490.64 170.947 1490.88 171.667 1491.12 172.627C1492.8 178.627 1494.24 184.387 1495.68 190.387C1495.92 191.347 1495.92 192.787 1495.68 193.747C1494.24 199.747 1492.56 205.747 1490.88 211.747C1490.64 212.467 1490.64 213.187 1490.4 214.147C1491.6 214.387 1492.32 214.627 1493.28 214.867C1499.04 216.307 1504.8 217.987 1510.32 219.427C1511.76 219.907 1512.96 220.387 1513.92 221.347C1518.24 225.667 1522.56 229.987 1526.88 234.307C1527.36 234.787 1528.08 235.507 1528.8 235.987C1529.52 235.267 1530 234.787 1530.72 234.307C1535.04 229.987 1539.36 225.667 1543.68 221.347C1544.64 220.387 1545.6 219.667 1547.04 219.427C1552.8 217.987 1558.56 216.307 1564.08 214.867C1565.04 214.627 1566 214.387 1566.96 213.907C1566.72 212.947 1566.48 212.227 1566.48 211.267C1565.04 205.747 1563.6 200.227 1562.16 194.947C1561.68 192.787 1561.44 191.107 1562.16 188.947C1563.84 183.427 1565.28 177.907 1566.72 172.387C1566.96 171.667 1566.96 170.947 1567.2 169.987C1566.24 169.747 1565.52 169.507 1564.8 169.267C1559.04 167.587 1553.04 166.147 1547.28 164.467C1545.84 163.987 1544.88 163.507 1543.68 162.307C1539.6 157.987 1535.28 153.907 1531.2 149.827C1530 149.347 1529.28 148.867 1528.32 147.667Z" fill="white"/>
<path fill-rule="evenodd" clip-rule="evenodd" d="M1528.56 221.587C1526.88 219.907 1525.2 218.227 1523.52 216.787C1521.6 214.867 1519.68 212.467 1517.52 211.027C1515.36 209.827 1512.48 209.347 1509.84 208.627C1507.68 208.147 1505.52 207.427 1503.12 206.947C1503.36 205.987 1503.36 205.267 1503.6 204.547C1504.56 200.947 1505.52 197.347 1506.48 193.747C1506.72 192.787 1506.72 191.587 1506.48 190.627C1505.52 187.027 1504.56 183.667 1503.6 180.067C1503.36 179.347 1503.12 178.387 1503.12 177.667C1504.08 177.427 1505.04 176.947 1506 176.707C1509.36 175.747 1512.48 175.027 1515.84 174.067C1517.28 173.827 1518.48 173.107 1519.44 171.907C1522.32 169.027 1525.2 166.147 1528.08 163.267C1528.08 163.267 1528.32 163.027 1528.56 163.027C1529.04 163.267 1529.52 163.747 1530 164.227C1532.64 166.867 1535.28 169.507 1537.92 172.147C1538.88 173.107 1539.84 173.827 1541.28 174.067C1544.88 175.027 1548.48 175.987 1552.32 176.947C1552.8 177.187 1553.28 177.427 1554 177.667C1553.04 181.507 1552.08 185.347 1550.88 188.947C1550.16 191.347 1550.16 193.267 1550.88 195.667C1552.08 199.267 1552.8 202.867 1553.76 206.707C1552.8 206.947 1552.08 207.187 1551.36 207.427C1548.24 208.387 1545.12 209.107 1541.76 210.067C1539.84 210.547 1538.4 211.267 1536.96 212.707C1534.8 215.107 1532.4 217.507 1530 219.667C1529.76 220.387 1529.28 220.867 1528.56 221.587ZM1505.76 179.107C1505.76 179.827 1506 180.307 1506 180.787C1506.72 183.907 1507.44 186.787 1508.4 189.907C1508.88 191.587 1508.88 193.027 1508.4 194.707C1507.44 198.067 1506.48 201.667 1505.52 205.267C1506.24 205.507 1506.72 205.747 1507.2 205.987C1510.32 206.707 1513.2 207.667 1516.32 208.387C1518 208.867 1519.2 209.587 1520.4 210.787C1522.56 212.947 1524.72 215.107 1526.88 217.267C1527.36 217.747 1527.84 217.987 1528.56 218.707C1531.2 216.067 1533.84 213.427 1536.48 210.787C1537.44 209.587 1538.64 209.107 1540.32 208.627C1543.44 207.907 1546.32 206.947 1549.44 206.227C1549.92 205.987 1550.64 205.747 1551.36 205.507C1550.88 203.587 1550.4 201.907 1549.92 200.227C1549.2 197.827 1548 195.187 1548 192.787C1548 190.147 1549.2 187.747 1549.68 185.107C1550.16 183.187 1550.64 181.507 1551.12 179.587C1548.24 178.867 1545.6 177.907 1542.96 177.427C1539.36 176.707 1536.48 175.267 1534.32 172.387C1532.64 170.227 1530.48 168.547 1528.32 166.387C1526.16 168.547 1524.24 170.227 1522.32 172.387C1519.92 175.267 1517.04 176.947 1513.44 177.427C1511.04 177.427 1508.64 178.387 1505.76 179.107Z" fill="white"/>
<path fill-rule="evenodd" clip-rule="evenodd" d="M1538.64 198.067C1534.56 198.547 1531.2 200.227 1528.56 204.067C1525.92 200.467 1522.8 198.547 1518.48 198.307C1518.96 196.147 1519.68 194.467 1519.68 192.547C1519.68 190.627 1518.96 188.947 1518.48 186.787C1520.4 186.307 1522.32 185.827 1524 184.867C1525.68 183.907 1526.88 182.467 1528.32 181.027C1529.76 182.467 1530.96 183.907 1532.64 184.867C1534.32 185.827 1536.24 186.067 1538.16 186.787C1537.68 188.707 1536.96 190.627 1536.96 192.547C1537.2 193.987 1537.92 195.907 1538.64 198.067ZM1521.12 196.387C1524.24 196.627 1526.64 198.307 1528.56 200.707C1530.24 198.067 1532.88 197.107 1535.76 196.387C1534.56 193.507 1534.8 190.867 1535.76 188.227C1532.64 187.987 1530.48 186.307 1528.32 184.147C1526.64 186.787 1524.24 187.987 1521.12 188.467C1522.32 190.867 1522.56 193.267 1521.12 196.387Z" fill="white"/>
</g>
</svg>
