<svg width="54" height="38" viewBox="0 0 54 38" fill="none" xmlns="http://www.w3.org/2000/svg">
<path fill-rule="evenodd" clip-rule="evenodd" d="M6.47692 6.63382C6.47692 6.63382 12.8153 3.64873 14.205 2.66099C15.5946 1.67325 18.9512 0 20.1372 0C20.67 0 23.2788 0.0430788 25.22 0.85077C27.5999 1.84093 29.3283 3.56517 29.3283 2.66099C29.3283 1.01925 37.0942 6.05378 38.0643 4.68534C39.0344 3.31691 47.3322 5.31683 47.3322 6.63382C47.3322 7.95081 51.8887 15.1369 51.8887 13.8978C51.8887 12.6587 55.1876 17.4778 53.5382 20.3908C51.8887 23.3039 53.9375 27.1873 51.8887 28.9988C49.84 30.8104 54.0442 35.4224 47.3322 35.4224C40.6203 35.4224 26.9354 37.848 24.0797 36.6352C21.2241 35.4224 14.849 40.2408 13.3463 36.6352C11.8436 33.0296 1.96888 32.281 1.96888 28.9988C1.96888 25.7167 -1.70137 26.5784 0.980354 21.9168C3.66208 17.2553 -0.553477 18.1149 1.96888 13.8978C4.49123 9.68064 6.47692 6.63382 6.47692 6.63382Z" fill="#ECF4F9"/>
<path fill-rule="evenodd" clip-rule="evenodd" d="M16.7472 28.8285C16.3748 28.6991 15.0504 28.2389 14.5814 26.575C13.7877 22.3485 13.8256 17.8193 14.5814 13.8718C14.5886 13.8595 14.5994 13.8276 14.6155 13.7797C14.7418 13.4054 15.1958 12.0593 16.84 11.5828C19.5442 10.8411 34.5342 10.8681 37.1659 11.5828C37.1783 11.5904 37.2105 11.6016 37.2587 11.6183C37.6311 11.7477 38.9555 12.2079 39.4246 13.8718L39.3921 13.6598C40.1771 17.922 40.1306 22.8189 39.4246 26.575C39.4174 26.5873 39.4066 26.6193 39.3904 26.6671C39.2642 27.0417 38.8101 28.3885 37.1659 28.864C34.4585 29.5927 19.5074 29.5906 16.84 28.864C16.8276 28.8564 16.7954 28.8452 16.7472 28.8285ZM24.4053 16.2861V24.1715L31.1803 20.2348L24.4053 16.2861Z" fill="#4C4C4C"/>
</svg>
