<svg width="12" height="12" viewBox="0 0 12 12" fill="none" xmlns="http://www.w3.org/2000/svg">
<g clip-path="url(#clip0)">
<g filter="url(#filter0_d)">
<path d="M9.92006 3.51542L9.51929 3.08594C9.46589 3.02859 9.40437 3 9.33482 3C9.26545 3 9.20396 3.02859 9.15055 3.08594L6.00004 6.46219L2.84967 3.08603C2.79624 3.02868 2.73475 3.00009 2.66529 3.00009C2.5958 3.00009 2.53431 3.02868 2.48091 3.08603L2.08019 3.51554C2.02667 3.57277 2 3.63867 2 3.71315C2 3.78756 2.02676 3.85346 2.08019 3.91069L5.81566 7.91412C5.86906 7.97138 5.93058 8 6.00004 8C6.06951 8 6.13091 7.97138 6.18428 7.91412L9.92006 3.91069C9.97347 3.85343 10 3.78753 10 3.71315C10 3.63867 9.97347 3.57277 9.92006 3.51542Z" fill="#F9F9F9"/>
</g>
</g>
<defs>
<filter id="filter0_d" x="-1" y="3" width="14" height="11" filterUnits="userSpaceOnUse" color-interpolation-filters="sRGB">
<feFlood flood-opacity="0" result="BackgroundImageFix"/>
<feColorMatrix in="SourceAlpha" type="matrix" values="0 0 0 0 0 0 0 0 0 0 0 0 0 0 0 0 0 0 127 0"/>
<feOffset dy="3"/>
<feGaussianBlur stdDeviation="1.5"/>
<feColorMatrix type="matrix" values="0 0 0 0 0 0 0 0 0 0 0 0 0 0 0 0 0 0 0.23 0"/>
<feBlend mode="normal" in2="BackgroundImageFix" result="effect1_dropShadow"/>
<feBlend mode="normal" in="SourceGraphic" in2="effect1_dropShadow" result="shape"/>
</filter>
<clipPath id="clip0">
<rect width="12" height="12" fill="white"/>
</clipPath>
</defs>
</svg>
