<svg width="12" height="12" viewBox="0 0 12 12" fill="none" xmlns="http://www.w3.org/2000/svg">
<g clip-path="url(#clip0)">
<g filter="url(#filter0_d)">
<path d="M9.92006 7.48458L9.51929 7.91406C9.46589 7.97141 9.40437 8 9.33482 8C9.26545 8 9.20396 7.97141 9.15055 7.91406L6.00004 4.53781L2.84967 7.91397C2.79624 7.97132 2.73475 7.99991 2.66529 7.99991C2.5958 7.99991 2.53431 7.97132 2.48091 7.91397L2.08019 7.48446C2.02667 7.42723 2 7.36133 2 7.28685C2 7.21244 2.02676 7.14654 2.08019 7.08931L5.81566 3.08588C5.86906 3.02862 5.93058 3 6.00004 3C6.06951 3 6.13091 3.02862 6.18428 3.08588L9.92006 7.08931C9.97347 7.14657 10 7.21247 10 7.28685C10 7.36133 9.97347 7.42723 9.92006 7.48458Z" fill="#F9F9F9"/>
</g>
</g>
<defs>
<filter id="filter0_d" x="-1" y="3" width="14" height="11" filterUnits="userSpaceOnUse" color-interpolation-filters="sRGB">
<feFlood flood-opacity="0" result="BackgroundImageFix"/>
<feColorMatrix in="SourceAlpha" type="matrix" values="0 0 0 0 0 0 0 0 0 0 0 0 0 0 0 0 0 0 127 0"/>
<feOffset dy="3"/>
<feGaussianBlur stdDeviation="1.5"/>
<feColorMatrix type="matrix" values="0 0 0 0 0 0 0 0 0 0 0 0 0 0 0 0 0 0 0.23 0"/>
<feBlend mode="normal" in2="BackgroundImageFix" result="effect1_dropShadow"/>
<feBlend mode="normal" in="SourceGraphic" in2="effect1_dropShadow" result="shape"/>
</filter>
<clipPath id="clip0">
<rect width="12" height="12" fill="white"/>
</clipPath>
</defs>
</svg>
