<svg width="23" height="23" viewBox="0 0 23 23" fill="none" xmlns="http://www.w3.org/2000/svg">
<g opacity="0.5">
<path d="M11.7831 2.37462V0.666531C11.7831 0.298375 11.4847 0 11.1167 0C10.7486 0 10.4502 0.298375 10.4502 0.666531V2.40075C10.7266 2.37462 11.0064 2.36053 11.2895 2.36053C11.4551 2.3607 11.6196 2.36569 11.7831 2.37462Z" fill="#5E7F9C"/>
<path d="M10.4502 19.9464V21.6808C10.4502 22.0488 10.7486 22.3472 11.1167 22.3472C11.4847 22.3472 11.7831 22.0488 11.7831 21.6808V19.9725C11.6196 19.9816 11.4551 19.9866 11.2895 19.9866C11.0064 19.9866 10.7266 19.9727 10.4502 19.9464Z" fill="#5E7F9C"/>
<path d="M6.93407 2.6431C6.75016 2.32427 6.34247 2.21495 6.02382 2.39903C5.70499 2.58311 5.59585 2.9908 5.77975 3.30945L6.17765 3.9985C6.53841 3.74069 6.91963 3.50952 7.31786 3.30756L6.93407 2.6431Z" fill="#5E7F9C"/>
<path d="M3.25276 5.96336C2.93393 5.77929 2.52642 5.8886 2.34234 6.20743C2.15826 6.52608 2.26757 6.93377 2.58623 7.11768L3.27304 7.51436C3.45918 7.10805 3.67557 6.71841 3.91895 6.34802L3.25276 5.96336Z" fill="#5E7F9C"/>
<path d="M2.75859 15.5288C2.43993 15.7128 2.33062 16.1203 2.5147 16.4392C2.63811 16.653 2.86223 16.7724 3.09254 16.7724C3.20547 16.7724 3.32011 16.7437 3.42512 16.6831L4.114 16.2853C3.85636 15.9244 3.62518 15.5434 3.42323 15.145L2.75859 15.5288Z" fill="#5E7F9C"/>
<path d="M6.07915 19.2106C5.89508 19.5293 6.00439 19.937 6.32304 20.1209C6.42806 20.1815 6.5427 20.2102 6.65562 20.2102C6.88611 20.2102 7.11006 20.0908 7.23347 19.877L7.62998 19.1902C7.22384 19.004 6.8342 18.7876 6.46381 18.5444L6.07915 19.2106Z" fill="#5E7F9C"/>
<path d="M15.6445 19.7043C15.7679 19.9181 15.9919 20.0375 16.2224 20.0375C16.3353 20.0375 16.4499 20.0088 16.555 19.9482C16.8736 19.7643 16.9829 19.3566 16.7989 19.0379L16.401 18.3489C16.0402 18.6067 15.6591 18.8379 15.2607 19.0396L15.6445 19.7043Z" fill="#5E7F9C"/>
<path d="M19.3263 16.3838C19.4314 16.4445 19.546 16.4732 19.6589 16.4732C19.8894 16.4732 20.1134 16.3538 20.2368 16.1399C20.4208 15.8211 20.3117 15.4136 19.9929 15.2295L19.3061 14.833C19.1199 15.2391 18.9035 15.6288 18.6602 15.9992L19.3263 16.3838Z" fill="#5E7F9C"/>
<path d="M21.8617 10.3345H20.0625C20.0886 10.6108 20.1027 10.8905 20.1027 11.1736C20.1027 11.3394 20.0976 11.5039 20.0886 11.6674H21.8617C22.2298 11.6674 22.5282 11.369 22.5282 11.001C22.5282 10.6328 22.2298 10.3345 21.8617 10.3345V10.3345Z" fill="#5E7F9C"/>
<path d="M2.51659 10.3345H0.666531C0.298375 10.3345 0 10.6328 0 11.001C0 11.369 0.298375 11.6674 0.666531 11.6674H2.49047C2.48153 11.5039 2.47637 11.3394 2.47637 11.1736C2.47637 10.8905 2.49047 10.6108 2.51659 10.3345V10.3345Z" fill="#5E7F9C"/>
<path d="M19.8202 6.81847C20.1391 6.63456 20.2482 6.22687 20.0641 5.90822C19.8801 5.58939 19.4724 5.48025 19.1537 5.66415L18.4648 6.06204C18.7225 6.42281 18.9537 6.80403 19.1556 7.20226L19.8202 6.81847Z" fill="#5E7F9C"/>
<path d="M16.4996 3.13673C16.6836 2.81807 16.5743 2.41039 16.2557 2.22631C15.9368 2.04223 15.5292 2.15154 15.3452 2.4702L14.9487 3.15701C15.355 3.34332 15.7445 3.55954 16.1149 3.80292L16.4996 3.13673Z" fill="#5E7F9C"/>
<path fill-rule="evenodd" clip-rule="evenodd" d="M18.7693 11.1736C18.7693 15.2983 15.4137 18.6538 11.2893 18.6538C7.16477 18.6538 3.80908 15.2983 3.80908 11.1736C3.80908 7.04912 7.1646 3.6936 11.2893 3.6936C15.4137 3.6936 18.7693 7.04912 18.7693 11.1736ZM14.4079 11.1736C14.4079 10.8056 14.1096 10.5072 13.7416 10.5072H11.9558V7.66013C11.9558 7.29198 11.6574 6.9936 11.2893 6.9936C10.9213 6.9936 10.6229 7.29198 10.6229 7.66013V11.1736C10.6229 11.5418 10.9213 11.8401 11.2893 11.8401H13.7416C14.1096 11.8401 14.4079 11.5418 14.4079 11.1736Z" fill="#5E7F9C"/>
</g>
</svg>
