<svg width="42" height="40" viewBox="0 0 42 40" fill="none" xmlns="http://www.w3.org/2000/svg">
<path fill-rule="evenodd" clip-rule="evenodd" d="M5.0376 6.98297C5.0376 6.98297 9.96749 3.84077 11.0483 2.80104C12.1292 1.76131 14.7398 0 15.6623 0C16.0767 0 18.1057 0.0453462 19.6156 0.895548C21.4666 1.93782 22.8109 3.75281 22.8109 2.80104C22.8109 1.0729 28.851 6.3724 29.6055 4.93194C30.3601 3.49148 36.8139 5.59666 36.8139 6.98297C36.8139 8.36927 40.3579 15.9336 40.3579 14.6292C40.3579 13.3249 42.9237 18.3976 41.6408 21.464C40.3579 24.5304 41.9514 28.6183 40.3579 30.5251C38.7644 32.432 42.0343 37.2867 36.8139 37.2867C31.5936 37.2867 20.9497 39.84 18.7287 38.5634C16.5076 37.2867 11.5492 42.3588 10.3805 38.5634C9.21171 34.768 1.53135 33.98 1.53135 30.5251C1.53135 27.0702 -1.32329 27.9772 0.762497 23.0703C2.84829 18.1634 -0.430482 19.0683 1.53135 14.6292C3.49318 10.1902 5.0376 6.98297 5.0376 6.98297Z" fill="#ECF4F9"/>
</svg>
