<?xml version="1.0" encoding="UTF-8"?>
<svg width="411px" height="100px" viewBox="0 0 411 100" version="1.1" xmlns="http://www.w3.org/2000/svg" xmlns:xlink="http://www.w3.org/1999/xlink">
    <!-- Generator: Sketch 64 (93537) - https://sketch.com -->
    <title>Group 3</title>
    <desc>Created with Sketch.</desc>
    <defs>
        <linearGradient x1="50%" y1="100%" x2="50%" y2="8.61263922e-15%" id="linearGradient-1">
            <stop stop-color="#FFC2CC" offset="0%"></stop>
            <stop stop-color="#FFF2F4" offset="100%"></stop>
        </linearGradient>
        <linearGradient x1="50.0001953%" y1="100%" x2="50.0001953%" y2="2.70682947e-14%" id="linearGradient-2">
            <stop stop-color="#FD3A84" offset="0%"></stop>
            <stop stop-color="#FFA68D" offset="100%"></stop>
        </linearGradient>
        <linearGradient x1="50%" y1="100%" x2="50%" y2="8.61263922e-15%" id="linearGradient-3">
            <stop stop-color="#FFC2CC" offset="0%"></stop>
            <stop stop-color="#FFF2F4" offset="100%"></stop>
        </linearGradient>
        <linearGradient x1="50.0001953%" y1="100%" x2="50.0001953%" y2="2.70682947e-14%" id="linearGradient-4">
            <stop stop-color="#FD3A84" offset="0%"></stop>
            <stop stop-color="#FFA68D" offset="100%"></stop>
        </linearGradient>
    </defs>
    <g id="Page-1" stroke="none" stroke-width="1" fill="none" fill-rule="evenodd">
        <g id="confirmation" transform="translate(-732.000000, -203.000000)">
            <g id="Group-6-Copy" transform="translate(732.000000, 203.000000)">
                <g id="Group-4">
                    <g id="Group-3" transform="translate(-116.000000, -288.000000)">
                        <path d="M141.974969,40.6209386 C157.647083,29.6253391 243.799135,9.00728595 267.060879,16.4744292 C329.836912,36.6258697 294.241049,5.68434189e-14 372.213949,5.68434189e-14 C450.186849,5.68434189e-14 516.437302,24.1691999 516.437302,38.8299993 C516.437302,53.4907986 567.824784,133.486473 567.824784,119.692667 C567.824784,105.898861 605.028261,159.54536 586.426522,191.973788 C567.824784,224.402217 590.930577,267.632962 567.824784,287.79872 C544.71899,307.964478 592.13306,359.30591 516.437302,359.30591 C440.741544,359.30591 286.406149,386.308124 254.200923,372.807017 C221.995697,359.30591 150.098615,412.94525 133.151728,372.807017 C116.204841,332.668784 64.8395816,324.336181 64.8395816,287.79872 C64.8395816,251.261259 23.4472847,260.853774 53.6912197,208.961131 C83.9351547,157.068487 -23.6069808,166.63792 4.83958165,119.692667 C33.2861441,72.7474149 126.302855,51.6165381 141.974969,40.6209386 Z" id="Mask" fill="#97B6CB" opacity="0.900000036" transform="translate(295.817504, 194.000000) scale(-1, 1) translate(-295.817504, -194.000000) "></path>
                        <g id="Group" transform="translate(386.000000, 333.000000)" fill-rule="nonzero">
                            <g id="mail-(1)" transform="translate(60.500000, 28.000000) rotate(-17.000000) translate(-60.500000, -28.000000) translate(40.000000, 5.000000)">
                                <path d="M17.9681203,45.4081397 C16.3279345,45.4081397 13.8676557,45.4081397 10.587284,45.4081397 L0,38.5838219 L10.587284,30.1501136 L8.03932113,27.3837721 L4.95053922,19.501885 L18.6246333,11.087759 L2.30032311,8.32626687 L4.95053922,4.4033378 L38.3873408,0.000137600006 C39.5272192,0.000137600006 40.4513409,0.924259243 40.4513409,2.0641377 C40.4513409,14.7574858 40.4513409,22.9419654 40.4513409,26.6175765 C40.4513409,26.705968 40.2649394,26.9606275 39.620224,27.3880722 C38.5233981,28.1152649 36.4941323,29.7937516 34.6581262,31.3976228 C31.7645272,33.9253706 28.8445583,38.6517344 25.9206898,40.7767155 C23.0056304,42.8952945 22.3015445,43.5542591 20.7330558,44.2128915 C20.1043519,44.4768939 18.767167,45.4081397 17.9681203,45.4081397 Z" id="Path" fill="url(#linearGradient-1)"></path>
                                <path d="M4.39740074,19.4547224 L18.6246333,11.087759 L2.30032311,8.32626687 L4.39740074,0.000137600006 L38.3872032,0.000137600006 C39.2763744,0.000137600006 40.0655105,0.569526426 40.3459393,1.41342727 C40.6262305,2.2571905 40.3346561,3.18571535 39.6221632,3.71781457 L8.03932113,27.3837721 L4.39740074,19.4547224 Z" id="Path" fill="url(#linearGradient-2)"></path>
                            </g>
                            <g id="mail-(1)" transform="translate(27.245712, 37.732469) rotate(-21.000000) translate(-27.245712, -37.732469) translate(5.745712, 18.232469)">
                                <path d="M0.000137600006,21.0013387 C0.000137600006,16.7930718 0.000137600006,10.4806715 0.000137600006,2.0641377 C0.000137600006,0.924259243 0.924259243,0.000137600006 2.0641377,0.000137600006 L31.4956232,0.000137600006 L29.1654596,10 L42.4904168,12.1628917 L31.4956232,18.2928832 C31.4899304,22.9050681 33.3971809,26.4394867 37.2173745,28.8961389 C37.8718578,29.3170176 33.860182,32.4963654 25.1823471,38.4341824 C25.0924595,38.495688 18.094915,34.9101758 9.80540992,28.6080912 C7.29927408,26.702805 5.05715987,25.0169989 2.88107357,23.3760555 C2.47264107,23.0680646 1.87152674,22.5355218 1.1821081,22.0166772 C0.690054177,21.6463659 0.000137600006,21.2877061 0.000137600006,21.0013387 Z" id="Path" fill="url(#linearGradient-3)"></path>
                                <path d="M35.2257392,28.8961389 C34.791336,28.8961389 34.3569328,28.7593645 33.9906416,28.4858157 L0.829040038,3.71781457 C0.116547205,3.18571535 -0.175027208,2.2571905 0.105264005,1.41342727 C0.385692818,0.569664026 1.17482885,0.000137600006 2.0640001,0.000137600006 L31.4956232,0.000137600006 L29.1654596,10 L42.4904168,12.1628917 C35.6355496,15.8948199 31.9706184,17.9381504 31.4956232,18.2928832 L36.4605617,28.4858157 C36.0946833,28.7593645 35.6601425,28.8961389 35.2257392,28.8961389 Z" id="Path" fill="url(#linearGradient-4)"></path>
                            </g>
                        </g>
                    </g>
                </g>
            </g>
        </g>
    </g>
</svg>