<?xml version="1.0" encoding="UTF-8"?>
<svg width="412px" height="107px" viewBox="0 0 412 107" version="1.1" xmlns="http://www.w3.org/2000/svg" xmlns:xlink="http://www.w3.org/1999/xlink">
    <!-- Generator: Sketch 64 (93537) - https://sketch.com -->
    <title>Group</title>
    <desc>Created with Sketch.</desc>
    <defs>
        <path d="M141.974969,40.6209386 C157.647083,29.6253391 243.799135,9.00728595 267.060879,16.4744292 C329.836912,36.6258697 294.241049,5.68434189e-14 372.213949,5.68434189e-14 C450.186849,5.68434189e-14 516.437302,24.1691999 516.437302,38.8299993 C516.437302,53.4907986 567.824784,133.486473 567.824784,119.692667 C567.824784,105.898861 605.028261,159.54536 586.426522,191.973788 C567.824784,224.402217 590.930577,267.632962 567.824784,287.79872 C544.71899,307.964478 592.13306,359.30591 516.437302,359.30591 C440.741544,359.30591 286.406149,386.308124 254.200923,372.807017 C221.995697,359.30591 150.098615,412.94525 133.151728,372.807017 C116.204841,332.668784 64.8395816,324.336181 64.8395816,287.79872 C64.8395816,251.261259 23.4472847,260.853774 53.6912197,208.961131 C83.9351547,157.068487 -23.6069808,166.63792 4.83958165,119.692667 C33.2861441,72.7474149 126.302855,51.6165381 141.974969,40.6209386 Z" id="path-1"></path>
        <filter x="-0.3%" y="-0.5%" width="100.7%" height="101.0%" filterUnits="objectBoundingBox" id="filter-2">
            <feGaussianBlur stdDeviation="1.5" in="SourceAlpha" result="shadowBlurInner1"></feGaussianBlur>
            <feOffset dx="0" dy="1" in="shadowBlurInner1" result="shadowOffsetInner1"></feOffset>
            <feComposite in="shadowOffsetInner1" in2="SourceAlpha" operator="arithmetic" k2="-1" k3="1" result="shadowInnerInner1"></feComposite>
            <feColorMatrix values="0 0 0 0 0   0 0 0 0 0   0 0 0 0 0  0 0 0 0.5 0" type="matrix" in="shadowInnerInner1"></feColorMatrix>
        </filter>
        <linearGradient x1="50%" y1="100%" x2="50%" y2="8.61263922e-15%" id="linearGradient-3">
            <stop stop-color="#FFC2CC" offset="0%"></stop>
            <stop stop-color="#FFF2F4" offset="100%"></stop>
        </linearGradient>
        <linearGradient x1="50.0001953%" y1="100%" x2="50.0001953%" y2="2.70682947e-14%" id="linearGradient-4">
            <stop stop-color="#FD3A84" offset="0%"></stop>
            <stop stop-color="#FFA68D" offset="100%"></stop>
        </linearGradient>
    </defs>
    <g id="Page-1" stroke="none" stroke-width="1" fill="none" fill-rule="evenodd">
        <g id="confirmation-deny" transform="translate(-732.000000, -203.000000)">
            <g id="Group-6" transform="translate(732.000000, 203.000000)">
                <g id="Group-4">
                    <g id="Group-3" transform="translate(-116.000000, -282.000000)">
                        <g id="Group">
                            <g id="Mask" transform="translate(295.817504, 194.000000) scale(-1, 1) translate(-295.817504, -194.000000) ">
                                <use fill="#F3AD4E" fill-rule="evenodd" xlink:href="#path-1"></use>
                                <use fill="black" fill-opacity="1" filter="url(#filter-2)" xlink:href="#path-1"></use>
                            </g>
                            <g id="Group-2" transform="translate(390.043042, 342.000138)" fill-rule="nonzero">
                                <path d="M15.0084969,41.172968 C10.9983276,40.3178478 7.89739214,39.3266235 6.02109616,38.6454751 C4.66148723,38.1518987 3.95709607,37.8873686 3.95709607,37.6366094 L3.95709607,2.0640001 C3.95709607,0.924121643 4.88121771,4.26325641e-14 6.02109616,4.26325641e-14 L38.9074977,4.4032002 L72.3442992,4.26325641e-14 C73.4841777,4.26325641e-14 74.4082993,0.924121643 74.4082993,2.0640001 C74.4082993,10.019061 74.4082993,15.9853567 74.4082993,19.9628872 C74.4082993,22.6333691 69.0458686,29.5294784 67.005087,34.0711229 C65.9886845,36.3330695 62.0393647,41.1468461 56.7899984,43.344002 C55.3554777,43.9444298 54.6182911,44.3029758 53.0436226,44.7864114 C50.761984,45.4868924 47.7674403,46.0138126 44.5069243,46.2323148 C37.0797633,46.7300431 26.6885478,44.1917482 19.3093698,42.344635 C19.0021455,42.2677324 18.120482,42.0019129 17.8252298,41.9289991 C16.6615495,41.6416233 15.9497285,41.3736742 15.0084969,41.172968 Z" id="Path" fill="url(#linearGradient-3)"></path>
                                <path d="M39.1826977,28.8960013 C38.7482945,28.8960013 38.3138913,28.7592269 37.9476,28.4856781 L4.78599851,3.71767697 C4.07350567,3.18557775 3.78193126,2.2570529 4.06222247,1.41328967 C4.34265129,0.569526426 5.13178732,1.90070182e-13 6.02095856,1.90070182e-13 L72.3441616,1.90070182e-13 C73.2333329,1.90070182e-13 74.0224689,0.569388826 74.3028977,1.41328967 C74.5831889,2.2570529 74.2916145,3.18557775 73.5791217,3.71767697 L40.4175202,28.4856781 C40.0516417,28.7592269 39.6171009,28.8960013 39.1826977,28.8960013 Z" id="Path" fill="url(#linearGradient-4)"></path>
                            </g>
                        </g>
                    </g>
                </g>
            </g>
        </g>
    </g>
</svg>