<?xml version="1.0" encoding="UTF-8"?>
<svg width="267px" height="89px" viewBox="0 0 267 89" version="1.1" xmlns="http://www.w3.org/2000/svg" xmlns:xlink="http://www.w3.org/1999/xlink">
    <!-- Generator: Sketch 64 (93537) - https://sketch.com -->
    <title>Group</title>
    <desc>Created with Sketch.</desc>
    <defs>
        <path d="M75.304291,21.5455654 C83.6168649,15.71344 129.312379,4.77751315 141.650534,8.73812631 C174.947281,19.4265593 156.067043,3.01500566e-14 197.42429,3.01500566e-14 C238.781538,3.01500566e-14 273.921137,12.8194743 273.921137,20.5956415 C273.921137,28.3718087 301.177335,70.8019471 301.177335,63.4856377 C301.177335,56.1693283 320.91026,84.6237215 311.043797,101.823935 C301.177335,119.024149 313.432772,141.95397 301.177335,152.649997 C288.921897,163.346024 314.070576,190.577797 273.921137,190.577797 C233.771698,190.577797 151.911369,204.899917 134.829544,197.738857 C117.747718,190.577797 79.6131169,219.028393 70.6243963,197.738857 C61.6356757,176.449321 34.3912646,172.029664 34.3912646,152.649997 C34.3912646,133.27033 12.4365665,138.358252 28.4781132,110.834113 C44.5196598,83.3099745 -12.5212702,88.3856533 2.56694026,63.4856377 C17.6551508,38.5856221 66.9917171,27.3776908 75.304291,21.5455654 Z" id="path-1"></path>
        <filter x="-0.5%" y="-0.7%" width="101.0%" height="101.5%" filterUnits="objectBoundingBox" id="filter-2">
            <feGaussianBlur stdDeviation="1" in="SourceAlpha" result="shadowBlurInner1"></feGaussianBlur>
            <feOffset dx="0" dy="1" in="shadowBlurInner1" result="shadowOffsetInner1"></feOffset>
            <feComposite in="shadowOffsetInner1" in2="SourceAlpha" operator="arithmetic" k2="-1" k3="1" result="shadowInnerInner1"></feComposite>
            <feColorMatrix values="0 0 0 0 0   0 0 0 0 0   0 0 0 0 0  0 0 0 0.5 0" type="matrix" in="shadowInnerInner1"></feColorMatrix>
        </filter>
        <linearGradient x1="50%" y1="100%" x2="50%" y2="8.61263922e-15%" id="linearGradient-3">
            <stop stop-color="#FFC2CC" offset="0%"></stop>
            <stop stop-color="#FFF2F4" offset="100%"></stop>
        </linearGradient>
        <linearGradient x1="50.0001953%" y1="100%" x2="50.0001953%" y2="2.70682947e-14%" id="linearGradient-4">
            <stop stop-color="#FD3A84" offset="0%"></stop>
            <stop stop-color="#FFA68D" offset="100%"></stop>
        </linearGradient>
    </defs>
    <g id="Page-1" stroke="none" stroke-width="1" fill="none" fill-rule="evenodd">
        <g id="Artboard-Copy-8" transform="translate(-9.000000, -102.000000)">
            <g id="Group-6" transform="translate(9.000000, 102.000000)">
                <g id="Group-4">
                    <g id="Group-3" transform="translate(-25.000000, -117.000000)">
                        <g id="Group-2">
                            <g id="Group">
                                <g id="Mask" transform="translate(156.903203, 102.898649) scale(-1, 1) translate(-156.903203, -102.898649) ">
                                    <use fill="#F3AD4E" fill-rule="evenodd" xlink:href="#path-1"></use>
                                    <use fill="black" fill-opacity="1" filter="url(#filter-2)" xlink:href="#path-1"></use>
                                </g>
                                <g id="Group-2" transform="translate(206.880938, 181.398722)" fill-rule="nonzero">
                                    <path d="M7.9605879,21.8383648 C5.83357243,21.3848044 4.18881948,20.8590537 3.19362195,20.4977689 C2.47247802,20.2359733 2.09886514,20.0956651 2.09886514,19.9626611 L2.09886514,1.09475681 C2.09886514,0.490159115 2.58902426,2.26125425e-14 3.19362195,2.26125425e-14 L20.6367471,2.33548119 L38.3718074,2.26125425e-14 C38.9764051,2.26125425e-14 39.4665642,0.490159115 39.4665642,1.09475681 C39.4665642,5.31416413 39.4665642,8.47871961 39.4665642,10.5884233 C39.4665642,12.0048613 36.6223019,15.662595 35.5398603,18.0715078 C35.000755,19.2712564 32.9060144,21.8245096 30.1217221,22.989893 C29.3608446,23.3083631 28.9698369,23.4985379 28.1346241,23.7549547 C26.9244307,24.1264936 25.3361085,24.4059749 23.6067132,24.5218697 C19.6673069,24.7858675 14.15575,23.4395421 10.2417941,22.4598233 C10.0788407,22.4190338 9.61120161,22.2780416 9.45459823,22.2393678 C8.83737592,22.0869421 8.45982223,21.9448205 7.9605879,21.8383648 Z" id="Path" fill="url(#linearGradient-3)"></path>
                                    <path d="M20.7827147,15.3265953 C20.5523048,15.3265953 20.321895,15.2540494 20.1276122,15.1089577 L2.53851948,1.97187596 C2.16060943,1.68964766 2.00595678,1.19715306 2.15462476,0.749616478 C2.30336572,0.302079895 2.72192774,1.00814252e-13 3.19354897,1.00814252e-13 L38.3717344,1.00814252e-13 C38.8433556,1.00814252e-13 39.2619176,0.302006911 39.4106586,0.749616478 C39.5593266,1.19715306 39.4046739,1.68964766 39.0267639,1.97187596 L21.4376712,15.1089577 C21.2436073,15.2540494 21.0131245,15.3265953 20.7827147,15.3265953 Z" id="Path" fill="url(#linearGradient-4)"></path>
                                </g>
                            </g>
                        </g>
                    </g>
                </g>
            </g>
        </g>
    </g>
</svg>