<svg width="28" height="28" viewBox="0 0 28 28" fill="none" xmlns="http://www.w3.org/2000/svg">
<rect width="28" height="28" rx="6" fill="#D27C37"/>
<path d="M13.5597 19.62C13.9997 19.62 14.3597 19.5867 14.6397 19.52C14.933 19.44 15.1664 19.34 15.3397 19.22C15.513 19.0867 15.633 18.9333 15.6997 18.76C15.7664 18.5867 15.7997 18.3933 15.7997 18.18C15.7997 17.7267 15.5864 17.3533 15.1597 17.06C14.733 16.7533 13.9997 16.4267 12.9597 16.08C12.5064 15.92 12.053 15.74 11.5997 15.54C11.1464 15.3267 10.7397 15.0667 10.3797 14.76C10.0197 14.44 9.72635 14.06 9.49969 13.62C9.27302 13.1667 9.15969 12.62 9.15969 11.98C9.15969 11.34 9.27969 10.7667 9.51969 10.26C9.75969 9.74 10.0997 9.3 10.5397 8.94C10.9797 8.58 11.513 8.30667 12.1397 8.12C12.7664 7.92 13.473 7.82 14.2597 7.82C15.193 7.82 15.9997 7.92 16.6797 8.12C17.3597 8.32 17.9197 8.54 18.3597 8.78L17.4597 11.24C17.073 11.04 16.6397 10.8667 16.1597 10.72C15.693 10.56 15.1264 10.48 14.4597 10.48C13.713 10.48 13.173 10.5867 12.8397 10.8C12.5197 11 12.3597 11.3133 12.3597 11.74C12.3597 11.9933 12.4197 12.2067 12.5397 12.38C12.6597 12.5533 12.8264 12.7133 13.0397 12.86C13.2664 12.9933 13.5197 13.12 13.7997 13.24C14.093 13.3467 14.413 13.46 14.7597 13.58C15.4797 13.8467 16.1064 14.1133 16.6397 14.38C17.173 14.6333 17.613 14.9333 17.9597 15.28C18.3197 15.6267 18.5864 16.0333 18.7597 16.5C18.933 16.9667 19.0197 17.5333 19.0197 18.2C19.0197 19.4933 18.5664 20.5 17.6597 21.22C16.753 21.9267 15.3864 22.28 13.5597 22.28C12.9464 22.28 12.393 22.24 11.8997 22.16C11.4064 22.0933 10.9664 22.0067 10.5797 21.9C10.2064 21.7933 9.87969 21.68 9.59969 21.56C9.33302 21.44 9.10635 21.3267 8.91969 21.22L9.79969 18.74C10.213 18.9667 10.7197 19.1733 11.3197 19.36C11.933 19.5333 12.6797 19.62 13.5597 19.62Z" fill="#F2F2F2"/>
</svg>
