<svg width="124" height="113" viewBox="0 0 124 113" fill="none" xmlns="http://www.w3.org/2000/svg">
<g opacity="0.680588">
<path fill-rule="evenodd" clip-rule="evenodd" d="M97.455 26.6092C97.3602 26.2829 97.1337 26.0109 96.83 25.8592C96.2307 25.5548 95.4984 25.7947 95.1944 26.3949L95.1921 26.3995C95.1927 26.4332 89.238 38.5164 70.3529 40.9335C67.8893 41.2403 65.488 41.9273 63.2345 42.9701C59.2003 44.811 55.8967 47.95 53.8492 51.8877C51.938 55.5864 51.1929 59.779 51.7125 63.911C52.0947 66.923 53.1518 69.8097 54.8048 72.3549C51.4862 74.8303 40.9714 83.3703 40.1668 92.3537C40.1079 93.024 40.603 93.6153 41.2723 93.6744C41.9419 93.7334 42.5321 93.2376 42.591 92.5672C43.3319 84.5479 53.1982 76.6117 56.2778 74.3089C60.1022 78.848 65.7534 81.3486 71.7767 81.6677C75.8302 81.8587 79.872 81.0964 83.5783 79.4416C87.602 77.6675 91.1355 74.9415 93.8748 71.4979C100.934 62.6209 104.112 47.8523 97.455 26.6092ZM56.9213 71.1127C56.4447 70.3892 56.0225 69.6313 55.658 68.8453C54.8908 67.1865 54.3837 65.4193 54.1546 63.6057C53.6792 59.9669 54.318 56.2692 55.9866 53.0019C57.7913 49.5372 60.7017 46.7771 64.2544 45.1609C66.2854 44.2328 68.4475 43.625 70.6642 43.3589C83.1296 41.7946 90.3792 36.0993 94.0997 31.9941C92.0005 39.377 88.2835 46.1982 83.2196 51.9609L82.35 44.5151C82.3007 43.844 81.7173 43.3399 81.0472 43.3893C80.377 43.4387 79.8737 44.0228 79.9231 44.694C79.9255 44.7271 79.9293 44.7602 79.9344 44.793L81.0494 54.3623C75.4967 60.2031 67.7398 66.1092 56.9213 71.1127ZM91.9656 69.9757L91.9655 69.969C98.0252 62.3619 100.989 49.9606 96.5254 32.2884C95.1137 37.7 91.6569 46.5142 83.3286 55.5076C83.2813 55.5696 83.2283 55.6269 83.1702 55.6787C80.0118 59.0248 76.5361 62.0555 72.7921 64.7282L81.0264 66.1399C81.6631 66.2615 82.093 66.8617 82.0038 67.5046C81.9114 68.1712 81.2969 68.6366 80.6313 68.544L69.9154 66.711C66.2414 69.1088 62.4003 71.2394 58.4215 73.0864C61.9099 76.847 66.7527 79.058 71.8753 79.2284C75.5561 79.4146 79.2293 78.7323 82.5985 77.2366C86.2623 75.6124 89.4769 73.1205 91.9656 69.9757Z" fill="url(#paint0_linear)"/>
<path fill-rule="evenodd" clip-rule="evenodd" d="M30.2827 22.7554C30.4425 22.5792 30.6684 22.4775 30.906 22.4753C31.3765 22.4677 31.7636 22.8433 31.7707 23.3142L31.7707 23.3178C31.76 23.3388 31.7986 32.7683 42.9386 40.0841C44.3944 41.0331 45.6944 42.2022 46.7922 43.5498C48.7655 45.946 49.8807 48.9346 49.9606 52.0404C50.028 54.9539 49.2103 57.8203 47.6154 60.2606C46.4507 62.0383 44.8998 63.5301 43.0787 64.6242C44.4071 67.1999 48.4019 75.7995 46.1516 81.6983C45.9829 82.1382 45.49 82.3583 45.0507 82.19C44.6114 82.0217 44.3921 81.5286 44.5608 81.0888C46.5555 75.8161 42.7833 67.7954 41.5524 65.4016C37.7534 67.0838 33.4306 66.9229 29.5431 65.2754C26.9342 64.1517 24.6252 62.4319 22.8012 60.2534C20.814 57.9025 19.4274 55.1031 18.7606 52.096C17.043 44.3446 19.5755 34.0777 30.2827 22.7554ZM42.1284 63.1931C42.6502 62.8842 43.1484 62.5369 43.619 62.1543C44.6107 61.3461 45.4719 60.3898 46.1726 59.3191C47.5883 57.1756 48.3211 54.6532 48.2739 52.0855C48.2017 49.3519 47.2175 46.7222 45.4783 44.6152C44.4853 43.408 43.3114 42.3622 41.9984 41.5145C34.6358 36.7052 31.8223 30.8974 30.7413 27.1729C29.7965 32.4621 30.0419 37.8942 31.4595 43.0738L34.2914 38.6561C34.5284 38.249 35.0501 38.1108 35.4566 38.3475C35.8631 38.5843 36.0005 39.1063 35.7635 39.5134C35.7518 39.5335 35.7393 39.5531 35.726 39.5722L32.088 45.2506C33.7892 50.6292 36.8572 56.7254 42.1284 63.1931ZM20.4289 51.7242L20.431 51.72C18.9528 45.0744 20.8936 36.3625 29.1248 26.6138C28.3524 30.4517 27.8225 37.0579 30.3026 45.2718C30.3134 45.3253 30.3291 45.3776 30.3498 45.4281C31.3101 48.5024 32.5668 51.4758 34.1023 54.3062L28.4884 52.6676C28.0506 52.5487 27.5959 52.7944 27.4547 53.2263C27.3083 53.674 27.5521 54.1554 27.9993 54.3014L35.3038 56.4364C36.8795 59.0725 38.6423 61.5916 40.5788 63.9746C37.2301 65.2702 33.5048 65.1751 30.2296 63.7104C27.8566 62.6981 25.755 61.1417 24.0942 59.1667C22.2875 57.0206 21.0297 54.4664 20.4289 51.7242Z" fill="url(#paint1_linear)"/>
<path d="M30.906 22.4753L30.9117 22.8252L30.9094 22.8252L30.906 22.4753ZM30.2827 22.7554L30.542 22.9905L30.537 22.9958L30.2827 22.7554ZM31.7707 23.3142L32.1206 23.309L32.1207 23.3119L31.7707 23.3142ZM31.7707 23.3178L32.1207 23.3155L32.1213 23.4007L32.0826 23.4767L31.7707 23.3178ZM42.9386 40.0841L42.7474 40.3773L42.7464 40.3766L42.9386 40.0841ZM46.7922 43.5498L46.522 43.7723L46.5209 43.7709L46.7922 43.5498ZM49.9606 52.0404L50.3105 52.0314L50.3105 52.0323L49.9606 52.0404ZM47.6154 60.2606L47.9084 60.452L47.9082 60.4524L47.6154 60.2606ZM43.0787 64.6242L42.7677 64.7846L42.6173 64.4931L42.8985 64.3242L43.0787 64.6242ZM46.1516 81.6983L46.4786 81.8231L46.4784 81.8236L46.1516 81.6983ZM45.0507 82.19L44.9255 82.5168L44.9255 82.5168L45.0507 82.19ZM44.5608 81.0888L44.8882 81.2126L44.8876 81.2141L44.5608 81.0888ZM41.5524 65.4016L41.4107 65.0815L41.7127 64.9478L41.8637 65.2415L41.5524 65.4016ZM29.5431 65.2754L29.4065 65.5976L29.4047 65.5968L29.5431 65.2754ZM22.8012 60.2534L23.0685 60.0274L23.0695 60.0287L22.8012 60.2534ZM18.7606 52.096L18.4189 52.1717L18.4189 52.1717L18.7606 52.096ZM43.619 62.1543L43.8401 62.4256L43.8398 62.4258L43.619 62.1543ZM42.1284 63.1931L42.3067 63.4943L42.0474 63.6478L41.8571 63.4143L42.1284 63.1931ZM46.1726 59.3191L45.8798 59.1275L45.8806 59.1262L46.1726 59.3191ZM48.2739 52.0855L48.6238 52.0762L48.6239 52.079L48.2739 52.0855ZM45.4783 44.6152L45.2083 44.8381L45.208 44.8376L45.4783 44.6152ZM41.9984 41.5145L41.8086 41.8086L41.807 41.8076L41.9984 41.5145ZM30.7413 27.1729L30.3967 27.1114L31.0774 27.0753L30.7413 27.1729ZM31.4595 43.0738L31.7542 43.2627L31.3296 43.925L31.1219 43.1662L31.4595 43.0738ZM34.2914 38.6561L34.5939 38.8322L34.5901 38.8387L34.5861 38.845L34.2914 38.6561ZM35.4566 38.3475L35.2805 38.65L35.4566 38.3475ZM35.7635 39.5134L35.461 39.3374L35.461 39.3373L35.7635 39.5134ZM35.726 39.5722L35.4311 39.3832L35.4389 39.372L35.726 39.5722ZM32.088 45.2506L31.7543 45.3561L31.7049 45.1998L31.7933 45.0618L32.088 45.2506ZM20.431 51.72L20.7727 51.644L20.8 51.7668L20.7429 51.8788L20.431 51.72ZM20.4289 51.7242L20.087 51.799L20.0602 51.6768L20.1171 51.5653L20.4289 51.7242ZM29.1248 26.6138L28.8574 26.388L29.4679 26.6828L29.1248 26.6138ZM30.3026 45.2718L30.6377 45.1706L30.6425 45.1865L30.6457 45.2027L30.3026 45.2718ZM30.3498 45.4281L30.6737 45.2955L30.6794 45.3094L30.6838 45.3237L30.3498 45.4281ZM34.1023 54.3062L34.4099 54.1393L34.8104 54.8775L34.0042 54.6422L34.1023 54.3062ZM28.4884 52.6676L28.5802 52.3298L28.5865 52.3316L28.4884 52.6676ZM27.4547 53.2263L27.122 53.1175L27.122 53.1175L27.4547 53.2263ZM27.9993 54.3014L27.901 54.6375L27.8906 54.6341L27.9993 54.3014ZM35.3038 56.4364L35.402 56.1005L35.5338 56.139L35.6042 56.2569L35.3038 56.4364ZM40.5788 63.9746L40.8505 63.7538L41.154 64.1273L40.7051 64.301L40.5788 63.9746ZM30.2296 63.7104L30.3669 63.3884L30.3725 63.3909L30.2296 63.7104ZM24.0942 59.1667L24.362 58.9413L24.3621 58.9415L24.0942 59.1667ZM30.9094 22.8252C30.7696 22.8266 30.6363 22.8864 30.542 22.9905L30.0234 22.5203C30.2486 22.2719 30.5672 22.1285 30.9027 22.1253L30.9094 22.8252ZM31.4207 23.3195C31.4165 23.0417 31.1884 22.8208 30.9117 22.8252L30.9004 22.1253C31.5646 22.1146 32.1106 22.645 32.1206 23.309L31.4207 23.3195ZM31.4207 23.3202L31.4207 23.3166L32.1207 23.3119L32.1207 23.3155L31.4207 23.3202ZM42.7464 40.3766C37.115 36.6784 34.2773 32.4363 32.8513 29.1031C32.1391 27.4381 31.7801 26.0025 31.5999 24.9783C31.5098 24.4661 31.4643 24.0565 31.4417 23.7719C31.4304 23.6297 31.4248 23.5184 31.4222 23.4409C31.4209 23.4023 31.4203 23.3714 31.4202 23.3489C31.4201 23.3378 31.4202 23.3274 31.4204 23.3184C31.4204 23.3143 31.4206 23.3079 31.421 23.3007C31.4212 23.2976 31.4216 23.2902 31.4226 23.2811C31.4232 23.2761 31.4249 23.2634 31.4263 23.2556C31.4292 23.2412 31.444 23.1922 31.4589 23.1589L32.0826 23.4767C32.0974 23.4435 32.1121 23.3947 32.115 23.3805C32.1163 23.373 32.118 23.3606 32.1186 23.3559C32.1195 23.3475 32.1198 23.3411 32.1199 23.3394C32.1202 23.3348 32.1202 23.3321 32.1202 23.3329C32.1202 23.3336 32.1201 23.3375 32.1202 23.3451C32.1203 23.3599 32.1207 23.3841 32.1218 23.4175C32.124 23.484 32.129 23.5846 32.1395 23.7165C32.1605 23.9802 32.2033 24.3679 32.2893 24.857C32.4615 25.8353 32.8064 27.2183 33.4949 28.8277C34.8706 32.0434 37.6221 36.174 43.1307 39.7915L42.7464 40.3766ZM46.5209 43.7709C45.4459 42.4513 44.173 41.3065 42.7474 40.3773L43.1297 39.7909C44.6158 40.7596 45.9429 41.9531 47.0636 43.3288L46.5209 43.7709ZM49.6107 52.0494C49.5328 49.0216 48.4456 46.1081 46.5221 43.7723L47.0624 43.3273C49.0854 45.7838 50.2286 48.8476 50.3105 52.0314L49.6107 52.0494ZM47.3225 60.0691C48.8786 57.6881 49.6765 54.8912 49.6107 52.0485L50.3105 52.0323C50.3796 55.0166 49.542 57.9526 47.9084 60.452L47.3225 60.0691ZM42.8985 64.3242C44.6744 63.2572 46.1868 61.8025 47.3227 60.0687L47.9082 60.4524C46.7146 62.2742 45.1253 63.8029 43.259 64.9242L42.8985 64.3242ZM45.8246 81.5736C46.909 78.7309 46.4976 75.1968 45.6197 72.008C44.7453 68.8314 43.4262 66.0616 42.7677 64.7846L43.3898 64.4638C44.0596 65.7625 45.4022 68.5804 46.2946 71.8222C47.1837 75.0519 47.6445 78.7669 46.4786 81.8231L45.8246 81.5736ZM45.1759 81.8632C45.4343 81.9622 45.7252 81.8328 45.8248 81.573L46.4784 81.8236C46.2407 82.4435 45.5456 82.7544 44.9255 82.5168L45.1759 81.8632ZM44.8876 81.2141C44.788 81.4739 44.9177 81.7642 45.1759 81.8632L44.9255 82.5168C44.3051 82.2792 43.9963 81.5833 44.234 80.9635L44.8876 81.2141ZM41.8637 65.2415C42.4839 66.4478 43.7462 69.0744 44.6027 72.0694C45.4552 75.0498 45.9271 78.4663 44.8882 81.2126L44.2334 80.9649C45.1892 78.4386 44.7724 75.2083 43.9297 72.2618C43.0911 69.3298 41.8518 66.7492 41.2411 65.5616L41.8637 65.2415ZM29.6797 64.9531C33.4904 66.5681 37.7117 66.7195 41.4107 65.0815L41.6941 65.7216C37.7951 67.4481 33.3708 67.2777 29.4065 65.5976L29.6797 64.9531ZM23.0695 60.0287C24.8584 62.1652 27.1229 63.8519 29.6816 64.9539L29.4047 65.5968C26.7455 64.4515 24.392 62.6985 22.5328 60.4781L23.0695 60.0287ZM19.1023 52.0202C19.7568 54.972 21.1179 57.7199 23.0685 60.0274L22.5339 60.4793C20.51 58.0851 19.0979 55.2342 18.4189 52.1717L19.1023 52.0202ZM30.537 22.9958C19.882 34.2629 17.4175 44.4165 19.1023 52.0202L18.4189 52.1717C16.6686 44.2727 19.269 33.8924 30.0284 22.5149L30.537 22.9958ZM43.8398 62.4258C43.3558 62.8194 42.8434 63.1766 42.3067 63.4943L41.9501 62.892C42.457 62.5919 42.941 62.2545 43.3981 61.8827L43.8398 62.4258ZM46.4655 59.5108C45.7451 60.6116 44.8596 61.5947 43.8401 62.4256L43.3978 61.8829C44.3617 61.0975 45.1988 60.1681 45.8798 59.1275L46.4655 59.5108ZM48.6239 52.079C48.6724 54.7175 47.9194 57.3094 46.4647 59.512L45.8806 59.1262C47.2573 57.0417 47.9699 54.5888 47.924 52.0919L48.6239 52.079ZM45.7482 44.3924C47.5372 46.5597 48.5495 49.2646 48.6238 52.0762L47.924 52.0947C47.8539 49.4391 46.8978 46.8847 45.2083 44.838L45.7482 44.3924ZM42.1883 41.2205C43.5316 42.0877 44.7326 43.1578 45.7486 44.3929L45.208 44.8376C44.2379 43.6583 43.0912 42.6366 41.8086 41.8086L42.1883 41.2205ZM31.0774 27.0753C32.1391 30.7332 34.9084 36.4652 42.1898 41.2215L41.807 41.8076C34.3632 36.9452 31.5056 31.0615 30.4051 27.2705L31.0774 27.0753ZM31.1219 43.1662C29.6906 37.9365 29.4428 32.4517 30.3967 27.1114L31.0858 27.2345C30.1502 32.4725 30.3932 37.852 31.7971 42.9814L31.1219 43.1662ZM34.5861 38.845L31.7542 43.2627L31.1649 42.8849L33.9968 38.4672L34.5861 38.845ZM35.2805 38.65C35.0415 38.5108 34.7339 38.5917 34.5939 38.8322L33.989 38.48C34.323 37.9062 35.0588 37.7108 35.6328 38.0451L35.2805 38.65ZM35.461 39.3373C35.601 39.0968 35.5195 38.7892 35.2805 38.65L35.6328 38.0451C36.2067 38.3793 36.4 39.1157 36.066 39.6895L35.461 39.3373ZM35.4389 39.372C35.4466 39.361 35.454 39.3494 35.461 39.3374L36.066 39.6894C36.0496 39.7176 36.032 39.7453 36.0132 39.7723L35.4389 39.372ZM31.7933 45.0618L35.4313 39.3834L36.0207 39.761L32.3827 45.4394L31.7933 45.0618ZM41.8571 63.4143C36.5592 56.9139 33.4694 50.7788 31.7543 45.3561L32.4217 45.145C34.109 50.4797 37.1551 56.537 42.3997 62.972L41.8571 63.4143ZM20.7429 51.8788L20.7408 51.883L20.1171 51.5653L20.1192 51.5611L20.7429 51.8788ZM29.3922 26.8396C21.2088 36.5317 19.3249 45.1353 20.7727 51.644L20.0894 51.7959C18.5807 45.0135 20.5783 36.1934 28.8574 26.388L29.3922 26.8396ZM29.9676 45.373C27.4679 37.0943 28 30.4285 28.7817 26.5447L29.4679 26.6828C28.7047 30.4749 28.1771 37.0215 30.6377 45.1706L29.9676 45.373ZM30.0258 45.5606C29.9967 45.4893 29.9746 45.4158 29.9595 45.3409L30.6457 45.2027C30.6522 45.2349 30.6616 45.2659 30.6737 45.2955L30.0258 45.5606ZM33.7946 54.4731C32.2484 51.6227 30.9828 48.6284 30.0157 45.5324L30.6838 45.3237C31.6374 48.3764 32.8853 51.3289 34.4099 54.1393L33.7946 54.4731ZM28.5865 52.3316L34.2004 53.9702L34.0042 54.6422L28.3904 53.0036L28.5865 52.3316ZM27.122 53.1175C27.321 52.5089 27.962 52.162 28.5801 52.3299L28.3967 53.0054C28.1391 52.9355 27.8708 53.08 27.7874 53.3351L27.122 53.1175ZM27.8906 54.6341C27.2592 54.428 26.9157 53.7486 27.122 53.1175L27.7874 53.3351C27.7009 53.5995 27.845 53.8829 28.1079 53.9687L27.8906 54.6341ZM35.2056 56.7724L27.9011 54.6374L28.0975 53.9655L35.402 56.1005L35.2056 56.7724ZM40.3072 64.1953C38.3601 61.7993 36.5877 59.2664 35.0034 56.616L35.6042 56.2569C37.1713 58.8785 38.9245 61.3839 40.8505 63.7538L40.3072 64.1953ZM30.3725 63.3909C33.5624 64.8175 37.1908 64.9101 40.4525 63.6481L40.7051 64.301C37.2694 65.6302 33.4472 65.5328 30.0867 64.0299L30.3725 63.3909ZM24.3621 58.9415C25.9876 60.8744 28.0445 62.3977 30.3669 63.3885L30.0923 64.0323C27.6688 62.9985 25.5224 61.409 23.8264 59.392L24.3621 58.9415ZM20.7708 51.6493C21.3594 54.3361 22.5919 56.8387 24.362 58.9413L23.8265 59.3921C21.9832 57.2026 20.6999 54.5967 20.087 51.799L20.7708 51.6493Z" fill="#F6C27B"/>
</g>
<defs>
<linearGradient id="paint0_linear" x1="31.7025" y1="59.104" x2="53.2689" y2="102.079" gradientUnits="userSpaceOnUse">
<stop stop-color="#EBB367"/>
<stop offset="1" stop-color="#D27C37"/>
</linearGradient>
<linearGradient id="paint1_linear" x1="61.6799" y1="63.3765" x2="34.9239" y2="83.7967" gradientUnits="userSpaceOnUse">
<stop stop-color="#EBB367"/>
<stop offset="1" stop-color="#D27C37"/>
</linearGradient>
</defs>
</svg>
