<svg width="30" height="41" viewBox="0 0 30 41" fill="none" xmlns="http://www.w3.org/2000/svg">
<path d="M21.086 36.5819H8.42158C7.8415 36.5819 7.37158 36.1114 7.37158 35.5319C7.37158 34.9519 7.8415 34.4819 8.42158 34.4819H21.086C21.6655 34.4819 22.136 34.9519 22.136 35.5319C22.136 36.1114 21.6655 36.5819 21.086 36.5819Z" fill="#194168"/>
<path d="M4.28763 10.9887C4.00638 10.9893 3.73685 10.8768 3.53998 10.6758L0.505407 7.59786C0.103454 7.18419 0.110485 6.52325 0.521227 6.11837C0.932555 5.7129 1.59349 5.71524 2.00131 6.12364L5.03529 9.20157C5.33236 9.50333 5.41966 9.95333 5.25619 10.3441C5.09271 10.7344 4.71127 10.9887 4.28763 10.9887Z" fill="#194168"/>
<path d="M18.6231 40.9788H10.8835C10.3034 40.9788 9.8335 40.5083 9.8335 39.9288C9.8335 39.3487 10.3034 38.8788 10.8835 38.8788H18.6231C19.2032 38.8788 19.6731 39.3487 19.6731 39.9288C19.6731 40.5083 19.2032 40.9788 18.6231 40.9788Z" fill="#194168"/>
<path d="M14.4895 6.76763C13.91 6.76763 13.4395 6.29712 13.4395 5.71763V1.40864C13.4395 0.828565 13.91 0.358643 14.4895 0.358643C15.0695 0.358643 15.5395 0.828565 15.5395 1.40864V5.71821C15.5395 6.29771 15.0695 6.76763 14.4895 6.76763Z" fill="#194168"/>
<path d="M25.0878 11.3848C24.6571 11.3848 24.2704 11.1223 24.1116 10.7227C23.9528 10.3231 24.0536 9.86662 24.3665 9.57131L27.5323 6.58069C27.8042 6.31936 28.1962 6.22326 28.5583 6.33049C28.9204 6.43713 29.197 6.73069 29.2831 7.09807C29.3692 7.46545 29.2515 7.851 28.9743 8.10764L25.8085 11.0983C25.6134 11.2828 25.3556 11.3854 25.0878 11.3848Z" fill="#194168"/>
<path d="M23 20.404C22.9938 22.5534 22.1582 24.6201 20.6638 26.1845C19.1181 27.7797 18.3998 29.801 18.6876 31.9636V32H10.242C10.5254 29.8605 9.81197 27.7093 8.30125 26.1496C6.78096 24.561 5.95497 22.4466 6.0019 20.2623C6.0742 15.8303 9.88284 12.0711 14.3753 12.0007C16.6531 11.9714 18.8476 12.8436 20.4684 14.4227C22.0893 16.0018 23.001 18.1564 23 20.404Z" fill="url(#paint0_radial)"/>
<defs>
<radialGradient id="paint0_radial" cx="0" cy="0" r="1" gradientUnits="userSpaceOnUse" gradientTransform="translate(12.4901 14.2366) rotate(83.5446) scale(17.8768 15.269)">
<stop stop-color="#F6C37E"/>
<stop offset="0.535605" stop-color="#D48E04"/>
<stop offset="1" stop-color="#BD6B2A"/>
</radialGradient>
</defs>
</svg>
