<svg width="336" height="209" viewBox="0 0 336 209" fill="none" xmlns="http://www.w3.org/2000/svg">
<path fill-rule="evenodd" clip-rule="evenodd" d="M40.3008 37.0059C40.3008 37.0059 79.7399 20.6665 88.3866 15.2599C97.0332 9.85328 117.919 0.694458 125.298 0.694458C128.613 0.694458 144.846 0.930258 156.925 5.35131C171.732 10.7711 182.487 20.2091 182.487 15.2599C182.487 6.27352 230.808 33.8309 236.844 26.3406C242.88 18.8502 294.512 29.7971 294.512 37.0059C294.512 44.2147 322.863 83.5489 322.863 76.7665C322.863 69.984 343.389 96.3622 333.126 112.307C322.863 128.253 335.611 149.509 322.863 159.425C310.115 169.341 336.275 194.585 294.512 194.585C252.748 194.585 167.598 207.863 149.829 201.224C132.061 194.585 92.3937 220.96 83.0437 201.224C73.6937 181.488 12.2508 177.391 12.2508 159.425C12.2508 141.459 -10.5863 146.176 6.09998 120.66C22.7863 95.1443 -3.44386 99.8497 12.2508 76.7665C27.9455 53.6833 40.3008 37.0059 40.3008 37.0059Z" fill="white"/>
</svg>
