<svg width="22" height="22" viewBox="0 0 22 22" fill="none" xmlns="http://www.w3.org/2000/svg">
<mask id="path-1-inside-1" fill="white">
<path fill-rule="evenodd" clip-rule="evenodd" d="M2 2H7.30769V20H2V2ZM0 2C0 0.89543 0.895431 0 2 0H7.30769C8.41226 0 9.30769 0.895431 9.30769 2V20C9.30769 21.1046 8.41226 22 7.30769 22H2C0.895432 22 0 21.1046 0 20V2ZM14.6923 2H20V20H14.6923V2ZM12.6923 2C12.6923 0.89543 13.5877 0 14.6923 0H20C21.1046 0 22 0.895431 22 2V20C22 21.1046 21.1046 22 20 22H14.6923C13.5877 22 12.6923 21.1046 12.6923 20V2Z"/>
</mask>
<path d="M7.30769 2H9.30769V0H7.30769V2ZM2 2V0H0V2H2ZM7.30769 20V22H9.30769V20H7.30769ZM2 20H0V22H2V20ZM20 2H22V0H20V2ZM14.6923 2V0H12.6923V2H14.6923ZM20 20V22H22V20H20ZM14.6923 20H12.6923V22H14.6923V20ZM7.30769 0H2V4H7.30769V0ZM9.30769 20V2H5.30769V20H9.30769ZM2 22H7.30769V18H2V22ZM0 2V20H4V2H0ZM2 -2C-0.209138 -2 -2 -0.20914 -2 2H2V2V-2ZM7.30769 -2H2V2H7.30769V-2ZM11.3077 2C11.3077 -0.209141 9.51683 -2 7.30769 -2V2H7.30769H11.3077ZM11.3077 20V2H7.30769V20H11.3077ZM7.30769 24C9.51683 24 11.3077 22.2091 11.3077 20H7.30769V24ZM2 24H7.30769V20H2V24ZM-2 20C-2 22.2091 -0.209135 24 2 24V20H2H-2ZM-2 2V20H2V2H-2ZM20 0H14.6923V4H20V0ZM22 20V2H18V20H22ZM14.6923 22H20V18H14.6923V22ZM12.6923 2V20H16.6923V2H12.6923ZM14.6923 -2C12.4832 -2 10.6923 -0.20914 10.6923 2H14.6923V2V-2ZM20 -2H14.6923V2H20V-2ZM24 2C24 -0.209141 22.2091 -2 20 -2V2H20H24ZM24 20V2H20V20H24ZM20 24C22.2091 24 24 22.2091 24 20H20V24ZM14.6923 24H20V20H14.6923V24ZM10.6923 20C10.6923 22.2091 12.4832 24 14.6923 24V20H14.6923H10.6923ZM10.6923 2V20H14.6923V2H10.6923Z" fill="#D27C37" mask="url(#path-1-inside-1)"/>
</svg>
