<svg xmlns="http://www.w3.org/2000/svg" width="54" height="38" viewBox="0 0 54 38">
    <g fill="none" fill-rule="evenodd">
        <path fill="#F3AD4E" d="M6.477 6.634c4.226-1.99 6.802-3.315 7.728-3.973C15.595 1.673 18.951 0 20.137 0c.533 0 3.142.043 5.083.85 2.38.99 4.108 2.715 4.108 1.811 0-1.642 7.766 3.393 8.736 2.024.97-1.368 9.268.632 9.268 1.949 0 1.317 4.557 8.503 4.557 7.264 0-1.24 3.299 3.58 1.65 6.493-1.65 2.913.399 6.796-1.65 8.608-2.049 1.811 2.155 6.423-4.557 6.423s-20.397 2.426-23.252 1.213c-2.856-1.213-9.231 3.606-10.734 0C11.844 33.03 1.97 32.281 1.97 29s-3.67-2.42-.989-7.082c2.682-4.662-1.533-3.802.989-8.02 1.681-2.81 3.184-5.232 4.508-7.263z"/>
        <path fill="#FFF" fill-rule="nonzero" d="M14.581 26.575c.53 1.88 2.15 2.223 2.259 2.29 2.667.726 17.618.728 20.326 0 1.854-.537 2.195-2.182 2.259-2.29.706-3.756.752-8.653-.033-12.915l.033.212c-.53-1.88-2.151-2.223-2.26-2.289-2.63-.715-17.62-.742-20.325 0-1.854.537-2.195 2.18-2.259 2.289-.755 3.948-.793 8.477 0 12.703zm9.824-2.403v-7.886l6.775 3.949-6.775 3.937z"/>
    </g>
</svg>
