<svg width="259" height="24" viewBox="0 0 259 24" fill="none" xmlns="http://www.w3.org/2000/svg">
<path fill-rule="evenodd" clip-rule="evenodd" d="M7.44824 17.64C7.78424 16.38 8.12024 15.162 8.41424 13.986C8.58224 13.356 8.75024 12.726 8.91824 12.096C8.96024 11.886 8.96024 11.676 8.91824 11.466C8.45624 9.786 7.99424 8.064 7.57424 6.384C7.53224 6.216 7.49024 6.09 7.44824 5.922C7.82624 5.796 8.20424 5.712 8.54024 5.628C9.96824 5.25 11.4382 4.872 12.8662 4.452C13.1602 4.368 13.3702 4.242 13.5802 4.032C14.7982 2.814 16.0162 1.596 17.1922 0.378C17.3182 0.252 17.4022 0.126 17.4862 0C17.6542 0.168 17.7802 0.252 17.9062 0.378C19.1242 1.596 20.3842 2.856 21.6022 4.074C21.7702 4.242 21.9802 4.368 22.2322 4.452C23.9122 4.914 25.5922 5.334 27.2722 5.796C27.4402 5.838 27.5662 5.88 27.7342 5.922C27.6502 6.3 27.5662 6.636 27.4402 7.014C27.0622 8.484 26.6422 9.996 26.2222 11.466C26.1802 11.676 26.1382 11.886 26.2222 12.138C26.6842 13.818 27.1462 15.54 27.5662 17.22C27.6082 17.346 27.6502 17.514 27.6922 17.682C27.5662 17.724 27.4402 17.766 27.3142 17.808C25.6342 18.27 23.9122 18.732 22.2322 19.152C21.9382 19.236 21.7282 19.362 21.5182 19.572C20.3422 20.79 19.1242 21.966 17.9062 23.184C17.7802 23.31 17.6962 23.436 17.5702 23.604C17.4022 23.436 17.2762 23.352 17.1502 23.226C15.9322 22.008 14.6722 20.748 13.4542 19.53C13.2442 19.32 13.0762 19.236 12.7822 19.152C11.1022 18.69 9.42224 18.27 7.74224 17.808C7.78424 17.766 7.61624 17.724 7.44824 17.64ZM17.6962 0.546C17.4862 0.756 17.3602 0.84 17.2762 0.966C16.1422 2.1 15.0082 3.234 13.8742 4.368C13.6222 4.62 13.3702 4.746 13.0762 4.83C11.4802 5.25 9.88424 5.67 8.28824 6.132C8.16224 6.174 8.07824 6.216 7.95224 6.258C7.99424 6.426 8.03624 6.552 8.03624 6.678C8.45624 8.232 8.87624 9.744 9.29624 11.298C9.38024 11.634 9.38024 11.97 9.29624 12.306C8.87624 13.86 8.45624 15.372 8.03624 16.926C7.99424 17.094 7.95224 17.22 7.91024 17.388C8.12024 17.43 8.24624 17.472 8.41424 17.514C10.0102 17.934 11.5642 18.354 13.1602 18.774C13.4122 18.858 13.5802 18.942 13.7902 19.152C14.9662 20.328 16.1002 21.462 17.2762 22.638C17.4022 22.764 17.4862 22.848 17.6122 22.974C17.7382 22.848 17.8642 22.722 17.9902 22.638C19.1242 21.504 20.3002 20.328 21.4342 19.194C21.6022 18.984 21.8122 18.858 22.1062 18.816C23.7022 18.396 25.2562 17.976 26.8522 17.556C27.0202 17.514 27.1462 17.472 27.3142 17.43C27.2722 17.262 27.2302 17.094 27.2302 16.968C26.8102 15.414 26.4322 13.902 25.9702 12.348C25.8862 11.97 25.8862 11.676 25.9702 11.298C26.3902 9.786 26.8102 8.232 27.1882 6.72C27.2302 6.552 27.2722 6.426 27.3142 6.258C27.1462 6.216 27.0202 6.174 26.8942 6.132C25.3402 5.712 23.7862 5.292 22.2322 4.872C21.8962 4.788 21.6442 4.62 21.3922 4.368C20.3002 3.234 19.1662 2.142 18.0322 1.008C17.9062 0.84 17.8222 0.714 17.6962 0.546Z" fill="url(#paint0_linear)"/>
<path fill-rule="evenodd" clip-rule="evenodd" d="M17.5702 20.2021C17.2342 19.8241 16.8982 19.4881 16.5622 19.1521C15.9742 18.5641 15.3862 17.9761 14.7982 17.3881C14.6302 17.2201 14.4622 17.1361 14.2522 17.0521C13.0762 16.7581 11.9422 16.4221 10.8082 16.1281C10.6822 16.0861 10.5982 16.0441 10.4722 16.0021C10.4722 15.8761 10.5142 15.7501 10.5142 15.6661C10.8082 14.4901 11.1442 13.3141 11.4382 12.1801C11.4802 11.9701 11.4802 11.7601 11.4382 11.5501C11.1022 10.4161 10.8082 9.24007 10.5142 8.10607C10.4722 7.98007 10.4722 7.89607 10.4302 7.72807C10.5982 7.68607 10.7242 7.64407 10.8922 7.60207C11.9842 7.30807 13.1182 7.01407 14.2102 6.72007C14.4622 6.63607 14.6302 6.55207 14.8402 6.34207C15.6382 5.50207 16.4782 4.70407 17.2762 3.90607C17.3602 3.82207 17.4862 3.69607 17.6122 3.57007C17.7382 3.65407 17.8222 3.78007 17.9482 3.86407C18.7462 4.66207 19.5862 5.50207 20.3842 6.30007C20.5942 6.51007 20.8042 6.63607 21.0562 6.72007C22.1482 7.01407 23.2402 7.30807 24.3322 7.60207C24.4582 7.64407 24.5842 7.68607 24.7522 7.72807C24.7102 7.85407 24.7102 7.98007 24.7102 8.06407C24.4162 9.24007 24.0802 10.4161 23.7862 11.5501C23.7442 11.7601 23.7442 11.9701 23.7862 12.1801C24.1222 13.3141 24.4162 14.4901 24.7102 15.6241C24.7522 15.7501 24.7522 15.8341 24.7942 15.9601C24.6682 16.0021 24.5842 16.0441 24.4582 16.0861C23.3242 16.3801 22.1482 16.7161 21.0142 17.0101C20.7622 17.0941 20.5522 17.1781 20.3842 17.3881C19.5862 18.2281 18.7462 19.0261 17.9482 19.8241C17.8642 19.9081 17.7802 20.0341 17.5702 20.2021ZM17.6122 19.5721C17.7382 19.4461 17.8642 19.3621 17.9482 19.2361C18.7042 18.4801 19.4182 17.7661 20.1742 17.0101C20.3422 16.8001 20.5522 16.7161 20.8462 16.6321C21.8542 16.3801 22.8622 16.0861 23.8702 15.8341C23.9962 15.7921 24.1222 15.7501 24.2902 15.7081C24.2482 15.5401 24.2062 15.4141 24.2062 15.2881C23.9542 14.2801 23.6602 13.2301 23.3662 12.2221C23.2822 11.9701 23.2822 11.7601 23.3662 11.5501C23.6602 10.5001 23.9122 9.45007 24.2062 8.44207C24.2482 8.31607 24.2482 8.19007 24.2902 8.02207C24.1642 7.98007 24.0802 7.93807 23.9962 7.93807C22.9462 7.64407 21.8542 7.35007 20.8042 7.09807C20.5522 7.01407 20.3422 6.93007 20.1742 6.76207C19.4182 6.00607 18.7042 5.29207 17.9482 4.53607C17.8222 4.41007 17.7382 4.32607 17.5702 4.20007C17.4442 4.32607 17.3182 4.45207 17.1922 4.53607C16.4782 5.25007 15.7222 6.00607 15.0082 6.72007C14.7982 6.93007 14.6302 7.01407 14.3362 7.09807C13.3282 7.35007 12.3622 7.60207 11.3962 7.89607C11.2282 7.93807 11.0602 7.98007 10.8922 8.06407C10.9342 8.23207 10.9762 8.35807 10.9762 8.48407C11.2282 9.49207 11.5222 10.5001 11.7742 11.5081C11.8582 11.7601 11.8582 12.0121 11.7742 12.2641C11.4802 13.2721 11.2282 14.3221 10.9342 15.3301C10.8922 15.4561 10.8922 15.5821 10.8502 15.7501C11.0182 15.7921 11.1442 15.8341 11.2702 15.8761C12.0262 16.0861 12.7822 16.3381 13.5382 16.4641C14.3782 16.6321 15.0502 17.0101 15.5962 17.6401C16.2682 18.3121 16.9402 18.9001 17.6122 19.5721Z" fill="url(#paint1_linear)"/>
<path fill-rule="evenodd" clip-rule="evenodd" d="M4.21408 9.61792C4.34008 10.0379 4.42408 10.4159 4.55008 10.7939C4.80208 11.5079 4.80208 12.1799 4.55008 12.8939C4.42408 13.2719 4.34008 13.6499 4.21408 14.0699C3.92008 13.9859 3.66808 13.9439 3.41608 13.8599C2.95408 13.7339 2.45008 13.6919 2.03008 13.4399C1.65208 13.2299 1.35808 12.8099 1.02208 12.4739C0.812082 12.2639 0.644082 12.0959 0.434082 11.8439C0.812082 11.4659 1.19008 11.1299 1.52608 10.7519C1.86208 10.3739 2.28208 10.1219 2.78608 9.99592C3.20608 9.91192 3.71008 9.74392 4.21408 9.61792ZM3.92008 13.5659C4.08808 12.9779 4.21408 12.4319 4.38208 11.9279C4.38208 11.8859 4.38208 11.8019 4.38208 11.7599C4.25608 11.2139 4.08808 10.6679 3.92008 10.1219C3.33208 10.2899 2.78608 10.4159 2.28208 10.5839C2.24008 10.5839 2.15608 10.6259 2.15608 10.6679C1.77808 11.0459 1.35808 11.4659 0.938082 11.8859C1.35808 12.3059 1.73608 12.6839 2.11408 13.0619C2.15608 13.1039 2.24008 13.1459 2.28208 13.1879C2.82808 13.2719 3.37408 13.3979 3.92008 13.5659Z" fill="url(#paint2_linear)"/>
<path fill-rule="evenodd" clip-rule="evenodd" d="M31.0519 9.61792C31.7659 9.82792 32.4799 9.99592 33.1519 10.1639C33.1939 10.1639 33.2779 10.2059 33.3199 10.2479C33.8239 10.7519 34.3699 11.2979 34.9159 11.8019C34.3699 12.3479 33.8659 12.8519 33.3199 13.3979C33.2779 13.4399 33.1939 13.4819 33.1099 13.4819C32.4799 13.6499 31.8499 13.8179 31.1779 13.9859C31.1359 13.9859 31.0939 13.9859 31.0099 13.9859C30.8839 13.5239 30.7579 13.0199 30.5899 12.5579C30.4219 12.0539 30.4219 11.5919 30.5899 11.0879C30.7999 10.6259 30.8839 10.1219 31.0519 9.61792ZM31.3039 10.1219C31.1359 10.7099 31.0099 11.2559 30.8419 11.8019C30.8419 11.8439 30.8419 11.8439 30.8419 11.8859C30.9679 12.4319 31.1359 12.9779 31.3039 13.5659C31.8919 13.3979 32.4379 13.2719 32.9839 13.1039C33.0259 13.1039 33.0259 13.0619 33.0679 13.0619C33.4879 12.6419 33.9079 12.2219 34.3279 11.8019C33.9079 11.3819 33.5299 11.0039 33.1519 10.6679C33.1099 10.6259 33.0259 10.5839 32.9839 10.5419C32.4379 10.4159 31.8919 10.2479 31.3039 10.1219Z" fill="url(#paint3_linear)"/>
<path fill-rule="evenodd" clip-rule="evenodd" d="M17.6542 17.052C17.0662 16.464 16.5202 15.918 16.0162 15.414C15.8062 15.204 15.5962 15.078 15.3442 14.994C14.7562 14.868 14.1682 14.658 13.5382 14.532C13.4122 14.49 13.2862 14.448 13.1602 14.406C13.3282 13.734 13.4962 13.062 13.7062 12.39C13.8322 12.012 13.8322 11.676 13.7062 11.298C13.4962 10.626 13.3282 9.95396 13.1602 9.28196C13.3282 9.23996 13.4962 9.15596 13.6222 9.15596C14.2102 8.98796 14.7982 8.81996 15.3862 8.69396C15.6382 8.65196 15.8482 8.52596 16.0162 8.35796C16.4362 7.89596 16.8982 7.47596 17.3182 7.05596C17.4022 6.97196 17.5282 6.84596 17.6542 6.76196C18.0742 7.18196 18.4942 7.55996 18.8722 7.97996C19.2922 8.44196 19.7542 8.73596 20.3842 8.86196C20.9302 8.98796 21.4762 9.15596 22.0642 9.32396C22.0222 9.44996 22.0222 9.57596 21.9802 9.70196C21.8542 10.248 21.6862 10.836 21.5182 11.382C21.3922 11.76 21.3922 12.054 21.5182 12.432C21.6862 12.978 21.8122 13.524 21.9802 14.07C22.0222 14.196 22.0222 14.364 22.0642 14.532C21.6022 14.658 21.1822 14.826 20.7622 14.868C19.8802 14.994 19.1662 15.414 18.5782 16.128C18.3262 16.38 17.9902 16.674 17.6542 17.052ZM13.6222 9.53396C13.7902 10.206 13.9582 10.836 14.1262 11.424C14.2102 11.718 14.2102 11.97 14.1262 12.264C13.9582 12.768 13.8322 13.314 13.7062 13.86C13.6642 13.944 13.6642 14.028 13.6642 14.154C14.3362 14.322 15.0082 14.532 15.6382 14.7C15.8482 14.742 16.0162 14.826 16.1422 14.994C16.5202 15.414 16.9402 15.792 17.3182 16.17C17.4022 16.254 17.4862 16.338 17.6542 16.464C18.1162 16.002 18.5782 15.54 18.9982 15.078C19.2082 14.868 19.4602 14.742 19.7122 14.658C20.2582 14.532 20.7622 14.364 21.3082 14.238C21.3922 14.196 21.4762 14.154 21.6022 14.112C21.4342 13.44 21.2662 12.81 21.0982 12.18C21.0142 11.97 21.0142 11.718 21.0982 11.508C21.2662 10.962 21.3922 10.458 21.5182 9.91196C21.5602 9.78596 21.5602 9.65996 21.6022 9.53396C20.9302 9.36596 20.3002 9.15596 19.6702 9.02996C19.4182 8.98796 19.2502 8.86196 19.0822 8.69396C18.7042 8.27396 18.2842 7.89596 17.9062 7.51796C17.8222 7.43396 17.7382 7.39196 17.6122 7.26596C17.1502 7.72796 16.6882 8.18996 16.2682 8.65196C16.0582 8.86196 15.8062 8.98796 15.5542 9.07196C14.8822 9.19796 14.2942 9.36596 13.6222 9.53396Z" fill="url(#paint4_linear)"/>
<path fill-rule="evenodd" clip-rule="evenodd" d="M15.8062 12.8941C16.1422 12.1801 16.1422 11.5501 15.8482 10.8781C16.2262 10.7521 16.5622 10.7101 16.8562 10.5421C17.1502 10.3741 17.3602 10.1221 17.6122 9.87012C17.8642 10.1221 18.0742 10.3741 18.3682 10.5421C18.6622 10.7101 18.9982 10.7521 19.3342 10.8361C19.2502 11.1721 19.1242 11.5081 19.1242 11.8441C19.1242 12.1801 19.2502 12.5161 19.3342 12.8521C18.9982 12.9781 18.6202 13.0201 18.3262 13.1881C18.0322 13.3561 17.8642 13.6081 17.5702 13.9021C17.1922 13.2721 16.6042 12.9361 15.8062 12.8941ZM16.3522 12.6001C16.8982 12.6841 17.2762 12.9361 17.6542 13.3561C17.9902 12.8941 18.3682 12.6841 18.9562 12.6001C18.7042 12.0961 18.7882 11.6341 18.9142 11.1301C18.3682 11.0461 17.9902 10.8361 17.6542 10.3741C17.3182 10.8361 16.8982 11.0461 16.3942 11.1301C16.5622 11.6341 16.5202 12.0961 16.3522 12.6001Z" fill="url(#paint5_linear)"/>
<path fill-rule="evenodd" clip-rule="evenodd" d="M119.448 17.64C119.784 16.38 120.12 15.162 120.414 13.986C120.582 13.356 120.75 12.726 120.918 12.096C120.96 11.886 120.96 11.676 120.918 11.466C120.456 9.786 119.994 8.064 119.574 6.384C119.532 6.216 119.49 6.09 119.448 5.922C119.826 5.796 120.204 5.712 120.54 5.628C121.968 5.25 123.438 4.872 124.866 4.452C125.16 4.368 125.37 4.242 125.58 4.032C126.798 2.814 128.016 1.596 129.192 0.378C129.318 0.252 129.402 0.126 129.486 0C129.654 0.168 129.78 0.252 129.906 0.378C131.124 1.596 132.384 2.856 133.602 4.074C133.77 4.242 133.98 4.368 134.232 4.452C135.912 4.914 137.592 5.334 139.272 5.796C139.44 5.838 139.566 5.88 139.734 5.922C139.65 6.3 139.566 6.636 139.44 7.014C139.062 8.484 138.642 9.996 138.222 11.466C138.18 11.676 138.138 11.886 138.222 12.138C138.684 13.818 139.146 15.54 139.566 17.22C139.608 17.346 139.65 17.514 139.692 17.682C139.566 17.724 139.44 17.766 139.314 17.808C137.634 18.27 135.912 18.732 134.232 19.152C133.938 19.236 133.728 19.362 133.518 19.572C132.342 20.79 131.124 21.966 129.906 23.184C129.78 23.31 129.696 23.436 129.57 23.604C129.402 23.436 129.276 23.352 129.15 23.226C127.932 22.008 126.672 20.748 125.454 19.53C125.244 19.32 125.076 19.236 124.782 19.152C123.102 18.69 121.422 18.27 119.742 17.808C119.784 17.766 119.616 17.724 119.448 17.64ZM129.696 0.546C129.486 0.756 129.36 0.84 129.276 0.966C128.142 2.1 127.008 3.234 125.874 4.368C125.622 4.62 125.37 4.746 125.076 4.83C123.48 5.25 121.884 5.67 120.288 6.132C120.162 6.174 120.078 6.216 119.952 6.258C119.994 6.426 120.036 6.552 120.036 6.678C120.456 8.232 120.876 9.744 121.296 11.298C121.38 11.634 121.38 11.97 121.296 12.306C120.876 13.86 120.456 15.372 120.036 16.926C119.994 17.094 119.952 17.22 119.91 17.388C120.12 17.43 120.246 17.472 120.414 17.514C122.01 17.934 123.564 18.354 125.16 18.774C125.412 18.858 125.58 18.942 125.79 19.152C126.966 20.328 128.1 21.462 129.276 22.638C129.402 22.764 129.486 22.848 129.612 22.974C129.738 22.848 129.864 22.722 129.99 22.638C131.124 21.504 132.3 20.328 133.434 19.194C133.602 18.984 133.812 18.858 134.106 18.816C135.702 18.396 137.256 17.976 138.852 17.556C139.02 17.514 139.146 17.472 139.314 17.43C139.272 17.262 139.23 17.094 139.23 16.968C138.81 15.414 138.432 13.902 137.97 12.348C137.886 11.97 137.886 11.676 137.97 11.298C138.39 9.786 138.81 8.232 139.188 6.72C139.23 6.552 139.272 6.426 139.314 6.258C139.146 6.216 139.02 6.174 138.894 6.132C137.34 5.712 135.786 5.292 134.232 4.872C133.896 4.788 133.644 4.62 133.392 4.368C132.3 3.234 131.166 2.142 130.032 1.008C129.906 0.84 129.822 0.714 129.696 0.546Z" fill="url(#paint6_linear)"/>
<path fill-rule="evenodd" clip-rule="evenodd" d="M129.57 20.2021C129.234 19.8241 128.898 19.4881 128.562 19.1521C127.974 18.5641 127.386 17.9761 126.798 17.3881C126.63 17.2201 126.462 17.1361 126.252 17.0521C125.076 16.7581 123.942 16.4221 122.808 16.1281C122.682 16.0861 122.598 16.0441 122.472 16.0021C122.472 15.8761 122.514 15.7501 122.514 15.6661C122.808 14.4901 123.144 13.3141 123.438 12.1801C123.48 11.9701 123.48 11.7601 123.438 11.5501C123.102 10.4161 122.808 9.24007 122.514 8.10607C122.472 7.98007 122.472 7.89607 122.43 7.72807C122.598 7.68607 122.724 7.64407 122.892 7.60207C123.984 7.30807 125.118 7.01407 126.21 6.72007C126.462 6.63607 126.63 6.55207 126.84 6.34207C127.638 5.50207 128.478 4.70407 129.276 3.90607C129.36 3.82207 129.486 3.69607 129.612 3.57007C129.738 3.65407 129.822 3.78007 129.948 3.86407C130.746 4.66207 131.586 5.50207 132.384 6.30007C132.594 6.51007 132.804 6.63607 133.056 6.72007C134.148 7.01407 135.24 7.30807 136.332 7.60207C136.458 7.64407 136.584 7.68607 136.752 7.72807C136.71 7.85407 136.71 7.98007 136.71 8.06407C136.416 9.24007 136.08 10.4161 135.786 11.5501C135.744 11.7601 135.744 11.9701 135.786 12.1801C136.122 13.3141 136.416 14.4901 136.71 15.6241C136.752 15.7501 136.752 15.8341 136.794 15.9601C136.668 16.0021 136.584 16.0441 136.458 16.0861C135.324 16.3801 134.148 16.7161 133.014 17.0101C132.762 17.0941 132.552 17.1781 132.384 17.3881C131.586 18.2281 130.746 19.0261 129.948 19.8241C129.864 19.9081 129.78 20.0341 129.57 20.2021ZM129.612 19.5721C129.738 19.4461 129.864 19.3621 129.948 19.2361C130.704 18.4801 131.418 17.7661 132.174 17.0101C132.342 16.8001 132.552 16.7161 132.846 16.6321C133.854 16.3801 134.862 16.0861 135.87 15.8341C135.996 15.7921 136.122 15.7501 136.29 15.7081C136.248 15.5401 136.206 15.4141 136.206 15.2881C135.954 14.2801 135.66 13.2301 135.366 12.2221C135.282 11.9701 135.282 11.7601 135.366 11.5501C135.66 10.5001 135.912 9.45007 136.206 8.44207C136.248 8.31607 136.248 8.19007 136.29 8.02207C136.164 7.98007 136.08 7.93807 135.996 7.93807C134.946 7.64407 133.854 7.35007 132.804 7.09807C132.552 7.01407 132.342 6.93007 132.174 6.76207C131.418 6.00607 130.704 5.29207 129.948 4.53607C129.822 4.41007 129.738 4.32607 129.57 4.20007C129.444 4.32607 129.318 4.45207 129.192 4.53607C128.478 5.25007 127.722 6.00607 127.008 6.72007C126.798 6.93007 126.63 7.01407 126.336 7.09807C125.328 7.35007 124.362 7.60207 123.396 7.89607C123.228 7.93807 123.06 7.98007 122.892 8.06407C122.934 8.23207 122.976 8.35807 122.976 8.48407C123.228 9.49207 123.522 10.5001 123.774 11.5081C123.858 11.7601 123.858 12.0121 123.774 12.2641C123.48 13.2721 123.228 14.3221 122.934 15.3301C122.892 15.4561 122.892 15.5821 122.85 15.7501C123.018 15.7921 123.144 15.8341 123.27 15.8761C124.026 16.0861 124.782 16.3381 125.538 16.4641C126.378 16.6321 127.05 17.0101 127.596 17.6401C128.268 18.3121 128.94 18.9001 129.612 19.5721Z" fill="url(#paint7_linear)"/>
<path fill-rule="evenodd" clip-rule="evenodd" d="M116.214 9.61792C116.34 10.0379 116.424 10.4159 116.55 10.7939C116.802 11.5079 116.802 12.1799 116.55 12.8939C116.424 13.2719 116.34 13.6499 116.214 14.0699C115.92 13.9859 115.668 13.9439 115.416 13.8599C114.954 13.7339 114.45 13.6919 114.03 13.4399C113.652 13.2299 113.358 12.8099 113.022 12.4739C112.812 12.2639 112.644 12.0959 112.434 11.8439C112.812 11.4659 113.19 11.1299 113.526 10.7519C113.862 10.3739 114.282 10.1219 114.786 9.99592C115.206 9.91192 115.71 9.74392 116.214 9.61792ZM115.92 13.5659C116.088 12.9779 116.214 12.4319 116.382 11.9279C116.382 11.8859 116.382 11.8019 116.382 11.7599C116.256 11.2139 116.088 10.6679 115.92 10.1219C115.332 10.2899 114.786 10.4159 114.282 10.5839C114.24 10.5839 114.156 10.6259 114.156 10.6679C113.778 11.0459 113.358 11.4659 112.938 11.8859C113.358 12.3059 113.736 12.6839 114.114 13.0619C114.156 13.1039 114.24 13.1459 114.282 13.1879C114.828 13.2719 115.374 13.3979 115.92 13.5659Z" fill="url(#paint8_linear)"/>
<path fill-rule="evenodd" clip-rule="evenodd" d="M143.052 9.61792C143.766 9.82792 144.48 9.99592 145.152 10.1639C145.194 10.1639 145.278 10.2059 145.32 10.2479C145.824 10.7519 146.37 11.2979 146.916 11.8019C146.37 12.3479 145.866 12.8519 145.32 13.3979C145.278 13.4399 145.194 13.4819 145.11 13.4819C144.48 13.6499 143.85 13.8179 143.178 13.9859C143.136 13.9859 143.094 13.9859 143.01 13.9859C142.884 13.5239 142.758 13.0199 142.59 12.5579C142.422 12.0539 142.422 11.5919 142.59 11.0879C142.8 10.6259 142.884 10.1219 143.052 9.61792ZM143.304 10.1219C143.136 10.7099 143.01 11.2559 142.842 11.8019C142.842 11.8439 142.842 11.8439 142.842 11.8859C142.968 12.4319 143.136 12.9779 143.304 13.5659C143.892 13.3979 144.438 13.2719 144.984 13.1039C145.026 13.1039 145.026 13.0619 145.068 13.0619C145.488 12.6419 145.908 12.2219 146.328 11.8019C145.908 11.3819 145.53 11.0039 145.152 10.6679C145.11 10.6259 145.026 10.5839 144.984 10.5419C144.438 10.4159 143.892 10.2479 143.304 10.1219Z" fill="url(#paint9_linear)"/>
<path fill-rule="evenodd" clip-rule="evenodd" d="M129.654 17.052C129.066 16.464 128.52 15.918 128.016 15.414C127.806 15.204 127.596 15.078 127.344 14.994C126.756 14.868 126.168 14.658 125.538 14.532C125.412 14.49 125.286 14.448 125.16 14.406C125.328 13.734 125.496 13.062 125.706 12.39C125.832 12.012 125.832 11.676 125.706 11.298C125.496 10.626 125.328 9.95396 125.16 9.28196C125.328 9.23996 125.496 9.15596 125.622 9.15596C126.21 8.98796 126.798 8.81996 127.386 8.69396C127.638 8.65196 127.848 8.52596 128.016 8.35796C128.436 7.89596 128.898 7.47596 129.318 7.05596C129.402 6.97196 129.528 6.84596 129.654 6.76196C130.074 7.18196 130.494 7.55996 130.872 7.97996C131.292 8.44196 131.754 8.73596 132.384 8.86196C132.93 8.98796 133.476 9.15596 134.064 9.32396C134.022 9.44996 134.022 9.57596 133.98 9.70196C133.854 10.248 133.686 10.836 133.518 11.382C133.392 11.76 133.392 12.054 133.518 12.432C133.686 12.978 133.812 13.524 133.98 14.07C134.022 14.196 134.022 14.364 134.064 14.532C133.602 14.658 133.182 14.826 132.762 14.868C131.88 14.994 131.166 15.414 130.578 16.128C130.326 16.38 129.99 16.674 129.654 17.052ZM125.622 9.53396C125.79 10.206 125.958 10.836 126.126 11.424C126.21 11.718 126.21 11.97 126.126 12.264C125.958 12.768 125.832 13.314 125.706 13.86C125.664 13.944 125.664 14.028 125.664 14.154C126.336 14.322 127.008 14.532 127.638 14.7C127.848 14.742 128.016 14.826 128.142 14.994C128.52 15.414 128.94 15.792 129.318 16.17C129.402 16.254 129.486 16.338 129.654 16.464C130.116 16.002 130.578 15.54 130.998 15.078C131.208 14.868 131.46 14.742 131.712 14.658C132.258 14.532 132.762 14.364 133.308 14.238C133.392 14.196 133.476 14.154 133.602 14.112C133.434 13.44 133.266 12.81 133.098 12.18C133.014 11.97 133.014 11.718 133.098 11.508C133.266 10.962 133.392 10.458 133.518 9.91196C133.56 9.78596 133.56 9.65996 133.602 9.53396C132.93 9.36596 132.3 9.15596 131.67 9.02996C131.418 8.98796 131.25 8.86196 131.082 8.69396C130.704 8.27396 130.284 7.89596 129.906 7.51796C129.822 7.43396 129.738 7.39196 129.612 7.26596C129.15 7.72796 128.688 8.18996 128.268 8.65196C128.058 8.86196 127.806 8.98796 127.554 9.07196C126.882 9.19796 126.294 9.36596 125.622 9.53396Z" fill="url(#paint10_linear)"/>
<path fill-rule="evenodd" clip-rule="evenodd" d="M127.806 12.8941C128.142 12.1801 128.142 11.5501 127.848 10.8781C128.226 10.7521 128.562 10.7101 128.856 10.5421C129.15 10.3741 129.36 10.1221 129.612 9.87012C129.864 10.1221 130.074 10.3741 130.368 10.5421C130.662 10.7101 130.998 10.7521 131.334 10.8361C131.25 11.1721 131.124 11.5081 131.124 11.8441C131.124 12.1801 131.25 12.5161 131.334 12.8521C130.998 12.9781 130.62 13.0201 130.326 13.1881C130.032 13.3561 129.864 13.6081 129.57 13.9021C129.192 13.2721 128.604 12.9361 127.806 12.8941ZM128.352 12.6001C128.898 12.6841 129.276 12.9361 129.654 13.3561C129.99 12.8941 130.368 12.6841 130.956 12.6001C130.704 12.0961 130.788 11.6341 130.914 11.1301C130.368 11.0461 129.99 10.8361 129.654 10.3741C129.318 10.8361 128.898 11.0461 128.394 11.1301C128.562 11.6341 128.52 12.0961 128.352 12.6001Z" fill="url(#paint11_linear)"/>
<path fill-rule="evenodd" clip-rule="evenodd" d="M231.448 17.64C231.784 16.38 232.12 15.162 232.414 13.986C232.582 13.356 232.75 12.726 232.918 12.096C232.96 11.886 232.96 11.676 232.918 11.466C232.456 9.786 231.994 8.064 231.574 6.384C231.532 6.216 231.49 6.09 231.448 5.922C231.826 5.796 232.204 5.712 232.54 5.628C233.968 5.25 235.438 4.872 236.866 4.452C237.16 4.368 237.37 4.242 237.58 4.032C238.798 2.814 240.016 1.596 241.192 0.378C241.318 0.252 241.402 0.126 241.486 0C241.654 0.168 241.78 0.252 241.906 0.378C243.124 1.596 244.384 2.856 245.602 4.074C245.77 4.242 245.98 4.368 246.232 4.452C247.912 4.914 249.592 5.334 251.272 5.796C251.44 5.838 251.566 5.88 251.734 5.922C251.65 6.3 251.566 6.636 251.44 7.014C251.062 8.484 250.642 9.996 250.222 11.466C250.18 11.676 250.138 11.886 250.222 12.138C250.684 13.818 251.146 15.54 251.566 17.22C251.608 17.346 251.65 17.514 251.692 17.682C251.566 17.724 251.44 17.766 251.314 17.808C249.634 18.27 247.912 18.732 246.232 19.152C245.938 19.236 245.728 19.362 245.518 19.572C244.342 20.79 243.124 21.966 241.906 23.184C241.78 23.31 241.696 23.436 241.57 23.604C241.402 23.436 241.276 23.352 241.15 23.226C239.932 22.008 238.672 20.748 237.454 19.53C237.244 19.32 237.076 19.236 236.782 19.152C235.102 18.69 233.422 18.27 231.742 17.808C231.784 17.766 231.616 17.724 231.448 17.64ZM241.696 0.546C241.486 0.756 241.36 0.84 241.276 0.966C240.142 2.1 239.008 3.234 237.874 4.368C237.622 4.62 237.37 4.746 237.076 4.83C235.48 5.25 233.884 5.67 232.288 6.132C232.162 6.174 232.078 6.216 231.952 6.258C231.994 6.426 232.036 6.552 232.036 6.678C232.456 8.232 232.876 9.744 233.296 11.298C233.38 11.634 233.38 11.97 233.296 12.306C232.876 13.86 232.456 15.372 232.036 16.926C231.994 17.094 231.952 17.22 231.91 17.388C232.12 17.43 232.246 17.472 232.414 17.514C234.01 17.934 235.564 18.354 237.16 18.774C237.412 18.858 237.58 18.942 237.79 19.152C238.966 20.328 240.1 21.462 241.276 22.638C241.402 22.764 241.486 22.848 241.612 22.974C241.738 22.848 241.864 22.722 241.99 22.638C243.124 21.504 244.3 20.328 245.434 19.194C245.602 18.984 245.812 18.858 246.106 18.816C247.702 18.396 249.256 17.976 250.852 17.556C251.02 17.514 251.146 17.472 251.314 17.43C251.272 17.262 251.23 17.094 251.23 16.968C250.81 15.414 250.432 13.902 249.97 12.348C249.886 11.97 249.886 11.676 249.97 11.298C250.39 9.786 250.81 8.232 251.188 6.72C251.23 6.552 251.272 6.426 251.314 6.258C251.146 6.216 251.02 6.174 250.894 6.132C249.34 5.712 247.786 5.292 246.232 4.872C245.896 4.788 245.644 4.62 245.392 4.368C244.3 3.234 243.166 2.142 242.032 1.008C241.906 0.84 241.822 0.714 241.696 0.546Z" fill="url(#paint12_linear)"/>
<path fill-rule="evenodd" clip-rule="evenodd" d="M241.57 20.2021C241.234 19.8241 240.898 19.4881 240.562 19.1521C239.974 18.5641 239.386 17.9761 238.798 17.3881C238.63 17.2201 238.462 17.1361 238.252 17.0521C237.076 16.7581 235.942 16.4221 234.808 16.1281C234.682 16.0861 234.598 16.0441 234.472 16.0021C234.472 15.8761 234.514 15.7501 234.514 15.6661C234.808 14.4901 235.144 13.3141 235.438 12.1801C235.48 11.9701 235.48 11.7601 235.438 11.5501C235.102 10.4161 234.808 9.24007 234.514 8.10607C234.472 7.98007 234.472 7.89607 234.43 7.72807C234.598 7.68607 234.724 7.64407 234.892 7.60207C235.984 7.30807 237.118 7.01407 238.21 6.72007C238.462 6.63607 238.63 6.55207 238.84 6.34207C239.638 5.50207 240.478 4.70407 241.276 3.90607C241.36 3.82207 241.486 3.69607 241.612 3.57007C241.738 3.65407 241.822 3.78007 241.948 3.86407C242.746 4.66207 243.586 5.50207 244.384 6.30007C244.594 6.51007 244.804 6.63607 245.056 6.72007C246.148 7.01407 247.24 7.30807 248.332 7.60207C248.458 7.64407 248.584 7.68607 248.752 7.72807C248.71 7.85407 248.71 7.98007 248.71 8.06407C248.416 9.24007 248.08 10.4161 247.786 11.5501C247.744 11.7601 247.744 11.9701 247.786 12.1801C248.122 13.3141 248.416 14.4901 248.71 15.6241C248.752 15.7501 248.752 15.8341 248.794 15.9601C248.668 16.0021 248.584 16.0441 248.458 16.0861C247.324 16.3801 246.148 16.7161 245.014 17.0101C244.762 17.0941 244.552 17.1781 244.384 17.3881C243.586 18.2281 242.746 19.0261 241.948 19.8241C241.864 19.9081 241.78 20.0341 241.57 20.2021ZM241.612 19.5721C241.738 19.4461 241.864 19.3621 241.948 19.2361C242.704 18.4801 243.418 17.7661 244.174 17.0101C244.342 16.8001 244.552 16.7161 244.846 16.6321C245.854 16.3801 246.862 16.0861 247.87 15.8341C247.996 15.7921 248.122 15.7501 248.29 15.7081C248.248 15.5401 248.206 15.4141 248.206 15.2881C247.954 14.2801 247.66 13.2301 247.366 12.2221C247.282 11.9701 247.282 11.7601 247.366 11.5501C247.66 10.5001 247.912 9.45007 248.206 8.44207C248.248 8.31607 248.248 8.19007 248.29 8.02207C248.164 7.98007 248.08 7.93807 247.996 7.93807C246.946 7.64407 245.854 7.35007 244.804 7.09807C244.552 7.01407 244.342 6.93007 244.174 6.76207C243.418 6.00607 242.704 5.29207 241.948 4.53607C241.822 4.41007 241.738 4.32607 241.57 4.20007C241.444 4.32607 241.318 4.45207 241.192 4.53607C240.478 5.25007 239.722 6.00607 239.008 6.72007C238.798 6.93007 238.63 7.01407 238.336 7.09807C237.328 7.35007 236.362 7.60207 235.396 7.89607C235.228 7.93807 235.06 7.98007 234.892 8.06407C234.934 8.23207 234.976 8.35807 234.976 8.48407C235.228 9.49207 235.522 10.5001 235.774 11.5081C235.858 11.7601 235.858 12.0121 235.774 12.2641C235.48 13.2721 235.228 14.3221 234.934 15.3301C234.892 15.4561 234.892 15.5821 234.85 15.7501C235.018 15.7921 235.144 15.8341 235.27 15.8761C236.026 16.0861 236.782 16.3381 237.538 16.4641C238.378 16.6321 239.05 17.0101 239.596 17.6401C240.268 18.3121 240.94 18.9001 241.612 19.5721Z" fill="url(#paint13_linear)"/>
<path fill-rule="evenodd" clip-rule="evenodd" d="M228.214 9.61792C228.34 10.0379 228.424 10.4159 228.55 10.7939C228.802 11.5079 228.802 12.1799 228.55 12.8939C228.424 13.2719 228.34 13.6499 228.214 14.0699C227.92 13.9859 227.668 13.9439 227.416 13.8599C226.954 13.7339 226.45 13.6919 226.03 13.4399C225.652 13.2299 225.358 12.8099 225.022 12.4739C224.812 12.2639 224.644 12.0959 224.434 11.8439C224.812 11.4659 225.19 11.1299 225.526 10.7519C225.862 10.3739 226.282 10.1219 226.786 9.99592C227.206 9.91192 227.71 9.74392 228.214 9.61792ZM227.92 13.5659C228.088 12.9779 228.214 12.4319 228.382 11.9279C228.382 11.8859 228.382 11.8019 228.382 11.7599C228.256 11.2139 228.088 10.6679 227.92 10.1219C227.332 10.2899 226.786 10.4159 226.282 10.5839C226.24 10.5839 226.156 10.6259 226.156 10.6679C225.778 11.0459 225.358 11.4659 224.938 11.8859C225.358 12.3059 225.736 12.6839 226.114 13.0619C226.156 13.1039 226.24 13.1459 226.282 13.1879C226.828 13.2719 227.374 13.3979 227.92 13.5659Z" fill="url(#paint14_linear)"/>
<path fill-rule="evenodd" clip-rule="evenodd" d="M255.052 9.61792C255.766 9.82792 256.48 9.99592 257.152 10.1639C257.194 10.1639 257.278 10.2059 257.32 10.2479C257.824 10.7519 258.37 11.2979 258.916 11.8019C258.37 12.3479 257.866 12.8519 257.32 13.3979C257.278 13.4399 257.194 13.4819 257.11 13.4819C256.48 13.6499 255.85 13.8179 255.178 13.9859C255.136 13.9859 255.094 13.9859 255.01 13.9859C254.884 13.5239 254.758 13.0199 254.59 12.5579C254.422 12.0539 254.422 11.5919 254.59 11.0879C254.8 10.6259 254.884 10.1219 255.052 9.61792ZM255.304 10.1219C255.136 10.7099 255.01 11.2559 254.842 11.8019C254.842 11.8439 254.842 11.8439 254.842 11.8859C254.968 12.4319 255.136 12.9779 255.304 13.5659C255.892 13.3979 256.438 13.2719 256.984 13.1039C257.026 13.1039 257.026 13.0619 257.068 13.0619C257.488 12.6419 257.908 12.2219 258.328 11.8019C257.908 11.3819 257.53 11.0039 257.152 10.6679C257.11 10.6259 257.026 10.5839 256.984 10.5419C256.438 10.4159 255.892 10.2479 255.304 10.1219Z" fill="url(#paint15_linear)"/>
<path fill-rule="evenodd" clip-rule="evenodd" d="M241.654 17.052C241.066 16.464 240.52 15.918 240.016 15.414C239.806 15.204 239.596 15.078 239.344 14.994C238.756 14.868 238.168 14.658 237.538 14.532C237.412 14.49 237.286 14.448 237.16 14.406C237.328 13.734 237.496 13.062 237.706 12.39C237.832 12.012 237.832 11.676 237.706 11.298C237.496 10.626 237.328 9.95396 237.16 9.28196C237.328 9.23996 237.496 9.15596 237.622 9.15596C238.21 8.98796 238.798 8.81996 239.386 8.69396C239.638 8.65196 239.848 8.52596 240.016 8.35796C240.436 7.89596 240.898 7.47596 241.318 7.05596C241.402 6.97196 241.528 6.84596 241.654 6.76196C242.074 7.18196 242.494 7.55996 242.872 7.97996C243.292 8.44196 243.754 8.73596 244.384 8.86196C244.93 8.98796 245.476 9.15596 246.064 9.32396C246.022 9.44996 246.022 9.57596 245.98 9.70196C245.854 10.248 245.686 10.836 245.518 11.382C245.392 11.76 245.392 12.054 245.518 12.432C245.686 12.978 245.812 13.524 245.98 14.07C246.022 14.196 246.022 14.364 246.064 14.532C245.602 14.658 245.182 14.826 244.762 14.868C243.88 14.994 243.166 15.414 242.578 16.128C242.326 16.38 241.99 16.674 241.654 17.052ZM237.622 9.53396C237.79 10.206 237.958 10.836 238.126 11.424C238.21 11.718 238.21 11.97 238.126 12.264C237.958 12.768 237.832 13.314 237.706 13.86C237.664 13.944 237.664 14.028 237.664 14.154C238.336 14.322 239.008 14.532 239.638 14.7C239.848 14.742 240.016 14.826 240.142 14.994C240.52 15.414 240.94 15.792 241.318 16.17C241.402 16.254 241.486 16.338 241.654 16.464C242.116 16.002 242.578 15.54 242.998 15.078C243.208 14.868 243.46 14.742 243.712 14.658C244.258 14.532 244.762 14.364 245.308 14.238C245.392 14.196 245.476 14.154 245.602 14.112C245.434 13.44 245.266 12.81 245.098 12.18C245.014 11.97 245.014 11.718 245.098 11.508C245.266 10.962 245.392 10.458 245.518 9.91196C245.56 9.78596 245.56 9.65996 245.602 9.53396C244.93 9.36596 244.3 9.15596 243.67 9.02996C243.418 8.98796 243.25 8.86196 243.082 8.69396C242.704 8.27396 242.284 7.89596 241.906 7.51796C241.822 7.43396 241.738 7.39196 241.612 7.26596C241.15 7.72796 240.688 8.18996 240.268 8.65196C240.058 8.86196 239.806 8.98796 239.554 9.07196C238.882 9.19796 238.294 9.36596 237.622 9.53396Z" fill="url(#paint16_linear)"/>
<path fill-rule="evenodd" clip-rule="evenodd" d="M239.806 12.8941C240.142 12.1801 240.142 11.5501 239.848 10.8781C240.226 10.7521 240.562 10.7101 240.856 10.5421C241.15 10.3741 241.36 10.1221 241.612 9.87012C241.864 10.1221 242.074 10.3741 242.368 10.5421C242.662 10.7101 242.998 10.7521 243.334 10.8361C243.25 11.1721 243.124 11.5081 243.124 11.8441C243.124 12.1801 243.25 12.5161 243.334 12.8521C242.998 12.9781 242.62 13.0201 242.326 13.1881C242.032 13.3561 241.864 13.6081 241.57 13.9021C241.192 13.2721 240.604 12.9361 239.806 12.8941ZM240.352 12.6001C240.898 12.6841 241.276 12.9361 241.654 13.3561C241.99 12.8941 242.368 12.6841 242.956 12.6001C242.704 12.0961 242.788 11.6341 242.914 11.1301C242.368 11.0461 241.99 10.8361 241.654 10.3741C241.318 10.8361 240.898 11.0461 240.394 11.1301C240.562 11.6341 240.52 12.0961 240.352 12.6001Z" fill="url(#paint17_linear)"/>
<defs>
<linearGradient id="paint0_linear" x1="-0.501192" y1="-7.43383" x2="4.61741" y2="25.6135" gradientUnits="userSpaceOnUse">
<stop stop-color="#F6C37E"/>
<stop offset="0.509329" stop-color="#D48E04"/>
<stop offset="1" stop-color="#BD6B2A"/>
</linearGradient>
<linearGradient id="paint1_linear" x1="4.80138" y1="-1.668" x2="8.39134" y2="21.6233" gradientUnits="userSpaceOnUse">
<stop stop-color="#F6C37E"/>
<stop offset="0.509329" stop-color="#D48E04"/>
<stop offset="1" stop-color="#BD6B2A"/>
</linearGradient>
<linearGradient id="paint2_linear" x1="-1.25291" y1="8.21581" x2="-0.390613" y2="14.4798" gradientUnits="userSpaceOnUse">
<stop stop-color="#F6C37E"/>
<stop offset="0.509329" stop-color="#D48E04"/>
<stop offset="1" stop-color="#BD6B2A"/>
</linearGradient>
<linearGradient id="paint3_linear" x1="28.7193" y1="8.24226" x2="29.5234" y2="14.3995" gradientUnits="userSpaceOnUse">
<stop stop-color="#F6C37E"/>
<stop offset="0.509329" stop-color="#D48E04"/>
<stop offset="1" stop-color="#BD6B2A"/>
</linearGradient>
<linearGradient id="paint4_linear" x1="9.67096" y1="3.52124" x2="11.8879" y2="17.9326" gradientUnits="userSpaceOnUse">
<stop stop-color="#F6C37E"/>
<stop offset="0.509329" stop-color="#D48E04"/>
<stop offset="1" stop-color="#BD6B2A"/>
</linearGradient>
<linearGradient id="paint5_linear" x1="14.4236" y1="8.60028" x2="15.2831" y2="14.25" gradientUnits="userSpaceOnUse">
<stop stop-color="#F6C37E"/>
<stop offset="0.509329" stop-color="#D48E04"/>
<stop offset="1" stop-color="#BD6B2A"/>
</linearGradient>
<linearGradient id="paint6_linear" x1="111.499" y1="-7.43383" x2="116.617" y2="25.6135" gradientUnits="userSpaceOnUse">
<stop stop-color="#F6C37E"/>
<stop offset="0.509329" stop-color="#D48E04"/>
<stop offset="1" stop-color="#BD6B2A"/>
</linearGradient>
<linearGradient id="paint7_linear" x1="116.801" y1="-1.668" x2="120.391" y2="21.6233" gradientUnits="userSpaceOnUse">
<stop stop-color="#F6C37E"/>
<stop offset="0.509329" stop-color="#D48E04"/>
<stop offset="1" stop-color="#BD6B2A"/>
</linearGradient>
<linearGradient id="paint8_linear" x1="110.747" y1="8.21581" x2="111.609" y2="14.4798" gradientUnits="userSpaceOnUse">
<stop stop-color="#F6C37E"/>
<stop offset="0.509329" stop-color="#D48E04"/>
<stop offset="1" stop-color="#BD6B2A"/>
</linearGradient>
<linearGradient id="paint9_linear" x1="140.719" y1="8.24226" x2="141.523" y2="14.3995" gradientUnits="userSpaceOnUse">
<stop stop-color="#F6C37E"/>
<stop offset="0.509329" stop-color="#D48E04"/>
<stop offset="1" stop-color="#BD6B2A"/>
</linearGradient>
<linearGradient id="paint10_linear" x1="121.671" y1="3.52124" x2="123.888" y2="17.9326" gradientUnits="userSpaceOnUse">
<stop stop-color="#F6C37E"/>
<stop offset="0.509329" stop-color="#D48E04"/>
<stop offset="1" stop-color="#BD6B2A"/>
</linearGradient>
<linearGradient id="paint11_linear" x1="126.424" y1="8.60028" x2="127.283" y2="14.25" gradientUnits="userSpaceOnUse">
<stop stop-color="#F6C37E"/>
<stop offset="0.509329" stop-color="#D48E04"/>
<stop offset="1" stop-color="#BD6B2A"/>
</linearGradient>
<linearGradient id="paint12_linear" x1="223.499" y1="-7.43383" x2="228.617" y2="25.6135" gradientUnits="userSpaceOnUse">
<stop stop-color="#F6C37E"/>
<stop offset="0.509329" stop-color="#D48E04"/>
<stop offset="1" stop-color="#BD6B2A"/>
</linearGradient>
<linearGradient id="paint13_linear" x1="228.801" y1="-1.668" x2="232.391" y2="21.6233" gradientUnits="userSpaceOnUse">
<stop stop-color="#F6C37E"/>
<stop offset="0.509329" stop-color="#D48E04"/>
<stop offset="1" stop-color="#BD6B2A"/>
</linearGradient>
<linearGradient id="paint14_linear" x1="222.747" y1="8.21581" x2="223.609" y2="14.4798" gradientUnits="userSpaceOnUse">
<stop stop-color="#F6C37E"/>
<stop offset="0.509329" stop-color="#D48E04"/>
<stop offset="1" stop-color="#BD6B2A"/>
</linearGradient>
<linearGradient id="paint15_linear" x1="252.719" y1="8.24226" x2="253.523" y2="14.3995" gradientUnits="userSpaceOnUse">
<stop stop-color="#F6C37E"/>
<stop offset="0.509329" stop-color="#D48E04"/>
<stop offset="1" stop-color="#BD6B2A"/>
</linearGradient>
<linearGradient id="paint16_linear" x1="233.671" y1="3.52124" x2="235.888" y2="17.9326" gradientUnits="userSpaceOnUse">
<stop stop-color="#F6C37E"/>
<stop offset="0.509329" stop-color="#D48E04"/>
<stop offset="1" stop-color="#BD6B2A"/>
</linearGradient>
<linearGradient id="paint17_linear" x1="238.424" y1="8.60028" x2="239.283" y2="14.25" gradientUnits="userSpaceOnUse">
<stop stop-color="#F6C37E"/>
<stop offset="0.509329" stop-color="#D48E04"/>
<stop offset="1" stop-color="#BD6B2A"/>
</linearGradient>
</defs>
</svg>
