<svg width="27" height="23" viewBox="0 0 27 23" fill="none" xmlns="http://www.w3.org/2000/svg">
<path d="M10 23C11.6569 23 13 21.6569 13 20C13 18.3431 11.6569 17 10 17C8.34315 17 7 18.3431 7 20C7 21.6569 8.34315 23 10 23Z" fill="#194168"/>
<path d="M26.888 3.4C26.775 3.294 26.662 3.187 26.438 3.187H5.063L4.5 0.425C4.388 0.212 4.162 0 3.937 0H0.562C0.225 0 0 0.212 0 0.531C0 0.85 0.225 1.062 0.563 1.062H3.488L6.188 14.025C6.638 15.725 8.213 17 10.125 17H23.063C23.4 17 23.625 16.787 23.625 16.469C23.625 16.15 23.4 15.937 23.063 15.937H10.125C9.225 15.937 8.325 15.512 7.875 14.769L24.3 12.644C24.525 12.644 24.75 12.431 24.75 12.219L27 3.719C27 3.719 27 3.506 26.888 3.4V3.4Z" fill="#194168"/>
<path d="M19 23C20.6569 23 22 21.6569 22 20C22 18.3431 20.6569 17 19 17C17.3431 17 16 18.3431 16 20C16 21.6569 17.3431 23 19 23Z" fill="#194168"/>
</svg>
