<svg width="34" height="26" viewBox="0 0 34 26" fill="none" xmlns="http://www.w3.org/2000/svg">
<path fill-rule="evenodd" clip-rule="evenodd" d="M30.3902 0.0615234H3.14384C1.41022 0.0615234 0 1.47174 0 3.20536V22.0683C0 23.8019 1.41022 25.2121 3.14384 25.2121H30.3902C32.1238 25.2121 33.5341 23.8019 33.5341 22.0683V3.20536C33.5341 1.47174 32.1238 0.0615234 30.3902 0.0615234ZM30.3902 2.15739C30.5326 2.15739 30.6681 2.18693 30.7919 2.23852L16.767 14.394L2.74211 2.23852C2.86594 2.187 3.00139 2.15739 3.14377 2.15739H30.3902ZM2.09587 22.0682C2.09587 22.6465 2.56564 23.1162 3.14384 23.1162H30.3902C30.9684 23.1162 31.4381 22.6465 31.4382 22.0683V4.45283L17.4537 16.5727C17.2562 16.7436 17.0116 16.8286 16.767 16.8286C16.5224 16.8286 16.2779 16.7436 16.0803 16.5727L2.09587 4.45283V22.0682Z" fill="url(#paint0_linear)"/>
<defs>
<linearGradient id="paint0_linear" x1="6.847e-08" y1="2.95993" x2="4.44572" y2="28.6781" gradientUnits="userSpaceOnUse">
<stop stop-color="#EBB367"/>
<stop offset="1" stop-color="#D27C37"/>
</linearGradient>
</defs>
</svg>
