<svg width="27" height="29" viewBox="0 0 27 29" fill="none" xmlns="http://www.w3.org/2000/svg">
<g opacity="0.7" filter="url(#filter0_d)">
<path d="M11.7831 2.37462V0.666531C11.7831 0.298375 11.4847 0 11.1167 0C10.7486 0 10.4502 0.298375 10.4502 0.666531V2.40075C10.7266 2.37462 11.0064 2.36053 11.2895 2.36053C11.4551 2.3607 11.6196 2.36569 11.7831 2.37462Z" fill="white"/>
<path d="M10.4502 19.9464V21.6808C10.4502 22.0488 10.7486 22.3472 11.1167 22.3472C11.4847 22.3472 11.7831 22.0488 11.7831 21.6808V19.9726C11.6196 19.9817 11.4551 19.9867 11.2895 19.9867C11.0064 19.9867 10.7266 19.9727 10.4502 19.9464Z" fill="white"/>
<path d="M6.93431 2.6431C6.75041 2.32427 6.34272 2.21495 6.02406 2.39903C5.70523 2.58311 5.59609 2.9908 5.78 3.30945L6.17789 3.9985C6.53866 3.74069 6.91987 3.50952 7.31811 3.30756L6.93431 2.6431Z" fill="white"/>
<path d="M3.25251 5.96336C2.93369 5.77929 2.52617 5.8886 2.34209 6.20743C2.15801 6.52608 2.26733 6.93377 2.58598 7.11768L3.2728 7.51436C3.45894 7.10805 3.67533 6.71841 3.9187 6.34802L3.25251 5.96336Z" fill="white"/>
<path d="M2.75884 15.5287C2.44018 15.7128 2.33087 16.1203 2.51494 16.4391C2.63835 16.653 2.86248 16.7724 3.09279 16.7724C3.20571 16.7724 3.32035 16.7437 3.42537 16.683L4.11424 16.2853C3.8566 15.9244 3.62543 15.5433 3.42348 15.1449L2.75884 15.5287Z" fill="white"/>
<path d="M6.07915 19.2107C5.89508 19.5293 6.00439 19.937 6.32304 20.1209C6.42806 20.1816 6.5427 20.2103 6.65562 20.2103C6.88611 20.2103 7.11006 20.0908 7.23347 19.877L7.62998 19.1902C7.22384 19.0041 6.8342 18.7877 6.46381 18.5445L6.07915 19.2107Z" fill="white"/>
<path d="M15.6445 19.7043C15.7679 19.9181 15.9919 20.0375 16.2224 20.0375C16.3353 20.0375 16.4499 20.0088 16.555 19.9481C16.8736 19.7642 16.9829 19.3565 16.7989 19.0379L16.401 18.3488C16.0402 18.6067 15.6591 18.8378 15.2607 19.0396L15.6445 19.7043Z" fill="white"/>
<path d="M19.3263 16.3838C19.4314 16.4445 19.546 16.4732 19.6589 16.4732C19.8894 16.4732 20.1134 16.3537 20.2368 16.1399C20.4208 15.8211 20.3117 15.4136 19.9929 15.2295L19.3061 14.833C19.1199 15.2391 18.9035 15.6288 18.6602 15.9991L19.3263 16.3838Z" fill="white"/>
<path d="M21.8614 10.3345H20.0623C20.0884 10.6109 20.1025 10.8905 20.1025 11.1736C20.1025 11.3395 20.0973 11.5039 20.0884 11.6674H21.8614C22.2296 11.6674 22.528 11.369 22.528 11.001C22.528 10.6329 22.2296 10.3345 21.8614 10.3345V10.3345Z" fill="white"/>
<path d="M2.51659 10.3345H0.666531C0.298375 10.3345 0 10.6329 0 11.001C0 11.369 0.298375 11.6674 0.666531 11.6674H2.49047C2.48153 11.5039 2.47637 11.3395 2.47637 11.1736C2.47637 10.8905 2.49047 10.6109 2.51659 10.3345V10.3345Z" fill="white"/>
<path d="M19.82 6.81847C20.1388 6.63456 20.248 6.22687 20.0639 5.90822C19.8798 5.58939 19.4721 5.48025 19.1535 5.66415L18.4646 6.06204C18.7222 6.42281 18.9534 6.80403 19.1554 7.20226L19.82 6.81847Z" fill="white"/>
<path d="M16.4996 3.13673C16.6836 2.81807 16.5743 2.41039 16.2557 2.22631C15.9368 2.04223 15.5292 2.15154 15.3452 2.4702L14.9487 3.15701C15.355 3.34332 15.7445 3.55954 16.1149 3.80292L16.4996 3.13673Z" fill="white"/>
<path fill-rule="evenodd" clip-rule="evenodd" d="M18.7695 11.1736C18.7695 15.2983 15.414 18.6538 11.2895 18.6538C7.16501 18.6538 3.80933 15.2983 3.80933 11.1736C3.80933 7.04912 7.16484 3.6936 11.2895 3.6936C15.414 3.6936 18.7695 7.04912 18.7695 11.1736ZM14.4082 11.1736C14.4082 10.8056 14.1098 10.5072 13.7418 10.5072H11.956V7.66013C11.956 7.29198 11.6577 6.9936 11.2895 6.9936C10.9215 6.9936 10.6231 7.29198 10.6231 7.66013V11.1736C10.6231 11.5418 10.9215 11.8401 11.2895 11.8401H13.7418C14.1098 11.8401 14.4082 11.5418 14.4082 11.1736Z" fill="white"/>
</g>
<defs>
<filter id="filter0_d" x="-4" y="-2" width="30.528" height="30.3472" filterUnits="userSpaceOnUse" color-interpolation-filters="sRGB">
<feFlood flood-opacity="0" result="BackgroundImageFix"/>
<feColorMatrix in="SourceAlpha" type="matrix" values="0 0 0 0 0 0 0 0 0 0 0 0 0 0 0 0 0 0 127 0"/>
<feOffset dy="2"/>
<feGaussianBlur stdDeviation="2"/>
<feColorMatrix type="matrix" values="0 0 0 0 0 0 0 0 0 0 0 0 0 0 0 0 0 0 0.23 0"/>
<feBlend mode="normal" in2="BackgroundImageFix" result="effect1_dropShadow"/>
<feBlend mode="normal" in="SourceGraphic" in2="effect1_dropShadow" result="shape"/>
</filter>
</defs>
</svg>
