<svg width="54" height="54" viewBox="0 0 54 54" fill="none" xmlns="http://www.w3.org/2000/svg">
<path fill-rule="evenodd" clip-rule="evenodd" d="M32.5257 19.3893L26.7785 25.1365L21.0313 19.3893C20.5781 18.9361 19.8425 18.9361 19.3893 19.3893C18.9361 19.8425 18.9361 20.5781 19.3893 21.0313L25.1365 26.7785L19.3893 32.5257C18.9361 32.9789 18.9361 33.7146 19.3893 34.1678C19.8425 34.621 20.5781 34.621 21.0313 34.1678L26.7785 28.4206L32.5257 34.1678C32.9789 34.621 33.7146 34.621 34.1678 34.1678C34.621 33.7146 34.621 32.9789 34.1678 32.5257L28.4206 26.7785L34.1678 21.0313C34.621 20.5781 34.621 19.8425 34.1678 19.3893C33.7146 18.9361 32.9789 18.9361 32.5257 19.3893Z" fill="#BD6B2A"/>
</svg>
