<svg width="267" height="89" viewBox="0 0 267 89" fill="none" xmlns="http://www.w3.org/2000/svg">
<g clip-path="url(#clip0)">
<path d="M213.502 -95.4544C205.19 -101.287 159.494 -112.222 147.156 -108.262C113.859 -97.5734 132.739 -117 91.3821 -117C50.0249 -117 14.8853 -104.181 14.8853 -96.4044C14.8853 -88.6282 -12.3709 -46.1981 -12.3709 -53.5144C-12.3709 -60.8307 -32.1039 -32.3763 -22.2374 -15.1761C-12.3709 2.02415 -24.6264 24.954 -12.3709 35.65C-0.115503 46.346 -25.2642 73.5778 14.8853 73.5778C55.0347 73.5778 136.895 87.8999 153.977 80.7389C171.059 73.5778 209.193 102.028 218.182 80.7389C227.171 59.4493 254.415 55.0297 254.415 35.65C254.415 16.2703 276.37 21.3583 260.328 -6.16589C244.287 -33.69 301.328 -28.6143 286.239 -53.5144C271.151 -78.4144 221.815 -89.6223 213.502 -95.4544Z" fill="#F3AD4E"/>
<path d="M213.502 -95.4544C205.19 -101.287 159.494 -112.222 147.156 -108.262C113.859 -97.5734 132.739 -117 91.3821 -117C50.0249 -117 14.8853 -104.181 14.8853 -96.4044C14.8853 -88.6282 -12.3709 -46.1981 -12.3709 -53.5144C-12.3709 -60.8307 -32.1039 -32.3763 -22.2374 -15.1761C-12.3709 2.02415 -24.6264 24.954 -12.3709 35.65C-0.115503 46.346 -25.2642 73.5778 14.8853 73.5778C55.0347 73.5778 136.895 87.8999 153.977 80.7389C171.059 73.5778 209.193 102.028 218.182 80.7389C227.171 59.4493 254.415 55.0297 254.415 35.65C254.415 16.2703 276.37 21.3583 260.328 -6.16589C244.287 -33.69 301.328 -28.6143 286.239 -53.5144C271.151 -78.4144 221.815 -89.6223 213.502 -95.4544Z" fill="#B6C8D5"/>
</g>
<defs>
<clipPath id="clip0">
<rect width="267" height="89" fill="white"/>
</clipPath>
</defs>
</svg>
