<svg width="412" height="107" viewBox="0 0 412 107" fill="none" xmlns="http://www.w3.org/2000/svg">
<g clip-path="url(#clip0)">
<path d="M333.66 -241.379C317.988 -252.375 231.836 -272.993 208.574 -265.526C145.798 -245.374 181.394 -282 103.421 -282C25.4482 -282 -40.8023 -257.831 -40.8023 -243.17C-40.8023 -228.509 -92.1898 -148.514 -92.1898 -162.307C-92.1898 -176.101 -129.393 -122.455 -110.792 -90.0262C-92.1898 -57.5978 -115.296 -14.3671 -92.1898 5.79871C-69.084 25.9645 -116.498 77.3059 -40.8023 77.3059C34.8934 77.3059 189.229 104.308 221.434 90.807C253.639 77.3059 325.536 130.945 342.483 90.807C359.43 50.6688 410.795 42.3362 410.795 5.79871C410.795 -30.7388 452.188 -21.1462 421.944 -73.0389C391.7 -124.932 499.242 -115.362 470.795 -162.307C442.349 -209.253 349.332 -230.383 333.66 -241.379Z" fill="#F3AD4E"/>
<path d="M333.66 -241.379C317.988 -252.375 231.836 -272.993 208.574 -265.526C145.798 -245.374 181.394 -282 103.421 -282C25.4482 -282 -40.8023 -257.831 -40.8023 -243.17C-40.8023 -228.509 -92.1898 -148.514 -92.1898 -162.307C-92.1898 -176.101 -129.393 -122.455 -110.792 -90.0262C-92.1898 -57.5978 -115.296 -14.3671 -92.1898 5.79871C-69.084 25.9645 -116.498 77.3059 -40.8023 77.3059C34.8934 77.3059 189.229 104.308 221.434 90.807C253.639 77.3059 325.536 130.945 342.483 90.807C359.43 50.6688 410.795 42.3362 410.795 5.79871C410.795 -30.7388 452.188 -21.1462 421.944 -73.0389C391.7 -124.932 499.242 -115.362 470.795 -162.307C442.349 -209.253 349.332 -230.383 333.66 -241.379Z" fill="#B6C8D5"/>
</g>
<defs>
<clipPath id="clip0">
<rect width="412" height="107" fill="white"/>
</clipPath>
</defs>
</svg>
