<?xml version="1.0" encoding="UTF-8"?>
<svg width="267px" height="89px" viewBox="0 0 267 89" version="1.1" xmlns="http://www.w3.org/2000/svg" xmlns:xlink="http://www.w3.org/1999/xlink">
    <!-- Generator: Sketch 64 (93537) - https://sketch.com -->
    <title>Group 3</title>
    <desc>Created with Sketch.</desc>
    <defs>
        <linearGradient x1="50%" y1="100%" x2="50%" y2="8.61263922e-15%" id="linearGradient-1">
            <stop stop-color="#FFC2CC" offset="0%"></stop>
            <stop stop-color="#FFF2F4" offset="100%"></stop>
        </linearGradient>
        <linearGradient x1="50.0001953%" y1="100%" x2="50.0001953%" y2="2.70682947e-14%" id="linearGradient-2">
            <stop stop-color="#FD3A84" offset="0%"></stop>
            <stop stop-color="#FFA68D" offset="100%"></stop>
        </linearGradient>
        <linearGradient x1="50%" y1="100%" x2="50%" y2="8.61263922e-15%" id="linearGradient-3">
            <stop stop-color="#FFC2CC" offset="0%"></stop>
            <stop stop-color="#FFF2F4" offset="100%"></stop>
        </linearGradient>
        <linearGradient x1="50.0001953%" y1="100%" x2="50.0001953%" y2="2.70682947e-14%" id="linearGradient-4">
            <stop stop-color="#FD3A84" offset="0%"></stop>
            <stop stop-color="#FFA68D" offset="100%"></stop>
        </linearGradient>
    </defs>
    <g id="Page-1" stroke="none" stroke-width="1" fill="none" fill-rule="evenodd">
        <g id="Artboard-Copy-7" transform="translate(-9.000000, -102.000000)">
            <g id="Group-6" transform="translate(9.000000, 102.000000)">
                <g id="Group-4">
                    <g id="Group-3" transform="translate(-25.000000, -117.000000)">
                        <g>
                            <path d="M75.304291,21.5455654 C83.6168649,15.71344 129.312379,4.77751315 141.650534,8.73812631 C174.947281,19.4265593 156.067043,3.01500566e-14 197.42429,3.01500566e-14 C238.781538,3.01500566e-14 273.921137,12.8194743 273.921137,20.5956415 C273.921137,28.3718087 301.177335,70.8019471 301.177335,63.4856377 C301.177335,56.1693283 320.91026,84.6237215 311.043797,101.823935 C301.177335,119.024149 313.432772,141.95397 301.177335,152.649997 C288.921897,163.346024 314.070576,190.577797 273.921137,190.577797 C233.771698,190.577797 151.911369,204.899917 134.829544,197.738857 C117.747718,190.577797 79.6131169,219.028393 70.6243963,197.738857 C61.6356757,176.449321 34.3912646,172.029664 34.3912646,152.649997 C34.3912646,133.27033 12.4365665,138.358252 28.4781132,110.834113 C44.5196598,83.3099745 -12.5212702,88.3856533 2.56694026,63.4856377 C17.6551508,38.5856221 66.9917171,27.3776908 75.304291,21.5455654 Z" id="Mask" fill="#97B6CB" opacity="0.900000036" transform="translate(156.903203, 102.898649) scale(-1, 1) translate(-156.903203, -102.898649) "></path>
                            <g id="Group" transform="translate(204.736486, 175.625000)" fill-rule="nonzero">
                                <g id="mail-(1)" transform="translate(32.298590, 16.101849) rotate(-17.000000) translate(-32.298590, -16.101849) translate(21.298590, 3.601849)">
                                    <path d="M9.53038815,24.0847228 C8.66042471,24.0847228 7.35547955,24.0847228 5.61555267,24.0847228 L0,20.4650677 L5.61555267,15.9917832 L4.26409938,14.5245008 L2.62579276,10.3439052 L9.87860616,5.88100732 L1.22010381,4.41629695 L2.62579276,2.33555417 L20.360853,7.29837872e-05 C20.9654507,7.29837872e-05 21.4556099,0.490232098 21.4556099,1.09482979 C21.4556099,7.82745024 21.4556099,12.1685425 21.4556099,14.1181065 C21.4556099,14.1649898 21.3567415,14.3000625 21.0147809,14.5267815 C20.4330186,14.9124885 19.356685,15.8027669 18.3828575,16.6534688 C16.8480769,17.9942 15.2993097,20.5010889 13.748474,21.6281903 C12.2023107,22.751896 11.8288597,23.1014144 10.9969249,23.4507566 C10.6634569,23.5907849 9.95420683,24.0847228 9.53038815,24.0847228 Z" id="Path" fill="url(#linearGradient-1)"></path>
                                    <path d="M2.33240512,10.3188899 L9.87860616,5.88100732 L1.22010381,4.41629695 L2.33240512,7.29837872e-05 L20.3607801,7.29837872e-05 C20.8324013,7.29837872e-05 21.2509633,0.302079895 21.3997043,0.749689462 C21.5483722,1.19722604 21.3937196,1.68972064 21.0158096,1.97194895 L4.26409938,14.5245008 L2.33240512,10.3188899 Z" id="Path" fill="url(#linearGradient-2)"></path>
                                </g>
                                <g id="mail-(1)" transform="translate(14.597459, 21.125661) rotate(-21.000000) translate(-14.597459, -21.125661) translate(3.097459, 10.625661)">
                                    <path d="M7.29837872e-05,11.1392236 C7.29837872e-05,8.90713608 7.29837872e-05,5.55900481 7.29837872e-05,1.09482979 C7.29837872e-05,0.490232098 0.490232098,7.29837872e-05 1.09482979,7.29837872e-05 L16.7054488,7.29837872e-05 L15.4695174,5.30405405 L22.5371467,6.45126351 L16.7054488,9.70264412 C16.7024293,12.1489719 17.7140452,14.0236467 19.7402966,15.3266683 C20.0874381,15.5499046 17.9596236,17.2362479 13.356853,20.3856981 C13.3091762,20.418321 9.59764075,18.5165459 5.20084242,15.1738862 C3.87157443,14.1633121 2.68234493,13.2691514 1.52813699,12.3987862 C1.31150219,12.2354262 0.992667901,11.9529626 0.626996528,11.6777646 C0.366008466,11.4813495 7.29837872e-05,11.2911144 7.29837872e-05,11.1392236 Z" id="Path" fill="url(#linearGradient-3)"></path>
                                    <path d="M18.6839225,15.3266683 C18.4535127,15.3266683 18.2231029,15.2541224 18.02882,15.1090306 L0.439727318,1.97194895 C0.0618172677,1.68972064 -0.0928353773,1.19722604 0.0558325972,0.749689462 C0.204573555,0.302152879 0.623135575,7.29837872e-05 1.09475681,7.29837872e-05 L16.7054488,7.29837872e-05 L15.4695174,5.30405405 L22.5371467,6.45126351 C18.9012881,8.43069838 16.9573888,9.51449192 16.7054488,9.70264412 L19.338879,15.1090306 C19.1448151,15.2541224 18.9143323,15.3266683 18.6839225,15.3266683 Z" id="Path" fill="url(#linearGradient-4)"></path>
                                </g>
                            </g>
                        </g>
                    </g>
                </g>
            </g>
        </g>
    </g>
</svg>