<svg width="28" height="28" viewBox="0 0 28 28" fill="none" xmlns="http://www.w3.org/2000/svg">
<rect width="28" height="28" rx="6" fill="#D27C37"/>
<path fill-rule="evenodd" clip-rule="evenodd" d="M3 14.725C3 8.81123 7.81123 4 13.725 4C19.6388 4 24.45 8.81123 24.45 14.725C24.45 20.6388 19.6388 25.45 13.725 25.45C7.81123 25.45 3 20.6388 3 14.725ZM3.715 14.725C3.715 20.2444 8.20556 24.735 13.725 24.735C19.2444 24.735 23.735 20.2444 23.735 14.725C23.735 9.20556 19.2444 4.715 13.725 4.715C8.20556 4.715 3.715 9.20556 3.715 14.725Z" fill="white"/>
<path d="M13.725 3.5C7.53509 3.5 2.5 8.53509 2.5 14.725H3.5C3.5 9.08738 8.08738 4.5 13.725 4.5V3.5ZM24.95 14.725C24.95 8.53509 19.9149 3.5 13.725 3.5V4.5C19.3626 4.5 23.95 9.08738 23.95 14.725H24.95ZM13.725 25.95C19.9149 25.95 24.95 20.9149 24.95 14.725H23.95C23.95 20.3626 19.3626 24.95 13.725 24.95V25.95ZM2.5 14.725C2.5 20.9149 7.53509 25.95 13.725 25.95V24.95C8.08738 24.95 3.5 20.3626 3.5 14.725H2.5ZM13.725 24.235C8.4817 24.235 4.215 19.9683 4.215 14.725H3.215C3.215 20.5206 7.92942 25.235 13.725 25.235V24.235ZM23.235 14.725C23.235 19.9683 18.9683 24.235 13.725 24.235V25.235C19.5206 25.235 24.235 20.5206 24.235 14.725H23.235ZM13.725 5.215C18.9683 5.215 23.235 9.4817 23.235 14.725H24.235C24.235 8.92942 19.5206 4.215 13.725 4.215V5.215ZM4.215 14.725C4.215 9.4817 8.4817 5.215 13.725 5.215V4.215C7.92942 4.215 3.215 8.92942 3.215 14.725H4.215Z" fill="white"/>
<path fill-rule="evenodd" clip-rule="evenodd" d="M14.5 8.47368V13.2778C15.36 13.4895 16 14.2247 16 15.1053C16 16.1502 15.103 17 14 17C13.071 17 12.2945 16.3937 12.071 15.5789H8.5C8.224 15.5789 8 15.3672 8 15.1053C8 14.8433 8.224 14.6316 8.5 14.6316H12.071C12.253 13.9689 12.8005 13.4502 13.5 13.2778V8.47368C13.5 8.21174 13.724 8 14 8C14.276 8 14.5 8.21174 14.5 8.47368ZM13 15.1053C13 15.6277 13.4485 16.0526 14 16.0526C14.5515 16.0526 15 15.6277 15 15.1053C15 14.5828 14.5515 14.1579 14 14.1579C13.4485 14.1579 13 14.5828 13 15.1053Z" fill="white"/>
</svg>
