<svg width="166" height="74" viewBox="0 0 166 74" fill="none" xmlns="http://www.w3.org/2000/svg">
<path fill-rule="evenodd" clip-rule="evenodd" d="M112.354 32.4489C113.191 32.1244 114.08 31.9551 114.978 31.9489C117.8 31.9522 120.373 33.5666 121.604 36.1063C122.834 38.6466 122.507 41.6661 120.761 43.8834C119.014 46.1008 116.155 47.1262 113.398 46.5249C113.291 47.2854 113.158 48.0442 113.001 48.8014C115.561 50.0563 116.889 52.9363 116.18 55.6982C115.471 58.4606 112.92 60.345 110.072 60.2117C109.889 60.2117 109.707 60.2038 109.523 60.1875C109.182 60.1521 108.844 60.0891 108.514 59.9985C103.118 68.6081 94.5816 73.728 85.4866 73.728C76.3909 73.728 67.8556 68.6081 62.4589 59.9974C62.1282 60.0885 61.7907 60.1515 61.4498 60.1864C61.2664 60.2038 61.0831 60.2111 60.9008 60.2111C58.5158 60.2072 56.3485 58.8229 55.3416 56.6606C54.3342 54.4984 54.6694 51.9491 56.2011 50.1204C56.7057 49.5759 57.3059 49.1287 57.9724 48.8008C57.8144 48.0454 57.6816 47.2866 57.5753 46.5244C54.5029 47.196 51.3434 45.8426 49.7099 43.155C48.0769 40.4674 48.3312 37.0389 50.3427 34.6219C52.3542 32.2042 55.6791 31.3312 58.6187 32.4489C62.0596 20.4778 73.0289 12.2456 85.4843 12.2878C85.7858 12.2867 92.8592 12.2085 92.8592 7.37269C92.8592 2.53688 85.7858 2.45869 85.4843 2.45756C84.8059 2.457 84.2564 1.90631 84.2569 1.22794C84.2569 0.549 84.8076 -0.000562069 85.4866 0C88.8869 0 95.3168 1.54069 95.3168 7.37269C95.3528 9.73575 94.0731 11.9239 91.9958 13.0506C101.78 15.3793 109.556 22.7891 112.354 32.4489ZM55.9952 34.4064C53.2817 34.4092 51.0829 36.6081 51.0801 39.3216C51.0604 40.8628 51.7742 42.3219 53.0027 43.2529C54.2318 44.1832 55.8293 44.4752 57.3076 44.0387C57.2581 43.2922 57.2237 42.5385 57.2237 41.7791C57.2237 39.4419 57.4797 37.1121 57.9859 34.83C57.3587 34.5532 56.6809 34.4087 55.9952 34.4064ZM61.2344 57.7395C59.7494 57.87 58.3313 57.0937 57.6422 55.7713C56.9526 54.4494 57.1276 52.8424 58.0849 51.6994C58.9321 50.688 62.3487 49.6142 65.1702 48.9836C65.0442 51.8715 64.5841 55.422 63.7358 56.4345C63.1097 57.1866 62.2092 57.6562 61.2344 57.7395ZM109.739 57.7384C110.713 57.8244 111.681 57.5196 112.43 56.8912C113.18 56.2635 113.649 55.3641 113.734 54.3898C113.82 53.4161 113.516 52.4481 112.888 51.6988C112.041 50.6874 108.624 49.6136 105.803 48.9836C105.929 51.8721 106.39 55.4237 107.237 56.4345C107.865 57.1837 108.765 57.6529 109.739 57.7384ZM104.755 46.2645C104.396 46.1998 104.028 46.2977 103.748 46.5322C103.469 46.7662 103.308 47.1122 103.309 47.4761C103.311 48.8312 103.421 55.7072 105.353 58.0134C105.635 58.3459 105.951 58.6474 106.296 58.9134C101.346 66.6686 93.649 71.2704 85.4866 71.2704C77.3236 71.2704 69.6274 66.6686 64.6769 58.914C65.0222 58.6479 65.3384 58.3464 65.6196 58.014C67.5518 55.7077 67.6615 48.8317 67.6637 47.4767C67.6649 47.1122 67.504 46.7662 67.2244 46.5322C66.9454 46.2982 66.5764 46.2004 66.2181 46.2651C64.2021 46.629 62.2159 47.1437 60.277 47.8046C60.0829 46.7949 59.9192 45.7819 59.8236 44.7711C59.7297 43.7946 59.6819 42.7882 59.6819 41.7791C59.674 39.3199 59.9755 36.8696 60.5785 34.4857C63.2926 22.9202 73.6099 14.7448 85.4894 14.7459C97.3688 14.7471 107.685 22.9247 110.397 34.4902C110.999 36.873 111.299 39.3216 111.291 41.7791C111.291 42.7882 111.243 43.7946 111.149 44.7733C111.053 45.7824 110.89 46.7955 110.696 47.8046C108.757 47.1437 106.771 46.6284 104.755 46.2645ZM113.665 44.0387C114.091 44.1641 114.533 44.2305 114.978 44.2367C117.692 44.2367 119.893 42.0362 119.893 39.3216C119.893 36.6069 117.692 34.4064 114.978 34.4064C114.292 34.4087 113.614 34.5532 112.987 34.83C113.493 37.1121 113.749 39.4419 113.749 41.7791C113.749 42.5379 113.714 43.2917 113.665 44.0387Z" fill="url(#paint0_linear)"/>
<path d="M85.4864 46.6943C88.1999 46.6915 90.3987 44.4927 90.4015 41.7792C90.4015 41.1008 89.8514 40.5507 89.1725 40.5507C88.4941 40.5507 87.944 41.1008 87.944 41.7792C87.944 43.1365 86.8437 44.2367 85.4864 44.2367C84.1291 44.2367 83.0289 43.1365 83.0289 41.7792C83.0289 41.1008 82.4787 40.5507 81.7998 40.5507C81.1214 40.5507 80.5713 41.1008 80.5713 41.7792C80.5741 44.4927 82.7729 46.6915 85.4864 46.6943Z" fill="url(#paint1_linear)"/>
<path d="M78.8856 38.142C79.3975 38.3467 79.9825 38.1858 80.3177 37.7488C80.6524 37.3117 80.6558 36.7048 80.3256 36.2638C76.2379 30.8126 68.4141 32.0461 68.0811 32.1024C67.4145 32.2166 66.9656 32.8483 67.077 33.516C67.1884 34.1831 67.8178 34.6348 68.4855 34.5262C70.6309 34.2399 72.814 34.4615 74.8581 35.172C72.0371 35.3418 69.3821 36.5608 67.4145 38.5897C67.0961 38.8985 66.969 39.3547 67.0815 39.7833C67.194 40.2125 67.5293 40.5478 67.9579 40.6603C68.3871 40.7728 68.8433 40.6456 69.1521 40.3273C71.7064 37.787 75.4909 36.9376 78.8856 38.142Z" fill="url(#paint2_linear)"/>
<path d="M96.1307 35.1731C98.1726 34.4705 100.349 34.2495 102.49 34.5262C103.152 34.6235 103.771 34.1724 103.88 33.5115C103.99 32.8511 103.55 32.2245 102.892 32.1024C102.56 32.0462 94.7351 30.8137 90.6474 36.2638C90.3184 36.7042 90.3212 37.3095 90.6547 37.746C90.9883 38.183 91.5716 38.345 92.0829 38.1431C95.4787 36.9377 99.2649 37.787 101.821 40.3273C102.13 40.6457 102.586 40.7728 103.015 40.6603C103.444 40.5478 103.778 40.2125 103.891 39.7833C104.004 39.3547 103.877 38.8985 103.558 38.5897C101.595 36.5642 98.946 35.3458 96.1307 35.1731Z" fill="url(#paint3_linear)"/>
<path fill-rule="evenodd" clip-rule="evenodd" d="M85.4866 49.1519C78.2067 49.1519 71.9697 55.9092 71.9697 61.4402C71.9697 66.3323 76.5175 68.8129 85.4866 68.8129C94.4551 68.8129 99.0035 66.3323 99.0035 61.4402C99.0035 55.9092 92.7665 49.1519 85.4866 49.1519ZM77.5396 65.2523C78.8547 62.9944 81.9969 61.4402 85.4866 61.4402C88.9764 61.4402 92.1185 62.9944 93.433 65.2523C90.872 66.0949 88.1804 66.4684 85.4866 66.3554C82.7928 66.4684 80.1007 66.0949 77.5396 65.2523ZM85.4866 58.9827C89.8718 58.9827 93.7441 60.9649 95.5188 63.9574C96.1898 63.2937 96.5611 62.3841 96.5459 61.4402C96.5459 57.5736 91.7967 51.6094 85.4866 51.6094C79.1759 51.6094 74.4273 57.5736 74.4273 61.4402C74.4121 62.3841 74.7828 63.2937 75.4539 63.9574C77.2291 60.9649 81.1014 58.9827 85.4866 58.9827Z" fill="url(#paint4_linear)"/>
<path fill-rule="evenodd" clip-rule="evenodd" d="M52.3205 16.794C50.5694 14.8714 50.6993 11.8957 52.6107 10.1329C54.3736 8.22094 57.3486 8.09156 59.2713 9.84262C60.7355 11.3062 61.4611 16.3035 61.649 17.7997C61.6928 18.1496 61.5843 18.5012 61.3508 18.765C61.118 19.0294 60.7821 19.1807 60.43 19.1807C60.3788 19.1807 60.3276 19.1773 60.277 19.1711C58.7802 18.9838 53.7841 18.2582 52.3205 16.794ZM54.3488 11.8704C53.3999 12.6759 53.2711 14.0929 54.0586 15.0564C55.5981 15.8203 57.2609 16.3057 58.9698 16.4902C58.7909 14.7808 58.3043 13.1169 57.5343 11.5796C56.5713 10.791 55.1532 10.9204 54.3488 11.8704Z" fill="url(#paint5_linear)"/>
<path fill-rule="evenodd" clip-rule="evenodd" d="M109.323 17.7998C109.511 16.3035 110.237 11.3069 111.7 9.84267C113.623 8.09161 116.598 8.22154 118.362 10.1329C120.273 11.8964 120.403 14.8714 118.652 16.794C117.188 18.2582 112.192 18.9844 110.696 19.1717C110.644 19.1779 110.594 19.1807 110.543 19.1813C110.19 19.1813 109.855 19.03 109.621 18.7656C109.388 18.5012 109.279 18.1497 109.323 17.7998ZM112.003 16.492C113.713 16.3125 115.377 15.8265 116.915 15.0565C117.702 14.0929 117.573 12.676 116.624 11.8705C116.136 11.3654 115.468 11.0734 114.766 11.0571C114.271 11.0464 113.793 11.2349 113.439 11.5802C112.668 13.1175 112.182 14.7814 112.003 16.492Z" fill="url(#paint6_linear)"/>
<path d="M21.7349 8.44082C21.5681 9.11952 10.6857 15.0653 6.54074 29.9284C4.67951 36.6026 6.05515 45.4924 7.11643 55.7875C8.45653 35.5659 12.1928 24.3111 21.7349 8.44082Z" fill="url(#paint7_linear)"/>
<path d="M33.5128 17.9999C33.4085 18.4091 26.6835 22.0128 24.0958 30.9732C22.9339 34.9968 23.7639 40.3481 24.397 46.5464C25.2658 34.3646 27.5939 27.5782 33.5128 17.9999Z" fill="url(#paint8_linear)"/>
<path d="M144.544 8.44082C144.711 9.11952 155.593 15.0653 159.738 29.9284C161.599 36.6026 160.224 45.4924 159.162 55.7875C157.822 35.5659 154.086 24.3111 144.544 8.44082Z" fill="url(#paint9_linear)"/>
<path d="M133.582 30.2268C133.686 30.6359 140.411 34.2396 142.999 43.2C144.161 47.2236 143.331 52.5749 142.697 58.7732C141.829 46.5914 139.501 39.805 133.582 30.2268Z" fill="url(#paint10_linear)"/>
<defs>
<linearGradient id="paint0_linear" x1="94.678" y1="-29.6436" x2="45.9691" y2="49.3621" gradientUnits="userSpaceOnUse">
<stop stop-color="#EBB367"/>
<stop offset="1" stop-color="#D27C37"/>
</linearGradient>
<linearGradient id="paint1_linear" x1="86.7118" y1="38.0805" x2="83.6643" y2="45.9925" gradientUnits="userSpaceOnUse">
<stop stop-color="#EBB367"/>
<stop offset="1" stop-color="#D27C37"/>
</linearGradient>
<linearGradient id="paint2_linear" x1="75.4927" y1="28.4238" x2="71.0366" y2="39.5959" gradientUnits="userSpaceOnUse">
<stop stop-color="#EBB367"/>
<stop offset="1" stop-color="#D27C37"/>
</linearGradient>
<linearGradient id="paint3_linear" x1="98.8537" y1="28.4241" x2="94.3976" y2="39.5958" gradientUnits="userSpaceOnUse">
<stop stop-color="#EBB367"/>
<stop offset="1" stop-color="#D27C37"/>
</linearGradient>
<linearGradient id="paint4_linear" x1="88.8566" y1="41.2468" x2="78.004" y2="65.459" gradientUnits="userSpaceOnUse">
<stop stop-color="#EBB367"/>
<stop offset="1" stop-color="#D27C37"/>
</linearGradient>
<linearGradient id="paint5_linear" x1="57.6908" y1="4.35934" x2="50.708" y2="15.6892" gradientUnits="userSpaceOnUse">
<stop stop-color="#EBB367"/>
<stop offset="1" stop-color="#D27C37"/>
</linearGradient>
<linearGradient id="paint6_linear" x1="115.917" y1="4.35944" x2="108.934" y2="15.6897" gradientUnits="userSpaceOnUse">
<stop stop-color="#EBB367"/>
<stop offset="1" stop-color="#D27C37"/>
</linearGradient>
<linearGradient id="paint7_linear" x1="39.1294" y1="132.209" x2="-56.2718" y2="145.617" gradientUnits="userSpaceOnUse">
<stop stop-color="#E0A454"/>
<stop offset="1" stop-color="#BD6B2A"/>
</linearGradient>
<linearGradient id="paint8_linear" x1="43.9841" y1="92.5068" x2="-14.8898" y2="100.781" gradientUnits="userSpaceOnUse">
<stop stop-color="#E0A454"/>
<stop offset="1" stop-color="#BD6B2A"/>
</linearGradient>
<linearGradient id="paint9_linear" x1="127.149" y1="132.209" x2="222.551" y2="145.617" gradientUnits="userSpaceOnUse">
<stop stop-color="#E0A454"/>
<stop offset="1" stop-color="#BD6B2A"/>
</linearGradient>
<linearGradient id="paint10_linear" x1="123.11" y1="104.734" x2="181.984" y2="113.008" gradientUnits="userSpaceOnUse">
<stop stop-color="#E0A454"/>
<stop offset="1" stop-color="#BD6B2A"/>
</linearGradient>
</defs>
</svg>
