<svg width="61" height="86" viewBox="0 0 61 86" fill="none" xmlns="http://www.w3.org/2000/svg">
<path fill-rule="evenodd" clip-rule="evenodd" d="M9.10977 35.8207L27.0895 38.68C28.5391 38.9106 29.531 40.2775 29.3003 41.7271L27.6531 52.0846C27.1259 55.3996 25.8151 58.2276 23.8624 60.2625C21.9001 62.3077 19.3693 63.4542 16.5118 63.601L14.2228 77.9945C14.215 78.0433 14.2063 78.0903 14.1981 78.1343C14.1684 78.2936 14.146 78.414 14.2029 78.4374C15.3915 78.9261 18.4092 79.9978 19.6034 80.3191L19.6036 80.3191C20.2698 80.4986 22.2957 81.0442 21.9698 83.0957C21.7724 84.3374 20.7983 85.1087 19.4283 85.1087C19.2123 85.1087 18.9857 85.09 18.7548 85.0533L2.64722 82.4918C0.926919 82.2181 -0.0343226 81.0962 0.198199 79.6336C0.337253 78.7585 0.914621 77.7156 2.87498 77.7156C3.00945 77.7156 3.15145 77.7195 3.30887 77.7279C3.51827 77.739 3.81458 77.7446 4.1896 77.7446C4.61601 77.7446 5.09299 77.76 5.58143 77.7758C6.90127 77.8186 8.3048 77.864 9.02041 77.6149C9.08269 77.5933 9.10306 77.4609 9.12966 77.2881C9.13296 77.2667 9.13636 77.2446 9.13995 77.222L11.4343 62.7937C8.78461 61.7759 6.74652 59.9238 5.51143 57.3998C4.26257 54.848 3.88362 51.732 4.41523 48.3892L6.0624 38.0318C6.2659 36.7523 7.39653 35.7876 8.69228 35.7876C8.83134 35.7876 8.9717 35.7987 9.10977 35.8207ZM25.872 51.8014L27.5191 41.4439C27.5934 40.9765 27.2735 40.5358 26.806 40.462L8.82626 37.6027C8.36318 37.5297 7.91617 37.8593 7.8437 38.3158L6.19653 48.6732C5.20463 54.9104 7.70136 59.7604 12.713 61.3304C12.713 61.3304 13.4647 61.4973 13.4154 61.8207C12.8168 65.7458 10.9211 77.5057 10.9211 77.5057C10.651 79.203 9.50463 79.3877 9.37476 79.4031L9.30753 79.4085L9.29558 79.409C9.04883 79.4196 6.04515 79.5485 4.18944 79.5485C3.77719 79.5485 3.45809 79.5423 3.21409 79.5294C3.09881 79.5231 2.98534 79.5195 2.87498 79.5195C2.04279 79.5195 2.01344 79.7037 1.9795 79.917C1.95228 80.0884 1.87996 80.5434 2.93057 80.7107L19.0382 83.2722C19.1756 83.294 19.3069 83.3051 19.4283 83.3051C20.11 83.3051 20.1591 82.9969 20.1885 82.8128L20.1885 82.8127C20.2236 82.5921 20.2597 82.364 19.1348 82.0612C17.6905 81.6728 13.556 80.1219 13.3797 80.0557L13.3796 80.0557L13.3798 80.0554C13.1386 79.9626 12.1616 79.4716 12.4415 77.7115C12.4415 77.7115 14.3459 65.7909 14.9363 62.0242C14.9738 61.7852 15.8798 61.8134 15.8798 61.8134C21.061 61.8141 24.8898 57.9775 25.872 51.8014Z" fill="url(#paint0_linear)"/>
<path d="M24.1508 44.4115C22.1865 44.0991 16.0176 50.2199 11.1452 49.445C10.3697 49.3216 7.84871 47.4075 7.62144 48.8364C6.74235 54.3648 8.9231 59.3074 14.4521 60.1867C19.981 61.066 23.5872 57.0436 24.4663 51.5154L25.3362 46.045C25.4593 45.2696 24.9261 44.5348 24.1508 44.4115Z" fill="url(#paint1_linear)"/>
<path fill-rule="evenodd" clip-rule="evenodd" d="M58.1615 77.7157C60.1218 77.7157 60.6989 78.7586 60.8382 79.6337C61.0708 81.0963 60.1094 82.218 58.3889 82.4917L42.2815 85.0532C42.0506 85.0899 41.824 85.1086 41.608 85.1086C40.2381 85.1086 39.2639 84.3373 39.0665 83.0958C38.7407 81.0442 40.7663 80.4985 41.4325 80.3191L41.4327 80.319C42.6276 79.9978 45.4917 79.148 46.8335 78.4375C46.8884 78.4085 46.8666 78.2894 46.8373 78.1296C46.8295 78.0871 46.8212 78.0417 46.8137 77.9944L44.5247 63.6009C41.6672 63.4541 39.1363 62.3073 37.174 60.2623C35.2214 58.2272 33.9107 55.3995 33.3833 52.0845L31.7362 41.727C31.5056 40.2772 32.4975 38.9103 33.9471 38.6798L51.9268 35.8205C52.0649 35.7985 52.2053 35.7874 52.3443 35.7874C53.6401 35.7874 54.7707 36.752 54.9742 38.0314L56.6214 48.3889C57.153 51.7321 56.7739 54.8479 55.5252 57.3997C54.2901 59.9235 52.252 61.7755 49.6023 62.7935L51.8967 77.2219C51.9015 77.2519 51.9059 77.2812 51.9101 77.3095C51.9348 77.4743 51.9542 77.6032 52.0162 77.6148C52.8762 77.7746 54.4427 77.7617 55.8429 77.7502C56.1925 77.7473 56.5317 77.7445 56.847 77.7445C57.2222 77.7445 57.5187 77.7388 57.7276 77.728C57.885 77.7194 58.0272 77.7157 58.1615 77.7157ZM41.9983 83.2719L58.1059 80.7104C59.1557 80.5436 59.0841 80.0888 59.057 79.9166L59.0569 79.9163C59.023 79.7031 58.9937 79.5188 58.1615 79.5188C58.0511 79.5188 57.9376 79.5225 57.8222 79.5286C57.5785 79.5414 57.2596 79.5476 56.847 79.5476C54.9519 79.5476 51.8596 79.4132 51.7288 79.4074L51.6617 79.4022C51.5318 79.3868 50.3853 79.2021 50.1154 77.505C50.1154 77.505 48.2085 65.8927 47.6135 61.9268C47.5521 61.5169 48.3234 61.3293 48.3234 61.3293C53.3348 59.7594 55.8318 54.9094 54.8399 48.6721L53.1927 38.3148C53.1203 37.8584 52.6728 37.529 52.2102 37.6018L34.2304 40.4611C33.7629 40.5355 33.443 40.9763 33.5173 41.4438L35.1645 51.8012C36.147 57.9769 39.9754 61.8134 45.1567 61.8134C45.1567 61.8134 46.0353 61.7835 46.0985 62.1679C46.8114 66.4984 48.5951 77.7112 48.5951 77.7112C48.875 79.4714 47.898 79.9623 47.6567 80.0552L47.6568 80.0555L47.6517 80.0574C47.413 80.1469 43.3342 81.6757 41.9015 82.0609C40.7766 82.3638 40.8129 82.5917 40.8479 82.8125L40.848 82.8126L40.848 82.8127C40.8773 82.9967 40.9265 83.3049 41.6082 83.3049C41.7295 83.3049 41.8609 83.2937 41.9983 83.2719Z" fill="url(#paint2_linear)"/>
<path d="M53.4149 48.8364C53.1874 47.4075 50.6664 49.3217 49.8911 49.445C45.0185 50.2199 38.85 44.0989 36.8857 44.4115C36.1102 44.5348 35.5773 45.2698 35.7003 46.045L36.5702 51.5154C37.4493 57.0436 41.0556 61.066 46.5842 60.1867C52.1134 59.3076 54.294 54.3648 53.4149 48.8364Z" fill="url(#paint3_linear)"/>
<path d="M39.6031 22.324C39.2677 22.4078 33.6337 18.4791 25.8455 20.5884C22.674 21.4474 19.4146 24.0204 15.5901 27.162C24.5581 22.442 30.3401 21.38 39.6031 22.324Z" fill="url(#paint4_linear)"/>
<path d="M34.8829 29.463C34.7258 29.5023 31.2584 27.9222 27.5964 28.6534C25.7572 29.0206 24.6435 30.1064 22.3159 32C27.0359 29.581 30.0449 28.991 34.8829 29.463Z" fill="url(#paint5_linear)"/>
<path d="M46.4912 13.0664C46.0572 13.129 40.0402 8.1919 30.4192 9.27487C26.0989 9.76117 21.2505 12.6531 15.5107 15.6925C27.5898 11.7163 35.0156 11.2441 46.4912 13.0664Z" fill="url(#paint6_linear)"/>
<defs>
<linearGradient id="paint0_linear" x1="0.163818" y1="35.7876" x2="0.163818" y2="85.1087" gradientUnits="userSpaceOnUse">
<stop stop-color="#EBB367"/>
<stop offset="1" stop-color="#D27C37"/>
</linearGradient>
<linearGradient id="paint1_linear" x1="7.43286" y1="44.3999" x2="7.43286" y2="60.3076" gradientUnits="userSpaceOnUse">
<stop stop-color="#EBB367"/>
<stop offset="1" stop-color="#D27C37"/>
</linearGradient>
<linearGradient id="paint2_linear" x1="31.7029" y1="35.7874" x2="31.7029" y2="85.1086" gradientUnits="userSpaceOnUse">
<stop stop-color="#EBB367"/>
<stop offset="1" stop-color="#D27C37"/>
</linearGradient>
<linearGradient id="paint3_linear" x1="35.6826" y1="44.3999" x2="35.6826" y2="60.3076" gradientUnits="userSpaceOnUse">
<stop stop-color="#EBB367"/>
<stop offset="1" stop-color="#D27C37"/>
</linearGradient>
<linearGradient id="paint4_linear" x1="-27.3123" y1="27.162" x2="-27.3123" y2="-5.75048" gradientUnits="userSpaceOnUse">
<stop stop-color="#E0A454"/>
<stop offset="1" stop-color="#BD6B2A"/>
</linearGradient>
<linearGradient id="paint5_linear" x1="-0.1367" y1="32" x2="-0.1367" y2="15.8104" gradientUnits="userSpaceOnUse">
<stop stop-color="#E0A454"/>
<stop offset="1" stop-color="#BD6B2A"/>
</linearGradient>
<linearGradient id="paint6_linear" x1="-21.4262" y1="52.2785" x2="-51.6463" y2="-0.0642742" gradientUnits="userSpaceOnUse">
<stop stop-color="#E0A454"/>
<stop offset="1" stop-color="#BD6B2A"/>
</linearGradient>
</defs>
</svg>
