<svg xmlns="http://www.w3.org/2000/svg" width="54" height="38" viewBox="0 0 54 38">
    <g fill="none" fill-rule="evenodd">
        <path fill="#F3AD4E" d="M6.477 6.634c4.226-1.99 6.802-3.315 7.728-3.973C15.595 1.673 18.951 0 20.137 0c.533 0 3.142.043 5.083.85 2.38.99 4.108 2.715 4.108 1.811 0-1.642 7.766 3.393 8.736 2.024.97-1.368 9.268.632 9.268 1.949 0 1.317 4.557 8.503 4.557 7.264 0-1.24 3.299 3.58 1.65 6.493-1.65 2.913.399 6.796-1.65 8.608-2.049 1.811 2.155 6.423-4.557 6.423s-20.397 2.426-23.252 1.213c-2.856-1.213-9.231 3.606-10.734 0C11.844 33.03 1.97 32.281 1.97 29s-3.67-2.42-.989-7.082c2.682-4.662-1.533-3.802.989-8.02 1.681-2.81 3.184-5.232 4.508-7.263z"/>
        <path fill="#FFF" d="M27.189 27.929h1.733s.524-.06.79-.355c.247-.272.24-.783.24-.783s-.035-2.39 1.045-2.742c1.064-.346 2.43 2.31 3.879 3.332 1.095.773 1.927.603 1.927.603l3.873-.055s2.026-.128 1.065-1.765c-.078-.134-.559-1.211-2.879-3.424-2.428-2.316-2.103-1.941.822-5.947 1.782-2.44 2.494-3.93 2.271-4.568-.212-.607-1.522-.447-1.522-.447l-4.36.028s-.324-.045-.564.102c-.234.144-.385.481-.385.481s-.69 1.888-1.61 3.494c-1.942 3.388-2.718 3.567-3.036 3.356-.738-.49-.554-1.97-.554-3.02 0-3.284.485-4.653-.943-5.007-.474-.118-.823-.196-2.035-.208-1.556-.017-2.873.005-3.619.38-.496.25-.879.806-.645.838.288.04.94.18 1.287.665.446.625.43 2.028.43 2.028s.257 3.865-.599 4.345c-.588.33-1.394-.343-3.125-3.417-.887-1.574-1.557-3.315-1.557-3.315s-.129-.325-.36-.499c-.279-.21-.67-.278-.67-.278l-4.143.028s-.622.018-.85.296c-.203.247-.016.758-.016.758s3.244 7.799 6.917 11.73c3.368 3.602 7.193 3.366 7.193 3.366z"/>
    </g>
</svg>
