<svg width="819" height="24" viewBox="0 0 819 24" fill="none" xmlns="http://www.w3.org/2000/svg">
<path fill-rule="evenodd" clip-rule="evenodd" d="M7.44824 17.64C7.78424 16.38 8.12024 15.162 8.41424 13.986C8.58224 13.356 8.75024 12.726 8.91824 12.096C8.96024 11.886 8.96024 11.676 8.91824 11.466C8.45624 9.786 7.99424 8.064 7.57424 6.384C7.53224 6.216 7.49024 6.09 7.44824 5.922C7.82624 5.796 8.20424 5.712 8.54024 5.628C9.96824 5.25 11.4382 4.872 12.8662 4.452C13.1602 4.368 13.3702 4.242 13.5802 4.032C14.7982 2.814 16.0162 1.596 17.1922 0.378C17.3182 0.252 17.4022 0.126 17.4862 0C17.6542 0.168 17.7802 0.252 17.9062 0.378C19.1242 1.596 20.3842 2.856 21.6022 4.074C21.7702 4.242 21.9802 4.368 22.2322 4.452C23.9122 4.914 25.5922 5.334 27.2722 5.796C27.4402 5.838 27.5662 5.88 27.7342 5.922C27.6502 6.3 27.5662 6.636 27.4402 7.014C27.0622 8.484 26.6422 9.996 26.2222 11.466C26.1802 11.676 26.1382 11.886 26.2222 12.138C26.6842 13.818 27.1462 15.54 27.5662 17.22C27.6082 17.346 27.6502 17.514 27.6922 17.682C27.5662 17.724 27.4402 17.766 27.3142 17.808C25.6342 18.27 23.9122 18.732 22.2322 19.152C21.9382 19.236 21.7282 19.362 21.5182 19.572C20.3422 20.79 19.1242 21.966 17.9062 23.184C17.7802 23.31 17.6962 23.436 17.5702 23.604C17.4022 23.436 17.2762 23.352 17.1502 23.226C15.9322 22.008 14.6722 20.748 13.4542 19.53C13.2442 19.32 13.0762 19.236 12.7822 19.152C11.1022 18.69 9.42224 18.27 7.74224 17.808C7.78424 17.766 7.61624 17.724 7.44824 17.64ZM17.6962 0.546C17.4862 0.756 17.3602 0.84 17.2762 0.966C16.1422 2.1 15.0082 3.234 13.8742 4.368C13.6222 4.62 13.3702 4.746 13.0762 4.83C11.4802 5.25 9.88424 5.67 8.28824 6.132C8.16224 6.174 8.07824 6.216 7.95224 6.258C7.99424 6.426 8.03624 6.552 8.03624 6.678C8.45624 8.232 8.87624 9.744 9.29624 11.298C9.38024 11.634 9.38024 11.97 9.29624 12.306C8.87624 13.86 8.45624 15.372 8.03624 16.926C7.99424 17.094 7.95224 17.22 7.91024 17.388C8.12024 17.43 8.24624 17.472 8.41424 17.514C10.0102 17.934 11.5642 18.354 13.1602 18.774C13.4122 18.858 13.5802 18.942 13.7902 19.152C14.9662 20.328 16.1002 21.462 17.2762 22.638C17.4022 22.764 17.4862 22.848 17.6122 22.974C17.7382 22.848 17.8642 22.722 17.9902 22.638C19.1242 21.504 20.3002 20.328 21.4342 19.194C21.6022 18.984 21.8122 18.858 22.1062 18.816C23.7022 18.396 25.2562 17.976 26.8522 17.556C27.0202 17.514 27.1462 17.472 27.3142 17.43C27.2722 17.262 27.2302 17.094 27.2302 16.968C26.8102 15.414 26.4322 13.902 25.9702 12.348C25.8862 11.97 25.8862 11.676 25.9702 11.298C26.3902 9.786 26.8102 8.232 27.1882 6.72C27.2302 6.552 27.2722 6.426 27.3142 6.258C27.1462 6.216 27.0202 6.174 26.8942 6.132C25.3402 5.712 23.7862 5.292 22.2322 4.872C21.8962 4.788 21.6442 4.62 21.3922 4.368C20.3002 3.234 19.1662 2.142 18.0322 1.008C17.9062 0.84 17.8222 0.714 17.6962 0.546Z" fill="url(#paint0_linear)"/>
<path fill-rule="evenodd" clip-rule="evenodd" d="M17.5697 20.2018C17.2337 19.8238 16.8977 19.4878 16.5617 19.1518C15.9737 18.5638 15.3857 17.9758 14.7977 17.3878C14.6297 17.2198 14.4617 17.1358 14.2517 17.0518C13.0757 16.7578 11.9417 16.4218 10.8077 16.1278C10.6817 16.0858 10.5977 16.0438 10.4717 16.0018C10.4717 15.8758 10.5137 15.7498 10.5137 15.6658C10.8077 14.4898 11.1437 13.3138 11.4377 12.1798C11.4797 11.9698 11.4797 11.7598 11.4377 11.5498C11.1017 10.4158 10.8077 9.23982 10.5137 8.10582C10.4717 7.97982 10.4717 7.89582 10.4297 7.72782C10.5977 7.68582 10.7237 7.64382 10.8917 7.60182C11.9837 7.30782 13.1177 7.01382 14.2097 6.71982C14.4617 6.63582 14.6297 6.55182 14.8397 6.34182C15.6377 5.50182 16.4777 4.70382 17.2757 3.90582C17.3597 3.82182 17.4857 3.69582 17.6117 3.56982C17.7377 3.65382 17.8217 3.77982 17.9477 3.86382C18.7457 4.66182 19.5857 5.50182 20.3837 6.29982C20.5937 6.50982 20.8037 6.63582 21.0557 6.71982C22.1477 7.01382 23.2397 7.30782 24.3317 7.60182C24.4577 7.64382 24.5837 7.68582 24.7517 7.72782C24.7097 7.85382 24.7097 7.97982 24.7097 8.06382C24.4157 9.23982 24.0797 10.4158 23.7857 11.5498C23.7437 11.7598 23.7437 11.9698 23.7857 12.1798C24.1217 13.3138 24.4157 14.4898 24.7097 15.6238C24.7517 15.7498 24.7517 15.8338 24.7937 15.9598C24.6677 16.0018 24.5837 16.0438 24.4577 16.0858C23.3237 16.3798 22.1477 16.7158 21.0137 17.0098C20.7617 17.0938 20.5517 17.1778 20.3837 17.3878C19.5857 18.2278 18.7457 19.0258 17.9477 19.8238C17.8637 19.9078 17.7797 20.0338 17.5697 20.2018ZM17.6117 19.5718C17.7377 19.4458 17.8637 19.3618 17.9477 19.2358C18.7037 18.4798 19.4177 17.7658 20.1737 17.0098C20.3417 16.7998 20.5517 16.7158 20.8457 16.6318C21.8537 16.3798 22.8617 16.0858 23.8697 15.8338C23.9957 15.7918 24.1217 15.7498 24.2897 15.7078C24.2477 15.5398 24.2057 15.4138 24.2057 15.2878C23.9537 14.2798 23.6597 13.2298 23.3657 12.2218C23.2817 11.9698 23.2817 11.7598 23.3657 11.5498C23.6597 10.4998 23.9117 9.44982 24.2057 8.44182C24.2477 8.31582 24.2477 8.18982 24.2897 8.02182C24.1637 7.97982 24.0797 7.93782 23.9957 7.93782C22.9457 7.64382 21.8537 7.34982 20.8037 7.09782C20.5517 7.01382 20.3417 6.92982 20.1737 6.76182C19.4177 6.00582 18.7037 5.29182 17.9477 4.53582C17.8217 4.40982 17.7377 4.32582 17.5697 4.19982C17.4437 4.32582 17.3177 4.45182 17.1917 4.53582C16.4777 5.24982 15.7217 6.00582 15.0077 6.71982C14.7977 6.92982 14.6297 7.01382 14.3357 7.09782C13.3277 7.34982 12.3617 7.60182 11.3957 7.89582C11.2277 7.93782 11.0597 7.97982 10.8917 8.06382C10.9337 8.23182 10.9757 8.35782 10.9757 8.48382C11.2277 9.49182 11.5217 10.4998 11.7737 11.5078C11.8577 11.7598 11.8577 12.0118 11.7737 12.2638C11.4797 13.2718 11.2277 14.3218 10.9337 15.3298C10.8917 15.4558 10.8917 15.5818 10.8497 15.7498C11.0177 15.7918 11.1437 15.8338 11.2697 15.8758C12.0257 16.0858 12.7817 16.3378 13.5377 16.4638C14.3777 16.6318 15.0497 17.0098 15.5957 17.6398C16.2677 18.3118 16.9397 18.8998 17.6117 19.5718Z" fill="url(#paint1_linear)"/>
<path fill-rule="evenodd" clip-rule="evenodd" d="M4.21359 9.61816C4.33959 10.0382 4.42359 10.4162 4.54959 10.7942C4.80159 11.5082 4.80159 12.1802 4.54959 12.8942C4.42359 13.2722 4.33959 13.6502 4.21359 14.0702C3.91959 13.9862 3.66759 13.9442 3.41559 13.8602C2.95359 13.7342 2.44959 13.6922 2.02959 13.4402C1.65159 13.2302 1.35759 12.8102 1.02159 12.4742C0.811594 12.2642 0.643594 12.0962 0.433594 11.8442C0.811594 11.4662 1.18959 11.1302 1.52559 10.7522C1.86159 10.3742 2.28159 10.1222 2.78559 9.99616C3.20559 9.91216 3.70959 9.74416 4.21359 9.61816ZM3.91959 13.5662C4.08759 12.9782 4.21359 12.4322 4.38159 11.9282C4.38159 11.8862 4.38159 11.8022 4.38159 11.7602C4.25559 11.2142 4.08759 10.6682 3.91959 10.1222C3.33159 10.2902 2.78559 10.4162 2.28159 10.5842C2.23959 10.5842 2.15559 10.6262 2.15559 10.6682C1.77759 11.0462 1.35759 11.4662 0.937594 11.8862C1.35759 12.3062 1.73559 12.6842 2.11359 13.0622C2.15559 13.1042 2.23959 13.1462 2.28159 13.1882C2.82759 13.2722 3.37359 13.3982 3.91959 13.5662Z" fill="url(#paint2_linear)"/>
<path fill-rule="evenodd" clip-rule="evenodd" d="M31.0519 9.61816C31.7659 9.82816 32.4799 9.99616 33.1519 10.1642C33.1939 10.1642 33.2779 10.2062 33.3199 10.2482C33.8239 10.7522 34.3699 11.2982 34.9159 11.8022C34.3699 12.3482 33.8659 12.8522 33.3199 13.3982C33.2779 13.4402 33.1939 13.4822 33.1099 13.4822C32.4799 13.6502 31.8499 13.8182 31.1779 13.9862C31.1359 13.9862 31.0939 13.9862 31.0099 13.9862C30.8839 13.5242 30.7579 13.0202 30.5899 12.5582C30.4219 12.0542 30.4219 11.5922 30.5899 11.0882C30.7999 10.6262 30.8839 10.1222 31.0519 9.61816ZM31.3039 10.1222C31.1359 10.7102 31.0099 11.2562 30.8419 11.8022C30.8419 11.8442 30.8419 11.8442 30.8419 11.8862C30.9679 12.4322 31.1359 12.9782 31.3039 13.5662C31.8919 13.3982 32.4379 13.2722 32.9839 13.1042C33.0259 13.1042 33.0259 13.0622 33.0679 13.0622C33.4879 12.6422 33.9079 12.2222 34.3279 11.8022C33.9079 11.3822 33.5299 11.0042 33.1519 10.6682C33.1099 10.6262 33.0259 10.5842 32.9839 10.5422C32.4379 10.4162 31.8919 10.2482 31.3039 10.1222Z" fill="url(#paint3_linear)"/>
<path fill-rule="evenodd" clip-rule="evenodd" d="M17.6542 17.0522C17.0662 16.4642 16.5202 15.9182 16.0162 15.4142C15.8062 15.2042 15.5962 15.0782 15.3442 14.9942C14.7562 14.8682 14.1682 14.6582 13.5382 14.5322C13.4122 14.4902 13.2862 14.4482 13.1602 14.4062C13.3282 13.7342 13.4962 13.0622 13.7062 12.3902C13.8322 12.0122 13.8322 11.6762 13.7062 11.2982C13.4962 10.6262 13.3282 9.95421 13.1602 9.28221C13.3282 9.24021 13.4962 9.15621 13.6222 9.15621C14.2102 8.98821 14.7982 8.82021 15.3862 8.69421C15.6382 8.65221 15.8482 8.52621 16.0162 8.35821C16.4362 7.89621 16.8982 7.47621 17.3182 7.05621C17.4022 6.97221 17.5282 6.84621 17.6542 6.76221C18.0742 7.18221 18.4942 7.56021 18.8722 7.98021C19.2922 8.44221 19.7542 8.73621 20.3842 8.86221C20.9302 8.98821 21.4762 9.15621 22.0642 9.32421C22.0222 9.45021 22.0222 9.57621 21.9802 9.70221C21.8542 10.2482 21.6862 10.8362 21.5182 11.3822C21.3922 11.7602 21.3922 12.0542 21.5182 12.4322C21.6862 12.9782 21.8122 13.5242 21.9802 14.0702C22.0222 14.1962 22.0222 14.3642 22.0642 14.5322C21.6022 14.6582 21.1822 14.8262 20.7622 14.8682C19.8802 14.9942 19.1662 15.4142 18.5782 16.1282C18.3262 16.3802 17.9902 16.6742 17.6542 17.0522ZM13.6222 9.53421C13.7902 10.2062 13.9582 10.8362 14.1262 11.4242C14.2102 11.7182 14.2102 11.9702 14.1262 12.2642C13.9582 12.7682 13.8322 13.3142 13.7062 13.8602C13.6642 13.9442 13.6642 14.0282 13.6642 14.1542C14.3362 14.3222 15.0082 14.5322 15.6382 14.7002C15.8482 14.7422 16.0162 14.8262 16.1422 14.9942C16.5202 15.4142 16.9402 15.7922 17.3182 16.1702C17.4022 16.2542 17.4862 16.3382 17.6542 16.4642C18.1162 16.0022 18.5782 15.5402 18.9982 15.0782C19.2082 14.8682 19.4602 14.7422 19.7122 14.6582C20.2582 14.5322 20.7622 14.3642 21.3082 14.2382C21.3922 14.1962 21.4762 14.1542 21.6022 14.1122C21.4342 13.4402 21.2662 12.8102 21.0982 12.1802C21.0142 11.9702 21.0142 11.7182 21.0982 11.5082C21.2662 10.9622 21.3922 10.4582 21.5182 9.91221C21.5602 9.78621 21.5602 9.66021 21.6022 9.53421C20.9302 9.36621 20.3002 9.15621 19.6702 9.03021C19.4182 8.98821 19.2502 8.86221 19.0822 8.69421C18.7042 8.27421 18.2842 7.89621 17.9062 7.51821C17.8222 7.43421 17.7382 7.39221 17.6122 7.26621C17.1502 7.72821 16.6882 8.19021 16.2682 8.65221C16.0582 8.86221 15.8062 8.98821 15.5542 9.07221C14.8822 9.19821 14.2942 9.36621 13.6222 9.53421Z" fill="url(#paint4_linear)"/>
<path fill-rule="evenodd" clip-rule="evenodd" d="M15.8057 12.8941C16.1417 12.1801 16.1417 11.5501 15.8477 10.8781C16.2257 10.7521 16.5617 10.7101 16.8557 10.5421C17.1497 10.3741 17.3597 10.1221 17.6117 9.87012C17.8637 10.1221 18.0737 10.3741 18.3677 10.5421C18.6617 10.7101 18.9977 10.7521 19.3337 10.8361C19.2497 11.1721 19.1237 11.5081 19.1237 11.8441C19.1237 12.1801 19.2497 12.5161 19.3337 12.8521C18.9977 12.9781 18.6197 13.0201 18.3257 13.1881C18.0317 13.3561 17.8637 13.6081 17.5697 13.9021C17.1917 13.2721 16.6037 12.9361 15.8057 12.8941ZM16.3517 12.6001C16.8977 12.6841 17.2757 12.9361 17.6537 13.3561C17.9897 12.8941 18.3677 12.6841 18.9557 12.6001C18.7037 12.0961 18.7877 11.6341 18.9137 11.1301C18.3677 11.0461 17.9897 10.8361 17.6537 10.3741C17.3177 10.8361 16.8977 11.0461 16.3937 11.1301C16.5617 11.6341 16.5197 12.0961 16.3517 12.6001Z" fill="url(#paint5_linear)"/>
<path fill-rule="evenodd" clip-rule="evenodd" d="M119.448 17.64C119.784 16.38 120.12 15.162 120.414 13.986C120.582 13.356 120.75 12.726 120.918 12.096C120.96 11.886 120.96 11.676 120.918 11.466C120.456 9.786 119.994 8.064 119.574 6.384C119.532 6.216 119.49 6.09 119.448 5.922C119.826 5.796 120.204 5.712 120.54 5.628C121.968 5.25 123.438 4.872 124.866 4.452C125.16 4.368 125.37 4.242 125.58 4.032C126.798 2.814 128.016 1.596 129.192 0.378C129.318 0.252 129.402 0.126 129.486 0C129.654 0.168 129.78 0.252 129.906 0.378C131.124 1.596 132.384 2.856 133.602 4.074C133.77 4.242 133.98 4.368 134.232 4.452C135.912 4.914 137.592 5.334 139.272 5.796C139.44 5.838 139.566 5.88 139.734 5.922C139.65 6.3 139.566 6.636 139.44 7.014C139.062 8.484 138.642 9.996 138.222 11.466C138.18 11.676 138.138 11.886 138.222 12.138C138.684 13.818 139.146 15.54 139.566 17.22C139.608 17.346 139.65 17.514 139.692 17.682C139.566 17.724 139.44 17.766 139.314 17.808C137.634 18.27 135.912 18.732 134.232 19.152C133.938 19.236 133.728 19.362 133.518 19.572C132.342 20.79 131.124 21.966 129.906 23.184C129.78 23.31 129.696 23.436 129.57 23.604C129.402 23.436 129.276 23.352 129.15 23.226C127.932 22.008 126.672 20.748 125.454 19.53C125.244 19.32 125.076 19.236 124.782 19.152C123.102 18.69 121.422 18.27 119.742 17.808C119.784 17.766 119.616 17.724 119.448 17.64ZM129.696 0.546C129.486 0.756 129.36 0.84 129.276 0.966C128.142 2.1 127.008 3.234 125.874 4.368C125.622 4.62 125.37 4.746 125.076 4.83C123.48 5.25 121.884 5.67 120.288 6.132C120.162 6.174 120.078 6.216 119.952 6.258C119.994 6.426 120.036 6.552 120.036 6.678C120.456 8.232 120.876 9.744 121.296 11.298C121.38 11.634 121.38 11.97 121.296 12.306C120.876 13.86 120.456 15.372 120.036 16.926C119.994 17.094 119.952 17.22 119.91 17.388C120.12 17.43 120.246 17.472 120.414 17.514C122.01 17.934 123.564 18.354 125.16 18.774C125.412 18.858 125.58 18.942 125.79 19.152C126.966 20.328 128.1 21.462 129.276 22.638C129.402 22.764 129.486 22.848 129.612 22.974C129.738 22.848 129.864 22.722 129.99 22.638C131.124 21.504 132.3 20.328 133.434 19.194C133.602 18.984 133.812 18.858 134.106 18.816C135.702 18.396 137.256 17.976 138.852 17.556C139.02 17.514 139.146 17.472 139.314 17.43C139.272 17.262 139.23 17.094 139.23 16.968C138.81 15.414 138.432 13.902 137.97 12.348C137.886 11.97 137.886 11.676 137.97 11.298C138.39 9.786 138.81 8.232 139.188 6.72C139.23 6.552 139.272 6.426 139.314 6.258C139.146 6.216 139.02 6.174 138.894 6.132C137.34 5.712 135.786 5.292 134.232 4.872C133.896 4.788 133.644 4.62 133.392 4.368C132.3 3.234 131.166 2.142 130.032 1.008C129.906 0.84 129.822 0.714 129.696 0.546Z" fill="url(#paint6_linear)"/>
<path fill-rule="evenodd" clip-rule="evenodd" d="M129.57 20.2018C129.234 19.8238 128.898 19.4878 128.562 19.1518C127.974 18.5638 127.386 17.9758 126.798 17.3878C126.63 17.2198 126.462 17.1358 126.252 17.0518C125.076 16.7578 123.942 16.4218 122.808 16.1278C122.682 16.0858 122.598 16.0438 122.472 16.0018C122.472 15.8758 122.514 15.7498 122.514 15.6658C122.808 14.4898 123.144 13.3138 123.438 12.1798C123.48 11.9698 123.48 11.7598 123.438 11.5498C123.102 10.4158 122.808 9.23982 122.514 8.10582C122.472 7.97982 122.472 7.89582 122.43 7.72782C122.598 7.68582 122.724 7.64382 122.892 7.60182C123.984 7.30782 125.118 7.01382 126.21 6.71982C126.462 6.63582 126.63 6.55182 126.84 6.34182C127.638 5.50182 128.478 4.70382 129.276 3.90582C129.36 3.82182 129.486 3.69582 129.612 3.56982C129.738 3.65382 129.822 3.77982 129.948 3.86382C130.746 4.66182 131.586 5.50182 132.384 6.29982C132.594 6.50982 132.804 6.63582 133.056 6.71982C134.148 7.01382 135.24 7.30782 136.332 7.60182C136.458 7.64382 136.584 7.68582 136.752 7.72782C136.71 7.85382 136.71 7.97982 136.71 8.06382C136.416 9.23982 136.08 10.4158 135.786 11.5498C135.744 11.7598 135.744 11.9698 135.786 12.1798C136.122 13.3138 136.416 14.4898 136.71 15.6238C136.752 15.7498 136.752 15.8338 136.794 15.9598C136.668 16.0018 136.584 16.0438 136.458 16.0858C135.324 16.3798 134.148 16.7158 133.014 17.0098C132.762 17.0938 132.552 17.1778 132.384 17.3878C131.586 18.2278 130.746 19.0258 129.948 19.8238C129.864 19.9078 129.78 20.0338 129.57 20.2018ZM129.612 19.5718C129.738 19.4458 129.864 19.3618 129.948 19.2358C130.704 18.4798 131.418 17.7658 132.174 17.0098C132.342 16.7998 132.552 16.7158 132.846 16.6318C133.854 16.3798 134.862 16.0858 135.87 15.8338C135.996 15.7918 136.122 15.7498 136.29 15.7078C136.248 15.5398 136.206 15.4138 136.206 15.2878C135.954 14.2798 135.66 13.2298 135.366 12.2218C135.282 11.9698 135.282 11.7598 135.366 11.5498C135.66 10.4998 135.912 9.44982 136.206 8.44182C136.248 8.31582 136.248 8.18982 136.29 8.02182C136.164 7.97982 136.08 7.93782 135.996 7.93782C134.946 7.64382 133.854 7.34982 132.804 7.09782C132.552 7.01382 132.342 6.92982 132.174 6.76182C131.418 6.00582 130.704 5.29182 129.948 4.53582C129.822 4.40982 129.738 4.32582 129.57 4.19982C129.444 4.32582 129.318 4.45182 129.192 4.53582C128.478 5.24982 127.722 6.00582 127.008 6.71982C126.798 6.92982 126.63 7.01382 126.336 7.09782C125.328 7.34982 124.362 7.60182 123.396 7.89582C123.228 7.93782 123.06 7.97982 122.892 8.06382C122.934 8.23182 122.976 8.35782 122.976 8.48382C123.228 9.49182 123.522 10.4998 123.774 11.5078C123.858 11.7598 123.858 12.0118 123.774 12.2638C123.48 13.2718 123.228 14.3218 122.934 15.3298C122.892 15.4558 122.892 15.5818 122.85 15.7498C123.018 15.7918 123.144 15.8338 123.27 15.8758C124.026 16.0858 124.782 16.3378 125.538 16.4638C126.378 16.6318 127.05 17.0098 127.596 17.6398C128.268 18.3118 128.94 18.8998 129.612 19.5718Z" fill="url(#paint7_linear)"/>
<path fill-rule="evenodd" clip-rule="evenodd" d="M116.214 9.61816C116.34 10.0382 116.424 10.4162 116.55 10.7942C116.802 11.5082 116.802 12.1802 116.55 12.8942C116.424 13.2722 116.34 13.6502 116.214 14.0702C115.92 13.9862 115.668 13.9442 115.416 13.8602C114.954 13.7342 114.45 13.6922 114.03 13.4402C113.652 13.2302 113.358 12.8102 113.022 12.4742C112.812 12.2642 112.644 12.0962 112.434 11.8442C112.812 11.4662 113.19 11.1302 113.526 10.7522C113.862 10.3742 114.282 10.1222 114.786 9.99616C115.206 9.91216 115.71 9.74416 116.214 9.61816ZM115.92 13.5662C116.088 12.9782 116.214 12.4322 116.382 11.9282C116.382 11.8862 116.382 11.8022 116.382 11.7602C116.256 11.2142 116.088 10.6682 115.92 10.1222C115.332 10.2902 114.786 10.4162 114.282 10.5842C114.24 10.5842 114.156 10.6262 114.156 10.6682C113.778 11.0462 113.358 11.4662 112.938 11.8862C113.358 12.3062 113.736 12.6842 114.114 13.0622C114.156 13.1042 114.24 13.1462 114.282 13.1882C114.828 13.2722 115.374 13.3982 115.92 13.5662Z" fill="url(#paint8_linear)"/>
<path fill-rule="evenodd" clip-rule="evenodd" d="M143.052 9.61816C143.766 9.82816 144.48 9.99616 145.152 10.1642C145.194 10.1642 145.278 10.2062 145.32 10.2482C145.824 10.7522 146.37 11.2982 146.916 11.8022C146.37 12.3482 145.866 12.8522 145.32 13.3982C145.278 13.4402 145.194 13.4822 145.11 13.4822C144.48 13.6502 143.85 13.8182 143.178 13.9862C143.136 13.9862 143.094 13.9862 143.01 13.9862C142.884 13.5242 142.758 13.0202 142.59 12.5582C142.422 12.0542 142.422 11.5922 142.59 11.0882C142.8 10.6262 142.884 10.1222 143.052 9.61816ZM143.304 10.1222C143.136 10.7102 143.01 11.2562 142.842 11.8022C142.842 11.8442 142.842 11.8442 142.842 11.8862C142.968 12.4322 143.136 12.9782 143.304 13.5662C143.892 13.3982 144.438 13.2722 144.984 13.1042C145.026 13.1042 145.026 13.0622 145.068 13.0622C145.488 12.6422 145.908 12.2222 146.328 11.8022C145.908 11.3822 145.53 11.0042 145.152 10.6682C145.11 10.6262 145.026 10.5842 144.984 10.5422C144.438 10.4162 143.892 10.2482 143.304 10.1222Z" fill="url(#paint9_linear)"/>
<path fill-rule="evenodd" clip-rule="evenodd" d="M129.654 17.0522C129.066 16.4642 128.52 15.9182 128.016 15.4142C127.806 15.2042 127.596 15.0782 127.344 14.9942C126.756 14.8682 126.168 14.6582 125.538 14.5322C125.412 14.4902 125.286 14.4482 125.16 14.4062C125.328 13.7342 125.496 13.0622 125.706 12.3902C125.832 12.0122 125.832 11.6762 125.706 11.2982C125.496 10.6262 125.328 9.95421 125.16 9.28221C125.328 9.24021 125.496 9.15621 125.622 9.15621C126.21 8.98821 126.798 8.82021 127.386 8.69421C127.638 8.65221 127.848 8.52621 128.016 8.35821C128.436 7.89621 128.898 7.47621 129.318 7.05621C129.402 6.97221 129.528 6.84621 129.654 6.76221C130.074 7.18221 130.494 7.56021 130.872 7.98021C131.292 8.44221 131.754 8.73621 132.384 8.86221C132.93 8.98821 133.476 9.15621 134.064 9.32421C134.022 9.45021 134.022 9.57621 133.98 9.70221C133.854 10.2482 133.686 10.8362 133.518 11.3822C133.392 11.7602 133.392 12.0542 133.518 12.4322C133.686 12.9782 133.812 13.5242 133.98 14.0702C134.022 14.1962 134.022 14.3642 134.064 14.5322C133.602 14.6582 133.182 14.8262 132.762 14.8682C131.88 14.9942 131.166 15.4142 130.578 16.1282C130.326 16.3802 129.99 16.6742 129.654 17.0522ZM125.622 9.53421C125.79 10.2062 125.958 10.8362 126.126 11.4242C126.21 11.7182 126.21 11.9702 126.126 12.2642C125.958 12.7682 125.832 13.3142 125.706 13.8602C125.664 13.9442 125.664 14.0282 125.664 14.1542C126.336 14.3222 127.008 14.5322 127.638 14.7002C127.848 14.7422 128.016 14.8262 128.142 14.9942C128.52 15.4142 128.94 15.7922 129.318 16.1702C129.402 16.2542 129.486 16.3382 129.654 16.4642C130.116 16.0022 130.578 15.5402 130.998 15.0782C131.208 14.8682 131.46 14.7422 131.712 14.6582C132.258 14.5322 132.762 14.3642 133.308 14.2382C133.392 14.1962 133.476 14.1542 133.602 14.1122C133.434 13.4402 133.266 12.8102 133.098 12.1802C133.014 11.9702 133.014 11.7182 133.098 11.5082C133.266 10.9622 133.392 10.4582 133.518 9.91221C133.56 9.78621 133.56 9.66021 133.602 9.53421C132.93 9.36621 132.3 9.15621 131.67 9.03021C131.418 8.98821 131.25 8.86221 131.082 8.69421C130.704 8.27421 130.284 7.89621 129.906 7.51821C129.822 7.43421 129.738 7.39221 129.612 7.26621C129.15 7.72821 128.688 8.19021 128.268 8.65221C128.058 8.86221 127.806 8.98821 127.554 9.07221C126.882 9.19821 126.294 9.36621 125.622 9.53421Z" fill="url(#paint10_linear)"/>
<path fill-rule="evenodd" clip-rule="evenodd" d="M127.806 12.8941C128.142 12.1801 128.142 11.5501 127.848 10.8781C128.226 10.7521 128.562 10.7101 128.856 10.5421C129.15 10.3741 129.36 10.1221 129.612 9.87012C129.864 10.1221 130.074 10.3741 130.368 10.5421C130.662 10.7101 130.998 10.7521 131.334 10.8361C131.25 11.1721 131.124 11.5081 131.124 11.8441C131.124 12.1801 131.25 12.5161 131.334 12.8521C130.998 12.9781 130.62 13.0201 130.326 13.1881C130.032 13.3561 129.864 13.6081 129.57 13.9021C129.192 13.2721 128.604 12.9361 127.806 12.8941ZM128.352 12.6001C128.898 12.6841 129.276 12.9361 129.654 13.3561C129.99 12.8941 130.368 12.6841 130.956 12.6001C130.704 12.0961 130.788 11.6341 130.914 11.1301C130.368 11.0461 129.99 10.8361 129.654 10.3741C129.318 10.8361 128.898 11.0461 128.394 11.1301C128.562 11.6341 128.52 12.0961 128.352 12.6001Z" fill="url(#paint11_linear)"/>
<path fill-rule="evenodd" clip-rule="evenodd" d="M231.448 17.64C231.784 16.38 232.12 15.162 232.414 13.986C232.582 13.356 232.75 12.726 232.918 12.096C232.96 11.886 232.96 11.676 232.918 11.466C232.456 9.786 231.994 8.064 231.574 6.384C231.532 6.216 231.49 6.09 231.448 5.922C231.826 5.796 232.204 5.712 232.54 5.628C233.968 5.25 235.438 4.872 236.866 4.452C237.16 4.368 237.37 4.242 237.58 4.032C238.798 2.814 240.016 1.596 241.192 0.378C241.318 0.252 241.402 0.126 241.486 0C241.654 0.168 241.78 0.252 241.906 0.378C243.124 1.596 244.384 2.856 245.602 4.074C245.77 4.242 245.98 4.368 246.232 4.452C247.912 4.914 249.592 5.334 251.272 5.796C251.44 5.838 251.566 5.88 251.734 5.922C251.65 6.3 251.566 6.636 251.44 7.014C251.062 8.484 250.642 9.996 250.222 11.466C250.18 11.676 250.138 11.886 250.222 12.138C250.684 13.818 251.146 15.54 251.566 17.22C251.608 17.346 251.65 17.514 251.692 17.682C251.566 17.724 251.44 17.766 251.314 17.808C249.634 18.27 247.912 18.732 246.232 19.152C245.938 19.236 245.728 19.362 245.518 19.572C244.342 20.79 243.124 21.966 241.906 23.184C241.78 23.31 241.696 23.436 241.57 23.604C241.402 23.436 241.276 23.352 241.15 23.226C239.932 22.008 238.672 20.748 237.454 19.53C237.244 19.32 237.076 19.236 236.782 19.152C235.102 18.69 233.422 18.27 231.742 17.808C231.784 17.766 231.616 17.724 231.448 17.64ZM241.696 0.546C241.486 0.756 241.36 0.84 241.276 0.966C240.142 2.1 239.008 3.234 237.874 4.368C237.622 4.62 237.37 4.746 237.076 4.83C235.48 5.25 233.884 5.67 232.288 6.132C232.162 6.174 232.078 6.216 231.952 6.258C231.994 6.426 232.036 6.552 232.036 6.678C232.456 8.232 232.876 9.744 233.296 11.298C233.38 11.634 233.38 11.97 233.296 12.306C232.876 13.86 232.456 15.372 232.036 16.926C231.994 17.094 231.952 17.22 231.91 17.388C232.12 17.43 232.246 17.472 232.414 17.514C234.01 17.934 235.564 18.354 237.16 18.774C237.412 18.858 237.58 18.942 237.79 19.152C238.966 20.328 240.1 21.462 241.276 22.638C241.402 22.764 241.486 22.848 241.612 22.974C241.738 22.848 241.864 22.722 241.99 22.638C243.124 21.504 244.3 20.328 245.434 19.194C245.602 18.984 245.812 18.858 246.106 18.816C247.702 18.396 249.256 17.976 250.852 17.556C251.02 17.514 251.146 17.472 251.314 17.43C251.272 17.262 251.23 17.094 251.23 16.968C250.81 15.414 250.432 13.902 249.97 12.348C249.886 11.97 249.886 11.676 249.97 11.298C250.39 9.786 250.81 8.232 251.188 6.72C251.23 6.552 251.272 6.426 251.314 6.258C251.146 6.216 251.02 6.174 250.894 6.132C249.34 5.712 247.786 5.292 246.232 4.872C245.896 4.788 245.644 4.62 245.392 4.368C244.3 3.234 243.166 2.142 242.032 1.008C241.906 0.84 241.822 0.714 241.696 0.546Z" fill="url(#paint12_linear)"/>
<path fill-rule="evenodd" clip-rule="evenodd" d="M241.57 20.2018C241.234 19.8238 240.898 19.4878 240.562 19.1518C239.974 18.5638 239.386 17.9758 238.798 17.3878C238.63 17.2198 238.462 17.1358 238.252 17.0518C237.076 16.7578 235.942 16.4218 234.808 16.1278C234.682 16.0858 234.598 16.0438 234.472 16.0018C234.472 15.8758 234.514 15.7498 234.514 15.6658C234.808 14.4898 235.144 13.3138 235.438 12.1798C235.48 11.9698 235.48 11.7598 235.438 11.5498C235.102 10.4158 234.808 9.23982 234.514 8.10582C234.472 7.97982 234.472 7.89582 234.43 7.72782C234.598 7.68582 234.724 7.64382 234.892 7.60182C235.984 7.30782 237.118 7.01382 238.21 6.71982C238.462 6.63582 238.63 6.55182 238.84 6.34182C239.638 5.50182 240.478 4.70382 241.276 3.90582C241.36 3.82182 241.486 3.69582 241.612 3.56982C241.738 3.65382 241.822 3.77982 241.948 3.86382C242.746 4.66182 243.586 5.50182 244.384 6.29982C244.594 6.50982 244.804 6.63582 245.056 6.71982C246.148 7.01382 247.24 7.30782 248.332 7.60182C248.458 7.64382 248.584 7.68582 248.752 7.72782C248.71 7.85382 248.71 7.97982 248.71 8.06382C248.416 9.23982 248.08 10.4158 247.786 11.5498C247.744 11.7598 247.744 11.9698 247.786 12.1798C248.122 13.3138 248.416 14.4898 248.71 15.6238C248.752 15.7498 248.752 15.8338 248.794 15.9598C248.668 16.0018 248.584 16.0438 248.458 16.0858C247.324 16.3798 246.148 16.7158 245.014 17.0098C244.762 17.0938 244.552 17.1778 244.384 17.3878C243.586 18.2278 242.746 19.0258 241.948 19.8238C241.864 19.9078 241.78 20.0338 241.57 20.2018ZM241.612 19.5718C241.738 19.4458 241.864 19.3618 241.948 19.2358C242.704 18.4798 243.418 17.7658 244.174 17.0098C244.342 16.7998 244.552 16.7158 244.846 16.6318C245.854 16.3798 246.862 16.0858 247.87 15.8338C247.996 15.7918 248.122 15.7498 248.29 15.7078C248.248 15.5398 248.206 15.4138 248.206 15.2878C247.954 14.2798 247.66 13.2298 247.366 12.2218C247.282 11.9698 247.282 11.7598 247.366 11.5498C247.66 10.4998 247.912 9.44982 248.206 8.44182C248.248 8.31582 248.248 8.18982 248.29 8.02182C248.164 7.97982 248.08 7.93782 247.996 7.93782C246.946 7.64382 245.854 7.34982 244.804 7.09782C244.552 7.01382 244.342 6.92982 244.174 6.76182C243.418 6.00582 242.704 5.29182 241.948 4.53582C241.822 4.40982 241.738 4.32582 241.57 4.19982C241.444 4.32582 241.318 4.45182 241.192 4.53582C240.478 5.24982 239.722 6.00582 239.008 6.71982C238.798 6.92982 238.63 7.01382 238.336 7.09782C237.328 7.34982 236.362 7.60182 235.396 7.89582C235.228 7.93782 235.06 7.97982 234.892 8.06382C234.934 8.23182 234.976 8.35782 234.976 8.48382C235.228 9.49182 235.522 10.4998 235.774 11.5078C235.858 11.7598 235.858 12.0118 235.774 12.2638C235.48 13.2718 235.228 14.3218 234.934 15.3298C234.892 15.4558 234.892 15.5818 234.85 15.7498C235.018 15.7918 235.144 15.8338 235.27 15.8758C236.026 16.0858 236.782 16.3378 237.538 16.4638C238.378 16.6318 239.05 17.0098 239.596 17.6398C240.268 18.3118 240.94 18.8998 241.612 19.5718Z" fill="url(#paint13_linear)"/>
<path fill-rule="evenodd" clip-rule="evenodd" d="M228.214 9.61816C228.34 10.0382 228.424 10.4162 228.55 10.7942C228.802 11.5082 228.802 12.1802 228.55 12.8942C228.424 13.2722 228.34 13.6502 228.214 14.0702C227.92 13.9862 227.668 13.9442 227.416 13.8602C226.954 13.7342 226.45 13.6922 226.03 13.4402C225.652 13.2302 225.358 12.8102 225.022 12.4742C224.812 12.2642 224.644 12.0962 224.434 11.8442C224.812 11.4662 225.19 11.1302 225.526 10.7522C225.862 10.3742 226.282 10.1222 226.786 9.99616C227.206 9.91216 227.71 9.74416 228.214 9.61816ZM227.92 13.5662C228.088 12.9782 228.214 12.4322 228.382 11.9282C228.382 11.8862 228.382 11.8022 228.382 11.7602C228.256 11.2142 228.088 10.6682 227.92 10.1222C227.332 10.2902 226.786 10.4162 226.282 10.5842C226.24 10.5842 226.156 10.6262 226.156 10.6682C225.778 11.0462 225.358 11.4662 224.938 11.8862C225.358 12.3062 225.736 12.6842 226.114 13.0622C226.156 13.1042 226.24 13.1462 226.282 13.1882C226.828 13.2722 227.374 13.3982 227.92 13.5662Z" fill="url(#paint14_linear)"/>
<path fill-rule="evenodd" clip-rule="evenodd" d="M255.052 9.61816C255.766 9.82816 256.48 9.99616 257.152 10.1642C257.194 10.1642 257.278 10.2062 257.32 10.2482C257.824 10.7522 258.37 11.2982 258.916 11.8022C258.37 12.3482 257.866 12.8522 257.32 13.3982C257.278 13.4402 257.194 13.4822 257.11 13.4822C256.48 13.6502 255.85 13.8182 255.178 13.9862C255.136 13.9862 255.094 13.9862 255.01 13.9862C254.884 13.5242 254.758 13.0202 254.59 12.5582C254.422 12.0542 254.422 11.5922 254.59 11.0882C254.8 10.6262 254.884 10.1222 255.052 9.61816ZM255.304 10.1222C255.136 10.7102 255.01 11.2562 254.842 11.8022C254.842 11.8442 254.842 11.8442 254.842 11.8862C254.968 12.4322 255.136 12.9782 255.304 13.5662C255.892 13.3982 256.438 13.2722 256.984 13.1042C257.026 13.1042 257.026 13.0622 257.068 13.0622C257.488 12.6422 257.908 12.2222 258.328 11.8022C257.908 11.3822 257.53 11.0042 257.152 10.6682C257.11 10.6262 257.026 10.5842 256.984 10.5422C256.438 10.4162 255.892 10.2482 255.304 10.1222Z" fill="url(#paint15_linear)"/>
<path fill-rule="evenodd" clip-rule="evenodd" d="M241.654 17.0522C241.066 16.4642 240.52 15.9182 240.016 15.4142C239.806 15.2042 239.596 15.0782 239.344 14.9942C238.756 14.8682 238.168 14.6582 237.538 14.5322C237.412 14.4902 237.286 14.4482 237.16 14.4062C237.328 13.7342 237.496 13.0622 237.706 12.3902C237.832 12.0122 237.832 11.6762 237.706 11.2982C237.496 10.6262 237.328 9.95421 237.16 9.28221C237.328 9.24021 237.496 9.15621 237.622 9.15621C238.21 8.98821 238.798 8.82021 239.386 8.69421C239.638 8.65221 239.848 8.52621 240.016 8.35821C240.436 7.89621 240.898 7.47621 241.318 7.05621C241.402 6.97221 241.528 6.84621 241.654 6.76221C242.074 7.18221 242.494 7.56021 242.872 7.98021C243.292 8.44221 243.754 8.73621 244.384 8.86221C244.93 8.98821 245.476 9.15621 246.064 9.32421C246.022 9.45021 246.022 9.57621 245.98 9.70221C245.854 10.2482 245.686 10.8362 245.518 11.3822C245.392 11.7602 245.392 12.0542 245.518 12.4322C245.686 12.9782 245.812 13.5242 245.98 14.0702C246.022 14.1962 246.022 14.3642 246.064 14.5322C245.602 14.6582 245.182 14.8262 244.762 14.8682C243.88 14.9942 243.166 15.4142 242.578 16.1282C242.326 16.3802 241.99 16.6742 241.654 17.0522ZM237.622 9.53421C237.79 10.2062 237.958 10.8362 238.126 11.4242C238.21 11.7182 238.21 11.9702 238.126 12.2642C237.958 12.7682 237.832 13.3142 237.706 13.8602C237.664 13.9442 237.664 14.0282 237.664 14.1542C238.336 14.3222 239.008 14.5322 239.638 14.7002C239.848 14.7422 240.016 14.8262 240.142 14.9942C240.52 15.4142 240.94 15.7922 241.318 16.1702C241.402 16.2542 241.486 16.3382 241.654 16.4642C242.116 16.0022 242.578 15.5402 242.998 15.0782C243.208 14.8682 243.46 14.7422 243.712 14.6582C244.258 14.5322 244.762 14.3642 245.308 14.2382C245.392 14.1962 245.476 14.1542 245.602 14.1122C245.434 13.4402 245.266 12.8102 245.098 12.1802C245.014 11.9702 245.014 11.7182 245.098 11.5082C245.266 10.9622 245.392 10.4582 245.518 9.91221C245.56 9.78621 245.56 9.66021 245.602 9.53421C244.93 9.36621 244.3 9.15621 243.67 9.03021C243.418 8.98821 243.25 8.86221 243.082 8.69421C242.704 8.27421 242.284 7.89621 241.906 7.51821C241.822 7.43421 241.738 7.39221 241.612 7.26621C241.15 7.72821 240.688 8.19021 240.268 8.65221C240.058 8.86221 239.806 8.98821 239.554 9.07221C238.882 9.19821 238.294 9.36621 237.622 9.53421Z" fill="url(#paint16_linear)"/>
<path fill-rule="evenodd" clip-rule="evenodd" d="M239.806 12.8941C240.142 12.1801 240.142 11.5501 239.848 10.8781C240.226 10.7521 240.562 10.7101 240.856 10.5421C241.15 10.3741 241.36 10.1221 241.612 9.87012C241.864 10.1221 242.074 10.3741 242.368 10.5421C242.662 10.7101 242.998 10.7521 243.334 10.8361C243.25 11.1721 243.124 11.5081 243.124 11.8441C243.124 12.1801 243.25 12.5161 243.334 12.8521C242.998 12.9781 242.62 13.0201 242.326 13.1881C242.032 13.3561 241.864 13.6081 241.57 13.9021C241.192 13.2721 240.604 12.9361 239.806 12.8941ZM240.352 12.6001C240.898 12.6841 241.276 12.9361 241.654 13.3561C241.99 12.8941 242.368 12.6841 242.956 12.6001C242.704 12.0961 242.788 11.6341 242.914 11.1301C242.368 11.0461 241.99 10.8361 241.654 10.3741C241.318 10.8361 240.898 11.0461 240.394 11.1301C240.562 11.6341 240.52 12.0961 240.352 12.6001Z" fill="url(#paint17_linear)"/>
<path fill-rule="evenodd" clip-rule="evenodd" d="M343.448 17.64C343.784 16.38 344.12 15.162 344.414 13.986C344.582 13.356 344.75 12.726 344.918 12.096C344.96 11.886 344.96 11.676 344.918 11.466C344.456 9.786 343.994 8.064 343.574 6.384C343.532 6.216 343.49 6.09 343.448 5.922C343.826 5.796 344.204 5.712 344.54 5.628C345.968 5.25 347.438 4.872 348.866 4.452C349.16 4.368 349.37 4.242 349.58 4.032C350.798 2.814 352.016 1.596 353.192 0.378C353.318 0.252 353.402 0.126 353.486 0C353.654 0.168 353.78 0.252 353.906 0.378C355.124 1.596 356.384 2.856 357.602 4.074C357.77 4.242 357.98 4.368 358.232 4.452C359.912 4.914 361.592 5.334 363.272 5.796C363.44 5.838 363.566 5.88 363.734 5.922C363.65 6.3 363.566 6.636 363.44 7.014C363.062 8.484 362.642 9.996 362.222 11.466C362.18 11.676 362.138 11.886 362.222 12.138C362.684 13.818 363.146 15.54 363.566 17.22C363.608 17.346 363.65 17.514 363.692 17.682C363.566 17.724 363.44 17.766 363.314 17.808C361.634 18.27 359.912 18.732 358.232 19.152C357.938 19.236 357.728 19.362 357.518 19.572C356.342 20.79 355.124 21.966 353.906 23.184C353.78 23.31 353.696 23.436 353.57 23.604C353.402 23.436 353.276 23.352 353.15 23.226C351.932 22.008 350.672 20.748 349.454 19.53C349.244 19.32 349.076 19.236 348.782 19.152C347.102 18.69 345.422 18.27 343.742 17.808C343.784 17.766 343.616 17.724 343.448 17.64ZM353.696 0.546C353.486 0.756 353.36 0.84 353.276 0.966C352.142 2.1 351.008 3.234 349.874 4.368C349.622 4.62 349.37 4.746 349.076 4.83C347.48 5.25 345.884 5.67 344.288 6.132C344.162 6.174 344.078 6.216 343.952 6.258C343.994 6.426 344.036 6.552 344.036 6.678C344.456 8.232 344.876 9.744 345.296 11.298C345.38 11.634 345.38 11.97 345.296 12.306C344.876 13.86 344.456 15.372 344.036 16.926C343.994 17.094 343.952 17.22 343.91 17.388C344.12 17.43 344.246 17.472 344.414 17.514C346.01 17.934 347.564 18.354 349.16 18.774C349.412 18.858 349.58 18.942 349.79 19.152C350.966 20.328 352.1 21.462 353.276 22.638C353.402 22.764 353.486 22.848 353.612 22.974C353.738 22.848 353.864 22.722 353.99 22.638C355.124 21.504 356.3 20.328 357.434 19.194C357.602 18.984 357.812 18.858 358.106 18.816C359.702 18.396 361.256 17.976 362.852 17.556C363.02 17.514 363.146 17.472 363.314 17.43C363.272 17.262 363.23 17.094 363.23 16.968C362.81 15.414 362.432 13.902 361.97 12.348C361.886 11.97 361.886 11.676 361.97 11.298C362.39 9.786 362.81 8.232 363.188 6.72C363.23 6.552 363.272 6.426 363.314 6.258C363.146 6.216 363.02 6.174 362.894 6.132C361.34 5.712 359.786 5.292 358.232 4.872C357.896 4.788 357.644 4.62 357.392 4.368C356.3 3.234 355.166 2.142 354.032 1.008C353.906 0.84 353.822 0.714 353.696 0.546Z" fill="url(#paint18_linear)"/>
<path fill-rule="evenodd" clip-rule="evenodd" d="M353.57 20.2018C353.234 19.8238 352.898 19.4878 352.562 19.1518C351.974 18.5638 351.386 17.9758 350.798 17.3878C350.63 17.2198 350.462 17.1358 350.252 17.0518C349.076 16.7578 347.942 16.4218 346.808 16.1278C346.682 16.0858 346.598 16.0438 346.472 16.0018C346.472 15.8758 346.514 15.7498 346.514 15.6658C346.808 14.4898 347.144 13.3138 347.438 12.1798C347.48 11.9698 347.48 11.7598 347.438 11.5498C347.102 10.4158 346.808 9.23982 346.514 8.10582C346.472 7.97982 346.472 7.89582 346.43 7.72782C346.598 7.68582 346.724 7.64382 346.892 7.60182C347.984 7.30782 349.118 7.01382 350.21 6.71982C350.462 6.63582 350.63 6.55182 350.84 6.34182C351.638 5.50182 352.478 4.70382 353.276 3.90582C353.36 3.82182 353.486 3.69582 353.612 3.56982C353.738 3.65382 353.822 3.77982 353.948 3.86382C354.746 4.66182 355.586 5.50182 356.384 6.29982C356.594 6.50982 356.804 6.63582 357.056 6.71982C358.148 7.01382 359.24 7.30782 360.332 7.60182C360.458 7.64382 360.584 7.68582 360.752 7.72782C360.71 7.85382 360.71 7.97982 360.71 8.06382C360.416 9.23982 360.08 10.4158 359.786 11.5498C359.744 11.7598 359.744 11.9698 359.786 12.1798C360.122 13.3138 360.416 14.4898 360.71 15.6238C360.752 15.7498 360.752 15.8338 360.794 15.9598C360.668 16.0018 360.584 16.0438 360.458 16.0858C359.324 16.3798 358.148 16.7158 357.014 17.0098C356.762 17.0938 356.552 17.1778 356.384 17.3878C355.586 18.2278 354.746 19.0258 353.948 19.8238C353.864 19.9078 353.78 20.0338 353.57 20.2018ZM353.612 19.5718C353.738 19.4458 353.864 19.3618 353.948 19.2358C354.704 18.4798 355.418 17.7658 356.174 17.0098C356.342 16.7998 356.552 16.7158 356.846 16.6318C357.854 16.3798 358.862 16.0858 359.87 15.8338C359.996 15.7918 360.122 15.7498 360.29 15.7078C360.248 15.5398 360.206 15.4138 360.206 15.2878C359.954 14.2798 359.66 13.2298 359.366 12.2218C359.282 11.9698 359.282 11.7598 359.366 11.5498C359.66 10.4998 359.912 9.44982 360.206 8.44182C360.248 8.31582 360.248 8.18982 360.29 8.02182C360.164 7.97982 360.08 7.93782 359.996 7.93782C358.946 7.64382 357.854 7.34982 356.804 7.09782C356.552 7.01382 356.342 6.92982 356.174 6.76182C355.418 6.00582 354.704 5.29182 353.948 4.53582C353.822 4.40982 353.738 4.32582 353.57 4.19982C353.444 4.32582 353.318 4.45182 353.192 4.53582C352.478 5.24982 351.722 6.00582 351.008 6.71982C350.798 6.92982 350.63 7.01382 350.336 7.09782C349.328 7.34982 348.362 7.60182 347.396 7.89582C347.228 7.93782 347.06 7.97982 346.892 8.06382C346.934 8.23182 346.976 8.35782 346.976 8.48382C347.228 9.49182 347.522 10.4998 347.774 11.5078C347.858 11.7598 347.858 12.0118 347.774 12.2638C347.48 13.2718 347.228 14.3218 346.934 15.3298C346.892 15.4558 346.892 15.5818 346.85 15.7498C347.018 15.7918 347.144 15.8338 347.27 15.8758C348.026 16.0858 348.782 16.3378 349.538 16.4638C350.378 16.6318 351.05 17.0098 351.596 17.6398C352.268 18.3118 352.94 18.8998 353.612 19.5718Z" fill="url(#paint19_linear)"/>
<path fill-rule="evenodd" clip-rule="evenodd" d="M340.214 9.61816C340.34 10.0382 340.424 10.4162 340.55 10.7942C340.802 11.5082 340.802 12.1802 340.55 12.8942C340.424 13.2722 340.34 13.6502 340.214 14.0702C339.92 13.9862 339.668 13.9442 339.416 13.8602C338.954 13.7342 338.45 13.6922 338.03 13.4402C337.652 13.2302 337.358 12.8102 337.022 12.4742C336.812 12.2642 336.644 12.0962 336.434 11.8442C336.812 11.4662 337.19 11.1302 337.526 10.7522C337.862 10.3742 338.282 10.1222 338.786 9.99616C339.206 9.91216 339.71 9.74416 340.214 9.61816ZM339.92 13.5662C340.088 12.9782 340.214 12.4322 340.382 11.9282C340.382 11.8862 340.382 11.8022 340.382 11.7602C340.256 11.2142 340.088 10.6682 339.92 10.1222C339.332 10.2902 338.786 10.4162 338.282 10.5842C338.24 10.5842 338.156 10.6262 338.156 10.6682C337.778 11.0462 337.358 11.4662 336.938 11.8862C337.358 12.3062 337.736 12.6842 338.114 13.0622C338.156 13.1042 338.24 13.1462 338.282 13.1882C338.828 13.2722 339.374 13.3982 339.92 13.5662Z" fill="url(#paint20_linear)"/>
<path fill-rule="evenodd" clip-rule="evenodd" d="M367.052 9.61816C367.766 9.82816 368.48 9.99616 369.152 10.1642C369.194 10.1642 369.278 10.2062 369.32 10.2482C369.824 10.7522 370.37 11.2982 370.916 11.8022C370.37 12.3482 369.866 12.8522 369.32 13.3982C369.278 13.4402 369.194 13.4822 369.11 13.4822C368.48 13.6502 367.85 13.8182 367.178 13.9862C367.136 13.9862 367.094 13.9862 367.01 13.9862C366.884 13.5242 366.758 13.0202 366.59 12.5582C366.422 12.0542 366.422 11.5922 366.59 11.0882C366.8 10.6262 366.884 10.1222 367.052 9.61816ZM367.304 10.1222C367.136 10.7102 367.01 11.2562 366.842 11.8022C366.842 11.8442 366.842 11.8442 366.842 11.8862C366.968 12.4322 367.136 12.9782 367.304 13.5662C367.892 13.3982 368.438 13.2722 368.984 13.1042C369.026 13.1042 369.026 13.0622 369.068 13.0622C369.488 12.6422 369.908 12.2222 370.328 11.8022C369.908 11.3822 369.53 11.0042 369.152 10.6682C369.11 10.6262 369.026 10.5842 368.984 10.5422C368.438 10.4162 367.892 10.2482 367.304 10.1222Z" fill="url(#paint21_linear)"/>
<path fill-rule="evenodd" clip-rule="evenodd" d="M353.654 17.0522C353.066 16.4642 352.52 15.9182 352.016 15.4142C351.806 15.2042 351.596 15.0782 351.344 14.9942C350.756 14.8682 350.168 14.6582 349.538 14.5322C349.412 14.4902 349.286 14.4482 349.16 14.4062C349.328 13.7342 349.496 13.0622 349.706 12.3902C349.832 12.0122 349.832 11.6762 349.706 11.2982C349.496 10.6262 349.328 9.95421 349.16 9.28221C349.328 9.24021 349.496 9.15621 349.622 9.15621C350.21 8.98821 350.798 8.82021 351.386 8.69421C351.638 8.65221 351.848 8.52621 352.016 8.35821C352.436 7.89621 352.898 7.47621 353.318 7.05621C353.402 6.97221 353.528 6.84621 353.654 6.76221C354.074 7.18221 354.494 7.56021 354.872 7.98021C355.292 8.44221 355.754 8.73621 356.384 8.86221C356.93 8.98821 357.476 9.15621 358.064 9.32421C358.022 9.45021 358.022 9.57621 357.98 9.70221C357.854 10.2482 357.686 10.8362 357.518 11.3822C357.392 11.7602 357.392 12.0542 357.518 12.4322C357.686 12.9782 357.812 13.5242 357.98 14.0702C358.022 14.1962 358.022 14.3642 358.064 14.5322C357.602 14.6582 357.182 14.8262 356.762 14.8682C355.88 14.9942 355.166 15.4142 354.578 16.1282C354.326 16.3802 353.99 16.6742 353.654 17.0522ZM349.622 9.53421C349.79 10.2062 349.958 10.8362 350.126 11.4242C350.21 11.7182 350.21 11.9702 350.126 12.2642C349.958 12.7682 349.832 13.3142 349.706 13.8602C349.664 13.9442 349.664 14.0282 349.664 14.1542C350.336 14.3222 351.008 14.5322 351.638 14.7002C351.848 14.7422 352.016 14.8262 352.142 14.9942C352.52 15.4142 352.94 15.7922 353.318 16.1702C353.402 16.2542 353.486 16.3382 353.654 16.4642C354.116 16.0022 354.578 15.5402 354.998 15.0782C355.208 14.8682 355.46 14.7422 355.712 14.6582C356.258 14.5322 356.762 14.3642 357.308 14.2382C357.392 14.1962 357.476 14.1542 357.602 14.1122C357.434 13.4402 357.266 12.8102 357.098 12.1802C357.014 11.9702 357.014 11.7182 357.098 11.5082C357.266 10.9622 357.392 10.4582 357.518 9.91221C357.56 9.78621 357.56 9.66021 357.602 9.53421C356.93 9.36621 356.3 9.15621 355.67 9.03021C355.418 8.98821 355.25 8.86221 355.082 8.69421C354.704 8.27421 354.284 7.89621 353.906 7.51821C353.822 7.43421 353.738 7.39221 353.612 7.26621C353.15 7.72821 352.688 8.19021 352.268 8.65221C352.058 8.86221 351.806 8.98821 351.554 9.07221C350.882 9.19821 350.294 9.36621 349.622 9.53421Z" fill="url(#paint22_linear)"/>
<path fill-rule="evenodd" clip-rule="evenodd" d="M351.806 12.8941C352.142 12.1801 352.142 11.5501 351.848 10.8781C352.226 10.7521 352.562 10.7101 352.856 10.5421C353.15 10.3741 353.36 10.1221 353.612 9.87012C353.864 10.1221 354.074 10.3741 354.368 10.5421C354.662 10.7101 354.998 10.7521 355.334 10.8361C355.25 11.1721 355.124 11.5081 355.124 11.8441C355.124 12.1801 355.25 12.5161 355.334 12.8521C354.998 12.9781 354.62 13.0201 354.326 13.1881C354.032 13.3561 353.864 13.6081 353.57 13.9021C353.192 13.2721 352.604 12.9361 351.806 12.8941ZM352.352 12.6001C352.898 12.6841 353.276 12.9361 353.654 13.3561C353.99 12.8941 354.368 12.6841 354.956 12.6001C354.704 12.0961 354.788 11.6341 354.914 11.1301C354.368 11.0461 353.99 10.8361 353.654 10.3741C353.318 10.8361 352.898 11.0461 352.394 11.1301C352.562 11.6341 352.52 12.0961 352.352 12.6001Z" fill="url(#paint23_linear)"/>
<path fill-rule="evenodd" clip-rule="evenodd" d="M455.448 17.64C455.784 16.38 456.12 15.162 456.414 13.986C456.582 13.356 456.75 12.726 456.918 12.096C456.96 11.886 456.96 11.676 456.918 11.466C456.456 9.786 455.994 8.064 455.574 6.384C455.532 6.216 455.49 6.09 455.448 5.922C455.826 5.796 456.204 5.712 456.54 5.628C457.968 5.25 459.438 4.872 460.866 4.452C461.16 4.368 461.37 4.242 461.58 4.032C462.798 2.814 464.016 1.596 465.192 0.378C465.318 0.252 465.402 0.126 465.486 0C465.654 0.168 465.78 0.252 465.906 0.378C467.124 1.596 468.384 2.856 469.602 4.074C469.77 4.242 469.98 4.368 470.232 4.452C471.912 4.914 473.592 5.334 475.272 5.796C475.44 5.838 475.566 5.88 475.734 5.922C475.65 6.3 475.566 6.636 475.44 7.014C475.062 8.484 474.642 9.996 474.222 11.466C474.18 11.676 474.138 11.886 474.222 12.138C474.684 13.818 475.146 15.54 475.566 17.22C475.608 17.346 475.65 17.514 475.692 17.682C475.566 17.724 475.44 17.766 475.314 17.808C473.634 18.27 471.912 18.732 470.232 19.152C469.938 19.236 469.728 19.362 469.518 19.572C468.342 20.79 467.124 21.966 465.906 23.184C465.78 23.31 465.696 23.436 465.57 23.604C465.402 23.436 465.276 23.352 465.15 23.226C463.932 22.008 462.672 20.748 461.454 19.53C461.244 19.32 461.076 19.236 460.782 19.152C459.102 18.69 457.422 18.27 455.742 17.808C455.784 17.766 455.616 17.724 455.448 17.64ZM465.696 0.546C465.486 0.756 465.36 0.84 465.276 0.966C464.142 2.1 463.008 3.234 461.874 4.368C461.622 4.62 461.37 4.746 461.076 4.83C459.48 5.25 457.884 5.67 456.288 6.132C456.162 6.174 456.078 6.216 455.952 6.258C455.994 6.426 456.036 6.552 456.036 6.678C456.456 8.232 456.876 9.744 457.296 11.298C457.38 11.634 457.38 11.97 457.296 12.306C456.876 13.86 456.456 15.372 456.036 16.926C455.994 17.094 455.952 17.22 455.91 17.388C456.12 17.43 456.246 17.472 456.414 17.514C458.01 17.934 459.564 18.354 461.16 18.774C461.412 18.858 461.58 18.942 461.79 19.152C462.966 20.328 464.1 21.462 465.276 22.638C465.402 22.764 465.486 22.848 465.612 22.974C465.738 22.848 465.864 22.722 465.99 22.638C467.124 21.504 468.3 20.328 469.434 19.194C469.602 18.984 469.812 18.858 470.106 18.816C471.702 18.396 473.256 17.976 474.852 17.556C475.02 17.514 475.146 17.472 475.314 17.43C475.272 17.262 475.23 17.094 475.23 16.968C474.81 15.414 474.432 13.902 473.97 12.348C473.886 11.97 473.886 11.676 473.97 11.298C474.39 9.786 474.81 8.232 475.188 6.72C475.23 6.552 475.272 6.426 475.314 6.258C475.146 6.216 475.02 6.174 474.894 6.132C473.34 5.712 471.786 5.292 470.232 4.872C469.896 4.788 469.644 4.62 469.392 4.368C468.3 3.234 467.166 2.142 466.032 1.008C465.906 0.84 465.822 0.714 465.696 0.546Z" fill="url(#paint24_linear)"/>
<path fill-rule="evenodd" clip-rule="evenodd" d="M465.57 20.2018C465.234 19.8238 464.898 19.4878 464.562 19.1518C463.974 18.5638 463.386 17.9758 462.798 17.3878C462.63 17.2198 462.462 17.1358 462.252 17.0518C461.076 16.7578 459.942 16.4218 458.808 16.1278C458.682 16.0858 458.598 16.0438 458.472 16.0018C458.472 15.8758 458.514 15.7498 458.514 15.6658C458.808 14.4898 459.144 13.3138 459.438 12.1798C459.48 11.9698 459.48 11.7598 459.438 11.5498C459.102 10.4158 458.808 9.23982 458.514 8.10582C458.472 7.97982 458.472 7.89582 458.43 7.72782C458.598 7.68582 458.724 7.64382 458.892 7.60182C459.984 7.30782 461.118 7.01382 462.21 6.71982C462.462 6.63582 462.63 6.55182 462.84 6.34182C463.638 5.50182 464.478 4.70382 465.276 3.90582C465.36 3.82182 465.486 3.69582 465.612 3.56982C465.738 3.65382 465.822 3.77982 465.948 3.86382C466.746 4.66182 467.586 5.50182 468.384 6.29982C468.594 6.50982 468.804 6.63582 469.056 6.71982C470.148 7.01382 471.24 7.30782 472.332 7.60182C472.458 7.64382 472.584 7.68582 472.752 7.72782C472.71 7.85382 472.71 7.97982 472.71 8.06382C472.416 9.23982 472.08 10.4158 471.786 11.5498C471.744 11.7598 471.744 11.9698 471.786 12.1798C472.122 13.3138 472.416 14.4898 472.71 15.6238C472.752 15.7498 472.752 15.8338 472.794 15.9598C472.668 16.0018 472.584 16.0438 472.458 16.0858C471.324 16.3798 470.148 16.7158 469.014 17.0098C468.762 17.0938 468.552 17.1778 468.384 17.3878C467.586 18.2278 466.746 19.0258 465.948 19.8238C465.864 19.9078 465.78 20.0338 465.57 20.2018ZM465.612 19.5718C465.738 19.4458 465.864 19.3618 465.948 19.2358C466.704 18.4798 467.418 17.7658 468.174 17.0098C468.342 16.7998 468.552 16.7158 468.846 16.6318C469.854 16.3798 470.862 16.0858 471.87 15.8338C471.996 15.7918 472.122 15.7498 472.29 15.7078C472.248 15.5398 472.206 15.4138 472.206 15.2878C471.954 14.2798 471.66 13.2298 471.366 12.2218C471.282 11.9698 471.282 11.7598 471.366 11.5498C471.66 10.4998 471.912 9.44982 472.206 8.44182C472.248 8.31582 472.248 8.18982 472.29 8.02182C472.164 7.97982 472.08 7.93782 471.996 7.93782C470.946 7.64382 469.854 7.34982 468.804 7.09782C468.552 7.01382 468.342 6.92982 468.174 6.76182C467.418 6.00582 466.704 5.29182 465.948 4.53582C465.822 4.40982 465.738 4.32582 465.57 4.19982C465.444 4.32582 465.318 4.45182 465.192 4.53582C464.478 5.24982 463.722 6.00582 463.008 6.71982C462.798 6.92982 462.63 7.01382 462.336 7.09782C461.328 7.34982 460.362 7.60182 459.396 7.89582C459.228 7.93782 459.06 7.97982 458.892 8.06382C458.934 8.23182 458.976 8.35782 458.976 8.48382C459.228 9.49182 459.522 10.4998 459.774 11.5078C459.858 11.7598 459.858 12.0118 459.774 12.2638C459.48 13.2718 459.228 14.3218 458.934 15.3298C458.892 15.4558 458.892 15.5818 458.85 15.7498C459.018 15.7918 459.144 15.8338 459.27 15.8758C460.026 16.0858 460.782 16.3378 461.538 16.4638C462.378 16.6318 463.05 17.0098 463.596 17.6398C464.268 18.3118 464.94 18.8998 465.612 19.5718Z" fill="url(#paint25_linear)"/>
<path fill-rule="evenodd" clip-rule="evenodd" d="M452.214 9.61816C452.34 10.0382 452.424 10.4162 452.55 10.7942C452.802 11.5082 452.802 12.1802 452.55 12.8942C452.424 13.2722 452.34 13.6502 452.214 14.0702C451.92 13.9862 451.668 13.9442 451.416 13.8602C450.954 13.7342 450.45 13.6922 450.03 13.4402C449.652 13.2302 449.358 12.8102 449.022 12.4742C448.812 12.2642 448.644 12.0962 448.434 11.8442C448.812 11.4662 449.19 11.1302 449.526 10.7522C449.862 10.3742 450.282 10.1222 450.786 9.99616C451.206 9.91216 451.71 9.74416 452.214 9.61816ZM451.92 13.5662C452.088 12.9782 452.214 12.4322 452.382 11.9282C452.382 11.8862 452.382 11.8022 452.382 11.7602C452.256 11.2142 452.088 10.6682 451.92 10.1222C451.332 10.2902 450.786 10.4162 450.282 10.5842C450.24 10.5842 450.156 10.6262 450.156 10.6682C449.778 11.0462 449.358 11.4662 448.938 11.8862C449.358 12.3062 449.736 12.6842 450.114 13.0622C450.156 13.1042 450.24 13.1462 450.282 13.1882C450.828 13.2722 451.374 13.3982 451.92 13.5662Z" fill="url(#paint26_linear)"/>
<path fill-rule="evenodd" clip-rule="evenodd" d="M479.052 9.61816C479.766 9.82816 480.48 9.99616 481.152 10.1642C481.194 10.1642 481.278 10.2062 481.32 10.2482C481.824 10.7522 482.37 11.2982 482.916 11.8022C482.37 12.3482 481.866 12.8522 481.32 13.3982C481.278 13.4402 481.194 13.4822 481.11 13.4822C480.48 13.6502 479.85 13.8182 479.178 13.9862C479.136 13.9862 479.094 13.9862 479.01 13.9862C478.884 13.5242 478.758 13.0202 478.59 12.5582C478.422 12.0542 478.422 11.5922 478.59 11.0882C478.8 10.6262 478.884 10.1222 479.052 9.61816ZM479.304 10.1222C479.136 10.7102 479.01 11.2562 478.842 11.8022C478.842 11.8442 478.842 11.8442 478.842 11.8862C478.968 12.4322 479.136 12.9782 479.304 13.5662C479.892 13.3982 480.438 13.2722 480.984 13.1042C481.026 13.1042 481.026 13.0622 481.068 13.0622C481.488 12.6422 481.908 12.2222 482.328 11.8022C481.908 11.3822 481.53 11.0042 481.152 10.6682C481.11 10.6262 481.026 10.5842 480.984 10.5422C480.438 10.4162 479.892 10.2482 479.304 10.1222Z" fill="url(#paint27_linear)"/>
<path fill-rule="evenodd" clip-rule="evenodd" d="M465.654 17.0522C465.066 16.4642 464.52 15.9182 464.016 15.4142C463.806 15.2042 463.596 15.0782 463.344 14.9942C462.756 14.8682 462.168 14.6582 461.538 14.5322C461.412 14.4902 461.286 14.4482 461.16 14.4062C461.328 13.7342 461.496 13.0622 461.706 12.3902C461.832 12.0122 461.832 11.6762 461.706 11.2982C461.496 10.6262 461.328 9.95421 461.16 9.28221C461.328 9.24021 461.496 9.15621 461.622 9.15621C462.21 8.98821 462.798 8.82021 463.386 8.69421C463.638 8.65221 463.848 8.52621 464.016 8.35821C464.436 7.89621 464.898 7.47621 465.318 7.05621C465.402 6.97221 465.528 6.84621 465.654 6.76221C466.074 7.18221 466.494 7.56021 466.872 7.98021C467.292 8.44221 467.754 8.73621 468.384 8.86221C468.93 8.98821 469.476 9.15621 470.064 9.32421C470.022 9.45021 470.022 9.57621 469.98 9.70221C469.854 10.2482 469.686 10.8362 469.518 11.3822C469.392 11.7602 469.392 12.0542 469.518 12.4322C469.686 12.9782 469.812 13.5242 469.98 14.0702C470.022 14.1962 470.022 14.3642 470.064 14.5322C469.602 14.6582 469.182 14.8262 468.762 14.8682C467.88 14.9942 467.166 15.4142 466.578 16.1282C466.326 16.3802 465.99 16.6742 465.654 17.0522ZM461.622 9.53421C461.79 10.2062 461.958 10.8362 462.126 11.4242C462.21 11.7182 462.21 11.9702 462.126 12.2642C461.958 12.7682 461.832 13.3142 461.706 13.8602C461.664 13.9442 461.664 14.0282 461.664 14.1542C462.336 14.3222 463.008 14.5322 463.638 14.7002C463.848 14.7422 464.016 14.8262 464.142 14.9942C464.52 15.4142 464.94 15.7922 465.318 16.1702C465.402 16.2542 465.486 16.3382 465.654 16.4642C466.116 16.0022 466.578 15.5402 466.998 15.0782C467.208 14.8682 467.46 14.7422 467.712 14.6582C468.258 14.5322 468.762 14.3642 469.308 14.2382C469.392 14.1962 469.476 14.1542 469.602 14.1122C469.434 13.4402 469.266 12.8102 469.098 12.1802C469.014 11.9702 469.014 11.7182 469.098 11.5082C469.266 10.9622 469.392 10.4582 469.518 9.91221C469.56 9.78621 469.56 9.66021 469.602 9.53421C468.93 9.36621 468.3 9.15621 467.67 9.03021C467.418 8.98821 467.25 8.86221 467.082 8.69421C466.704 8.27421 466.284 7.89621 465.906 7.51821C465.822 7.43421 465.738 7.39221 465.612 7.26621C465.15 7.72821 464.688 8.19021 464.268 8.65221C464.058 8.86221 463.806 8.98821 463.554 9.07221C462.882 9.19821 462.294 9.36621 461.622 9.53421Z" fill="url(#paint28_linear)"/>
<path fill-rule="evenodd" clip-rule="evenodd" d="M463.806 12.8941C464.142 12.1801 464.142 11.5501 463.848 10.8781C464.226 10.7521 464.562 10.7101 464.856 10.5421C465.15 10.3741 465.36 10.1221 465.612 9.87012C465.864 10.1221 466.074 10.3741 466.368 10.5421C466.662 10.7101 466.998 10.7521 467.334 10.8361C467.25 11.1721 467.124 11.5081 467.124 11.8441C467.124 12.1801 467.25 12.5161 467.334 12.8521C466.998 12.9781 466.62 13.0201 466.326 13.1881C466.032 13.3561 465.864 13.6081 465.57 13.9021C465.192 13.2721 464.604 12.9361 463.806 12.8941ZM464.352 12.6001C464.898 12.6841 465.276 12.9361 465.654 13.3561C465.99 12.8941 466.368 12.6841 466.956 12.6001C466.704 12.0961 466.788 11.6341 466.914 11.1301C466.368 11.0461 465.99 10.8361 465.654 10.3741C465.318 10.8361 464.898 11.0461 464.394 11.1301C464.562 11.6341 464.52 12.0961 464.352 12.6001Z" fill="url(#paint29_linear)"/>
<path fill-rule="evenodd" clip-rule="evenodd" d="M567.448 17.64C567.784 16.38 568.12 15.162 568.414 13.986C568.582 13.356 568.75 12.726 568.918 12.096C568.96 11.886 568.96 11.676 568.918 11.466C568.456 9.786 567.994 8.064 567.574 6.384C567.532 6.216 567.49 6.09 567.448 5.922C567.826 5.796 568.204 5.712 568.54 5.628C569.968 5.25 571.438 4.872 572.866 4.452C573.16 4.368 573.37 4.242 573.58 4.032C574.798 2.814 576.016 1.596 577.192 0.378C577.318 0.252 577.402 0.126 577.486 0C577.654 0.168 577.78 0.252 577.906 0.378C579.124 1.596 580.384 2.856 581.602 4.074C581.77 4.242 581.98 4.368 582.232 4.452C583.912 4.914 585.592 5.334 587.272 5.796C587.44 5.838 587.566 5.88 587.734 5.922C587.65 6.3 587.566 6.636 587.44 7.014C587.062 8.484 586.642 9.996 586.222 11.466C586.18 11.676 586.138 11.886 586.222 12.138C586.684 13.818 587.146 15.54 587.566 17.22C587.608 17.346 587.65 17.514 587.692 17.682C587.566 17.724 587.44 17.766 587.314 17.808C585.634 18.27 583.912 18.732 582.232 19.152C581.938 19.236 581.728 19.362 581.518 19.572C580.342 20.79 579.124 21.966 577.906 23.184C577.78 23.31 577.696 23.436 577.57 23.604C577.402 23.436 577.276 23.352 577.15 23.226C575.932 22.008 574.672 20.748 573.454 19.53C573.244 19.32 573.076 19.236 572.782 19.152C571.102 18.69 569.422 18.27 567.742 17.808C567.784 17.766 567.616 17.724 567.448 17.64ZM577.696 0.546C577.486 0.756 577.36 0.84 577.276 0.966C576.142 2.1 575.008 3.234 573.874 4.368C573.622 4.62 573.37 4.746 573.076 4.83C571.48 5.25 569.884 5.67 568.288 6.132C568.162 6.174 568.078 6.216 567.952 6.258C567.994 6.426 568.036 6.552 568.036 6.678C568.456 8.232 568.876 9.744 569.296 11.298C569.38 11.634 569.38 11.97 569.296 12.306C568.876 13.86 568.456 15.372 568.036 16.926C567.994 17.094 567.952 17.22 567.91 17.388C568.12 17.43 568.246 17.472 568.414 17.514C570.01 17.934 571.564 18.354 573.16 18.774C573.412 18.858 573.58 18.942 573.79 19.152C574.966 20.328 576.1 21.462 577.276 22.638C577.402 22.764 577.486 22.848 577.612 22.974C577.738 22.848 577.864 22.722 577.99 22.638C579.124 21.504 580.3 20.328 581.434 19.194C581.602 18.984 581.812 18.858 582.106 18.816C583.702 18.396 585.256 17.976 586.852 17.556C587.02 17.514 587.146 17.472 587.314 17.43C587.272 17.262 587.23 17.094 587.23 16.968C586.81 15.414 586.432 13.902 585.97 12.348C585.886 11.97 585.886 11.676 585.97 11.298C586.39 9.786 586.81 8.232 587.188 6.72C587.23 6.552 587.272 6.426 587.314 6.258C587.146 6.216 587.02 6.174 586.894 6.132C585.34 5.712 583.786 5.292 582.232 4.872C581.896 4.788 581.644 4.62 581.392 4.368C580.3 3.234 579.166 2.142 578.032 1.008C577.906 0.84 577.822 0.714 577.696 0.546Z" fill="url(#paint30_linear)"/>
<path fill-rule="evenodd" clip-rule="evenodd" d="M577.57 20.2018C577.234 19.8238 576.898 19.4878 576.562 19.1518C575.974 18.5638 575.386 17.9758 574.798 17.3878C574.63 17.2198 574.462 17.1358 574.252 17.0518C573.076 16.7578 571.942 16.4218 570.808 16.1278C570.682 16.0858 570.598 16.0438 570.472 16.0018C570.472 15.8758 570.514 15.7498 570.514 15.6658C570.808 14.4898 571.144 13.3138 571.438 12.1798C571.48 11.9698 571.48 11.7598 571.438 11.5498C571.102 10.4158 570.808 9.23982 570.514 8.10582C570.472 7.97982 570.472 7.89582 570.43 7.72782C570.598 7.68582 570.724 7.64382 570.892 7.60182C571.984 7.30782 573.118 7.01382 574.21 6.71982C574.462 6.63582 574.63 6.55182 574.84 6.34182C575.638 5.50182 576.478 4.70382 577.276 3.90582C577.36 3.82182 577.486 3.69582 577.612 3.56982C577.738 3.65382 577.822 3.77982 577.948 3.86382C578.746 4.66182 579.586 5.50182 580.384 6.29982C580.594 6.50982 580.804 6.63582 581.056 6.71982C582.148 7.01382 583.24 7.30782 584.332 7.60182C584.458 7.64382 584.584 7.68582 584.752 7.72782C584.71 7.85382 584.71 7.97982 584.71 8.06382C584.416 9.23982 584.08 10.4158 583.786 11.5498C583.744 11.7598 583.744 11.9698 583.786 12.1798C584.122 13.3138 584.416 14.4898 584.71 15.6238C584.752 15.7498 584.752 15.8338 584.794 15.9598C584.668 16.0018 584.584 16.0438 584.458 16.0858C583.324 16.3798 582.148 16.7158 581.014 17.0098C580.762 17.0938 580.552 17.1778 580.384 17.3878C579.586 18.2278 578.746 19.0258 577.948 19.8238C577.864 19.9078 577.78 20.0338 577.57 20.2018ZM577.612 19.5718C577.738 19.4458 577.864 19.3618 577.948 19.2358C578.704 18.4798 579.418 17.7658 580.174 17.0098C580.342 16.7998 580.552 16.7158 580.846 16.6318C581.854 16.3798 582.862 16.0858 583.87 15.8338C583.996 15.7918 584.122 15.7498 584.29 15.7078C584.248 15.5398 584.206 15.4138 584.206 15.2878C583.954 14.2798 583.66 13.2298 583.366 12.2218C583.282 11.9698 583.282 11.7598 583.366 11.5498C583.66 10.4998 583.912 9.44982 584.206 8.44182C584.248 8.31582 584.248 8.18982 584.29 8.02182C584.164 7.97982 584.08 7.93782 583.996 7.93782C582.946 7.64382 581.854 7.34982 580.804 7.09782C580.552 7.01382 580.342 6.92982 580.174 6.76182C579.418 6.00582 578.704 5.29182 577.948 4.53582C577.822 4.40982 577.738 4.32582 577.57 4.19982C577.444 4.32582 577.318 4.45182 577.192 4.53582C576.478 5.24982 575.722 6.00582 575.008 6.71982C574.798 6.92982 574.63 7.01382 574.336 7.09782C573.328 7.34982 572.362 7.60182 571.396 7.89582C571.228 7.93782 571.06 7.97982 570.892 8.06382C570.934 8.23182 570.976 8.35782 570.976 8.48382C571.228 9.49182 571.522 10.4998 571.774 11.5078C571.858 11.7598 571.858 12.0118 571.774 12.2638C571.48 13.2718 571.228 14.3218 570.934 15.3298C570.892 15.4558 570.892 15.5818 570.85 15.7498C571.018 15.7918 571.144 15.8338 571.27 15.8758C572.026 16.0858 572.782 16.3378 573.538 16.4638C574.378 16.6318 575.05 17.0098 575.596 17.6398C576.268 18.3118 576.94 18.8998 577.612 19.5718Z" fill="url(#paint31_linear)"/>
<path fill-rule="evenodd" clip-rule="evenodd" d="M564.214 9.61816C564.34 10.0382 564.424 10.4162 564.55 10.7942C564.802 11.5082 564.802 12.1802 564.55 12.8942C564.424 13.2722 564.34 13.6502 564.214 14.0702C563.92 13.9862 563.668 13.9442 563.416 13.8602C562.954 13.7342 562.45 13.6922 562.03 13.4402C561.652 13.2302 561.358 12.8102 561.022 12.4742C560.812 12.2642 560.644 12.0962 560.434 11.8442C560.812 11.4662 561.19 11.1302 561.526 10.7522C561.862 10.3742 562.282 10.1222 562.786 9.99616C563.206 9.91216 563.71 9.74416 564.214 9.61816ZM563.92 13.5662C564.088 12.9782 564.214 12.4322 564.382 11.9282C564.382 11.8862 564.382 11.8022 564.382 11.7602C564.256 11.2142 564.088 10.6682 563.92 10.1222C563.332 10.2902 562.786 10.4162 562.282 10.5842C562.24 10.5842 562.156 10.6262 562.156 10.6682C561.778 11.0462 561.358 11.4662 560.938 11.8862C561.358 12.3062 561.736 12.6842 562.114 13.0622C562.156 13.1042 562.24 13.1462 562.282 13.1882C562.828 13.2722 563.374 13.3982 563.92 13.5662Z" fill="url(#paint32_linear)"/>
<path fill-rule="evenodd" clip-rule="evenodd" d="M591.052 9.61816C591.766 9.82816 592.48 9.99616 593.152 10.1642C593.194 10.1642 593.278 10.2062 593.32 10.2482C593.824 10.7522 594.37 11.2982 594.916 11.8022C594.37 12.3482 593.866 12.8522 593.32 13.3982C593.278 13.4402 593.194 13.4822 593.11 13.4822C592.48 13.6502 591.85 13.8182 591.178 13.9862C591.136 13.9862 591.094 13.9862 591.01 13.9862C590.884 13.5242 590.758 13.0202 590.59 12.5582C590.422 12.0542 590.422 11.5922 590.59 11.0882C590.8 10.6262 590.884 10.1222 591.052 9.61816ZM591.304 10.1222C591.136 10.7102 591.01 11.2562 590.842 11.8022C590.842 11.8442 590.842 11.8442 590.842 11.8862C590.968 12.4322 591.136 12.9782 591.304 13.5662C591.892 13.3982 592.438 13.2722 592.984 13.1042C593.026 13.1042 593.026 13.0622 593.068 13.0622C593.488 12.6422 593.908 12.2222 594.328 11.8022C593.908 11.3822 593.53 11.0042 593.152 10.6682C593.11 10.6262 593.026 10.5842 592.984 10.5422C592.438 10.4162 591.892 10.2482 591.304 10.1222Z" fill="url(#paint33_linear)"/>
<path fill-rule="evenodd" clip-rule="evenodd" d="M577.654 17.0522C577.066 16.4642 576.52 15.9182 576.016 15.4142C575.806 15.2042 575.596 15.0782 575.344 14.9942C574.756 14.8682 574.168 14.6582 573.538 14.5322C573.412 14.4902 573.286 14.4482 573.16 14.4062C573.328 13.7342 573.496 13.0622 573.706 12.3902C573.832 12.0122 573.832 11.6762 573.706 11.2982C573.496 10.6262 573.328 9.95421 573.16 9.28221C573.328 9.24021 573.496 9.15621 573.622 9.15621C574.21 8.98821 574.798 8.82021 575.386 8.69421C575.638 8.65221 575.848 8.52621 576.016 8.35821C576.436 7.89621 576.898 7.47621 577.318 7.05621C577.402 6.97221 577.528 6.84621 577.654 6.76221C578.074 7.18221 578.494 7.56021 578.872 7.98021C579.292 8.44221 579.754 8.73621 580.384 8.86221C580.93 8.98821 581.476 9.15621 582.064 9.32421C582.022 9.45021 582.022 9.57621 581.98 9.70221C581.854 10.2482 581.686 10.8362 581.518 11.3822C581.392 11.7602 581.392 12.0542 581.518 12.4322C581.686 12.9782 581.812 13.5242 581.98 14.0702C582.022 14.1962 582.022 14.3642 582.064 14.5322C581.602 14.6582 581.182 14.8262 580.762 14.8682C579.88 14.9942 579.166 15.4142 578.578 16.1282C578.326 16.3802 577.99 16.6742 577.654 17.0522ZM573.622 9.53421C573.79 10.2062 573.958 10.8362 574.126 11.4242C574.21 11.7182 574.21 11.9702 574.126 12.2642C573.958 12.7682 573.832 13.3142 573.706 13.8602C573.664 13.9442 573.664 14.0282 573.664 14.1542C574.336 14.3222 575.008 14.5322 575.638 14.7002C575.848 14.7422 576.016 14.8262 576.142 14.9942C576.52 15.4142 576.94 15.7922 577.318 16.1702C577.402 16.2542 577.486 16.3382 577.654 16.4642C578.116 16.0022 578.578 15.5402 578.998 15.0782C579.208 14.8682 579.46 14.7422 579.712 14.6582C580.258 14.5322 580.762 14.3642 581.308 14.2382C581.392 14.1962 581.476 14.1542 581.602 14.1122C581.434 13.4402 581.266 12.8102 581.098 12.1802C581.014 11.9702 581.014 11.7182 581.098 11.5082C581.266 10.9622 581.392 10.4582 581.518 9.91221C581.56 9.78621 581.56 9.66021 581.602 9.53421C580.93 9.36621 580.3 9.15621 579.67 9.03021C579.418 8.98821 579.25 8.86221 579.082 8.69421C578.704 8.27421 578.284 7.89621 577.906 7.51821C577.822 7.43421 577.738 7.39221 577.612 7.26621C577.15 7.72821 576.688 8.19021 576.268 8.65221C576.058 8.86221 575.806 8.98821 575.554 9.07221C574.882 9.19821 574.294 9.36621 573.622 9.53421Z" fill="url(#paint34_linear)"/>
<path fill-rule="evenodd" clip-rule="evenodd" d="M575.806 12.8941C576.142 12.1801 576.142 11.5501 575.848 10.8781C576.226 10.7521 576.562 10.7101 576.856 10.5421C577.15 10.3741 577.36 10.1221 577.612 9.87012C577.864 10.1221 578.074 10.3741 578.368 10.5421C578.662 10.7101 578.998 10.7521 579.334 10.8361C579.25 11.1721 579.124 11.5081 579.124 11.8441C579.124 12.1801 579.25 12.5161 579.334 12.8521C578.998 12.9781 578.62 13.0201 578.326 13.1881C578.032 13.3561 577.864 13.6081 577.57 13.9021C577.192 13.2721 576.604 12.9361 575.806 12.8941ZM576.352 12.6001C576.898 12.6841 577.276 12.9361 577.654 13.3561C577.99 12.8941 578.368 12.6841 578.956 12.6001C578.704 12.0961 578.788 11.6341 578.914 11.1301C578.368 11.0461 577.99 10.8361 577.654 10.3741C577.318 10.8361 576.898 11.0461 576.394 11.1301C576.562 11.6341 576.52 12.0961 576.352 12.6001Z" fill="url(#paint35_linear)"/>
<path fill-rule="evenodd" clip-rule="evenodd" d="M679.448 17.64C679.784 16.38 680.12 15.162 680.414 13.986C680.582 13.356 680.75 12.726 680.918 12.096C680.96 11.886 680.96 11.676 680.918 11.466C680.456 9.786 679.994 8.064 679.574 6.384C679.532 6.216 679.49 6.09 679.448 5.922C679.826 5.796 680.204 5.712 680.54 5.628C681.968 5.25 683.438 4.872 684.866 4.452C685.16 4.368 685.37 4.242 685.58 4.032C686.798 2.814 688.016 1.596 689.192 0.378C689.318 0.252 689.402 0.126 689.486 0C689.654 0.168 689.78 0.252 689.906 0.378C691.124 1.596 692.384 2.856 693.602 4.074C693.77 4.242 693.98 4.368 694.232 4.452C695.912 4.914 697.592 5.334 699.272 5.796C699.44 5.838 699.566 5.88 699.734 5.922C699.65 6.3 699.566 6.636 699.44 7.014C699.062 8.484 698.642 9.996 698.222 11.466C698.18 11.676 698.138 11.886 698.222 12.138C698.684 13.818 699.146 15.54 699.566 17.22C699.608 17.346 699.65 17.514 699.692 17.682C699.566 17.724 699.44 17.766 699.314 17.808C697.634 18.27 695.912 18.732 694.232 19.152C693.938 19.236 693.728 19.362 693.518 19.572C692.342 20.79 691.124 21.966 689.906 23.184C689.78 23.31 689.696 23.436 689.57 23.604C689.402 23.436 689.276 23.352 689.15 23.226C687.932 22.008 686.672 20.748 685.454 19.53C685.244 19.32 685.076 19.236 684.782 19.152C683.102 18.69 681.422 18.27 679.742 17.808C679.784 17.766 679.616 17.724 679.448 17.64ZM689.696 0.546C689.486 0.756 689.36 0.84 689.276 0.966C688.142 2.1 687.008 3.234 685.874 4.368C685.622 4.62 685.37 4.746 685.076 4.83C683.48 5.25 681.884 5.67 680.288 6.132C680.162 6.174 680.078 6.216 679.952 6.258C679.994 6.426 680.036 6.552 680.036 6.678C680.456 8.232 680.876 9.744 681.296 11.298C681.38 11.634 681.38 11.97 681.296 12.306C680.876 13.86 680.456 15.372 680.036 16.926C679.994 17.094 679.952 17.22 679.91 17.388C680.12 17.43 680.246 17.472 680.414 17.514C682.01 17.934 683.564 18.354 685.16 18.774C685.412 18.858 685.58 18.942 685.79 19.152C686.966 20.328 688.1 21.462 689.276 22.638C689.402 22.764 689.486 22.848 689.612 22.974C689.738 22.848 689.864 22.722 689.99 22.638C691.124 21.504 692.3 20.328 693.434 19.194C693.602 18.984 693.812 18.858 694.106 18.816C695.702 18.396 697.256 17.976 698.852 17.556C699.02 17.514 699.146 17.472 699.314 17.43C699.272 17.262 699.23 17.094 699.23 16.968C698.81 15.414 698.432 13.902 697.97 12.348C697.886 11.97 697.886 11.676 697.97 11.298C698.39 9.786 698.81 8.232 699.188 6.72C699.23 6.552 699.272 6.426 699.314 6.258C699.146 6.216 699.02 6.174 698.894 6.132C697.34 5.712 695.786 5.292 694.232 4.872C693.896 4.788 693.644 4.62 693.392 4.368C692.3 3.234 691.166 2.142 690.032 1.008C689.906 0.84 689.822 0.714 689.696 0.546Z" fill="url(#paint36_linear)"/>
<path fill-rule="evenodd" clip-rule="evenodd" d="M689.57 20.2018C689.234 19.8238 688.898 19.4878 688.562 19.1518C687.974 18.5638 687.386 17.9758 686.798 17.3878C686.63 17.2198 686.462 17.1358 686.252 17.0518C685.076 16.7578 683.942 16.4218 682.808 16.1278C682.682 16.0858 682.598 16.0438 682.472 16.0018C682.472 15.8758 682.514 15.7498 682.514 15.6658C682.808 14.4898 683.144 13.3138 683.438 12.1798C683.48 11.9698 683.48 11.7598 683.438 11.5498C683.102 10.4158 682.808 9.23982 682.514 8.10582C682.472 7.97982 682.472 7.89582 682.43 7.72782C682.598 7.68582 682.724 7.64382 682.892 7.60182C683.984 7.30782 685.118 7.01382 686.21 6.71982C686.462 6.63582 686.63 6.55182 686.84 6.34182C687.638 5.50182 688.478 4.70382 689.276 3.90582C689.36 3.82182 689.486 3.69582 689.612 3.56982C689.738 3.65382 689.822 3.77982 689.948 3.86382C690.746 4.66182 691.586 5.50182 692.384 6.29982C692.594 6.50982 692.804 6.63582 693.056 6.71982C694.148 7.01382 695.24 7.30782 696.332 7.60182C696.458 7.64382 696.584 7.68582 696.752 7.72782C696.71 7.85382 696.71 7.97982 696.71 8.06382C696.416 9.23982 696.08 10.4158 695.786 11.5498C695.744 11.7598 695.744 11.9698 695.786 12.1798C696.122 13.3138 696.416 14.4898 696.71 15.6238C696.752 15.7498 696.752 15.8338 696.794 15.9598C696.668 16.0018 696.584 16.0438 696.458 16.0858C695.324 16.3798 694.148 16.7158 693.014 17.0098C692.762 17.0938 692.552 17.1778 692.384 17.3878C691.586 18.2278 690.746 19.0258 689.948 19.8238C689.864 19.9078 689.78 20.0338 689.57 20.2018ZM689.612 19.5718C689.738 19.4458 689.864 19.3618 689.948 19.2358C690.704 18.4798 691.418 17.7658 692.174 17.0098C692.342 16.7998 692.552 16.7158 692.846 16.6318C693.854 16.3798 694.862 16.0858 695.87 15.8338C695.996 15.7918 696.122 15.7498 696.29 15.7078C696.248 15.5398 696.206 15.4138 696.206 15.2878C695.954 14.2798 695.66 13.2298 695.366 12.2218C695.282 11.9698 695.282 11.7598 695.366 11.5498C695.66 10.4998 695.912 9.44982 696.206 8.44182C696.248 8.31582 696.248 8.18982 696.29 8.02182C696.164 7.97982 696.08 7.93782 695.996 7.93782C694.946 7.64382 693.854 7.34982 692.804 7.09782C692.552 7.01382 692.342 6.92982 692.174 6.76182C691.418 6.00582 690.704 5.29182 689.948 4.53582C689.822 4.40982 689.738 4.32582 689.57 4.19982C689.444 4.32582 689.318 4.45182 689.192 4.53582C688.478 5.24982 687.722 6.00582 687.008 6.71982C686.798 6.92982 686.63 7.01382 686.336 7.09782C685.328 7.34982 684.362 7.60182 683.396 7.89582C683.228 7.93782 683.06 7.97982 682.892 8.06382C682.934 8.23182 682.976 8.35782 682.976 8.48382C683.228 9.49182 683.522 10.4998 683.774 11.5078C683.858 11.7598 683.858 12.0118 683.774 12.2638C683.48 13.2718 683.228 14.3218 682.934 15.3298C682.892 15.4558 682.892 15.5818 682.85 15.7498C683.018 15.7918 683.144 15.8338 683.27 15.8758C684.026 16.0858 684.782 16.3378 685.538 16.4638C686.378 16.6318 687.05 17.0098 687.596 17.6398C688.268 18.3118 688.94 18.8998 689.612 19.5718Z" fill="url(#paint37_linear)"/>
<path fill-rule="evenodd" clip-rule="evenodd" d="M676.214 9.61816C676.34 10.0382 676.424 10.4162 676.55 10.7942C676.802 11.5082 676.802 12.1802 676.55 12.8942C676.424 13.2722 676.34 13.6502 676.214 14.0702C675.92 13.9862 675.668 13.9442 675.416 13.8602C674.954 13.7342 674.45 13.6922 674.03 13.4402C673.652 13.2302 673.358 12.8102 673.022 12.4742C672.812 12.2642 672.644 12.0962 672.434 11.8442C672.812 11.4662 673.19 11.1302 673.526 10.7522C673.862 10.3742 674.282 10.1222 674.786 9.99616C675.206 9.91216 675.71 9.74416 676.214 9.61816ZM675.92 13.5662C676.088 12.9782 676.214 12.4322 676.382 11.9282C676.382 11.8862 676.382 11.8022 676.382 11.7602C676.256 11.2142 676.088 10.6682 675.92 10.1222C675.332 10.2902 674.786 10.4162 674.282 10.5842C674.24 10.5842 674.156 10.6262 674.156 10.6682C673.778 11.0462 673.358 11.4662 672.938 11.8862C673.358 12.3062 673.736 12.6842 674.114 13.0622C674.156 13.1042 674.24 13.1462 674.282 13.1882C674.828 13.2722 675.374 13.3982 675.92 13.5662Z" fill="url(#paint38_linear)"/>
<path fill-rule="evenodd" clip-rule="evenodd" d="M703.052 9.61816C703.766 9.82816 704.48 9.99616 705.152 10.1642C705.194 10.1642 705.278 10.2062 705.32 10.2482C705.824 10.7522 706.37 11.2982 706.916 11.8022C706.37 12.3482 705.866 12.8522 705.32 13.3982C705.278 13.4402 705.194 13.4822 705.11 13.4822C704.48 13.6502 703.85 13.8182 703.178 13.9862C703.136 13.9862 703.094 13.9862 703.01 13.9862C702.884 13.5242 702.758 13.0202 702.59 12.5582C702.422 12.0542 702.422 11.5922 702.59 11.0882C702.8 10.6262 702.884 10.1222 703.052 9.61816ZM703.304 10.1222C703.136 10.7102 703.01 11.2562 702.842 11.8022C702.842 11.8442 702.842 11.8442 702.842 11.8862C702.968 12.4322 703.136 12.9782 703.304 13.5662C703.892 13.3982 704.438 13.2722 704.984 13.1042C705.026 13.1042 705.026 13.0622 705.068 13.0622C705.488 12.6422 705.908 12.2222 706.328 11.8022C705.908 11.3822 705.53 11.0042 705.152 10.6682C705.11 10.6262 705.026 10.5842 704.984 10.5422C704.438 10.4162 703.892 10.2482 703.304 10.1222Z" fill="url(#paint39_linear)"/>
<path fill-rule="evenodd" clip-rule="evenodd" d="M689.654 17.0522C689.066 16.4642 688.52 15.9182 688.016 15.4142C687.806 15.2042 687.596 15.0782 687.344 14.9942C686.756 14.8682 686.168 14.6582 685.538 14.5322C685.412 14.4902 685.286 14.4482 685.16 14.4062C685.328 13.7342 685.496 13.0622 685.706 12.3902C685.832 12.0122 685.832 11.6762 685.706 11.2982C685.496 10.6262 685.328 9.95421 685.16 9.28221C685.328 9.24021 685.496 9.15621 685.622 9.15621C686.21 8.98821 686.798 8.82021 687.386 8.69421C687.638 8.65221 687.848 8.52621 688.016 8.35821C688.436 7.89621 688.898 7.47621 689.318 7.05621C689.402 6.97221 689.528 6.84621 689.654 6.76221C690.074 7.18221 690.494 7.56021 690.872 7.98021C691.292 8.44221 691.754 8.73621 692.384 8.86221C692.93 8.98821 693.476 9.15621 694.064 9.32421C694.022 9.45021 694.022 9.57621 693.98 9.70221C693.854 10.2482 693.686 10.8362 693.518 11.3822C693.392 11.7602 693.392 12.0542 693.518 12.4322C693.686 12.9782 693.812 13.5242 693.98 14.0702C694.022 14.1962 694.022 14.3642 694.064 14.5322C693.602 14.6582 693.182 14.8262 692.762 14.8682C691.88 14.9942 691.166 15.4142 690.578 16.1282C690.326 16.3802 689.99 16.6742 689.654 17.0522ZM685.622 9.53421C685.79 10.2062 685.958 10.8362 686.126 11.4242C686.21 11.7182 686.21 11.9702 686.126 12.2642C685.958 12.7682 685.832 13.3142 685.706 13.8602C685.664 13.9442 685.664 14.0282 685.664 14.1542C686.336 14.3222 687.008 14.5322 687.638 14.7002C687.848 14.7422 688.016 14.8262 688.142 14.9942C688.52 15.4142 688.94 15.7922 689.318 16.1702C689.402 16.2542 689.486 16.3382 689.654 16.4642C690.116 16.0022 690.578 15.5402 690.998 15.0782C691.208 14.8682 691.46 14.7422 691.712 14.6582C692.258 14.5322 692.762 14.3642 693.308 14.2382C693.392 14.1962 693.476 14.1542 693.602 14.1122C693.434 13.4402 693.266 12.8102 693.098 12.1802C693.014 11.9702 693.014 11.7182 693.098 11.5082C693.266 10.9622 693.392 10.4582 693.518 9.91221C693.56 9.78621 693.56 9.66021 693.602 9.53421C692.93 9.36621 692.3 9.15621 691.67 9.03021C691.418 8.98821 691.25 8.86221 691.082 8.69421C690.704 8.27421 690.284 7.89621 689.906 7.51821C689.822 7.43421 689.738 7.39221 689.612 7.26621C689.15 7.72821 688.688 8.19021 688.268 8.65221C688.058 8.86221 687.806 8.98821 687.554 9.07221C686.882 9.19821 686.294 9.36621 685.622 9.53421Z" fill="url(#paint40_linear)"/>
<path fill-rule="evenodd" clip-rule="evenodd" d="M687.806 12.8941C688.142 12.1801 688.142 11.5501 687.848 10.8781C688.226 10.7521 688.562 10.7101 688.856 10.5421C689.15 10.3741 689.36 10.1221 689.612 9.87012C689.864 10.1221 690.074 10.3741 690.368 10.5421C690.662 10.7101 690.998 10.7521 691.334 10.8361C691.25 11.1721 691.124 11.5081 691.124 11.8441C691.124 12.1801 691.25 12.5161 691.334 12.8521C690.998 12.9781 690.62 13.0201 690.326 13.1881C690.032 13.3561 689.864 13.6081 689.57 13.9021C689.192 13.2721 688.604 12.9361 687.806 12.8941ZM688.352 12.6001C688.898 12.6841 689.276 12.9361 689.654 13.3561C689.99 12.8941 690.368 12.6841 690.956 12.6001C690.704 12.0961 690.788 11.6341 690.914 11.1301C690.368 11.0461 689.99 10.8361 689.654 10.3741C689.318 10.8361 688.898 11.0461 688.394 11.1301C688.562 11.6341 688.52 12.0961 688.352 12.6001Z" fill="url(#paint41_linear)"/>
<path fill-rule="evenodd" clip-rule="evenodd" d="M791.447 17.64C791.783 16.38 792.119 15.162 792.413 13.986C792.581 13.356 792.749 12.726 792.917 12.096C792.959 11.886 792.959 11.676 792.917 11.466C792.455 9.786 791.993 8.064 791.573 6.384C791.531 6.216 791.489 6.09 791.447 5.922C791.825 5.796 792.203 5.712 792.539 5.628C793.967 5.25 795.437 4.872 796.865 4.452C797.159 4.368 797.369 4.242 797.579 4.032C798.797 2.814 800.015 1.596 801.191 0.378C801.317 0.252 801.401 0.126 801.485 0C801.653 0.168 801.779 0.252 801.905 0.378C803.123 1.596 804.383 2.856 805.601 4.074C805.769 4.242 805.979 4.368 806.231 4.452C807.911 4.914 809.591 5.334 811.271 5.796C811.439 5.838 811.565 5.88 811.733 5.922C811.649 6.3 811.565 6.636 811.439 7.014C811.061 8.484 810.641 9.996 810.221 11.466C810.179 11.676 810.137 11.886 810.221 12.138C810.683 13.818 811.145 15.54 811.565 17.22C811.607 17.346 811.649 17.514 811.691 17.682C811.565 17.724 811.439 17.766 811.313 17.808C809.633 18.27 807.911 18.732 806.231 19.152C805.937 19.236 805.727 19.362 805.517 19.572C804.341 20.79 803.123 21.966 801.905 23.184C801.779 23.31 801.695 23.436 801.569 23.604C801.401 23.436 801.275 23.352 801.149 23.226C799.931 22.008 798.671 20.748 797.453 19.53C797.243 19.32 797.075 19.236 796.781 19.152C795.101 18.69 793.421 18.27 791.741 17.808C791.783 17.766 791.615 17.724 791.447 17.64ZM801.695 0.546C801.485 0.756 801.359 0.84 801.275 0.966C800.141 2.1 799.007 3.234 797.873 4.368C797.621 4.62 797.369 4.746 797.075 4.83C795.479 5.25 793.883 5.67 792.287 6.132C792.161 6.174 792.077 6.216 791.951 6.258C791.993 6.426 792.035 6.552 792.035 6.678C792.455 8.232 792.875 9.744 793.295 11.298C793.379 11.634 793.379 11.97 793.295 12.306C792.875 13.86 792.455 15.372 792.035 16.926C791.993 17.094 791.951 17.22 791.909 17.388C792.119 17.43 792.245 17.472 792.413 17.514C794.009 17.934 795.563 18.354 797.159 18.774C797.411 18.858 797.579 18.942 797.789 19.152C798.965 20.328 800.099 21.462 801.275 22.638C801.401 22.764 801.485 22.848 801.611 22.974C801.737 22.848 801.863 22.722 801.989 22.638C803.123 21.504 804.299 20.328 805.433 19.194C805.601 18.984 805.811 18.858 806.105 18.816C807.701 18.396 809.255 17.976 810.851 17.556C811.019 17.514 811.145 17.472 811.313 17.43C811.271 17.262 811.229 17.094 811.229 16.968C810.809 15.414 810.431 13.902 809.969 12.348C809.885 11.97 809.885 11.676 809.969 11.298C810.389 9.786 810.809 8.232 811.187 6.72C811.229 6.552 811.271 6.426 811.313 6.258C811.145 6.216 811.019 6.174 810.893 6.132C809.339 5.712 807.785 5.292 806.231 4.872C805.895 4.788 805.643 4.62 805.391 4.368C804.299 3.234 803.165 2.142 802.031 1.008C801.905 0.84 801.821 0.714 801.695 0.546Z" fill="url(#paint42_linear)"/>
<path fill-rule="evenodd" clip-rule="evenodd" d="M801.57 20.2018C801.234 19.8238 800.898 19.4878 800.562 19.1518C799.974 18.5638 799.386 17.9758 798.798 17.3878C798.63 17.2198 798.462 17.1358 798.252 17.0518C797.076 16.7578 795.942 16.4218 794.808 16.1278C794.682 16.0858 794.598 16.0438 794.472 16.0018C794.472 15.8758 794.514 15.7498 794.514 15.6658C794.808 14.4898 795.144 13.3138 795.438 12.1798C795.48 11.9698 795.48 11.7598 795.438 11.5498C795.102 10.4158 794.808 9.23982 794.514 8.10582C794.472 7.97982 794.472 7.89582 794.43 7.72782C794.598 7.68582 794.724 7.64382 794.892 7.60182C795.984 7.30782 797.118 7.01382 798.21 6.71982C798.462 6.63582 798.63 6.55182 798.84 6.34182C799.638 5.50182 800.478 4.70382 801.276 3.90582C801.36 3.82182 801.486 3.69582 801.612 3.56982C801.738 3.65382 801.822 3.77982 801.948 3.86382C802.746 4.66182 803.586 5.50182 804.384 6.29982C804.594 6.50982 804.804 6.63582 805.056 6.71982C806.148 7.01382 807.24 7.30782 808.332 7.60182C808.458 7.64382 808.584 7.68582 808.752 7.72782C808.71 7.85382 808.71 7.97982 808.71 8.06382C808.416 9.23982 808.08 10.4158 807.786 11.5498C807.744 11.7598 807.744 11.9698 807.786 12.1798C808.122 13.3138 808.416 14.4898 808.71 15.6238C808.752 15.7498 808.752 15.8338 808.794 15.9598C808.668 16.0018 808.584 16.0438 808.458 16.0858C807.324 16.3798 806.148 16.7158 805.014 17.0098C804.762 17.0938 804.552 17.1778 804.384 17.3878C803.586 18.2278 802.746 19.0258 801.948 19.8238C801.864 19.9078 801.78 20.0338 801.57 20.2018ZM801.612 19.5718C801.738 19.4458 801.864 19.3618 801.948 19.2358C802.704 18.4798 803.418 17.7658 804.174 17.0098C804.342 16.7998 804.552 16.7158 804.846 16.6318C805.854 16.3798 806.862 16.0858 807.87 15.8338C807.996 15.7918 808.122 15.7498 808.29 15.7078C808.248 15.5398 808.206 15.4138 808.206 15.2878C807.954 14.2798 807.66 13.2298 807.366 12.2218C807.282 11.9698 807.282 11.7598 807.366 11.5498C807.66 10.4998 807.912 9.44982 808.206 8.44182C808.248 8.31582 808.248 8.18982 808.29 8.02182C808.164 7.97982 808.08 7.93782 807.996 7.93782C806.946 7.64382 805.854 7.34982 804.804 7.09782C804.552 7.01382 804.342 6.92982 804.174 6.76182C803.418 6.00582 802.704 5.29182 801.948 4.53582C801.822 4.40982 801.738 4.32582 801.57 4.19982C801.444 4.32582 801.318 4.45182 801.192 4.53582C800.478 5.24982 799.722 6.00582 799.008 6.71982C798.798 6.92982 798.63 7.01382 798.336 7.09782C797.328 7.34982 796.362 7.60182 795.396 7.89582C795.228 7.93782 795.06 7.97982 794.892 8.06382C794.934 8.23182 794.976 8.35782 794.976 8.48382C795.228 9.49182 795.522 10.4998 795.774 11.5078C795.858 11.7598 795.858 12.0118 795.774 12.2638C795.48 13.2718 795.228 14.3218 794.934 15.3298C794.892 15.4558 794.892 15.5818 794.85 15.7498C795.018 15.7918 795.144 15.8338 795.27 15.8758C796.026 16.0858 796.782 16.3378 797.538 16.4638C798.378 16.6318 799.05 17.0098 799.596 17.6398C800.268 18.3118 800.94 18.8998 801.612 19.5718Z" fill="url(#paint43_linear)"/>
<path fill-rule="evenodd" clip-rule="evenodd" d="M788.214 9.61816C788.34 10.0382 788.424 10.4162 788.55 10.7942C788.802 11.5082 788.802 12.1802 788.55 12.8942C788.424 13.2722 788.34 13.6502 788.214 14.0702C787.92 13.9862 787.668 13.9442 787.416 13.8602C786.954 13.7342 786.45 13.6922 786.03 13.4402C785.652 13.2302 785.358 12.8102 785.022 12.4742C784.812 12.2642 784.644 12.0962 784.434 11.8442C784.812 11.4662 785.19 11.1302 785.526 10.7522C785.862 10.3742 786.282 10.1222 786.786 9.99616C787.206 9.91216 787.71 9.74416 788.214 9.61816ZM787.92 13.5662C788.088 12.9782 788.214 12.4322 788.382 11.9282C788.382 11.8862 788.382 11.8022 788.382 11.7602C788.256 11.2142 788.088 10.6682 787.92 10.1222C787.332 10.2902 786.786 10.4162 786.282 10.5842C786.24 10.5842 786.156 10.6262 786.156 10.6682C785.778 11.0462 785.358 11.4662 784.938 11.8862C785.358 12.3062 785.736 12.6842 786.114 13.0622C786.156 13.1042 786.24 13.1462 786.282 13.1882C786.828 13.2722 787.374 13.3982 787.92 13.5662Z" fill="url(#paint44_linear)"/>
<path fill-rule="evenodd" clip-rule="evenodd" d="M815.052 9.61816C815.766 9.82816 816.48 9.99616 817.152 10.1642C817.194 10.1642 817.278 10.2062 817.32 10.2482C817.824 10.7522 818.37 11.2982 818.916 11.8022C818.37 12.3482 817.866 12.8522 817.32 13.3982C817.278 13.4402 817.194 13.4822 817.11 13.4822C816.48 13.6502 815.85 13.8182 815.178 13.9862C815.136 13.9862 815.094 13.9862 815.01 13.9862C814.884 13.5242 814.758 13.0202 814.59 12.5582C814.422 12.0542 814.422 11.5922 814.59 11.0882C814.8 10.6262 814.884 10.1222 815.052 9.61816ZM815.304 10.1222C815.136 10.7102 815.01 11.2562 814.842 11.8022C814.842 11.8442 814.842 11.8442 814.842 11.8862C814.968 12.4322 815.136 12.9782 815.304 13.5662C815.892 13.3982 816.438 13.2722 816.984 13.1042C817.026 13.1042 817.026 13.0622 817.068 13.0622C817.488 12.6422 817.908 12.2222 818.328 11.8022C817.908 11.3822 817.53 11.0042 817.152 10.6682C817.11 10.6262 817.026 10.5842 816.984 10.5422C816.438 10.4162 815.892 10.2482 815.304 10.1222Z" fill="url(#paint45_linear)"/>
<path fill-rule="evenodd" clip-rule="evenodd" d="M801.653 17.0522C801.065 16.4642 800.519 15.9182 800.015 15.4142C799.805 15.2042 799.595 15.0782 799.343 14.9942C798.755 14.8682 798.167 14.6582 797.537 14.5322C797.411 14.4902 797.285 14.4482 797.159 14.4062C797.327 13.7342 797.495 13.0622 797.705 12.3902C797.831 12.0122 797.831 11.6762 797.705 11.2982C797.495 10.6262 797.327 9.95421 797.159 9.28221C797.327 9.24021 797.495 9.15621 797.621 9.15621C798.209 8.98821 798.797 8.82021 799.385 8.69421C799.637 8.65221 799.847 8.52621 800.015 8.35821C800.435 7.89621 800.897 7.47621 801.317 7.05621C801.401 6.97221 801.527 6.84621 801.653 6.76221C802.073 7.18221 802.493 7.56021 802.871 7.98021C803.291 8.44221 803.753 8.73621 804.383 8.86221C804.929 8.98821 805.475 9.15621 806.063 9.32421C806.021 9.45021 806.021 9.57621 805.979 9.70221C805.853 10.2482 805.685 10.8362 805.517 11.3822C805.391 11.7602 805.391 12.0542 805.517 12.4322C805.685 12.9782 805.811 13.5242 805.979 14.0702C806.021 14.1962 806.021 14.3642 806.063 14.5322C805.601 14.6582 805.181 14.8262 804.761 14.8682C803.879 14.9942 803.165 15.4142 802.577 16.1282C802.325 16.3802 801.989 16.6742 801.653 17.0522ZM797.621 9.53421C797.789 10.2062 797.957 10.8362 798.125 11.4242C798.209 11.7182 798.209 11.9702 798.125 12.2642C797.957 12.7682 797.831 13.3142 797.705 13.8602C797.663 13.9442 797.663 14.0282 797.663 14.1542C798.335 14.3222 799.007 14.5322 799.637 14.7002C799.847 14.7422 800.015 14.8262 800.141 14.9942C800.519 15.4142 800.939 15.7922 801.317 16.1702C801.401 16.2542 801.485 16.3382 801.653 16.4642C802.115 16.0022 802.577 15.5402 802.997 15.0782C803.207 14.8682 803.459 14.7422 803.711 14.6582C804.257 14.5322 804.761 14.3642 805.307 14.2382C805.391 14.1962 805.475 14.1542 805.601 14.1122C805.433 13.4402 805.265 12.8102 805.097 12.1802C805.013 11.9702 805.013 11.7182 805.097 11.5082C805.265 10.9622 805.391 10.4582 805.517 9.91221C805.559 9.78621 805.559 9.66021 805.601 9.53421C804.929 9.36621 804.299 9.15621 803.669 9.03021C803.417 8.98821 803.249 8.86221 803.081 8.69421C802.703 8.27421 802.283 7.89621 801.905 7.51821C801.821 7.43421 801.737 7.39221 801.611 7.26621C801.149 7.72821 800.687 8.19021 800.267 8.65221C800.057 8.86221 799.805 8.98821 799.553 9.07221C798.881 9.19821 798.293 9.36621 797.621 9.53421Z" fill="url(#paint46_linear)"/>
<path fill-rule="evenodd" clip-rule="evenodd" d="M799.806 12.8941C800.142 12.1801 800.142 11.5501 799.848 10.8781C800.226 10.7521 800.562 10.7101 800.856 10.5421C801.15 10.3741 801.36 10.1221 801.612 9.87012C801.864 10.1221 802.074 10.3741 802.368 10.5421C802.662 10.7101 802.998 10.7521 803.334 10.8361C803.25 11.1721 803.124 11.5081 803.124 11.8441C803.124 12.1801 803.25 12.5161 803.334 12.8521C802.998 12.9781 802.62 13.0201 802.326 13.1881C802.032 13.3561 801.864 13.6081 801.57 13.9021C801.192 13.2721 800.604 12.9361 799.806 12.8941ZM800.352 12.6001C800.898 12.6841 801.276 12.9361 801.654 13.3561C801.99 12.8941 802.368 12.6841 802.956 12.6001C802.704 12.0961 802.788 11.6341 802.914 11.1301C802.368 11.0461 801.99 10.8361 801.654 10.3741C801.318 10.8361 800.898 11.0461 800.394 11.1301C800.562 11.6341 800.52 12.0961 800.352 12.6001Z" fill="url(#paint47_linear)"/>
<defs>
<linearGradient id="paint0_linear" x1="-0.501192" y1="-7.43383" x2="4.61741" y2="25.6135" gradientUnits="userSpaceOnUse">
<stop stop-color="#F6C37E"/>
<stop offset="0.509329" stop-color="#D48E04"/>
<stop offset="1" stop-color="#BD6B2A"/>
</linearGradient>
<linearGradient id="paint1_linear" x1="4.8009" y1="-1.66825" x2="8.39085" y2="21.6231" gradientUnits="userSpaceOnUse">
<stop stop-color="#F6C37E"/>
<stop offset="0.509329" stop-color="#D48E04"/>
<stop offset="1" stop-color="#BD6B2A"/>
</linearGradient>
<linearGradient id="paint2_linear" x1="-1.2534" y1="8.21605" x2="-0.391101" y2="14.48" gradientUnits="userSpaceOnUse">
<stop stop-color="#F6C37E"/>
<stop offset="0.509329" stop-color="#D48E04"/>
<stop offset="1" stop-color="#BD6B2A"/>
</linearGradient>
<linearGradient id="paint3_linear" x1="28.7193" y1="8.24251" x2="29.5234" y2="14.3997" gradientUnits="userSpaceOnUse">
<stop stop-color="#F6C37E"/>
<stop offset="0.509329" stop-color="#D48E04"/>
<stop offset="1" stop-color="#BD6B2A"/>
</linearGradient>
<linearGradient id="paint4_linear" x1="9.67096" y1="3.52148" x2="11.8879" y2="17.9328" gradientUnits="userSpaceOnUse">
<stop stop-color="#F6C37E"/>
<stop offset="0.509329" stop-color="#D48E04"/>
<stop offset="1" stop-color="#BD6B2A"/>
</linearGradient>
<linearGradient id="paint5_linear" x1="14.4232" y1="8.60028" x2="15.2827" y2="14.25" gradientUnits="userSpaceOnUse">
<stop stop-color="#F6C37E"/>
<stop offset="0.509329" stop-color="#D48E04"/>
<stop offset="1" stop-color="#BD6B2A"/>
</linearGradient>
<linearGradient id="paint6_linear" x1="111.499" y1="-7.43383" x2="116.617" y2="25.6135" gradientUnits="userSpaceOnUse">
<stop stop-color="#F6C37E"/>
<stop offset="0.509329" stop-color="#D48E04"/>
<stop offset="1" stop-color="#BD6B2A"/>
</linearGradient>
<linearGradient id="paint7_linear" x1="116.801" y1="-1.66825" x2="120.391" y2="21.6231" gradientUnits="userSpaceOnUse">
<stop stop-color="#F6C37E"/>
<stop offset="0.509329" stop-color="#D48E04"/>
<stop offset="1" stop-color="#BD6B2A"/>
</linearGradient>
<linearGradient id="paint8_linear" x1="110.747" y1="8.21605" x2="111.609" y2="14.48" gradientUnits="userSpaceOnUse">
<stop stop-color="#F6C37E"/>
<stop offset="0.509329" stop-color="#D48E04"/>
<stop offset="1" stop-color="#BD6B2A"/>
</linearGradient>
<linearGradient id="paint9_linear" x1="140.719" y1="8.24251" x2="141.523" y2="14.3997" gradientUnits="userSpaceOnUse">
<stop stop-color="#F6C37E"/>
<stop offset="0.509329" stop-color="#D48E04"/>
<stop offset="1" stop-color="#BD6B2A"/>
</linearGradient>
<linearGradient id="paint10_linear" x1="121.671" y1="3.52148" x2="123.888" y2="17.9328" gradientUnits="userSpaceOnUse">
<stop stop-color="#F6C37E"/>
<stop offset="0.509329" stop-color="#D48E04"/>
<stop offset="1" stop-color="#BD6B2A"/>
</linearGradient>
<linearGradient id="paint11_linear" x1="126.423" y1="8.60028" x2="127.283" y2="14.25" gradientUnits="userSpaceOnUse">
<stop stop-color="#F6C37E"/>
<stop offset="0.509329" stop-color="#D48E04"/>
<stop offset="1" stop-color="#BD6B2A"/>
</linearGradient>
<linearGradient id="paint12_linear" x1="223.499" y1="-7.43383" x2="228.617" y2="25.6135" gradientUnits="userSpaceOnUse">
<stop stop-color="#F6C37E"/>
<stop offset="0.509329" stop-color="#D48E04"/>
<stop offset="1" stop-color="#BD6B2A"/>
</linearGradient>
<linearGradient id="paint13_linear" x1="228.801" y1="-1.66825" x2="232.391" y2="21.6231" gradientUnits="userSpaceOnUse">
<stop stop-color="#F6C37E"/>
<stop offset="0.509329" stop-color="#D48E04"/>
<stop offset="1" stop-color="#BD6B2A"/>
</linearGradient>
<linearGradient id="paint14_linear" x1="222.747" y1="8.21605" x2="223.609" y2="14.48" gradientUnits="userSpaceOnUse">
<stop stop-color="#F6C37E"/>
<stop offset="0.509329" stop-color="#D48E04"/>
<stop offset="1" stop-color="#BD6B2A"/>
</linearGradient>
<linearGradient id="paint15_linear" x1="252.719" y1="8.24251" x2="253.523" y2="14.3997" gradientUnits="userSpaceOnUse">
<stop stop-color="#F6C37E"/>
<stop offset="0.509329" stop-color="#D48E04"/>
<stop offset="1" stop-color="#BD6B2A"/>
</linearGradient>
<linearGradient id="paint16_linear" x1="233.671" y1="3.52148" x2="235.888" y2="17.9328" gradientUnits="userSpaceOnUse">
<stop stop-color="#F6C37E"/>
<stop offset="0.509329" stop-color="#D48E04"/>
<stop offset="1" stop-color="#BD6B2A"/>
</linearGradient>
<linearGradient id="paint17_linear" x1="238.423" y1="8.60028" x2="239.283" y2="14.25" gradientUnits="userSpaceOnUse">
<stop stop-color="#F6C37E"/>
<stop offset="0.509329" stop-color="#D48E04"/>
<stop offset="1" stop-color="#BD6B2A"/>
</linearGradient>
<linearGradient id="paint18_linear" x1="335.499" y1="-7.43383" x2="340.617" y2="25.6135" gradientUnits="userSpaceOnUse">
<stop stop-color="#F6C37E"/>
<stop offset="0.509329" stop-color="#D48E04"/>
<stop offset="1" stop-color="#BD6B2A"/>
</linearGradient>
<linearGradient id="paint19_linear" x1="340.801" y1="-1.66825" x2="344.391" y2="21.6231" gradientUnits="userSpaceOnUse">
<stop stop-color="#F6C37E"/>
<stop offset="0.509329" stop-color="#D48E04"/>
<stop offset="1" stop-color="#BD6B2A"/>
</linearGradient>
<linearGradient id="paint20_linear" x1="334.747" y1="8.21605" x2="335.609" y2="14.48" gradientUnits="userSpaceOnUse">
<stop stop-color="#F6C37E"/>
<stop offset="0.509329" stop-color="#D48E04"/>
<stop offset="1" stop-color="#BD6B2A"/>
</linearGradient>
<linearGradient id="paint21_linear" x1="364.719" y1="8.24251" x2="365.523" y2="14.3997" gradientUnits="userSpaceOnUse">
<stop stop-color="#F6C37E"/>
<stop offset="0.509329" stop-color="#D48E04"/>
<stop offset="1" stop-color="#BD6B2A"/>
</linearGradient>
<linearGradient id="paint22_linear" x1="345.671" y1="3.52148" x2="347.888" y2="17.9328" gradientUnits="userSpaceOnUse">
<stop stop-color="#F6C37E"/>
<stop offset="0.509329" stop-color="#D48E04"/>
<stop offset="1" stop-color="#BD6B2A"/>
</linearGradient>
<linearGradient id="paint23_linear" x1="350.423" y1="8.60028" x2="351.283" y2="14.25" gradientUnits="userSpaceOnUse">
<stop stop-color="#F6C37E"/>
<stop offset="0.509329" stop-color="#D48E04"/>
<stop offset="1" stop-color="#BD6B2A"/>
</linearGradient>
<linearGradient id="paint24_linear" x1="447.499" y1="-7.43383" x2="452.617" y2="25.6135" gradientUnits="userSpaceOnUse">
<stop stop-color="#F6C37E"/>
<stop offset="0.509329" stop-color="#D48E04"/>
<stop offset="1" stop-color="#BD6B2A"/>
</linearGradient>
<linearGradient id="paint25_linear" x1="452.801" y1="-1.66825" x2="456.391" y2="21.6231" gradientUnits="userSpaceOnUse">
<stop stop-color="#F6C37E"/>
<stop offset="0.509329" stop-color="#D48E04"/>
<stop offset="1" stop-color="#BD6B2A"/>
</linearGradient>
<linearGradient id="paint26_linear" x1="446.747" y1="8.21605" x2="447.609" y2="14.48" gradientUnits="userSpaceOnUse">
<stop stop-color="#F6C37E"/>
<stop offset="0.509329" stop-color="#D48E04"/>
<stop offset="1" stop-color="#BD6B2A"/>
</linearGradient>
<linearGradient id="paint27_linear" x1="476.719" y1="8.24251" x2="477.523" y2="14.3997" gradientUnits="userSpaceOnUse">
<stop stop-color="#F6C37E"/>
<stop offset="0.509329" stop-color="#D48E04"/>
<stop offset="1" stop-color="#BD6B2A"/>
</linearGradient>
<linearGradient id="paint28_linear" x1="457.671" y1="3.52148" x2="459.888" y2="17.9328" gradientUnits="userSpaceOnUse">
<stop stop-color="#F6C37E"/>
<stop offset="0.509329" stop-color="#D48E04"/>
<stop offset="1" stop-color="#BD6B2A"/>
</linearGradient>
<linearGradient id="paint29_linear" x1="462.423" y1="8.60028" x2="463.283" y2="14.25" gradientUnits="userSpaceOnUse">
<stop stop-color="#F6C37E"/>
<stop offset="0.509329" stop-color="#D48E04"/>
<stop offset="1" stop-color="#BD6B2A"/>
</linearGradient>
<linearGradient id="paint30_linear" x1="559.499" y1="-7.43383" x2="564.617" y2="25.6135" gradientUnits="userSpaceOnUse">
<stop stop-color="#F6C37E"/>
<stop offset="0.509329" stop-color="#D48E04"/>
<stop offset="1" stop-color="#BD6B2A"/>
</linearGradient>
<linearGradient id="paint31_linear" x1="564.801" y1="-1.66825" x2="568.391" y2="21.6231" gradientUnits="userSpaceOnUse">
<stop stop-color="#F6C37E"/>
<stop offset="0.509329" stop-color="#D48E04"/>
<stop offset="1" stop-color="#BD6B2A"/>
</linearGradient>
<linearGradient id="paint32_linear" x1="558.747" y1="8.21605" x2="559.609" y2="14.48" gradientUnits="userSpaceOnUse">
<stop stop-color="#F6C37E"/>
<stop offset="0.509329" stop-color="#D48E04"/>
<stop offset="1" stop-color="#BD6B2A"/>
</linearGradient>
<linearGradient id="paint33_linear" x1="588.719" y1="8.24251" x2="589.523" y2="14.3997" gradientUnits="userSpaceOnUse">
<stop stop-color="#F6C37E"/>
<stop offset="0.509329" stop-color="#D48E04"/>
<stop offset="1" stop-color="#BD6B2A"/>
</linearGradient>
<linearGradient id="paint34_linear" x1="569.671" y1="3.52148" x2="571.888" y2="17.9328" gradientUnits="userSpaceOnUse">
<stop stop-color="#F6C37E"/>
<stop offset="0.509329" stop-color="#D48E04"/>
<stop offset="1" stop-color="#BD6B2A"/>
</linearGradient>
<linearGradient id="paint35_linear" x1="574.423" y1="8.60028" x2="575.283" y2="14.25" gradientUnits="userSpaceOnUse">
<stop stop-color="#F6C37E"/>
<stop offset="0.509329" stop-color="#D48E04"/>
<stop offset="1" stop-color="#BD6B2A"/>
</linearGradient>
<linearGradient id="paint36_linear" x1="671.499" y1="-7.43383" x2="676.617" y2="25.6135" gradientUnits="userSpaceOnUse">
<stop stop-color="#F6C37E"/>
<stop offset="0.509329" stop-color="#D48E04"/>
<stop offset="1" stop-color="#BD6B2A"/>
</linearGradient>
<linearGradient id="paint37_linear" x1="676.801" y1="-1.66825" x2="680.391" y2="21.6231" gradientUnits="userSpaceOnUse">
<stop stop-color="#F6C37E"/>
<stop offset="0.509329" stop-color="#D48E04"/>
<stop offset="1" stop-color="#BD6B2A"/>
</linearGradient>
<linearGradient id="paint38_linear" x1="670.747" y1="8.21605" x2="671.609" y2="14.48" gradientUnits="userSpaceOnUse">
<stop stop-color="#F6C37E"/>
<stop offset="0.509329" stop-color="#D48E04"/>
<stop offset="1" stop-color="#BD6B2A"/>
</linearGradient>
<linearGradient id="paint39_linear" x1="700.719" y1="8.24251" x2="701.523" y2="14.3997" gradientUnits="userSpaceOnUse">
<stop stop-color="#F6C37E"/>
<stop offset="0.509329" stop-color="#D48E04"/>
<stop offset="1" stop-color="#BD6B2A"/>
</linearGradient>
<linearGradient id="paint40_linear" x1="681.671" y1="3.52148" x2="683.888" y2="17.9328" gradientUnits="userSpaceOnUse">
<stop stop-color="#F6C37E"/>
<stop offset="0.509329" stop-color="#D48E04"/>
<stop offset="1" stop-color="#BD6B2A"/>
</linearGradient>
<linearGradient id="paint41_linear" x1="686.423" y1="8.60028" x2="687.283" y2="14.25" gradientUnits="userSpaceOnUse">
<stop stop-color="#F6C37E"/>
<stop offset="0.509329" stop-color="#D48E04"/>
<stop offset="1" stop-color="#BD6B2A"/>
</linearGradient>
<linearGradient id="paint42_linear" x1="783.498" y1="-7.43383" x2="788.616" y2="25.6135" gradientUnits="userSpaceOnUse">
<stop stop-color="#F6C37E"/>
<stop offset="0.509329" stop-color="#D48E04"/>
<stop offset="1" stop-color="#BD6B2A"/>
</linearGradient>
<linearGradient id="paint43_linear" x1="788.801" y1="-1.66825" x2="792.391" y2="21.6231" gradientUnits="userSpaceOnUse">
<stop stop-color="#F6C37E"/>
<stop offset="0.509329" stop-color="#D48E04"/>
<stop offset="1" stop-color="#BD6B2A"/>
</linearGradient>
<linearGradient id="paint44_linear" x1="782.747" y1="8.21605" x2="783.609" y2="14.48" gradientUnits="userSpaceOnUse">
<stop stop-color="#F6C37E"/>
<stop offset="0.509329" stop-color="#D48E04"/>
<stop offset="1" stop-color="#BD6B2A"/>
</linearGradient>
<linearGradient id="paint45_linear" x1="812.719" y1="8.24251" x2="813.523" y2="14.3997" gradientUnits="userSpaceOnUse">
<stop stop-color="#F6C37E"/>
<stop offset="0.509329" stop-color="#D48E04"/>
<stop offset="1" stop-color="#BD6B2A"/>
</linearGradient>
<linearGradient id="paint46_linear" x1="793.67" y1="3.52148" x2="795.887" y2="17.9328" gradientUnits="userSpaceOnUse">
<stop stop-color="#F6C37E"/>
<stop offset="0.509329" stop-color="#D48E04"/>
<stop offset="1" stop-color="#BD6B2A"/>
</linearGradient>
<linearGradient id="paint47_linear" x1="798.423" y1="8.60028" x2="799.283" y2="14.25" gradientUnits="userSpaceOnUse">
<stop stop-color="#F6C37E"/>
<stop offset="0.509329" stop-color="#D48E04"/>
<stop offset="1" stop-color="#BD6B2A"/>
</linearGradient>
</defs>
</svg>
