<svg width="54" height="38" viewBox="0 0 54 38" fill="none" xmlns="http://www.w3.org/2000/svg">
<path fill-rule="evenodd" clip-rule="evenodd" d="M6.47692 6.63382C6.47692 6.63382 12.8153 3.64873 14.205 2.66099C15.5946 1.67325 18.9512 0 20.1372 0C20.67 0 23.2788 0.0430788 25.22 0.85077C27.5999 1.84093 29.3283 3.56517 29.3283 2.66099C29.3283 1.01925 37.0942 6.05378 38.0643 4.68534C39.0344 3.31691 47.3322 5.31683 47.3322 6.63382C47.3322 7.95081 51.8887 15.1369 51.8887 13.8978C51.8887 12.6587 55.1876 17.4778 53.5382 20.3908C51.8887 23.3039 53.9375 27.1873 51.8887 28.9988C49.84 30.8104 54.0442 35.4224 47.3322 35.4224C40.6203 35.4224 26.9354 37.848 24.0797 36.6352C21.2241 35.4224 14.849 40.2408 13.3463 36.6352C11.8436 33.0296 1.96888 32.281 1.96888 28.9988C1.96888 25.7167 -1.70137 26.5784 0.980354 21.9168C3.66208 17.2553 -0.553477 18.1149 1.96888 13.8978C4.49123 9.68064 6.47692 6.63382 6.47692 6.63382Z" fill="#ECF4F9"/>
<path d="M33.4765 22.4721H29.6206V37H23.7785V22.4721H21V17.3664H23.7785V14.0624C23.7785 11.6997 24.8698 8 29.6726 8L34 8.01862V12.9746H30.8602C30.3451 12.9746 29.621 13.2392 29.621 14.3663V17.3711H33.9869L33.4765 22.4721Z" fill="#4C4C4C"/>
</svg>
