<svg width="54" height="38" viewBox="0 0 54 38" fill="none" xmlns="http://www.w3.org/2000/svg">
<path fill-rule="evenodd" clip-rule="evenodd" d="M6.47692 6.63382C6.47692 6.63382 12.8153 3.64873 14.205 2.66099C15.5946 1.67325 18.9512 0 20.1372 0C20.67 0 23.2788 0.0430788 25.22 0.85077C27.5999 1.84093 29.3283 3.56517 29.3283 2.66099C29.3283 1.01925 37.0942 6.05378 38.0643 4.68534C39.0344 3.31691 47.3322 5.31683 47.3322 6.63382C47.3322 7.95081 51.8887 15.1369 51.8887 13.8978C51.8887 12.6587 55.1876 17.4778 53.5382 20.3908C51.8887 23.3039 53.9375 27.1873 51.8887 28.9988C49.84 30.8104 54.0442 35.4224 47.3322 35.4224C40.6203 35.4224 26.9354 37.848 24.0797 36.6352C21.2241 35.4224 14.849 40.2408 13.3463 36.6352C11.8436 33.0296 1.96888 32.281 1.96888 28.9988C1.96888 25.7167 -1.70137 26.5784 0.980354 21.9168C3.66208 17.2553 -0.553477 18.1149 1.96888 13.8978C4.49123 9.68064 6.47692 6.63382 6.47692 6.63382Z" fill="#ECF4F9"/>
<path fill-rule="evenodd" clip-rule="evenodd" d="M27.1886 27.9288H28.922C28.922 27.9288 29.4456 27.8698 29.7129 27.5736C29.959 27.3018 29.9511 26.7912 29.9511 26.7912C29.9511 26.7912 29.9173 24.4012 30.9968 24.0492C32.0609 23.7025 33.4274 26.3592 34.8758 27.3807C35.9711 28.1538 36.8034 27.9842 36.8034 27.9842L40.6762 27.9288C40.6762 27.9288 42.7021 27.8006 41.7415 26.1638C41.6628 26.0299 41.1821 24.953 38.862 22.7401C36.4337 20.4241 36.7589 20.7987 39.684 16.7925C41.4655 14.3527 42.1777 12.8632 41.9553 12.2252C41.7431 11.6176 40.4329 11.7782 40.4329 11.7782L36.0723 11.8061C36.0723 11.8061 35.7491 11.7608 35.5093 11.908C35.2751 12.0524 35.1243 12.389 35.1243 12.389C35.1243 12.389 34.4341 14.277 33.5137 15.8827C31.572 19.2707 30.7956 19.4496 30.4783 19.2392C29.7401 18.7489 29.9243 17.2695 29.9243 16.2185C29.9243 12.9352 30.409 11.5662 28.9807 11.2118C28.5067 11.0941 28.1578 11.0164 26.9457 11.0039C25.3898 10.9873 24.0729 11.0087 23.3272 11.3841C22.8311 11.6337 22.4485 12.19 22.6815 12.2219C22.9697 12.2616 23.6225 12.4028 23.9685 12.887C24.4154 13.5116 24.3996 14.9146 24.3996 14.9146C24.3996 14.9146 24.6563 18.7796 23.8 19.2598C23.2122 19.5891 22.406 18.9168 20.6749 15.843C19.7879 14.2685 19.1182 12.5282 19.1182 12.5282C19.1182 12.5282 18.9891 12.2029 18.7588 12.029C18.4792 11.8182 18.0887 11.7511 18.0887 11.7511L13.9451 11.779C13.9451 11.779 13.323 11.7968 13.0947 12.0747C12.8915 12.3219 13.0785 12.8332 13.0785 12.8332C13.0785 12.8332 16.3226 20.632 19.9958 24.5622C23.3638 28.1655 27.1886 27.9288 27.1886 27.9288Z" fill="#4C4C4C"/>
</svg>
