<svg width="20" height="28" viewBox="0 0 20 28" fill="none" xmlns="http://www.w3.org/2000/svg">
<path d="M9.66385 27.72C14.2194 27.72 17.9124 26.8923 17.9124 25.8713C17.9124 24.8503 14.2194 24.0226 9.66385 24.0226C5.10829 24.0226 1.41528 24.8503 1.41528 25.8713C1.41528 26.8923 5.10829 27.72 9.66385 27.72Z" fill="#EBF0F3"/>
<path d="M19.2797 9.61577C19.2797 16.8703 9.66394 26.2192 9.66394 26.2192C9.66394 26.2192 0.0480957 17.0149 0.0480957 9.61577C0.0480957 4.30513 4.35322 0 9.66387 0C14.9745 0 19.2797 4.30513 19.2797 9.61577Z" fill="#E56353"/>
<path d="M9.6638 17.4487C13.9897 17.4487 17.4965 13.9419 17.4965 9.61598C17.4965 5.29007 13.9897 1.78323 9.6638 1.78323C5.33789 1.78323 1.83105 5.29007 1.83105 9.61598C1.83105 13.9419 5.33789 17.4487 9.6638 17.4487Z" fill="#E1E6E9"/>
<path d="M9.6638 17.4487C13.9897 17.4487 17.4965 14.0807 17.4965 9.92607C17.4965 5.77144 13.9897 2.40344 9.6638 2.40344C5.33789 2.40344 1.83105 5.77144 1.83105 9.92607C1.83105 14.0807 5.33789 17.4487 9.6638 17.4487Z" fill="#EBF0F3"/>
<path d="M14.2706 5.00906L8.7373 8.68923L10.5905 10.5424L14.2706 5.00906Z" fill="#E56353"/>
<path d="M8.7373 8.68924L5.05713 14.2226L10.5904 10.5424L8.7373 8.68924Z" fill="#27A2DB"/>
<path d="M9.66355 10.5935C10.2038 10.5935 10.6418 10.1555 10.6418 9.61524C10.6418 9.07497 10.2038 8.63699 9.66355 8.63699C9.12328 8.63699 8.6853 9.07497 8.6853 9.61524C8.6853 10.1555 9.12328 10.5935 9.66355 10.5935Z" fill="#FCD462"/>
<path d="M10.4433 9.61231C10.4173 9.76642 10.3464 9.9143 10.2274 10.0332C9.92289 10.3378 9.42903 10.3378 9.12447 10.0332C8.97307 9.88181 8.89726 9.68358 8.89638 9.48514C8.85564 9.72574 8.92657 9.98164 9.11228 10.1673C9.41691 10.4719 9.9107 10.4718 10.2153 10.1673C10.3684 10.0141 10.4442 9.81305 10.4433 9.61231Z" fill="#F6C358"/>
</svg>
