<svg width="54" height="54" viewBox="0 0 54 54" fill="none" xmlns="http://www.w3.org/2000/svg">
<path d="M37.6799 33.3501L34.097 29.7587C33.3834 29.0463 32.2016 29.0679 31.4631 29.8084L29.658 31.6171C29.544 31.5542 29.4259 31.4883 29.3018 31.4185C28.1619 30.7855 26.6018 29.9179 24.9601 28.2712C23.3135 26.6211 22.4471 25.0551 21.8135 23.9119C21.7467 23.7908 21.6826 23.674 21.6194 23.5631L22.8308 22.3507L23.4264 21.753C24.1661 21.0115 24.1865 19.8273 23.4745 19.1129L19.8916 15.5211C19.1796 14.8076 17.9973 14.8293 17.2577 15.5708L16.2479 16.5887L16.2755 16.6161C15.9369 17.0491 15.6539 17.5486 15.4434 18.0871C15.2493 18.5998 15.1285 19.089 15.0732 19.5792C14.6001 23.5101 16.3924 27.1027 21.2564 31.9778C27.9799 38.7161 33.3982 38.2071 33.6319 38.1822C34.141 38.1212 34.6289 37.9993 35.1247 37.8063C35.6574 37.5978 36.1554 37.3146 36.5871 36.976L36.6092 36.9956L37.6322 35.9916C38.3703 35.2502 38.3915 34.0657 37.6799 33.3501Z" fill="#194168"/>
</svg>
