<svg width="75" height="75" viewBox="0 0 75 75" fill="none" xmlns="http://www.w3.org/2000/svg">
<path fill-rule="evenodd" clip-rule="evenodd" d="M43.4764 30.3399L37.7292 36.0871L31.982 30.3399C31.5288 29.8867 30.7931 29.8867 30.3399 30.3399C29.8867 30.7931 29.8867 31.5288 30.3399 31.982L36.0871 37.7292L30.3399 43.4764C29.8867 43.9296 29.8867 44.6652 30.3399 45.1184C30.7931 45.5716 31.5288 45.5716 31.982 45.1184L37.7292 39.3712L43.4764 45.1184C43.9296 45.5716 44.6652 45.5716 45.1184 45.1184C45.5716 44.6652 45.5716 43.9296 45.1184 43.4764L39.3712 37.7292L45.1184 31.982C45.5716 31.5288 45.5716 30.7931 45.1184 30.3399C44.6652 29.8867 43.9296 29.8867 43.4764 30.3399Z" fill="#AEAEAE"/>
</svg>
