<svg width="28" height="28" viewBox="0 0 28 28" fill="none" xmlns="http://www.w3.org/2000/svg">
<rect width="28" height="28" rx="6" fill="#D27C37"/>
<path d="M13.3245 7.98C15.3911 7.98 16.9778 8.34667 18.0845 9.08C19.1911 9.8 19.7445 10.9867 19.7445 12.64C19.7445 14.3067 19.1845 15.5133 18.0645 16.26C16.9445 16.9933 15.3445 17.36 13.2645 17.36H12.2845V22H9.16445V8.34C9.84445 8.20667 10.5645 8.11333 11.3245 8.06C12.0845 8.00667 12.7511 7.98 13.3245 7.98ZM13.5245 10.64C13.2978 10.64 13.0711 10.6467 12.8445 10.66C12.6311 10.6733 12.4445 10.6867 12.2845 10.7V14.7H13.2645C14.3445 14.7 15.1578 14.5533 15.7045 14.26C16.2511 13.9667 16.5245 13.42 16.5245 12.62C16.5245 12.2333 16.4511 11.9133 16.3045 11.66C16.1711 11.4067 15.9711 11.2067 15.7045 11.06C15.4511 10.9 15.1378 10.7933 14.7645 10.74C14.3911 10.6733 13.9778 10.64 13.5245 10.64Z" fill="#F2F2F2"/>
</svg>
