<svg width="28" height="28" viewBox="0 0 28 28" fill="none" xmlns="http://www.w3.org/2000/svg">
<rect width="28" height="28" rx="6" fill="#D27C37"/>
<path d="M6.17734 16.36H8.17734C8.67068 15.5067 9.05734 14.66 9.33734 13.82C9.61734 12.98 9.82401 12.1267 9.95734 11.26C10.104 10.3933 10.1907 9.5 10.2173 8.58C10.2573 7.66 10.2773 6.69333 10.2773 5.68V5.14H19.4373V16.36H21.8173V22.7H18.8173V19H9.17734V22.7H6.17734V16.36ZM13.2173 7.78C13.1907 8.5 13.144 9.24 13.0773 10C13.0107 10.76 12.9107 11.5133 12.7773 12.26C12.644 12.9933 12.464 13.7133 12.2373 14.42C12.024 15.1133 11.7507 15.76 11.4173 16.36H16.3973V7.78H13.2173Z" fill="#F2F2F2"/>
</svg>
