<svg width="28" height="28" viewBox="0 0 28 28" fill="none" xmlns="http://www.w3.org/2000/svg">
<rect width="28" height="28" rx="6" fill="#D27C37"/>
<path d="M10.3196 15.06C10.3196 15.74 10.3996 16.3533 10.5596 16.9C10.7329 17.4467 10.9729 17.92 11.2796 18.32C11.5996 18.7067 11.9863 19.0067 12.4396 19.22C12.8929 19.4333 13.4129 19.54 13.9996 19.54C14.5729 19.54 15.0863 19.4333 15.5396 19.22C16.0063 19.0067 16.3929 18.7067 16.6996 18.32C17.0196 17.92 17.2596 17.4467 17.4196 16.9C17.5929 16.3533 17.6796 15.74 17.6796 15.06C17.6796 14.38 17.5929 13.7667 17.4196 13.22C17.2596 12.66 17.0196 12.1867 16.6996 11.8C16.3929 11.4 16.0063 11.0933 15.5396 10.88C15.0863 10.6667 14.5729 10.56 13.9996 10.56C13.4129 10.56 12.8929 10.6733 12.4396 10.9C11.9863 11.1133 11.5996 11.42 11.2796 11.82C10.9729 12.2067 10.7329 12.68 10.5596 13.24C10.3996 13.7867 10.3196 14.3933 10.3196 15.06ZM20.8996 15.06C20.8996 16.2467 20.7196 17.2933 20.3596 18.2C20.0129 19.0933 19.5329 19.8467 18.9196 20.46C18.3063 21.06 17.5729 21.5133 16.7196 21.82C15.8796 22.1267 14.9729 22.28 13.9996 22.28C13.0529 22.28 12.1596 22.1267 11.3196 21.82C10.4796 21.5133 9.74628 21.06 9.11961 20.46C8.49294 19.8467 7.99961 19.0933 7.63961 18.2C7.27961 17.2933 7.09961 16.2467 7.09961 15.06C7.09961 13.8733 7.28628 12.8333 7.65961 11.94C8.03294 11.0333 8.53294 10.2733 9.15961 9.66C9.79961 9.04667 10.5329 8.58667 11.3596 8.28C12.1996 7.97333 13.0796 7.82 13.9996 7.82C14.9463 7.82 15.8396 7.97333 16.6796 8.28C17.5196 8.58667 18.2529 9.04667 18.8796 9.66C19.5063 10.2733 19.9996 11.0333 20.3596 11.94C20.7196 12.8333 20.8996 13.8733 20.8996 15.06Z" fill="#F2F2F2"/>
</svg>
