<svg width="118" height="101" viewBox="0 0 118 101" fill="none" xmlns="http://www.w3.org/2000/svg">
<path d="M53.1048 38.1641C53.338 38.4023 53.6586 38.5353 53.9921 38.5316C54.161 38.5353 54.3293 38.5056 54.4864 38.4431C54.7909 38.3076 55.0347 38.0638 55.1708 37.7588C55.2327 37.6016 55.263 37.4339 55.2593 37.2644C55.2624 36.9315 55.1299 36.611 54.8917 36.3777C54.776 36.2595 54.638 36.1649 54.4864 36.0987C54.2519 36.0114 53.9989 35.9848 53.7514 36.0226C53.6753 36.0479 53.5868 36.0733 53.5107 36.0987C53.4346 36.124 53.3585 36.1748 53.2947 36.2131C53.1605 36.3134 53.041 36.4334 52.9402 36.5677C52.9024 36.6308 52.8641 36.7069 52.8263 36.783C52.788 36.8591 52.7756 36.9476 52.7502 37.0237C52.7397 37.1035 52.7354 37.184 52.7372 37.2644C52.7335 37.4339 52.7638 37.6016 52.8263 37.7588C52.8919 37.911 52.9866 38.0483 53.1048 38.1641Z" fill="url(#paint0_linear)"/>
<path d="M50.4188 39.0643C50.0464 39.4207 49.935 39.972 50.1398 40.4453C50.201 40.5994 50.2963 40.738 50.4188 40.8506C50.654 41.095 50.9788 41.2324 51.3185 41.2311C51.4837 41.228 51.6471 41.1934 51.7999 41.1296C51.954 41.0684 52.0926 40.9731 52.2052 40.8506C52.3234 40.7349 52.418 40.5969 52.4842 40.4453C52.6692 39.9701 52.5603 39.4306 52.2052 39.0643C51.7046 38.5884 50.9194 38.5884 50.4188 39.0643Z" fill="url(#paint1_linear)"/>
<path d="M49.5184 41.7503C49.2845 41.5083 48.9622 41.3716 48.6256 41.3716C48.2883 41.3716 47.966 41.5083 47.7321 41.7503C47.6065 41.8653 47.5112 42.0089 47.453 42.1685C47.3881 42.3207 47.354 42.4847 47.3516 42.6499C47.3553 42.9884 47.492 43.3114 47.7321 43.5496C47.9709 43.7798 48.2877 43.9109 48.6188 43.9171C48.9547 43.9146 49.2771 43.7835 49.5184 43.5496C49.7548 43.3101 49.8872 42.9865 49.886 42.6499C49.8884 42.4853 49.8587 42.322 49.7975 42.1685C49.735 42.0114 49.6397 41.8691 49.5184 41.7503Z" fill="url(#paint2_linear)"/>
<path d="M53.9921 43.9171C54.1616 43.9153 54.3293 43.8812 54.4864 43.8163C54.6374 43.7544 54.7754 43.6641 54.8917 43.5496C55.1281 43.3101 55.2599 42.9865 55.2593 42.6499C55.2617 42.4853 55.2314 42.322 55.1708 42.1685C55.1077 42.0114 55.013 41.8691 54.8917 41.7503C54.6572 41.5083 54.3348 41.3716 53.9982 41.3716C53.6616 41.3716 53.3393 41.5083 53.1048 41.7503C52.9835 41.8691 52.8888 42.0114 52.8263 42.1685C52.7614 42.3207 52.7267 42.4847 52.7249 42.6499C52.7298 43.3479 53.2941 43.9128 53.9921 43.9171Z" fill="url(#paint3_linear)"/>
<path d="M52.2052 44.4368C51.7022 43.9678 50.9219 43.9678 50.4189 44.4368C50.2933 44.5519 50.198 44.6955 50.1398 44.8551C50.0749 45.0073 50.0402 45.1713 50.0384 45.3365C50.0353 45.8513 50.344 46.3166 50.8198 46.5146C51.295 46.712 51.8426 46.6018 52.2052 46.2362C52.4416 45.9967 52.574 45.6731 52.5728 45.3365C52.5752 45.1719 52.5449 45.0079 52.4843 44.8551C52.4218 44.698 52.3265 44.555 52.2052 44.4368Z" fill="url(#paint4_linear)"/>
<path d="M56.691 35.8456C56.8555 35.8481 57.0195 35.8177 57.1723 35.7565C57.3246 35.6909 57.4619 35.5962 57.5782 35.4781C57.7001 35.3654 57.7954 35.2268 57.8567 35.0722C57.9204 34.9199 57.9551 34.7566 57.9582 34.5908C57.9594 34.2517 57.822 33.9268 57.5782 33.6911C57.4656 33.5692 57.327 33.4739 57.1723 33.412C56.6978 33.2246 56.1564 33.3335 55.7913 33.6911C55.5506 33.9281 55.4182 34.2535 55.4238 34.5908C55.4238 34.9255 55.558 35.2466 55.7956 35.4824C56.0338 35.7181 56.3562 35.8487 56.691 35.8456Z" fill="url(#paint5_linear)"/>
<path d="M58.8964 33.0705C59.0492 33.1311 59.2132 33.1614 59.3778 33.159C59.7144 33.1596 60.038 33.0278 60.2774 32.7914C60.5107 32.5495 60.6425 32.2277 60.645 31.8918C60.6382 31.5601 60.507 31.2433 60.2774 31.0045C59.9111 30.6493 59.3716 30.5404 58.8964 30.726C58.7361 30.7836 58.5932 30.8795 58.4781 31.0045C58.3599 31.1208 58.2652 31.2582 58.199 31.4104C58.1384 31.5632 58.1081 31.7272 58.1106 31.8918C58.1044 32.229 58.2374 32.5544 58.4781 32.7914C58.5963 32.9127 58.7386 33.0074 58.8964 33.0705Z" fill="url(#paint6_linear)"/>
<path d="M49.5184 30.992C49.1515 30.6375 48.6101 30.5335 48.1374 30.7259C47.8193 30.841 47.5681 31.0916 47.453 31.4103C47.3881 31.5625 47.354 31.7258 47.3516 31.8917C47.354 32.2277 47.4858 32.5494 47.7191 32.7913C47.8453 32.9027 47.9858 32.9968 48.1374 33.0704C48.2908 33.131 48.4542 33.1613 48.6188 33.1589C48.7041 33.1632 48.7895 33.1545 48.8724 33.1335C48.9498 33.118 49.0265 33.097 49.1008 33.0704C49.1794 33.0326 49.2555 32.9906 49.3285 32.9435C49.3953 32.8965 49.4584 32.8458 49.5184 32.7913C49.5735 32.7313 49.6242 32.6676 49.6706 32.6014C49.7177 32.5277 49.7604 32.4516 49.7975 32.3731C49.8247 32.2988 49.8457 32.2227 49.8606 32.1447C49.8816 32.0624 49.8903 31.9771 49.886 31.8917C49.8884 31.7271 49.8587 31.5631 49.7975 31.4103C49.7239 31.2587 49.6304 31.1182 49.5184 30.992Z" fill="url(#paint7_linear)"/>
<path d="M52.2052 28.3054L52.0152 28.1532C51.876 28.0629 51.7213 27.9985 51.5592 27.9633C51.3123 27.9119 51.0556 27.9385 50.8241 28.0394C50.6725 28.1006 50.5352 28.191 50.4189 28.3054C50.1813 28.5455 50.0451 28.8679 50.0383 29.2051C50.0408 29.2899 50.0488 29.3746 50.0637 29.4588L50.1398 29.6865C50.1726 29.7651 50.211 29.8412 50.2537 29.9148C50.305 29.981 50.3601 30.0447 50.4189 30.1047C50.5352 30.2192 50.6725 30.3096 50.8241 30.3708C50.9745 30.442 51.1391 30.4766 51.3055 30.4723C51.3903 30.4704 51.4751 30.4618 51.5592 30.4469C51.7213 30.4116 51.876 30.3473 52.0152 30.257C52.0814 30.2099 52.1452 30.1592 52.2052 30.1047C52.2634 30.0478 52.3147 29.9841 52.3574 29.9148C52.4044 29.8418 52.4465 29.7651 52.4842 29.6865C52.5109 29.6122 52.5325 29.5361 52.5474 29.4588C52.5684 29.3759 52.5771 29.2905 52.5727 29.2051C52.5752 29.0405 52.5449 28.8765 52.4842 28.7237C52.4149 28.5696 52.3209 28.4286 52.2052 28.3054Z" fill="url(#paint8_linear)"/>
<path d="M46.8324 33.691C46.7718 33.6329 46.7086 33.5778 46.6418 33.5264C46.5688 33.4831 46.4927 33.4454 46.4141 33.412L46.1858 33.3365C45.9389 33.2845 45.6821 33.3111 45.4507 33.412C45.2942 33.4763 45.1519 33.571 45.0331 33.691C44.8029 33.9299 44.6717 34.2467 44.6655 34.5783C44.6674 34.6631 44.676 34.7479 44.6909 34.8314C44.7262 34.9941 44.7905 35.1482 44.8809 35.288L45.0331 35.478C45.1556 35.5937 45.2967 35.6877 45.4507 35.7564C45.6042 35.8177 45.7675 35.848 45.9327 35.8455C46.0175 35.8492 46.1029 35.8412 46.1858 35.8202C46.2638 35.8047 46.3399 35.7836 46.4141 35.7564C46.4927 35.7193 46.5688 35.6772 46.6418 35.6296C46.7117 35.5869 46.7755 35.5361 46.8324 35.478C46.8868 35.4173 46.9376 35.3542 46.984 35.288C47.0749 35.1482 47.1393 34.9941 47.1746 34.8314C47.1888 34.7479 47.1975 34.6631 47.1999 34.5783C47.2043 34.4119 47.1696 34.2467 47.0985 34.0963C47.0366 33.9453 46.9462 33.8074 46.8324 33.691Z" fill="url(#paint9_linear)"/>
<path d="M52.2052 33.6911C52.1452 33.6329 52.0814 33.5779 52.0152 33.5265C51.9459 33.4832 51.8742 33.4455 51.7999 33.4121C51.7238 33.3873 51.6353 33.3619 51.5592 33.3366C51.3123 33.2852 51.0556 33.3118 50.8241 33.4121C50.5191 33.5482 50.2753 33.792 50.1398 34.0964C50.0748 34.2492 50.0402 34.4126 50.0383 34.5784C50.0408 34.6632 50.0488 34.7479 50.0637 34.8315C50.0891 34.9076 50.1144 34.9961 50.1398 35.0722C50.1726 35.147 50.211 35.2188 50.2537 35.2881C50.305 35.3543 50.3601 35.4174 50.4189 35.4781C50.5346 35.5962 50.6719 35.6909 50.8241 35.7565C50.977 35.8178 51.1409 35.8481 51.3055 35.8456C51.3909 35.8493 51.4763 35.8413 51.5592 35.8202C51.6409 35.8048 51.7213 35.7837 51.7999 35.7565C51.8742 35.7194 51.9466 35.6767 52.0152 35.6297C52.1532 35.5424 52.2702 35.4261 52.3574 35.2881C52.4044 35.2188 52.4465 35.147 52.4842 35.0722C52.5109 34.9936 52.5325 34.9131 52.5474 34.8315C52.5684 34.7486 52.5771 34.6632 52.5727 34.5784C52.5752 34.4132 52.5449 34.2498 52.4842 34.0964C52.418 33.9448 52.3234 33.8068 52.2052 33.6911Z" fill="url(#paint10_linear)"/>
<path d="M52.8263 32.3861C52.8641 32.4616 52.9024 32.5253 52.9402 32.6014C52.9915 32.6676 53.0466 32.7313 53.1048 32.7913C53.1592 32.8526 53.2236 32.904 53.2947 32.9436C53.3622 32.9931 53.4346 33.0358 53.5107 33.0704C53.5893 33.097 53.6697 33.118 53.7514 33.1335C53.8299 33.1546 53.911 33.1632 53.9921 33.1589C54.3293 33.162 54.6535 33.0296 54.8917 32.7913C55.1324 32.5544 55.2648 32.2289 55.2593 31.8917C55.2636 31.8106 55.2549 31.7296 55.2339 31.651C55.2203 31.5687 55.1992 31.4883 55.1708 31.4103C55.1015 31.2562 55.0074 31.1145 54.8917 30.992C54.7754 30.8776 54.6374 30.7872 54.4864 30.726C54.255 30.6257 53.9982 30.5991 53.7514 30.6499C53.6678 30.6635 53.5868 30.6888 53.5107 30.726C53.4327 30.7507 53.3597 30.7897 53.2947 30.8398C53.2316 30.8905 53.1555 30.9413 53.1048 30.992C52.8684 31.2315 52.7366 31.5551 52.7372 31.8917C52.7354 31.9765 52.7397 32.0612 52.7502 32.1448C52.7756 32.2209 52.801 32.31 52.8263 32.3861Z" fill="url(#paint11_linear)"/>
<path d="M55.7913 30.1048C55.8457 30.166 55.9101 30.2174 55.9812 30.257C56.0505 30.304 56.1223 30.3461 56.1965 30.3838C56.2751 30.4105 56.3556 30.4321 56.4379 30.447C56.5201 30.468 56.6055 30.4767 56.6909 30.4723C57.0244 30.4754 57.3449 30.343 57.5782 30.1048C57.7032 29.9897 57.7991 29.8468 57.8566 29.6865C57.9216 29.5343 57.9563 29.371 57.9581 29.2051C57.9544 28.8673 57.8177 28.5437 57.5782 28.3055C57.4613 28.191 57.3239 28.1007 57.1723 28.0394C56.9415 27.9379 56.6847 27.9113 56.4379 27.9633C56.2751 27.9986 56.1204 28.0629 55.9812 28.1533C55.9181 28.204 55.842 28.2547 55.7913 28.3055C55.5549 28.5449 55.4231 28.8685 55.4237 29.2051C55.4212 29.3697 55.4516 29.5337 55.5122 29.6865C55.5753 29.8443 55.67 29.9866 55.7913 30.1048Z" fill="url(#paint12_linear)"/>
<path d="M49.7975 36.783C49.7628 36.7069 49.7201 36.6351 49.6706 36.5677C49.631 36.4959 49.5797 36.4315 49.5184 36.3777C49.4584 36.3189 49.3953 36.2638 49.3285 36.2131C49.2524 36.1747 49.1892 36.137 49.1131 36.0986C49.037 36.0609 48.9486 36.0479 48.8724 36.0225C48.4536 35.9501 48.0254 36.0819 47.7191 36.3777C47.6684 36.4284 47.6176 36.5045 47.5675 36.5677C47.5168 36.632 47.4784 36.705 47.453 36.783C47.4165 36.8591 47.3912 36.9401 47.3769 37.0237C47.3627 37.1035 47.354 37.1839 47.3516 37.2644C47.3522 37.4345 47.3868 37.6022 47.453 37.7587C47.5143 37.9103 47.6052 38.0477 47.7191 38.164C47.8422 38.2797 47.9833 38.3744 48.1374 38.4431C48.2153 38.4715 48.2964 38.4926 48.3781 38.5062C48.4567 38.5272 48.5377 38.5359 48.6188 38.5316C48.9566 38.5378 49.2821 38.4047 49.5184 38.164C49.7573 37.9258 49.8897 37.6016 49.886 37.2644C49.8903 37.1833 49.8816 37.1023 49.8606 37.0237C49.8457 36.942 49.8247 36.8616 49.7975 36.783Z" fill="url(#paint13_linear)"/>
<path d="M47.1108 39.4696C47.0737 39.3953 47.031 39.3229 46.984 39.2543C46.945 39.1825 46.8936 39.1181 46.8324 39.0643C46.7136 38.943 46.5713 38.8477 46.4141 38.7852C45.9389 38.5971 45.3975 38.7067 45.0331 39.0643C44.9823 39.1144 44.9316 39.1905 44.8809 39.2543C44.7905 39.3935 44.7262 39.5482 44.6909 39.7103C44.676 39.7938 44.6674 39.8786 44.6655 39.964C44.6717 40.295 44.8029 40.6118 45.0331 40.8506C45.2713 41.0907 45.5943 41.2275 45.9327 41.2312C46.0979 41.2287 46.2619 41.1947 46.4141 41.1297C46.5738 41.0715 46.7173 40.9762 46.8324 40.8506C47.07 40.6174 47.203 40.2969 47.1999 39.964C47.2036 39.8786 47.1956 39.7932 47.1746 39.7103C47.1591 39.6286 47.1381 39.5482 47.1108 39.4696Z" fill="url(#paint14_linear)"/>
<path d="M56.6911 41.2312C56.857 41.2287 57.0203 41.1947 57.1725 41.1297C57.4776 40.9936 57.7214 40.7498 57.8569 40.4454C57.9218 40.2932 57.9565 40.1292 57.9583 39.964C57.9596 39.6243 57.8222 39.2994 57.5784 39.0643C57.2789 38.7673 56.8514 38.6392 56.4381 38.7222C56.3558 38.737 56.2753 38.758 56.1968 38.7853C56.1213 38.823 56.0575 38.8614 55.9814 38.8991C55.8472 39 55.7277 39.1194 55.6269 39.2543C55.5885 39.3304 55.5508 39.3935 55.5124 39.4696C55.4858 39.5482 55.4648 39.6286 55.4493 39.7103C55.4283 39.7932 55.4196 39.8786 55.4239 39.964C55.4208 40.2969 55.5533 40.6174 55.7915 40.8507C56.0272 41.0951 56.3521 41.2324 56.6911 41.2312Z" fill="url(#paint15_linear)"/>
<path d="M58.4779 38.164C58.5961 38.2852 58.7384 38.3805 58.8962 38.443C59.0491 38.5043 59.213 38.534 59.3776 38.5315C59.7142 38.5327 60.0378 38.4009 60.2773 38.164C60.3917 38.0476 60.4821 37.9103 60.5433 37.7587C60.6083 37.6021 60.643 37.4345 60.6448 37.2643C60.6423 36.9326 60.5105 36.614 60.2773 36.3776C59.911 36.0218 59.3714 35.9129 58.8962 36.0986C58.7384 36.1611 58.5961 36.2564 58.4779 36.3776C58.2397 36.6109 58.1073 36.9314 58.1104 37.2643C58.1067 37.4338 58.137 37.6015 58.1989 37.7587C58.2651 37.9109 58.3598 38.0483 58.4779 38.164Z" fill="url(#paint16_linear)"/>
<path d="M61.5823 35.7565C61.7357 35.8177 61.8991 35.848 62.0643 35.8456C62.5735 35.8431 63.032 35.5362 63.2281 35.0665C63.4243 34.5963 63.3203 34.0549 62.9639 33.6911C62.5976 33.3359 62.0581 33.227 61.5823 33.412C61.4226 33.4702 61.2791 33.5661 61.1646 33.6911C60.6733 34.1854 60.6733 34.9836 61.1646 35.478C61.2828 35.5993 61.4251 35.694 61.5823 35.7565Z" fill="url(#paint17_linear)"/>
<path fill-rule="evenodd" clip-rule="evenodd" d="M115.836 97.4111L110.03 94.537C107.865 93.4753 106.496 91.27 106.505 88.8588V87.8551C106.502 84.6698 104.796 81.7295 102.032 80.1468L95.1823 76.2363C95.7089 74.8416 95.3723 73.2681 94.3204 72.2113L93.3966 71.2875C94.5741 69.8384 94.5202 67.7476 93.2704 66.361L71.8746 42.692L73.7111 40.8555C73.9487 40.6179 74.0823 40.2955 74.0823 39.9589C74.0823 39.623 73.9487 39.3006 73.7111 39.063L70.1273 35.4792C69.8897 35.2416 69.5673 35.1079 69.2313 35.1079C68.9863 35.1148 68.7481 35.1946 68.5482 35.3369C67.1313 28.5176 60.898 23.791 53.9494 24.2668C47.0009 24.742 41.4692 30.273 40.994 37.2222C40.5188 44.1708 45.2455 50.4041 52.0647 51.821C51.9224 52.0209 51.8426 52.2585 51.8352 52.5041C51.8352 52.8401 51.9688 53.1625 52.2064 53.4001L55.7902 56.9832C56.0278 57.2215 56.3502 57.3551 56.6868 57.3551C57.0234 57.3551 57.3457 57.2215 57.5833 56.9832L59.4179 55.1474L83.0932 76.5463C84.4748 77.8079 86.5743 77.8623 88.019 76.6731L88.9441 77.5981C90.1482 78.8109 92.0186 79.0596 93.4981 78.2039L100.776 82.3594C102.747 83.4874 103.965 85.5831 103.97 87.8551V88.8588C103.958 92.2365 105.878 95.3241 108.912 96.8078L114.719 99.6819C114.893 99.7667 115.085 99.81 115.279 99.8082C115.872 99.8137 116.389 99.4078 116.524 98.8305C116.66 98.2532 116.376 97.6592 115.843 97.4006L115.836 97.4111ZM46.8301 30.1023C50.0098 26.9219 54.7625 25.9078 58.9638 27.5128C63.1651 29.1172 66.0311 33.0413 66.2811 37.5322L65.6475 38.1658C66.0738 37.7383 66.1394 37.07 65.8041 36.5676C65.4693 36.0658 64.8271 35.8696 64.2689 36.0986C64.1149 36.1679 63.9738 36.2619 63.8507 36.3776C63.618 36.614 63.4862 36.9326 63.4831 37.2643C63.485 37.3497 63.4936 37.4344 63.5085 37.518C63.5227 37.6015 63.5481 37.6826 63.5846 37.7587C63.61 37.8366 63.6483 37.9096 63.6991 37.974C63.743 38.0421 63.7944 38.1058 63.8507 38.164C64.0907 38.4016 64.4131 38.5377 64.7503 38.5445C65.0854 38.5396 65.4046 38.4045 65.6417 38.1685L62.9652 40.8456C63.1979 40.6086 63.3291 40.2906 63.3315 39.9583C63.3284 39.7888 63.2938 39.6217 63.2301 39.4646C63.1688 39.313 63.0778 39.1756 62.964 39.0587C62.5977 38.7035 62.0581 38.5946 61.5823 38.7802C61.4252 38.8427 61.2829 38.938 61.1647 39.0587C61.0502 39.1756 60.9599 39.313 60.898 39.4646C60.8343 39.6217 60.8002 39.7888 60.7971 39.9583C60.7996 40.2906 60.9314 40.6086 61.1647 40.8456C61.2791 40.9706 61.4227 41.0665 61.5823 41.1247C61.7352 41.1896 61.8985 41.2237 62.0643 41.2255C62.3993 41.2212 62.719 41.0869 62.9568 40.8504L60.3003 43.5069C60.5138 43.2711 60.6356 42.9661 60.6424 42.6474C60.6406 42.4822 60.6059 42.3182 60.541 42.166C60.4828 42.0095 60.3919 41.8672 60.2749 41.7478C60.1487 41.6364 60.0082 41.5423 59.8566 41.4693C59.5479 41.3425 59.202 41.3425 58.8939 41.4693C58.5777 41.5993 58.3265 41.8498 58.1965 42.166C58.0783 42.476 58.0783 42.8188 58.1965 43.1294C58.2702 43.2804 58.3636 43.4215 58.4756 43.5471C58.5944 43.6646 58.7367 43.755 58.8939 43.8131C59.0461 43.8781 59.2094 43.9128 59.3752 43.9146C59.6933 43.9078 59.9983 43.7865 60.2341 43.5724L57.5784 46.2287C57.8142 45.9916 57.9491 45.6714 57.9534 45.3365C57.9515 45.1713 57.9169 45.0073 57.8519 44.8551C57.7937 44.6955 57.6984 44.5519 57.5734 44.4368C57.0754 43.9536 56.284 43.9536 55.7865 44.4368C55.6652 44.555 55.5706 44.698 55.5074 44.8551C55.4468 45.0079 55.4165 45.1719 55.419 45.3365C55.4177 45.6731 55.5501 45.9967 55.7865 46.2362C55.9028 46.3506 56.0408 46.441 56.1918 46.5022C56.3489 46.5666 56.5166 46.6006 56.6862 46.6037C57.0184 46.6018 57.3365 46.4707 57.5734 46.2374L54.8965 48.9143C55.1324 48.6772 55.2668 48.3575 55.2717 48.0231C55.2655 47.6853 55.1294 47.3635 54.8918 47.1235C54.8336 47.0665 54.7699 47.0158 54.7018 46.9712C54.6369 46.9211 54.5638 46.8828 54.4865 46.8574C54.4098 46.8203 54.3287 46.7949 54.2452 46.7813C53.8325 46.7039 53.4074 46.8314 53.1048 47.1235C52.9891 47.246 52.8951 47.3877 52.8264 47.5417C52.7614 47.6939 52.7268 47.8573 52.7249 48.0231C52.7224 48.5367 53.03 49.0007 53.5039 49.1987C53.9785 49.3961 54.5249 49.2885 54.8881 48.9253L54.2545 49.5589C49.7623 49.3083 45.8376 46.441 44.2338 42.2378C42.63 38.0346 43.6466 33.2814 46.8301 30.1023ZM54.8943 52.5041L56.6874 54.296L69.2313 41.7502L71.0232 39.9596L69.2313 38.167L54.8943 52.5041ZM84.7929 74.6659L61.2123 53.353L70.0827 44.4826L91.3937 68.065C91.846 68.5662 91.8268 69.3341 91.3492 69.8112L86.534 74.6269C86.0557 75.0996 85.2916 75.1169 84.7929 74.6659ZM89.84 74.9103L90.736 75.8062C91.231 76.3012 92.0335 76.3012 92.5285 75.8056C93.0229 75.3106 93.0229 74.5081 92.5279 74.0131L91.6332 73.1171L89.84 74.9103Z" fill="url(#paint18_linear)"/>
<path fill-rule="evenodd" clip-rule="evenodd" d="M116.115 29.1915C115.785 28.9533 115.361 28.8883 114.975 29.0164L99.7684 34.0852C99.2505 34.2578 98.9015 34.7423 98.9015 35.288V46.1298C98.1343 45.6737 97.2594 45.4306 96.3671 45.4256C93.5679 45.4256 91.2983 47.6946 91.2983 50.4944C91.2983 53.2937 93.5679 55.5632 96.3671 55.5632C99.1664 55.5632 101.436 53.2937 101.436 50.4944V36.2013L114.108 31.9765V41.061C113.341 40.6049 112.466 40.3618 111.574 40.3568C108.774 40.3568 106.505 42.6258 106.505 45.4256C106.505 48.2249 108.774 50.4944 111.574 50.4944C114.373 50.4944 116.642 48.2249 116.642 45.4256V30.2192C116.642 29.8115 116.446 29.4291 116.115 29.1915ZM96.3671 53.0288C94.9675 53.0288 93.8327 51.894 93.8327 50.4944C93.8327 49.0942 94.9675 47.96 96.3671 47.96C97.7668 47.96 98.9015 49.0942 98.9015 50.4944C98.9015 51.894 97.7668 53.0288 96.3671 53.0288ZM109.039 45.4256C109.039 46.8252 110.174 47.96 111.574 47.96C112.973 47.96 114.108 46.8252 114.108 45.4256C114.108 44.0254 112.973 42.8912 111.574 42.8912C110.174 42.8912 109.039 44.0254 109.039 45.4256Z" fill="url(#paint19_linear)"/>
<path fill-rule="evenodd" clip-rule="evenodd" d="M47.4883 77.6843L61.8065 73.6147C62.1151 73.5273 62.4472 73.5884 62.7034 73.7807C62.9595 73.9729 63.1104 74.2735 63.1104 74.5929V88.8365C63.1104 91.0839 61.2786 92.9061 59.0194 92.9061C56.7603 92.9061 54.9285 91.0839 54.9285 88.8365C54.9285 86.5886 56.7603 84.7669 59.0194 84.7669C59.7395 84.7709 60.4457 84.9661 61.0649 85.3322V80.0356L48.7922 83.5011V92.9061C48.7922 95.1535 46.9604 96.9757 44.7013 96.9757C42.4421 96.9757 40.6104 95.1535 40.6104 92.9061C40.6104 90.6582 42.4421 88.8365 44.7013 88.8365C45.4214 88.8405 46.1275 89.0357 46.7467 89.4018V78.6625C46.7467 78.2084 47.0493 77.8095 47.4883 77.6843ZM42.6558 92.9061C42.6558 94.0298 43.5717 94.9409 44.7013 94.9409C45.8309 94.9409 46.7467 94.0298 46.7467 92.9061C46.7467 91.7819 45.8309 90.8713 44.7013 90.8713C43.5717 90.8713 42.6558 91.7819 42.6558 92.9061ZM48.7922 81.3858V79.4295L61.0649 75.9416V77.9218L48.7922 81.3858ZM56.974 88.8365C56.974 89.9602 57.8898 90.8713 59.0194 90.8713C60.149 90.8713 61.0649 89.9602 61.0649 88.8365C61.0649 87.7123 60.149 86.8017 59.0194 86.8017C57.8898 86.8017 56.974 87.7123 56.974 88.8365Z" fill="url(#paint20_linear)"/>
<path d="M41.4939 12.4204C41.2237 12.7795 32.3176 13.4196 26.1749 21.9223C23.6735 25.3848 22.4856 30.6508 21.1919 36.9536C26.3907 24.8482 31.3633 19.0449 41.4939 12.4204Z" fill="url(#paint21_linear)"/>
<path d="M33.0018 5.68916C32.6809 6.114 22.1555 6.91043 14.8584 16.968C11.8868 21.0637 10.4589 27.2806 8.90112 34.7208C15.0997 20.4181 21.0018 13.5499 33.0018 5.68916Z" fill="url(#paint22_linear)"/>
<path d="M42.5661 23.4944C42.4395 23.6626 37.6437 24.903 34.5422 28.6376C32.9845 30.5132 32.7476 32.5214 31.9453 36.3387C34.7349 30.0333 37.2921 26.9756 42.5661 23.4944Z" fill="url(#paint23_linear)"/>
<defs>
<linearGradient id="paint0_linear" x1="33.4612" y1="37.3037" x2="59.255" y2="75.8742" gradientUnits="userSpaceOnUse">
<stop stop-color="#EBB367"/>
<stop offset="1" stop-color="#D27C37"/>
</linearGradient>
<linearGradient id="paint1_linear" x1="30.6707" y1="40.0041" x2="56.3849" y2="78.6742" gradientUnits="userSpaceOnUse">
<stop stop-color="#EBB367"/>
<stop offset="1" stop-color="#D27C37"/>
</linearGradient>
<linearGradient id="paint2_linear" x1="27.9858" y1="42.6795" x2="54.0087" y2="81.4749" gradientUnits="userSpaceOnUse">
<stop stop-color="#EBB367"/>
<stop offset="1" stop-color="#D27C37"/>
</linearGradient>
<linearGradient id="paint3_linear" x1="33.3591" y1="42.6795" x2="59.382" y2="81.4749" gradientUnits="userSpaceOnUse">
<stop stop-color="#EBB367"/>
<stop offset="1" stop-color="#D27C37"/>
</linearGradient>
<linearGradient id="paint4_linear" x1="30.6724" y1="45.3831" x2="56.4241" y2="84.0665" gradientUnits="userSpaceOnUse">
<stop stop-color="#EBB367"/>
<stop offset="1" stop-color="#D27C37"/>
</linearGradient>
<linearGradient id="paint5_linear" x1="36.0576" y1="34.6184" x2="61.7791" y2="73.2894" gradientUnits="userSpaceOnUse">
<stop stop-color="#EBB367"/>
<stop offset="1" stop-color="#D27C37"/>
</linearGradient>
<linearGradient id="paint6_linear" x1="38.7441" y1="31.9327" x2="64.4398" y2="70.5931" gradientUnits="userSpaceOnUse">
<stop stop-color="#EBB367"/>
<stop offset="1" stop-color="#D27C37"/>
</linearGradient>
<linearGradient id="paint7_linear" x1="27.9786" y1="31.9302" x2="53.7693" y2="70.64" gradientUnits="userSpaceOnUse">
<stop stop-color="#EBB367"/>
<stop offset="1" stop-color="#D27C37"/>
</linearGradient>
<linearGradient id="paint8_linear" x1="30.6654" y1="29.2402" x2="56.5345" y2="67.9826" gradientUnits="userSpaceOnUse">
<stop stop-color="#EBB367"/>
<stop offset="1" stop-color="#D27C37"/>
</linearGradient>
<linearGradient id="paint9_linear" x1="25.2981" y1="34.6134" x2="51.1834" y2="73.3546" gradientUnits="userSpaceOnUse">
<stop stop-color="#EBB367"/>
<stop offset="1" stop-color="#D27C37"/>
</linearGradient>
<linearGradient id="paint10_linear" x1="30.6654" y1="34.6137" x2="56.542" y2="73.3593" gradientUnits="userSpaceOnUse">
<stop stop-color="#EBB367"/>
<stop offset="1" stop-color="#D27C37"/>
</linearGradient>
<linearGradient id="paint11_linear" x1="33.4552" y1="31.9273" x2="59.3754" y2="70.5585" gradientUnits="userSpaceOnUse">
<stop stop-color="#EBB367"/>
<stop offset="1" stop-color="#D27C37"/>
</linearGradient>
<linearGradient id="paint12_linear" x1="36.0579" y1="29.2404" x2="61.9467" y2="67.9806" gradientUnits="userSpaceOnUse">
<stop stop-color="#EBB367"/>
<stop offset="1" stop-color="#D27C37"/>
</linearGradient>
<linearGradient id="paint13_linear" x1="27.9786" y1="37.3027" x2="53.7728" y2="76.0141" gradientUnits="userSpaceOnUse">
<stop stop-color="#EBB367"/>
<stop offset="1" stop-color="#D27C37"/>
</linearGradient>
<linearGradient id="paint14_linear" x1="25.2942" y1="39.9978" x2="51.1896" y2="78.7489" gradientUnits="userSpaceOnUse">
<stop stop-color="#EBB367"/>
<stop offset="1" stop-color="#D27C37"/>
</linearGradient>
<linearGradient id="paint15_linear" x1="36.0498" y1="39.9992" x2="61.9034" y2="78.7354" gradientUnits="userSpaceOnUse">
<stop stop-color="#EBB367"/>
<stop offset="1" stop-color="#D27C37"/>
</linearGradient>
<linearGradient id="paint16_linear" x1="38.7431" y1="37.3052" x2="64.4382" y2="75.9665" gradientUnits="userSpaceOnUse">
<stop stop-color="#EBB367"/>
<stop offset="1" stop-color="#D27C37"/>
</linearGradient>
<linearGradient id="paint17_linear" x1="41.466" y1="34.6192" x2="67.183" y2="73.2365" gradientUnits="userSpaceOnUse">
<stop stop-color="#EBB367"/>
<stop offset="1" stop-color="#D27C37"/>
</linearGradient>
<linearGradient id="paint18_linear" x1="-536.653" y1="63.0633" x2="234.579" y2="1218.16" gradientUnits="userSpaceOnUse">
<stop stop-color="#EBB367"/>
<stop offset="1" stop-color="#D27C37"/>
</linearGradient>
<linearGradient id="paint19_linear" x1="-102.348" y1="42.6246" x2="174.089" y2="436.82" gradientUnits="userSpaceOnUse">
<stop stop-color="#EBB367"/>
<stop offset="1" stop-color="#D27C37"/>
</linearGradient>
<linearGradient id="paint20_linear" x1="-131.306" y1="85.5984" x2="110.971" y2="434.405" gradientUnits="userSpaceOnUse">
<stop stop-color="#EBB367"/>
<stop offset="1" stop-color="#D27C37"/>
</linearGradient>
<linearGradient id="paint21_linear" x1="-22.152" y1="72.0528" x2="-49.0782" y2="38.8017" gradientUnits="userSpaceOnUse">
<stop stop-color="#E0A454"/>
<stop offset="1" stop-color="#BD6B2A"/>
</linearGradient>
<linearGradient id="paint22_linear" x1="-42.4724" y1="76.3223" x2="-74.131" y2="37.2273" gradientUnits="userSpaceOnUse">
<stop stop-color="#E0A454"/>
<stop offset="1" stop-color="#BD6B2A"/>
</linearGradient>
<linearGradient id="paint23_linear" x1="9.26166" y1="54.7076" x2="-3.98333" y2="38.3514" gradientUnits="userSpaceOnUse">
<stop stop-color="#E0A454"/>
<stop offset="1" stop-color="#BD6B2A"/>
</linearGradient>
</defs>
</svg>
